<?xml version="1.0" encoding="utf-8"?>
<!-- Generator: Adobe Illustrator 27.4.1, SVG Export Plug-In . SVG Version: 6.00 Build 0)  -->
<svg version="1.1" id="Layer_1" xmlns="http://www.w3.org/2000/svg" xmlns:xlink="http://www.w3.org/1999/xlink" x="0px" y="0px"
	 viewBox="0 0 132 199" style="enable-background:new 0 0 132 199;" xml:space="preserve">
<style type="text/css">
	.st0{fill:#FFDDBB;}
	.st1{fill:#EAC19B;}
	.st2{fill:#594A42;}
	.st3{fill:#FFD7E6;}
	.st4{fill:#EAA9C3;}
	.st5{fill:#FFE3EE;}
</style>
<path class="st0" d="M106,99.8l-0.7,1.7l-0.1,0.2l-4.9,11.6v0L100,114l-0.1,0.3l-4.6,10.9l-1.1,2.5l-3.5,8.3l-0.1,0.2l-0.4,0.8
	l-12,28.3l-0.2,0.5l-0.4,1l-9.5,22.4c-0.3,0.7-0.9,1.1-1.6,1.1c-0.7,0-1.5-0.3-1.8-1.1l-9.6-22.6l-0.4-1l-0.1-0.3l-12.1-28.5
	l-0.3-0.6l-0.2-0.4l-3.2-7.6l-1.1-2.5l-0.6-1.3l-4.4-10.4l0-0.1l-0.4-1l-1.5-3.6l-3.4-8l0-0.1l-0.7-1.6c0.4,0.2,0.7,0.3,1.1,0.4
	c0,0,0.1,0,0.2,0c0.7,0.2,1.5,0.3,2.3,0.3h24.4l0.5,0.5l0.3,0.3l0.2,0.2l0,0l10.6,10.6l6-6l4.6-4.6l0,0l0,0l0.4-0.4l0.5-0.5h24.4
	C103.7,100.5,104.9,100.2,106,99.8z"/>
<path class="st1" d="M66.5,190.4c-0.7,0-1.5-0.3-1.8-1.1l-9.6-22.6l-0.4-1l-0.1-0.3l-12.1-28.5l-0.3-0.6l-0.2-0.4l-3.2-7.6l-1.1-2.5
	l-0.6-1.3l-4.4-10.4l0-0.1l-0.4-1l-1.5-3.6l-2.7-6.5h1.1l3.9,9.3l0.4,1l6.2,14.5l1.1,2.5l2,4.8l0.4,1l12.3,28.8l0.4,1L66.5,190.4z"
	/>
<path class="st1" d="M106,99.8l-0.7,1.7l-0.1,0.2c-4,0.6-9,1.3-14.4,2.1c-0.4,0.1-0.8,0.1-1.3,0.2c-5,0.7-10.5,1.4-16.1,2.1
	c-0.3,0-0.5,0.1-0.8,0.1h0c-0.1,0-0.1,0-0.2,0c-0.2,0-0.4,0.1-0.7,0.1c-3.3,0.4-6.6,0.8-9.9,1.1c-0.1,0-0.2,0-0.2,0
	c-0.1,0-0.3,0-0.4,0c-0.2,0-0.4,0-0.6,0.1c-8,0.8-15.9,1.5-22.8,1.8c-0.5,0-1,0-1.5,0.1c-1.8,0.1-3.6,0.1-5.3,0.1l-3.4-8l-0.7-1.7
	c1.1,0.5,2.3,0.7,3.5,0.7H45l0.3-0.4l0.3,0.4h8.6l0.3-0.4l0.9,0.9H77l0.9-0.9l0.3,0.4h8.6l0.3-0.4l0.3,0.4h15
	C103.7,100.5,104.9,100.2,106,99.8z"/>
<g>
	<polygon class="st2" points="100.3,113.3 100.3,113.3 100,114 99.8,114.3 89.5,104 86.4,100.9 86.8,100.5 87.1,100.1 87.5,100.5 
		90.7,103.8 	"/>
	<g>
		<path class="st0" d="M55.3,101.5l5.9,5.9l5.1,5.1h0l0.4-0.4l6-6h0l4.6-4.6H55.3z M75.9,102l-4.2,4.2l-5.5,5.5l-4.4-4.4l-5.3-5.3
			H75.9z"/>
		<path class="st2" d="M54.1,101l11.4,11.4l0.4,0.4l0.4,0.4l0.4-0.4l0.4-0.4l6.5-6.4l5-5H54.1z M75.9,102l-4.2,4.2l-5.5,5.5
			l-4.4-4.4l-5.3-5.3H75.9z"/>
		<path class="st1" d="M75.9,102l-4.2,4.2c-3.3,0.4-6.6,0.8-9.9,1.1l-5.3-5.3H75.9z"/>
		<path class="st0" d="M71.8,106.2l-5.5,5.5l-4.4-4.4C65.2,107,68.5,106.6,71.8,106.2z"/>
	</g>
	<polygon class="st2" points="55.7,101.2 55.5,101.3 55.3,101.5 55,101.9 54.1,101 53.9,100.9 54.3,100.5 54.7,100.1 55.5,101 	"/>
	<polygon class="st2" points="90.6,136.1 90.5,136.3 90.2,137.1 65.9,112.8 66.2,112.5 66.2,112.5 66.6,112.1 	"/>
	<polygon class="st2" points="78,165.9 77.5,167 66.2,155.6 65.5,154.9 45,134.4 44.3,133.7 40.9,130.3 38.9,128.3 37.8,125.8 
		45,133 45.7,133.7 	"/>
</g>
<g>
	<polygon class="st2" points="46.1,100.9 32.9,114.1 32.8,114 32.4,113.1 36.2,109.3 45,100.5 45.4,100.1 45.7,100.5 	"/>
	<polygon class="st2" points="78.6,100.9 78.4,101 77.5,101.9 77.2,101.5 76.8,101.2 77,101 77.8,100.1 78.2,100.5 	"/>
	<polygon class="st2" points="66.6,112.8 66.2,113.2 45.7,133.7 45,134.4 43.3,136.1 42.5,136.9 42.3,136.3 42.1,135.9 44.3,133.7 
		45,133 65.5,112.5 65.9,112.1 66.2,112.5 66.2,112.5 	"/>
	<polygon class="st2" points="95.2,125.2 94.1,127.8 88.2,133.7 87.5,134.4 67,154.9 66.2,155.6 55.2,166.7 54.7,165.7 55.6,164.8 
		65.5,154.9 66.2,154.2 86.8,133.7 87.5,133 	"/>
</g>
<path class="st3" d="M126,90v1c0,4.5-2.5,8.5-6.2,10.5c-0.4,0.2-0.8,0.4-1.1,0.6c-1.4,0.6-3,0.9-4.6,0.9H20c-1.6,0-3.2-0.3-4.6-0.9
	C11.1,100.2,8,96,8,91v-1c0-4.6,2.6-8.6,6.4-10.6c0.4-0.2,0.8-0.5,1-0.9c0.4-0.6,0.6-1.4,0.4-2.1c-0.4-1.5-0.7-3-1-4.6
	c-0.5-3-0.8-6.1-0.8-9.2C14,32.4,38,8,67.5,8c1.7,0,3.5,0.1,5.1,0.2c25.3,2.5,45.4,22.8,48.1,48.5c0.2,1.9,0.3,3.8,0.3,5.8
	c0,5-0.7,9.8-1.9,14.3c-0.3,1.1,0.2,2.4,1.2,3c1,0.6,2,1.4,2.8,2.3c0,0,0,0,0,0C124.9,84.3,126,87,126,90z"/>
<path class="st4" d="M78.8,80c0,2.6-43.8,9-63.4-1.5c0.4-0.6,0.6-1.4,0.4-2.1c-0.4-1.5-0.7-3-1-4.6C38.7,79,78.8,78.1,78.8,80z"/>
<path class="st1" d="M101.6,33.4"/>
<path class="st5" d="M120.7,56.7C110,30,88,16,72.6,8.2C97.9,10.7,118,31.1,120.7,56.7z"/>
<path class="st5" d="M126,90v1c0,4.5-2.5,8.5-6.2,10.5C122,98,125,90,123.1,82.2C124.9,84.3,126,87,126,90z"/>
</svg>
