<?xml version="1.0" encoding="utf-8"?>
<!-- Generator: Adobe Illustrator 27.4.1, SVG Export Plug-In . SVG Version: 6.00 Build 0)  -->
<svg version="1.1" id="Layer_1" xmlns="http://www.w3.org/2000/svg" xmlns:xlink="http://www.w3.org/1999/xlink" x="0px" y="0px"
	 viewBox="0 0 177 110" style="enable-background:new 0 0 177 110;" xml:space="preserve">
<style type="text/css">
	.st0{fill:#EDDDD1;}
	.st1{fill:#FFF7F0;}
	.st2{fill:#EA847A;}
	.st3{fill:#231F20;}
	.st4{fill:#FFD1CF;}
	.st5{fill:#E5A5A5;}
	.st6{fill:#CC736E;}
	.st7{fill:#FCEDED;}
	.st8{fill:#FF9C97;}
</style>
<g>
	<path class="st0" d="M143.3,57.6c-0.1-0.2-0.2-0.4-0.3-0.6C143.1,57.2,143.2,57.4,143.3,57.6z"/>
	<path class="st0" d="M143.9,59.3c-0.2-0.6-0.4-1.1-0.6-1.7C143.5,58.2,143.7,58.7,143.9,59.3z"/>
	<path class="st0" d="M143,57c-0.2-0.5-0.4-1-0.7-1.5c0.1,0.1,0.1,0.3,0.2,0.4c0.1,0.2,0.2,0.4,0.3,0.7C142.9,56.7,143,56.8,143,57z
		"/>
	<path class="st0" d="M148,62.4c0.1,0,0.3-0.1,0.4-0.1c-0.4,0.1-0.7,0.1-1.1,0.2C147.6,62.5,147.8,62.5,148,62.4z"/>
	<path class="st0" d="M148.8,55.6c0.2,0.4,0.3,0.9,0.5,1.4c-1.4-0.2-4.3-0.9-6.9-1.4v0c0,0,0-0.1,0-0.1c-0.3-0.6-0.6-1.1-0.9-1.6
		c-0.1-0.2-0.3-0.5-0.4-0.7c-0.1-0.2-0.2-0.3-0.3-0.4c-0.2-0.3-0.4-0.6-0.6-0.8c-0.1-0.2-0.2-0.3-0.4-0.4c-0.1-0.2-0.3-0.3-0.4-0.5
		c-0.1-0.1-0.2-0.2-0.2-0.3c-0.1-0.1-0.1-0.2-0.2-0.2c-0.2-0.2-0.3-0.3-0.5-0.5c0,0,0,0,0,0v0c-0.1-0.1-0.3-0.3-0.4-0.4
		c-0.1-0.1-0.2-0.2-0.3-0.3c-0.1-0.1-0.2-0.2-0.3-0.3c0,0-0.1-0.1-0.1-0.1c-0.1-0.1-0.2-0.2-0.3-0.2c-0.4-0.3-0.9-0.6-1.3-0.9
		c-0.2-0.1-0.3-0.2-0.5-0.3c-0.2-0.1-0.4-0.2-0.6-0.4c-0.1,0-0.2-0.1-0.2-0.1c-0.1,0-0.2-0.1-0.2-0.1c-0.2-0.1-0.5-0.2-0.8-0.4
		c-0.1-0.1-0.3-0.1-0.4-0.2c-0.4-0.2-0.8-0.3-1.2-0.4c-0.1,0-0.3-0.1-0.4-0.1s-0.3-0.1-0.4-0.1c0,0-0.1,0-0.1,0c0,0-0.1,0-0.1,0
		c-0.1,0-0.2,0-0.2-0.1c0,0-0.1,0-0.2,0c-0.8-0.2-1.5-0.2-2.3-0.3c-0.2,0-0.4,0-0.6,0c-2.4,0-4.8,0.6-7,1.8l-2.5,1.3l-1.9-2.1
		c-3.2-3.6-7.4-5.7-11.8-5.8c-0.2,0-0.4,0-0.6,0c-3,0-6,1-8.6,2.7l-2.9,1.9l-2-2.8c-2-2.8-5.2-4.4-8.7-4.5c-0.2,0-0.3,0-0.5,0
		c-2.7,0-5.3,1-7.3,2.8l-2.3,2l-2.4-2c-1.9-1.6-4.3-2.6-6.9-2.6c-0.2,0-0.3,0-0.5,0c-6.1,0-11.1,4.9-11.1,10.8c0,0.1,0,0.2,0,0.3
		l0.2,4.5l-4.5-0.9c-0.8-0.1-1.5-0.2-2.3-0.3c-0.2,0-0.4,0-0.6,0c-3.8,0-7.4,1.6-10.1,4.3c-0.2,0.2-0.4,0.4-0.5,0.6
		c-0.1,0.1-0.3,0.3-0.4,0.5c-0.2,0.2-0.4,0.5-0.5,0.7c0,0.1-0.1,0.1-0.1,0.2c-0.1,0.1-0.2,0.3-0.3,0.4c-0.1,0.1-0.2,0.3-0.3,0.4
		c-0.1,0.1-0.2,0.3-0.3,0.4c-0.2,0.3-0.3,0.6-0.4,0.9c-0.1,0.2-0.2,0.4-0.3,0.6c-0.1,0.3-0.2,0.5-0.3,0.8c0,0,0,0,0,0.1
		c-0.1,0.3-0.2,0.6-0.3,0.9c-0.1,0.3-0.1,0.5-0.2,0.8c-0.1,0.3-0.1,0.6-0.2,0.9c-0.1,0.6-0.1,1.2-0.1,1.9c0,4.8,2.5,9.2,6.5,11.9
		l0.4,0.2c0,0,0,0,0.1,0L37,80l-0.3,1.2c0,0.1,0,0.1,0,0.2l0,0.7c0,0.1,0,0.3,0,0.4c0,5.8,4.8,10.5,10.7,10.7c0.2,0,0.3,0,0.5,0
		c1.3,0,2.7-0.3,3.9-0.7l0.6-0.2c0.1,0,0.2-0.1,0.2-0.1c0,0,0,0,0,0l1.9-0.7l1.1,1.9c0,0,0,0.1,0.1,0.1l0.3,0.5
		c1.8,2.9,4.8,4.7,8.2,4.8c0.1,0,0.3,0,0.4,0c2.5,0,4.8-1,6.7-2.6l0.4-0.4c0,0,0,0,0.1-0.1l1.5-1.3l1.8,1.1l0.5,0.3
		c2.2,1.3,4.8,2.1,7.5,2.2c0.2,0,0.4,0,0.7,0c2.3,0,4.5-0.5,6.5-1.5l0.4-0.2l1.6-0.7l1.3,1c0,0,0.1,0,0.1,0l0.4,0.3
		c1.9,1.5,4.1,2.3,6.5,2.3c0.2,0,0.3,0,0.5,0c1.8,0,3.4-0.4,5-1.2l0.3-0.2l0,0l1.2-0.6l1.1,0.5c0,0,0.1,0,0.1,0L109,98
		c1.7,0.7,3.5,1.1,5.4,1.2c0.2,0,0.4,0,0.6,0c2.5,0,5-0.7,7.2-1.9l0.4-0.2c0,0,0,0,0,0l1.4-0.8l1.3,0.8c0,0,0.1,0,0.1,0l0.5,0.3
		c0.5,0.3,1.1,0.6,1.7,0.8c1.2,0.5,2.4,0.7,3.6,0.7c0.2,0,0.4,0,0.5,0c0.3,0,0.5,0,0.8,0c0.1,0,0.3,0,0.4,0c0.2,0,0.4,0,0.5-0.1
		c0.1,0,0.2,0,0.3,0c0.1,0,0.2,0,0.3-0.1c0.3-0.1,0.5-0.1,0.8-0.2c0.1,0,0.1,0,0.2-0.1c0,0,0,0,0.1,0c0.1,0,0.2-0.1,0.3-0.1
		c0.1,0,0.3-0.1,0.4-0.1c0.3-0.1,0.7-0.3,1-0.5c0.3,0.2,0.7,0.4,1.1,0.5c0.2,0.1,0.4,0.2,0.6,0.3s0.4,0.2,0.6,0.2
		c0.2,0.1,0.3,0.1,0.5,0.2c0.2,0.1,0.4,0.1,0.6,0.2c0.4,0.1,0.8,0.2,1.2,0.3c-2.2,1.4-4.9,2.2-7.8,2.2c-2.5,0-5-0.6-7.1-1.7
		c-0.6-0.3-1.2-0.3-1.8,0c-2.5,1.2-5.2,1.8-8,1.9c-2.3,0-4.5-0.4-6.6-1.2c-0.5-0.2-1.1-0.2-1.6,0c-1.8,0.8-3.7,1.2-5.8,1.2
		c-3.1,0-6-0.9-8.4-2.5c-0.5-0.4-1.2-0.4-1.8-0.2c-2.2,0.9-4.5,1.3-7,1.4c-3.2,0-6.2-0.7-8.8-2c-0.7-0.4-1.5-0.3-2.2,0.2
		c-2.2,1.7-5,2.7-8.1,2.7c-4.5,0-8.4-2.1-11-5.4c-0.5-0.7-1.4-1-2.2-0.8c-1.2,0.3-2.5,0.5-3.8,0.5c-8.1,0.1-14.8-6.3-14.8-14.3
		c0-0.3,0-0.6,0-0.9c-4.8-3.2-8-8.6-8.1-14.9c0-2.3,0.4-4.6,1.2-6.6c2.6-6.7,9-11.4,16.6-11.5c1.2,0,2.5,0.1,3.6,0.3l0-0.4
		c0-2.5,0.6-4.8,1.7-6.8c2.5-4.5,7.3-7.6,12.9-7.7c0.9,0,1.8,0.1,2.8,0.2c2.6,0.5,5,1.6,7,3.3c2.6-2.2,6-3.6,9.7-3.6
		c5,0,9.4,2.4,12.1,6c2.2-1.5,4.7-2.5,7.3-3c1.1-0.2,2.2-0.3,3.3-0.3c4.2,0,8.1,1.3,11.4,3.7c1.4,1,2.6,2.1,3.7,3.4
		c1.3-0.7,2.6-1.2,4-1.5c1.5-0.4,3.1-0.6,4.7-0.6c4.8,0,9.3,1.8,12.9,4.8c0.1,0.1,0.2,0.2,0.3,0.3c2.5,2.2,4.5,5,6,8.2
		C148.3,54.5,148.5,55,148.8,55.6C148.7,55.6,148.7,55.6,148.8,55.6z"/>
	<path class="st0" d="M152.6,62.1c-0.6,0-1.3,0-1.9,0C151.3,62,151.9,62,152.6,62.1z"/>
	<path class="st0" d="M152.9,62.1c-0.1,0-0.2,0-0.2,0h0c0,0,0,0-0.1,0C152.7,62.1,152.8,62.1,152.9,62.1
		C152.9,62.1,152.9,62.1,152.9,62.1z"/>
	<path class="st1" d="M156.4,71.3c0-3.5-1.4-6.7-3.5-9.2c-0.1,0-0.2,0-0.2,0h0c0,0,0,0-0.1,0c0.1,0,0.2,0,0.3,0
		c-0.8-1-1.8-1.8-2.9-2.6c-0.2-0.9-0.4-1.8-0.7-2.6c-1.4-0.2-4.3-0.9-6.9-1.4v0c-2-0.4-3.8-0.8-4.9-0.9
		c-29.1-3.2-65.9-7.1-101.1,2.5c-1.9,0.5-3.6,1-5.2,1.4h0c-0.1,0.1-0.2,0.3-0.3,0.4c-0.1,0.1-0.2,0.3-0.3,0.4
		c-0.1,0.1-0.2,0.3-0.3,0.4c-0.2,0.3-0.3,0.6-0.4,0.9c-0.1,0.2-0.2,0.4-0.3,0.6c-0.1,0.3-0.2,0.5-0.3,0.8c0,0,0,0,0,0.1
		c-0.1,0.3-0.2,0.6-0.3,0.9c-0.1,0.3-0.2,0.7-0.2,1c0,0.1,0,0.2-0.1,0.3c0,0.1,0,0.3-0.1,0.4c-0.1,0.6-0.1,1.2-0.1,1.9
		c0,4.8,2.5,9.2,6.5,11.9l0.4,0.2c0,0,0,0,0.1,0l1.3,0.9l-0.1,1.4c0,0.1,0,0.1,0,0.2l0,0.7c0,0.1,0,0.3,0,0.4
		c0,5.8,4.8,10.5,10.7,10.7c0.2,0,0.3,0,0.5,0c1.3,0,2.7-0.3,3.9-0.7l0.6-0.2c0.1,0,0.2-0.1,0.2-0.1c0,0,0,0,0,0l1.9-0.7l1.1,1.9
		c0,0,0,0.1,0.1,0.1l0.3,0.5c1.8,2.9,4.8,4.7,8.2,4.8c0.1,0,0.3,0,0.4,0c2.5,0,4.8-1,6.7-2.6l0.4-0.4c0,0,0,0,0.1-0.1l1.5-1.3
		l1.8,1.1l0.5,0.3c2.2,1.3,4.8,2.1,7.5,2.2c0.2,0,0.4,0,0.7,0c2.3,0,4.5-0.5,6.5-1.5l0.4-0.2l1.6-0.7l1.3,1c0,0,0.1,0,0.1,0l0.4,0.3
		c1.9,1.5,4.1,2.3,6.5,2.3c0.2,0,0.3,0,0.5,0c1.8,0,3.4-0.4,5-1.2l0.3-0.2l0,0l1.2-0.6l1.1,0.5c0,0,0.1,0,0.1,0L109,98
		c1.7,0.7,3.5,1.1,5.4,1.2c0.2,0,0.4,0,0.6,0c2.5,0,5-0.7,7.2-1.9l0.4-0.2c0,0,0,0,0,0l1.4-0.8l1.3,0.8c0,0,0.1,0,0.1,0l0.5,0.3
		c0.5,0.3,1.1,0.6,1.7,0.9c1.2,0.5,2.4,0.7,3.6,0.7c0.2,0,0.4,0,0.5,0c0.5,0,1,0,1.5-0.1c0.1,0,0.2,0,0.3,0c0.1,0,0.2,0,0.3,0
		c0.1,0,0.2,0,0.3-0.1c0.3-0.1,0.5-0.1,0.8-0.2c0.1,0,0.2,0,0.2-0.1c0,0,0,0,0.1,0c0.1,0,0.2-0.1,0.3-0.1c0.1,0,0.3-0.1,0.4-0.1
		c0.3-0.1,0.7-0.3,1-0.5c0.3,0.2,0.7,0.4,1.1,0.5c0.2,0.1,0.4,0.2,0.6,0.3s0.4,0.2,0.6,0.2c0.2,0.1,0.3,0.1,0.5,0.2
		c0.2,0.1,0.4,0.1,0.6,0.2c0.4,0.1,0.8,0.2,1.2,0.3c4.1-2.6,6.9-7.1,6.8-12.3c0-1-0.1-2-0.3-2.9C153.2,81.9,156.5,77,156.4,71.3z
		 M143,57c0.1,0.2,0.2,0.4,0.3,0.6C143.2,57.4,143.1,57.2,143,57z M152.6,62.1c-0.6,0-1.3,0-1.9,0C151.3,62,151.9,62,152.6,62.1z"/>
	<path class="st1" d="M28.8,63.9c0.1-0.6,0.2-1.2,0.4-1.7c-0.1,0.3-0.2,0.6-0.3,0.9C28.9,63.4,28.9,63.6,28.8,63.9z"/>
	<path class="st1" d="M28.8,64.1c0-0.1,0-0.1,0-0.2c-0.1,0.3-0.1,0.6-0.2,0.9c0-0.1,0-0.3,0.1-0.4C28.8,64.3,28.8,64.2,28.8,64.1z"
		/>
	<path class="st1" d="M35.5,78.9l1.3,0.9l-0.1,1.4C36.7,80.2,36.2,79.4,35.5,78.9L35,78.6L35.5,78.9C35.4,78.9,35.4,78.9,35.5,78.9z
		"/>
	<path class="st1" d="M54.5,91.4l1.1,1.9c-0.7-1-1.9-1.5-3.1-1.1c0,0,0,0,0,0L54.5,91.4z"/>
	<path class="st1" d="M73.4,94.4l1.8,1.1c-1-0.6-2.3-0.5-3.2,0.3L73.4,94.4z"/>
	<path class="st1" d="M92.3,95.5l1.3,1c-0.8-0.6-1.9-0.7-2.8-0.3L92.3,95.5z"/>
	<path class="st1" d="M93.7,96.6l0.4,0.3L93.7,96.6C93.6,96.6,93.6,96.6,93.7,96.6C93.6,96.6,93.6,96.6,93.7,96.6z"/>
	<path class="st1" d="M107.5,97.3l1.1,0.5c-0.7-0.3-1.5-0.2-2.2,0.1L107.5,97.3z"/>
	<path class="st1" d="M122.7,97C122.7,97,122.7,97,122.7,97C122.7,97,122.7,97,122.7,97l-0.4,0.2L122.7,97z"/>
	<path class="st1" d="M124.1,96.2l1.3,0.8c-0.8-0.5-1.8-0.5-2.7,0L124.1,96.2z"/>
	<path class="st1" d="M131.9,99c0.3,0,0.5,0,0.8,0C132.5,99,132.2,99,131.9,99z"/>
	<path class="st1" d="M133.1,98.9c0.2,0,0.4,0,0.5-0.1c-0.1,0-0.2,0-0.3,0C133.3,98.9,133.2,98.9,133.1,98.9z"/>
	<path class="st1" d="M132.7,99c0.1,0,0.3,0,0.4,0C133,99,132.9,99,132.7,99z"/>
	<path class="st1" d="M137.1,97.8c0.3,0.2,0.7,0.4,1.1,0.5c-0.7-0.3-1.4-0.3-2.1,0c-0.2,0.1-0.5,0.2-0.8,0.3c0,0,0,0,0.1,0
		c0.1,0,0.2-0.1,0.3-0.1c0.1,0,0.3-0.1,0.4-0.1C136.4,98.1,136.8,97.9,137.1,97.8z"/>
	<path class="st1" d="M137.5,54.5c-29.1-3.2-65.9-7.1-101.1,2.5c-1.9,0.5-3.6,1-5.2,1.4c0-0.1,0.1-0.1,0.1-0.2
		c0.2-0.2,0.3-0.5,0.5-0.7c0.1-0.2,0.3-0.3,0.4-0.5c0.2-0.2,0.4-0.4,0.5-0.6c2.7-2.7,6.3-4.3,10.1-4.3c0.2,0,0.4,0,0.6,0
		c0.8,0,1.5,0.1,2.3,0.3l4.5,0.9L50,48.9c0-0.1,0-0.2,0-0.3c0-5.9,4.9-10.8,11.1-10.8c0.2,0,0.3,0,0.5,0c2.6,0.1,4.9,1,6.9,2.6
		l2.4,2l2.3-2c2-1.8,4.6-2.8,7.3-2.8c0.2,0,0.3,0,0.5,0c3.5,0.1,6.7,1.8,8.7,4.5l2,2.8l2.9-1.9c2.6-1.8,5.6-2.7,8.6-2.7
		c0.2,0,0.4,0,0.6,0c4.4,0.1,8.5,2.2,11.8,5.8l1.9,2.1l2.5-1.3c2.2-1.2,4.6-1.8,7-1.8c0.2,0,0.4,0,0.6,0c0.8,0,1.5,0.1,2.3,0.3
		c0.1,0,0.3,0,0.4,0.1c0,0,0,0,0.1,0c0.2,0,0.4,0.1,0.6,0.2c0.2,0,0.3,0.1,0.4,0.1c0.6,0.2,1.1,0.4,1.7,0.6c0.3,0.1,0.5,0.2,0.8,0.4
		c0.1,0,0.2,0.1,0.2,0.1c0.1,0,0.2,0.1,0.2,0.1c0.2,0.1,0.4,0.2,0.6,0.4c0.2,0.1,0.3,0.2,0.5,0.3c0.5,0.3,0.9,0.6,1.3,0.9
		c0.1,0.1,0.2,0.2,0.3,0.2c0,0,0.1,0.1,0.1,0.1c0.1,0.1,0.2,0.2,0.3,0.3c0.1,0.1,0.2,0.2,0.3,0.3c0.2,0.1,0.3,0.3,0.4,0.4
		c0,0,0,0,0,0c0.2,0.2,0.3,0.3,0.5,0.5c0.2,0.2,0.3,0.3,0.5,0.5c0.2,0.2,0.3,0.3,0.4,0.5c0,0,0.1,0.1,0.1,0.1
		c0.1,0.1,0.2,0.2,0.2,0.3c0.2,0.3,0.4,0.5,0.6,0.8c0.1,0.1,0.2,0.3,0.3,0.4c0.2,0.2,0.3,0.4,0.4,0.7c0.1,0.1,0.1,0.2,0.1,0.2
		c0.2,0.3,0.3,0.6,0.5,0.9c0.1,0.2,0.2,0.3,0.3,0.5c0,0,0,0.1,0,0.1C140.4,55,138.5,54.7,137.5,54.5z"/>
	<path class="st1" d="M143.3,57.6c-0.1-0.2-0.2-0.4-0.3-0.6C143.1,57.2,143.2,57.4,143.3,57.6z"/>
	<path class="st1" d="M143.9,59.3c-0.2-0.6-0.4-1.1-0.6-1.7C143.5,58.2,143.7,58.7,143.9,59.3z"/>
	<path class="st1" d="M142.8,56.6c0.1,0.1,0.1,0.3,0.2,0.4c-0.2-0.5-0.4-1-0.7-1.5c0.1,0.1,0.1,0.3,0.2,0.4
		C142.7,56.1,142.8,56.4,142.8,56.6z"/>
	<path class="st1" d="M148,62.4c0.1,0,0.3-0.1,0.4-0.1c-0.4,0.1-0.7,0.1-1.1,0.2C147.6,62.5,147.8,62.5,148,62.4z"/>
	<path class="st1" d="M152.6,62.1c-0.6,0-1.3,0-1.9,0C151.3,62,151.9,62,152.6,62.1z"/>
	<path class="st1" d="M152.9,62.1c-0.1,0-0.2,0-0.2,0h0c0,0,0,0-0.1,0C152.7,62.1,152.8,62.1,152.9,62.1
		C152.9,62.1,152.9,62.1,152.9,62.1z"/>
	<path class="st0" d="M149.4,57c-0.1,0-0.1,0-0.2,0c-1.4-0.2-4.3-0.9-6.9-1.4v0c-2-0.4-3.8-0.8-4.9-0.9
		c-29.1-3.2-65.9-7.1-101.1,2.5c-1.9,0.5-3.6,1-5.2,1.4h0c-1,0.3-2,0.5-2.9,0.7c2.6-6.7,9-11.4,16.6-11.5c1.2,0,2.5,0.1,3.6,0.3
		l0-0.4c0-2.5,0.6-4.8,1.7-6.8c5.8-2.8,11.4-5.4,15.7-7.4c2.6,0.5,5,1.6,7,3.3c2.6-2.2,6-3.6,9.7-3.6c5,0,9.4,2.4,12.1,6
		c2.2-1.5,4.7-2.5,7.3-3c4.6,1.1,9.6,2.2,14.6,3.4c2.5,0.6,5.1,1.2,7.7,1.8c5.9,1.4,11.8,2.8,17.5,4.2c0.1,0.1,0.2,0.2,0.3,0.3
		c2.2,2.1,5,6.6,6.7,9.8c0,0,0,0,0,0C149,56.1,149.2,56.5,149.4,57z"/>
</g>
<path class="st1" d="M45.6,58.8C45.6,58.8,45.7,58.8,45.6,58.8C45.7,58.8,45.7,58.8,45.6,58.8C45.6,58.8,45.6,58.8,45.6,58.8
	C45.6,58.8,45.6,58.8,45.6,58.8z"/>
<g>
	<g>
		<path class="st2" d="M173.5,43.5c0,2.1-0.6,3.9-1.8,5.3c-0.7,0.9-1.7,1.7-2.9,2.3c-1.6,0.8-3.5,1.5-5.7,1.9c-5,1-11.5,1-18.9,0.6
			c-0.5-0.9-1-1.8-1.5-2.8c-1.9-3.2-4.2-6.2-6.7-9c-2-0.4-4.1-0.7-6.2-1c2.9,2.8,5.6,5.8,7.8,9.1c0.7,1.1,1.4,2.2,2.1,3.3
			c-7.4-0.5-15.4-1.4-23.6-2.2c-2.4-4.1-5.3-7.9-8.2-11.5c-1.6,0-3.1,0-4.7,0c3,3.5,5.8,7.2,8.2,11c-7.2-0.6-14.4-1.2-21.2-1.2
			c-2-3-4.2-5.9-6.7-8.6c-1.7,0.1-3.3,0.3-5,0.5c2.4,2.6,4.7,5.3,6.8,8.2c-0.3,0-0.7,0-1,0c-5.7,0.1-11.7,0.6-17.5,1.2
			c-1.7-2.5-3.5-4.9-5.6-7.1c-1.6,0.2-3.1,0.5-4.6,0.7c2.1,2.1,4.1,4.3,5.9,6.8c-5.3,0.6-10.6,1.2-15.7,1.7c-2-2.1-4.4-3.9-6.9-5.4
			c-2.8,0.6-5.4,1.2-8,1.8c0.1,0,0.3,0.1,0.4,0.2c0.3,0.1,0.7,0.3,1,0.4c0,0,0,0,0,0c0,0,0,0,0,0c0,0,0.1,0,0.1,0
			c0.1,0.1,0.3,0.1,0.4,0.2c0.7,0.3,1.3,0.6,2,1c1.3,0.7,2.6,1.4,3.8,2.3c0.1,0.1,0.3,0.2,0.5,0.3c-10.3,1-19.4,1.5-26,0.3
			C7.6,52.6,3.5,49.6,3.5,43.5c0-1.3,0.2-2.6,0.5-3.8c0.4-1.6,1-3.2,1.9-4.7c1.3-2.3,3.1-4.5,5.4-6.6c3.3-3,7.5-5.8,12.6-8.3
			c1,0.8,1.9,1.7,3,2.4c1.4-0.5,2.9-1,4.4-1.4c-0.7-0.5-1.4-1-2.1-1.6c-0.5-0.4-1-0.8-1.5-1.2c5.2-2.3,11.1-4.2,17.6-5.8
			c1.3,1.2,2.6,2.3,3.9,3.5c1.6-0.4,3.2-0.8,4.8-1.2c-1.3-1.1-2.6-2.2-3.9-3.4c6.8-1.5,14.1-2.6,21.7-3.2c0.5,0.5,0.9,0.9,1.4,1.4
			c0.2,0.2,0.5,0.5,0.7,0.7c1.5-0.3,3-0.6,4.5-0.9c-0.1-0.1-0.2-0.2-0.2-0.2c-0.5-0.4-0.9-0.9-1.4-1.3c3.8-0.2,7.7-0.3,11.7-0.3h0.1
			c1.4,0,2.9,0,4.3,0c1.4,0,2.8,0.1,4.1,0.1c9.4,0.4,18.3,1.4,26.5,3c1.5,0.3,3,0.6,4.5,0.9C155,17.6,173.5,29.7,173.5,43.5z"/>
		<path class="st3" d="M45.7,58.8C45.7,58.8,45.7,58.8,45.7,58.8C45.6,58.8,45.6,58.8,45.7,58.8C45.6,58.8,45.6,58.8,45.7,58.8
			C45.6,58.8,45.7,58.8,45.7,58.8z"/>
		<path class="st4" d="M171.7,48.8c-0.7,0.9-1.7,1.7-2.9,2.3c-7.4-9.5-18.7-14.5-28.5-21.1c-5-3.4-9.7-7.3-13.2-12.4
			c-1.5-2.2-2.8-4.6-3.7-7c1.5,0.3,3,0.6,4.5,0.9c1.1,2.3,2.5,4.5,4.1,6.4c7.7,9.1,19.2,13.7,28.8,20.7
			C164.9,41.6,168.7,44.9,171.7,48.8z"/>
		<path class="st4" d="M40.1,47.4c-2.8,0.6-5.4,1.2-8,1.8c-5.2-1.9-10.6-3-15.9-4.5c-4.3-1.2-8.5-2.7-12.2-5c0.4-1.6,1-3.2,1.9-4.7
			c0,0,0.1,0.1,0.1,0.1c1.1,0.8,2.4,1.4,3.6,2c0.3,0.1,0.6,0.3,0.9,0.4c0,0,0.1,0,0.1,0.1c0,0,0,0,0,0c0,0,0,0,0,0c0,0,0,0,0,0
			c0,0,0,0,0.1,0c0,0,0,0,0,0c0.1,0,0.1,0,0.2,0.1c0.6,0.3,1.3,0.5,1.9,0.7c2.6,0.9,5.3,1.6,7.9,2.3c5.7,1.4,11.5,2.8,16.8,5.4
			C38.5,46.6,39.3,47,40.1,47.4z"/>
		<path class="st4" d="M61.4,43.5c-1.6,0.2-3.1,0.5-4.6,0.7c-5.4-5.3-11.7-9.6-18.1-13.7c-3.9-2.5-8.1-5.1-11.9-8.1
			c1.4-0.5,2.9-1,4.4-1.4c4,2.9,8.4,5.6,12.5,8.3c5.5,3.6,10.8,7.4,15.5,12C60,42.1,60.7,42.8,61.4,43.5z"/>
		<path class="st4" d="M108,39.6c-1.6,0-3.1,0-4.7,0c-5-5.8-10.5-11.2-15.9-16.5c-4.5-4.3-9-8.5-13.5-12.9c1.5-0.3,3-0.6,4.5-0.9
			c9.9,9.6,20.3,18.8,29.1,29.5C107.6,39.1,107.8,39.4,108,39.6z"/>
		<path class="st4" d="M83.6,40.8c-1.7,0.1-3.3,0.3-5,0.5c-4.5-4.7-9.5-9-14.5-13.1c-5-4.1-10.2-8-15.1-12.2
			c1.6-0.4,3.2-0.8,4.8-1.2c0.3,0.2,0.6,0.5,0.8,0.7c9.8,8.1,20.2,15.6,28.7,25.2C83.5,40.7,83.6,40.8,83.6,40.8z"/>
		<path class="st4" d="M136.1,41.9c-2-0.4-4.1-0.7-6.2-1c-1.9-1.8-3.9-3.5-6-5.1c-4.7-3.6-9.8-6.8-14.7-10.2
			c-4.5-3.1-8.9-6.5-12.3-10.8c-1.8-2.3-3.2-4.7-4.2-7.3c1.4,0,2.8,0.1,4.1,0.1c1.2,2.5,2.8,4.8,4.7,6.8c3.8,4,8,6.9,12.6,9.9
			c5.2,3.5,10.4,6.9,15.2,11C131.8,37.4,134,39.6,136.1,41.9z"/>
	</g>
	<path class="st5" d="M47,52.8c-2.3,0.2-4.5,0.5-6.7,0.7c0,0,0,0,0,0c-0.2-0.1-0.3-0.2-0.5-0.3c-1.2-0.9-2.5-1.6-3.8-2.3
		c-0.7-0.3-1.3-0.6-2-1c-0.1,0-0.3-0.1-0.4-0.2c0,0-0.1,0-0.1,0c0,0,0,0,0,0c0,0,0,0,0,0c-0.3-0.1-0.7-0.3-1-0.4
		c-0.2-0.1-0.3-0.1-0.4-0.2c2.5-0.6,5.2-1.2,8-1.8C42.6,48.9,44.9,50.7,47,52.8z"/>
	<path class="st6" d="M39.8,53.2c0.1,0.1,0.3,0.2,0.5,0.3c-10.3,1-19.4,1.5-26,0.3c4.9-1.5,11-3.1,17.8-4.7c0.1,0,0.3,0.1,0.4,0.2
		c0.3,0.1,0.7,0.3,1,0.4c0,0,0,0,0,0c0,0,0,0,0,0c0,0,0.1,0,0.1,0c0.1,0.1,0.3,0.1,0.4,0.2c0.7,0.3,1.3,0.6,2,1
		C37.4,51.6,38.6,52.3,39.8,53.2z"/>
	<path class="st5" d="M67,50.7c-1.4,0.1-2.8,0.3-4.3,0.4c-1.8-2.4-3.8-4.7-5.9-6.8c1.5-0.2,3.1-0.5,4.6-0.7
		C63.4,45.8,65.3,48.1,67,50.7z"/>
	<path class="st6" d="M56.8,44.3c2.2,2.1,4.2,4.3,6,6.8c-5.3,0.6-10.6,1.2-15.7,1.8c-2.1-2.1-4.4-3.9-6.9-5.4
		C45.3,46.3,50.9,45.3,56.8,44.3z"/>
	<path class="st5" d="M90.3,49.5c-1.6,0-3.2,0-4.8,0c-2.1-2.9-4.4-5.6-6.8-8.2c1.7-0.2,3.3-0.3,5-0.5C86.1,43.5,88.3,46.4,90.3,49.5
		z"/>
	<path class="st6" d="M78.7,41.3c2.4,2.6,4.7,5.3,6.8,8.2c-0.3,0-0.7,0-1,0c-5.7,0.1-11.7,0.6-17.5,1.2c-1.7-2.5-3.5-4.9-5.6-7.1
		C67,42.7,72.8,41.9,78.7,41.3z"/>
	<path class="st5" d="M116.2,51.1c-1.6-0.1-3.1-0.3-4.7-0.4c-2.5-3.9-5.2-7.5-8.2-11c1.6,0,3.2,0,4.7,0
		C111,43.2,113.8,47.1,116.2,51.1z"/>
	<path class="st6" d="M103.3,39.7c3,3.5,5.8,7.2,8.2,11c-7.2-0.6-14.4-1.2-21.2-1.2c-2-3-4.2-5.9-6.7-8.6
		C90.2,40.2,96.8,39.8,103.3,39.7z"/>
	<path class="st5" d="M144.3,53.7c-1.4-0.1-2.9-0.2-4.5-0.3c-0.7-1.1-1.3-2.2-2.1-3.3c-2.3-3.3-4.9-6.4-7.8-9.1
		c2.1,0.3,4.2,0.6,6.2,1c2.5,2.8,4.8,5.8,6.7,9C143.3,51.8,143.8,52.7,144.3,53.7z"/>
	<path class="st6" d="M137.8,50c0.7,1.1,1.4,2.2,2.1,3.3c-7.4-0.5-15.4-1.4-23.6-2.2c-2.4-4.1-5.3-7.9-8.2-11.5
		c7.6,0,15,0.4,21.9,1.3C132.8,43.7,135.5,46.7,137.8,50z"/>
	<path class="st6" d="M163.2,53c-5,1-11.5,1-18.9,0.6c-0.5-0.9-1-1.8-1.5-2.8c-1.9-3.2-4.2-6.2-6.7-9C147,43.9,156.5,47.5,163.2,53z
		"/>
	<path class="st7" d="M31.2,21.1c-1.5,0.5-3,0.9-4.4,1.4c-1-0.8-2-1.6-3-2.4c1.2-0.6,2.5-1.2,3.8-1.8c0.5,0.4,1,0.8,1.5,1.2
		C29.8,20.1,30.5,20.6,31.2,21.1z"/>
	<path class="st8" d="M23.9,20.1c1,0.8,1.9,1.7,3,2.4c-5.5,1.8-10.7,3.8-15.5,5.9C14.6,25.4,18.8,22.6,23.9,20.1z"/>
	<path class="st7" d="M54,14.8c-1.6,0.4-3.2,0.8-4.8,1.2c-1.3-1.1-2.6-2.3-3.9-3.5c1.6-0.4,3.2-0.8,4.8-1.1
		C51.3,12.5,52.7,13.7,54,14.8z"/>
	<path class="st8" d="M45.2,12.5c1.3,1.2,2.6,2.3,3.9,3.5c-6.1,1.6-12.1,3.3-17.9,5.1c-0.7-0.5-1.4-1-2.1-1.6
		c-0.5-0.4-1-0.8-1.5-1.2C32.9,16.1,38.8,14.1,45.2,12.5z"/>
	<path class="st7" d="M78.4,9.4c-1.5,0.3-3,0.6-4.5,0.9c-0.2-0.2-0.5-0.5-0.7-0.7c-0.5-0.5-1-1-1.4-1.4c1.6-0.1,3.3-0.3,5-0.4
		c0.5,0.5,0.9,0.9,1.4,1.3C78.2,9.2,78.3,9.3,78.4,9.4z"/>
	<path class="st8" d="M73.2,9.6c0.2,0.2,0.5,0.5,0.7,0.7c-6.5,1.3-13.2,2.8-19.9,4.5c-1.3-1.1-2.6-2.2-3.9-3.4
		c6.8-1.5,14.1-2.6,21.7-3.2C72.3,8.7,72.7,9.1,73.2,9.6z"/>
	<path class="st8" d="M88.4,7.5c-3.2,0.6-6.6,1.2-10,1.9c-0.1-0.1-0.2-0.2-0.2-0.2c-0.5-0.4-0.9-0.9-1.4-1.3
		C80.6,7.6,84.5,7.5,88.4,7.5z"/>
</g>
<ellipse transform="matrix(0.9996 -2.789382e-02 2.789382e-02 0.9996 -2.0412 1.6745)" class="st1" cx="59" cy="74" rx="2" ry="4"/>
<ellipse transform="matrix(0.5 -0.866 0.866 0.5 -25.5043 110.8947)" class="st0" cx="83.3" cy="77.5" rx="2.5" ry="1.2"/>
<ellipse transform="matrix(0.9989 -4.767022e-02 4.767022e-02 0.9989 -4.1679 5.455)" class="st0" cx="112.3" cy="90.1" rx="1.9" ry="1.1"/>
<ellipse transform="matrix(0.9989 -4.767022e-02 4.767022e-02 0.9989 -4.1906 4.5016)" class="st0" cx="92.3" cy="90.1" rx="1.9" ry="1.1"/>
<ellipse transform="matrix(0.9626 -0.271 0.271 0.9626 -14.9726 40.8381)" class="st0" cx="140.4" cy="74.6" rx="1.3" ry="2.4"/>
<ellipse transform="matrix(0.614 -0.7893 0.7893 0.614 -35.2661 77.883)" class="st0" cx="62" cy="75" rx="2" ry="4"/>
<ellipse transform="matrix(0.9124 -0.4092 0.4092 0.9124 -29.8535 26.0431)" class="st0" cx="45.9" cy="82.8" rx="1.2" ry="2.4"/>
<ellipse transform="matrix(0.6628 -0.7488 0.7488 0.6628 -20.9933 132.305)" class="st0" cx="136.4" cy="89.5" rx="2.6" ry="1.3"/>
<ellipse transform="matrix(0.9699 -0.2434 0.2434 0.9699 -16.2445 31.9448)" class="st0" cx="121.1" cy="81.7" rx="0.7" ry="1.4"/>
<ellipse transform="matrix(0.992 -0.1259 0.1259 0.992 -8.9374 17.0435)" class="st0" cx="130.3" cy="79.2" rx="1" ry="1.9"/>
</svg>
