<?xml version="1.0" encoding="utf-8"?>
<!-- Generator: Adobe Illustrator 27.5.0, SVG Export Plug-In . SVG Version: 6.00 Build 0)  -->
<svg version="1.1" id="Layer_1" xmlns="http://www.w3.org/2000/svg" xmlns:xlink="http://www.w3.org/1999/xlink" x="0px" y="0px"
	 viewBox="0 0 70 70" style="enable-background:new 0 0 70 70;" xml:space="preserve">
<style type="text/css">
	.st0{fill:#4B3B40;}
	.st1{fill:#FFEAEC;}
	.st2{fill:none;}
	.st3{fill:#FDF7EB;}
	.st4{fill:#E55353;}
	.st5{fill:#F39A9D;}
	.st6{fill:none;stroke:#4B3B40;stroke-linecap:round;stroke-miterlimit:10;}
	.st7{fill:none;stroke:#000000;stroke-linecap:round;stroke-miterlimit:10;}
	.st8{fill:#FCEA6D;}
	.st9{fill:none;stroke:#4B3B40;stroke-width:1.5;stroke-linecap:round;stroke-miterlimit:10;}
	.st10{fill:#FCD26D;}
	.st11{font-family:'PatrickHand-Regular';}
	.st12{font-size:30.5573px;}
	.st13{fill:#F7F8F9;}
	.st14{fill:none;stroke:#FDF7EB;stroke-linecap:round;stroke-linejoin:round;stroke-miterlimit:10;}
	.st15{fill:none;stroke:#4B3B40;stroke-linecap:round;stroke-linejoin:round;stroke-miterlimit:10;}
</style>
<g>
	<path class="st0" d="M35.8,25.3c-0.6,0-1.5-0.2-2.3-1.2c-0.5-0.7-0.8-1.4-0.8-2.2c0-0.8,0.3-1.5,0.9-2.1c0.2-0.2,0.5-0.4,0.7-0.6
		c-0.4-0.3-0.8-0.7-1.2-1.2c-0.7-0.9-1-2-1-3.1c0-1.8,0.7-3.3,2.1-4.7c0.5-0.5,1-1,1.5-1.4C36.7,8,37,7.5,37.2,7.3c0,0,0,0,0,0
		C36.9,7.1,36.7,7,36.6,7c0,0,0,0,0,0c-0.3,0-0.5,0-0.7,0.1c-0.3,0.1-0.3,0.2-0.3,0.2l-0.1,0.1c-0.7,0.9-1.5,1.9-2.7,1.9
		c-1.9,0-3-1.3-3-3.1c0-1.3,0.8-2.6,2.4-3.7c1.3-0.9,2.8-1.4,4.3-1.4l0.2,0c2.2,0.1,4,1.1,5.3,2.9c0.7,1.1,1.1,2.2,1,3.3
		c0,1.8-0.8,3.4-2.2,5c-0.5,0.5-1,1.1-1.5,1.5c-0.6,0.6-1,1-1.1,1.2c0,0,0,0.1,0.1,0.1c0.5,0.8,0.6,1.3,0.6,1.8
		c0,0.4-0.1,0.9-0.4,1.3l-0.1,0.1l-0.1,0.1c-0.2,0.3-0.5,0.5-0.7,0.7c0.2,0.1,0.4,0.2,0.6,0.4c0.9,0.8,0.9,2.1,0.8,2.5
		c-0.1,2-1.3,3.2-3.1,3.2L35.8,25.3z"/>
	<path class="st0" d="M38.9,7.3c0-0.5-0.2-0.9-0.7-1.3c-0.5-0.4-1-0.6-1.6-0.6c-0.5,0-1,0.1-1.5,0.3c-0.5,0.2-0.8,0.5-1,0.8
		c-0.6,0.8-1,1.2-1.3,1.2c-0.9,0-1.3-0.5-1.3-1.3c0-0.8,0.6-1.5,1.7-2.3s2.2-1.1,3.4-1.1c1.7,0,3,0.8,3.9,2.1
		c0.5,0.8,0.8,1.5,0.7,2.3c0,1.3-0.6,2.6-1.7,3.8c-0.5,0.5-1,1-1.4,1.5c-1.1,1.1-1.7,1.8-1.7,2.2c0,0.4,0.1,0.8,0.4,1.2
		c0.3,0.5,0.4,0.8,0.4,0.9c0,0.2-0.1,0.3-0.2,0.5c-0.3,0.4-0.6,0.5-1.1,0.5c-0.5,0-0.9-0.3-1.4-1c-0.5-0.6-0.7-1.3-0.6-2.1
		c0-1.3,0.6-2.5,1.6-3.6c0.5-0.5,0.9-0.9,1.3-1.3C38.2,8.9,38.9,7.9,38.9,7.3z M34.4,22c0-0.4,0.2-0.7,0.4-1
		c0.3-0.3,0.7-0.4,1.2-0.4c0.5,0,0.8,0.1,1,0.3c0.2,0.2,0.3,0.6,0.3,1.2c0,1.1-0.5,1.6-1.5,1.6c-0.4,0-0.7-0.2-1-0.6
		S34.4,22.3,34.4,22z"/>
	<g>
		<path class="st0" d="M20.4,35.5l-0.5-0.7c-0.9-1.2-2.9-4.5-1.4-8.5c0.3-0.8,1-1.3,1.8-1.3c0.8,0,1.5,0.5,1.8,1.3
			c0.7,1.6,2.4,3.2,4,3.7l5,1.4l-4.9,1.8c-1.5,0.5-2.7,1.2-3.9,1.9l-0.4,0.3h-0.1c-0.2,0.1-0.4,0.1-0.5,0.1H20.4z"/>
		<path class="st0" d="M21.4,33.7c1.3-0.8,2.6-1.5,4.2-2.1c-2.1-0.6-4.2-2.6-5.1-4.7c-0.1-0.3-0.4-0.3-0.5,0
			c-1.2,3.2,0.4,5.9,1.2,6.9C21.3,33.8,21.3,33.7,21.4,33.7z"/>
		<path class="st0" d="M35.3,68.9c-11,0-22.9-5.8-23-18.4c0-1.2,0.1-2.4,0.2-3.5c-0.4,0.4-1,0.6-1.6,0.6c-0.4,0-0.7-0.1-1-0.2
			L5.7,45c-1.1-0.5-1.6-2-1-3.2l0-0.1l0.1-0.1c1-1.5,2-2.7,3-3.5c-0.7-1-1.2-2.1-1.7-3.2L6,34.9l-0.1-0.2c-0.1-0.1-0.2-0.2-0.3-0.4
			c-0.2-0.2-0.2-0.5-0.3-0.6l0-0.1c-0.2-0.7-0.1-1.4,0.3-2c0.4-0.6,1.1-1,1.9-1c0.2,0,0.4,0,0.6,0.1l0.5,0.1
			c2.4,0.6,7.4,1.8,11.2,1.8c0.1,0,0.2,0,0.4,0l0.5-0.5l0.2,0c1.3-0.8,2.7-1.5,4.3-2.1l0.3-0.1h0.1c0,0,0.1,0,0.1,0
			c2.6-0.9,5.7-1.3,9.4-1.3c3.4,0,6.5,0.4,9.3,1.3c1.6-0.6,3.1-2.2,3.4-3.5c0.3-0.9,1-1.4,1.9-1.4s1.6,0.5,1.9,1.4
			c0.8,2,0.7,4.2-0.1,6.2c3.3-0.2,6.9-1,9.2-1.5c0.5-0.1,0.9-0.2,1.2-0.3c0.2-0.1,0.4-0.1,0.6-0.1c1.3,0,2.4,1.1,2.4,2.5v0.7
			l-0.3,0.3c0,0-0.1,0.2-0.1,0.2l-0.1,0.1c0,0.1-0.1,0.1-0.2,0.2c-0.6,1.3-1.2,2.5-2,3.7c0.9,0.8,1.9,1.9,2.8,3.4l0.1,0.1l0,0.1
			c0.3,0.5,0.3,1.1,0.2,1.7c-0.2,0.7-0.6,1.2-1.2,1.5l-4.1,2.3c-0.4,0.2-0.7,0.3-1.1,0.3c-0.5,0-1-0.2-1.4-0.5c0,0.5,0,1,0,1.5
			c0,0.6,0,1.2,0,1.9c0,2.3-0.3,4.4-1,6.3c-1.3,3.6-3.8,6.6-7.3,8.6c-2.3,1.3-4.8,2.2-7.4,2.7C39.6,68.7,37.4,68.9,35.3,68.9z"/>
		<path class="st0" d="M56,47c-0.2-1.3-0.3-2.5-0.7-3.6c0-0.1,0-0.2-0.1-0.3c0,0,0-0.1,0-0.1c0.7-0.4,1.5-1,2.1-1.5
			c0.1,1.5,0.8,3.1,1.2,4c0.2,0.3,0.6,0.5,0.9,0.3l4.2-2.3c0.3-0.2,0.4-0.6,0.3-0.9c-0.7-1.1-2.2-3.3-3.8-3.9c0,0,0,0,0,0
			c1.5-1.9,2.4-3.8,2.9-5c0.1-0.1,0.2-0.1,0.2-0.2c0.1-0.2,0.1-0.3,0.2-0.3c0-0.4-0.4-0.9-0.9-0.8c-2.4,0.5-8.5,2.1-13,1.9
			C49.2,34,49,34,48.8,33.9c0,0,0,0,0,0c0.7-0.9,2.4-3.6,1.1-7c-0.1-0.3-0.4-0.3-0.5,0c-0.6,2-2.8,4.2-5.1,4.8c0,0,0,0,0,0
			c-2.5-0.8-5.6-1.4-9.3-1.4c-3.6,0-6.5,0.4-9,1.3c-0.1,0-0.2,0.1-0.3,0.1c-1.6,0.6-3,1.3-4.2,2.1c-0.1,0-0.1,0.1-0.2,0.1
			C21.2,34,21,34,20.8,34.2c-4.5,0.3-10.7-1.4-13.2-2c-0.5-0.2-0.9,0.3-0.8,0.8C7,33.3,7,33.4,7.1,33.4c0,0.1,0.2,0.2,0.3,0.3
			c0,0,0.1,0.1,0.1,0.1c0.5,1.3,1.3,3,2.8,4.8c-1.7,0.5-3.3,2.8-4.1,3.9c-0.2,0.3-0.1,0.8,0.3,0.9l4.2,2.3c0.3,0.2,0.8,0,0.9-0.3
			c0.4-0.9,1.1-2.7,1.2-4.2c0,0,0,0,0,0c0.7,0.5,1.3,1.1,2.1,1.6l0,0.1c0,0,0-0.1,0-0.1c0,0,0,0,0,0L15,43c0,0,0,0,0,0
			c0,0.1,0,0.1-0.1,0.2c-0.7,2.4-0.9,4.9-0.9,7.3c0.1,11.9,11.5,16.7,21.3,16.7c2.1,0,4.2-0.3,6.4-0.7c2.5-0.5,4.8-1.4,6.9-2.5
			c2.9-1.7,5.3-4.2,6.5-7.7c0.6-1.7,0.9-3.6,0.9-5.8C56,49.3,56,48.1,56,47z M25.7,50.1L25.7,50.1l-1.1,0.6L25.7,50.1z M35.6,50.5
			c-0.6,0-1.2,0-1.8,0.1C34.4,50.5,35,50.5,35.6,50.5c0.5,0,1,0,1.6,0.1C36.6,50.5,36.1,50.5,35.6,50.5z M19,44.3l0.9-0.5
			c0.8-0.5,1.4-1.3,1.7-2.2l0.2-0.5c0.3-1.2,1.6-1.7,2.6-1c0.9,0.7,2,1,3.1,1h0.2c0.3,0,0.6,0.1,0.9,0.3c-0.2-0.1-0.5-0.2-0.8-0.3
			h-0.2c-1.1,0-2.2-0.3-3.1-1c-1-0.7-2.4-0.2-2.6,1l-0.2,0.5c-0.3,0.9-0.8,1.7-1.7,2.2L19,44.3c-1,0.7-1,2.2,0,2.8
			C18,46.5,17.9,45,19,44.3z M12.8,36.1c1.5,0.5,3.1,0.9,4.5,1.3c0,0,0,0,0,0C15.9,37.1,14.3,36.6,12.8,36.1z M21.8,49.7l-0.3-0.8
			c-0.1-0.3-0.3-0.6-0.5-0.8c0.2,0.2,0.4,0.5,0.5,0.8L21.8,49.7c0.1,0.4,0.4,0.8,0.7,1C22.2,50.4,21.9,50.1,21.8,49.7z M28,53.6
			c-0.1,0.2-0.1,0.5-0.1,0.8c0,0.2,0,0.3,0.1,0.5c0-0.2-0.1-0.3-0.1-0.5C27.9,54.1,27.9,53.9,28,53.6z"/>
	</g>
	<g id="Layer_1_00000018948368308662097440000000457350219007181478_">
		<g>
			<path class="st1" d="M20.8,34.2c-0.1,0.1-0.2,0.1-0.3,0.2C20.7,34.3,20.7,34.3,20.8,34.2L20.8,34.2z"/>
			<path class="st2" d="M14.9,43c0-0.1,0.1-0.2,0.1-0.3l0,0c0,0,0,0,0-0.1"/>
			<path class="st3" d="M54.8,42.1c-0.1-0.2-0.2-0.4-0.3-0.6v-0.1C54.7,41.7,54.7,41.8,54.8,42.1z"/>
			<path class="st3" d="M55.1,43.1L55.1,43.1c-0.1-0.2-0.2-0.4-0.2-0.7C55,42.7,55,42.9,55.1,43.1z"/>
			<path class="st4" d="M17.3,37.4c-0.2,0.3-0.4,0.5-0.6,0.8c-0.1,0.1-0.1,0.2-0.2,0.3c-0.1,0.2-0.2,0.3-0.3,0.5
				c-0.1,0.1-0.1,0.3-0.2,0.3v0.1c-0.1,0.2-0.1,0.3-0.2,0.5c-0.1,0.2-0.1,0.3-0.2,0.4c-0.1,0.3-0.2,0.7-0.3,1.1l0,0
				c-0.1,0.3-0.3,0.6-0.3,0.9c-0.1,0.2-0.2,0.4-0.2,0.7L15,43c-0.8-0.5-1.4-1.1-2.1-1.6c-1-0.8-1.9-1.8-2.5-2.6
				c-1.5-1.9-2.4-3.6-2.9-4.9C8.6,34.8,13.4,36.5,17.3,37.4z"/>
			<path class="st2" d="M55.1,43.3C55.1,43.3,55,43.3,55.1,43.3"/>
			<g>
				<ellipse class="st5" cx="35.6" cy="54.4" rx="7.7" ry="3.9"/>
				<g>
					<line class="st6" x1="33.7" y1="52.8" x2="33.7" y2="56.3"/>
					<line class="st6" x1="37.5" y1="52.8" x2="37.5" y2="56.3"/>
				</g>
			</g>
			<path class="st0" d="M28.9,44.3c-0.5,0.9-0.6,1.9-0.3,2.7l0.3,0.8c0.3,0.9-0.3,2-1.3,2l-2,0.2h-0.1l-1.2,0.7
				c-1,0.6-2.4,0-2.7-1.1l-0.3-0.8c-0.2-0.6-0.7-1.1-1.3-1.3l-0.8-0.3c-1.4-0.3-1.6-2.2-0.4-3l0.9-0.5c0.8-0.5,1.4-1.3,1.7-2.2
				l0.2-0.5c0.3-1.2,1.6-1.7,2.6-1c0.9,0.7,2,1,3.1,1h0.2c1.3,0.1,2,1.4,1.5,2.5L28.9,44.3z"/>
			<path class="st7" d="M31.9,62c0,0,1.2,1.7,3.8,1.7c2.6,0,3.8-1.7,3.8-1.7"/>
			<path class="st8" d="M25.7,31.6c-1.6,0.6-3,1.3-4.2,2.1c-0.1,0-0.1,0.1-0.2,0.1c-0.8-1-2.4-3.6-1.2-6.9c0.1-0.3,0.4-0.3,0.5,0
				C21.4,28.9,23.5,31,25.7,31.6z"/>
			<path class="st8" d="M48.8,33.9c-1.4-0.9-2.8-1.7-4.5-2.3c2.3-0.5,4.5-2.7,5.1-4.8c0.1-0.3,0.4-0.3,0.5,0
				C51.2,30.2,49.5,32.9,48.8,33.9z"/>
			<path class="st8" d="M11.7,38.8c-2.1-1.1-4.6,2.4-5.5,3.8c-0.2,0.3-0.1,0.8,0.3,0.9l4.2,2.3c0.3,0.2,0.8,0,0.9-0.3
				C12.3,43.9,13.9,39.9,11.7,38.8z"/>
			<path class="st3" d="M62.3,32.3c-2.4,0.5-8.5,2.1-13,1.9C49.2,34,49,34,48.8,33.9c-1.4-0.9-2.8-1.7-4.5-2.3
				c-2.5-0.8-5.6-1.4-9.3-1.4c-3.6,0-6.5,0.4-9,1.3c-0.1,0-0.2,0.1-0.3,0.1c-1.6,0.6-3,1.3-4.2,2.1c-0.1,0-0.1,0.1-0.2,0.1
				C21.2,34,21,34,20.8,34.2c-4.5,0.3-10.7-1.4-13.2-2c-0.5-0.2-0.9,0.3-0.8,0.8C7,33.3,7,33.4,7.1,33.4c0,0.1,0.2,0.2,0.3,0.3
				c1.3,1,6.1,2.7,10,3.6c-0.2,0.3-0.4,0.5-0.6,0.8c-0.1,0.1-0.1,0.2-0.2,0.3c-0.1,0.2-0.2,0.3-0.3,0.5c-0.1,0.1-0.1,0.3-0.2,0.3
				v0.1c-0.1,0.2-0.1,0.3-0.2,0.5c-0.1,0.2-0.1,0.3-0.2,0.4c-0.1,0.3-0.2,0.7-0.3,1.1c-0.1,0.3-0.3,0.6-0.3,0.9
				C15.1,42.5,15,42.8,15,43c0,0.1,0,0.1-0.1,0.2c-0.7,2.4-0.9,4.9-0.9,7.3c0.1,11.9,11.5,16.7,21.3,16.7c2.1,0,4.2-0.3,6.4-0.7
				c2.5-0.5,4.8-1.4,6.9-2.5c2.9-1.7,5.3-4.2,6.5-7.7c0.6-1.7,0.9-3.6,0.9-5.8c0-1.2-0.1-2.4-0.1-3.5c-0.2-1.3-0.3-2.5-0.7-3.6
				c0-0.1,0-0.2-0.1-0.3c-0.1-0.2-0.2-0.4-0.2-0.7c0-0.1-0.1-0.3-0.1-0.3c-0.1-0.2-0.2-0.4-0.3-0.6v-0.1c-0.2-0.7-0.3-1.3-0.6-2
				c-0.3-0.6-0.6-1.3-1.2-2c0.5-0.1,1.1-0.3,1.6-0.4c0.3-0.1,0.6-0.2,0.8-0.3c3.5-1,7.1-2.5,7.7-3.4c0.1-0.2,0.1-0.3,0.2-0.3
				C63.3,32.7,62.8,32.2,62.3,32.3z M25.7,50.1l-1.3,0.7c-1,0.6-2.4,0-2.7-1.1l-0.3-0.8c-0.2-0.6-0.7-1.1-1.3-1.3l-0.8-0.3
				c-1.4-0.3-1.6-2.2-0.4-3l0.9-0.5c0.8-0.5,1.4-1.3,1.7-2.2l0.2-0.5c0.3-1.2,1.6-1.7,2.6-1c0.9,0.7,2,1,3.1,1h0.2
				c1.3,0.1,2,1.4,1.5,2.5l-0.3,0.7c-0.5,0.9-0.6,1.9-0.3,2.7l0.3,0.8c0.3,0.9-0.3,2-1.3,2L25.7,50.1z M35.6,58.3
				c-4.2,0-7.7-1.8-7.7-3.9s3.5-3.9,7.7-3.9s7.7,1.8,7.7,3.9S39.8,58.3,35.6,58.3z"/>
			<path class="st3" d="M62.9,33.4C62.9,33.4,62.9,33.5,62.9,33.4c-0.3,0.9-4.1,2.4-7.7,3.4C58.8,35.7,62.3,34.3,62.9,33.4z"/>
			<path class="st4" d="M63,33.4c-0.5,1.3-1.4,3.3-3.1,5.3c-0.8,0.9-1.6,1.9-2.7,2.8c-0.6,0.5-1.4,1.1-2.1,1.5l0,0
				c-0.1-0.2-0.2-0.4-0.2-0.7c0-0.1-0.1-0.3-0.1-0.3l0,0c-0.1-0.2-0.2-0.4-0.3-0.6v-0.1l0,0c-0.3-1.4-0.7-2.5-1.8-3.9
				c0.5-0.1,1.1-0.3,1.6-0.4c0.3-0.1,0.6-0.2,0.8-0.3C58.8,35.7,62.4,34.2,63,33.4L63,33.4C63,33.4,63,33.4,63,33.4z"/>
			<path class="st8" d="M58.3,38.8c2.1-1.1,4.6,2.4,5.5,3.8c0.2,0.3,0.1,0.8-0.3,0.9l-4.2,2.3c-0.3,0.2-0.8,0-0.9-0.3
				C57.7,43.9,56.1,39.9,58.3,38.8z"/>
			<path class="st0" d="M55,56.3c-1.2,3.5-3.6,5.9-6.5,7.7c-0.3-0.3-0.6-0.8-0.6-1.3c0-0.1,0-0.1,0-0.2l0.1-0.7c0.2-1,0-1.9-0.6-2.5
				l-0.6-0.7c-0.6-0.8-0.3-1.9,0.5-2.2l1.7-0.8h0.1l0.8-0.9c0.8-0.8,2.1-0.7,2.8,0.2l0.6,0.7c0.1,0.1,0.2,0.2,0.3,0.3
				C54.1,56.1,54.5,56.3,55,56.3L55,56.3z"/>
			<path class="st0" d="M48.3,46.8c0,0.9-0.8,1.7-1.7,1.7c-0.9,0-1.7-0.8-1.7-1.7c0-0.9,0.8-1.7,1.7-1.7
				C47.5,45.1,48.3,45.9,48.3,46.8z"/>
			<line class="st9" x1="31.7" y1="62.2" x2="39.8" y2="62.2"/>
			<path class="st9" d="M31.3,60.9c0,0,0.9,1.4-0.3,2.5"/>
			<path class="st9" d="M40.4,60.9c0,0-0.9,1.4,0.3,2.5"/>
		</g>
	</g>
	<text transform="matrix(0.9997 2.595259e-02 -2.595259e-02 0.9997 29.9909 24.4463)" class="st10 st11 st12">?</text>
	<circle class="st13" cx="24.4" cy="46.4" r="1.8"/>
	<line class="st14" x1="23.2" y1="41.8" x2="26.2" y2="43.1"/>
	<line class="st15" x1="45" y1="43.3" x2="48.2" y2="43.3"/>
</g>
</svg>
