<?xml version="1.0" encoding="utf-8"?>
<!-- Generator: Adobe Illustrator 27.5.0, SVG Export Plug-In . SVG Version: 6.00 Build 0)  -->
<svg version="1.1" id="Layer_1" xmlns="http://www.w3.org/2000/svg" xmlns:xlink="http://www.w3.org/1999/xlink" x="0px" y="0px"
	 viewBox="0 0 70 70" style="enable-background:new 0 0 70 70;" xml:space="preserve">
<style type="text/css">
	.st0{fill:#4B3B40;}
	.st1{fill:#FEF7EC;}
	.st2{fill:#FDEAED;}
	.st3{fill:none;}
	.st4{fill:#E45354;}
	.st5{fill:#922D2D;}
	.st6{fill:#F29B9E;}
	.st7{fill:none;stroke:#4B3B40;stroke-linecap:round;stroke-miterlimit:10;}
	.st8{fill:#4C3C41;}
	.st9{fill:#FBE96C;}
	.st10{fill:#F3D85B;}
	.st11{fill:#954B9D;}
	.st12{fill:#F4A71D;}
	.st13{fill:#FFE4B3;}
	.st14{fill:#BFA171;}
	.st15{fill:none;stroke:#FFFFFF;stroke-width:2;stroke-linecap:round;stroke-linejoin:round;stroke-miterlimit:10;}
	.st16{fill:none;stroke:#4B3B40;stroke-width:2;stroke-linecap:round;stroke-linejoin:round;stroke-miterlimit:10;}
</style>
<path class="st0" d="M35.4,67.6C23.1,67.6,9.7,61.1,9.6,47c0-1.4,0.1-2.7,0.2-4c-0.5,0.4-1.1,0.7-1.8,0.7c-0.4,0-0.8-0.1-1.2-0.3
	l-4.7-2.6c-0.6-0.3-1.1-0.9-1.3-1.7c-0.2-0.6-0.1-1.3,0.2-1.9l0-0.1l0.1-0.1c1.1-1.7,2.2-3.1,3.4-4c-0.8-1.2-1.5-2.5-2.1-3.8
	c-0.2-0.2-0.3-0.4-0.4-0.6c-0.1-0.1-0.1-0.2-0.2-0.4l-0.1-0.2c-0.3-0.8-0.2-1.6,0.3-2.4c0.5-0.7,1.3-1.1,2.1-1.1
	c0.2,0,0.5,0,0.7,0.1l0.3,0.1c0.5,0.1,1.1,0.3,1.7,0.4c0.6-2.8,4-4.8,10.4-6l2.7-9.7c0.1-0.7,0.3-1.4,0.6-2c0.3-4.8,11.6-5,13.8-5
	c2.3,0,13.4,0.2,13.8,5c0.3,0.6,0.5,1.3,0.6,2.1l2.7,9.6c0.1,0,0.5,0.1,0.5,0.1h0l0.2,0c2.3,0.5,9.2,1.8,9.8,6.2
	c0.6-0.1,1.2-0.3,1.8-0.4c0.5-0.1,0.9-0.2,1.2-0.3c0.2-0.1,0.5-0.1,0.7-0.1c0.9,0,1.6,0.4,2.1,1.1c0.5,0.7,0.6,1.6,0.3,2.4l-0.1,0.2
	l0,0l0,0.1l0,0.1c-0.7,1.7-1.5,3.3-2.5,4.8c1,0.9,2.1,2.2,3.2,3.8l0.1,0.1l0,0.1c0.7,1.3,0.2,2.9-1.1,3.6l-4.6,2.5
	c-0.4,0.2-0.8,0.3-1.2,0.3c-0.6,0-1.2-0.2-1.7-0.6c0,0.6,0,1.2,0,1.7c0,0.7,0.1,1.4,0.1,2.1c0,10.2-6.4,17.4-17.5,19.8
	C40.2,67.3,37.7,67.6,35.4,67.6z"/>
<path class="st0" d="M67.2,38.1c-0.8-1.2-2.5-3.6-4.3-4.3c0,0,0,0,0,0c1.9-2.3,2.9-4.6,3.4-6c0,0,0,0.1-0.1,0.1
	c0.1-0.2,0.1-0.3,0.2-0.4c0.2-0.5-0.3-1-0.9-0.9c-1.3,0.3-3.5,0.8-6.1,1.3c0.5-0.6,0.8-1.2,0.8-1.8v0c0-2.3-3.2-3.9-8.3-4.9h0
	c-0.3-0.1-0.7-0.1-1-0.2c-0.3-0.1-0.5-0.1-0.8-0.1l-3.1-11c-0.1-0.7-0.3-1.4-0.7-1.9c0-0.1,0-0.1,0-0.2c0-1.9-5.3-3.4-11.9-3.4
	S22.6,5.9,22.6,7.7c0,0.1,0,0.2,0,0.2C22.2,8.5,22,9.2,22,9.9l-3.1,11c-0.2,0-0.4,0.1-0.6,0.1c-5.7,1-9.4,2.6-9.5,4.9l0.5,0.2
	l-0.4,0.7c0.1,0.3,0.2,0.6,0.4,0.9c-0.3-0.1-0.6-0.1-0.9-0.2c-1.7-0.4-3.1-0.7-4-0.9c-0.6-0.2-1,0.4-0.9,0.9
	c0.1,0.3,0.1,0.4,0.2,0.5c0,0.1,0.1,0.2,0.3,0.4c0.6,1.4,1.6,3.4,3.3,5.5c0,0,0,0,0,0c-1.9,0.5-3.7,3.2-4.5,4.4
	c-0.2,0.4-0.1,0.9,0.3,1l4.7,2.6c0.4,0.2,0.9,0,1-0.4c0.5-1.1,1.3-3,1.4-4.7c0,0,0,0,0,0c0.7,0.6,1.5,1.2,2.3,1.8l0,0.1
	c0,0,0-0.1,0-0.1c0,0,0,0,0,0c0,0,0.1,0.1,0.1,0.1c0,0.1,0,0.1-0.1,0.2c-0.8,2.7-1,5.5-1,8.2c0.1,13.3,12.9,18.7,23.8,18.7
	c2.4,0,4.8-0.3,7.1-0.8c8.5-1.8,16-7,16-18c0-1.3-0.1-2.7-0.1-3.9c-0.2-1.4-0.4-2.8-0.8-4.1c0-0.1,0-0.2-0.1-0.3
	c0.9-0.6,1.6-1.1,2.3-1.7c0.2,1.6,0.9,3.4,1.4,4.4c0.2,0.4,0.7,0.6,1,0.4l4.7-2.6C67.3,39,67.4,38.5,67.2,38.1z M54.9,32.3
	C54.9,32.3,54.9,32.3,54.9,32.3c0.6-0.2,1.2-0.3,1.8-0.5C56.1,32,55.5,32.2,54.9,32.3z"/>
<g>
	<g>
		<g>
			<path class="st1" d="M23.8,35l0.2,0.3l0.2,0.3l0.5-0.5C24.3,35.2,24,35.1,23.8,35z"/>
			<path class="st1" d="M58.4,43c-0.2-1.4-0.4-2.8-0.8-4.1c0-0.1,0-0.2-0.1-0.3c0,0,0,0,0,0c-0.1-0.2-0.1-0.5-0.2-0.7
				c0-0.1-0.1-0.2-0.1-0.4c0,0,0,0,0,0c-0.1-0.2-0.2-0.5-0.2-0.7c0.1,0.2,0.1,0.5,0.2,0.7c-0.6-1.8-1.5-3.6-2.6-5.2
				c-0.9-1.4-2.1-2.7-3.5-3.7H51c-0.2-0.2-0.4-0.2-0.5-0.4c0,0,0,0,0,0c-0.9-0.6-1.9-1.2-3-1.7c-0.4-0.2-0.9-0.4-1.3-0.6
				c-0.2-0.1-0.5-0.2-0.7-0.3c0,0,0,0,0,0c-1-0.4-2.2-0.7-3.4-0.9c-2.1-0.4-4.4-0.6-7-0.6c-2.9,0-5.5,0.3-7.7,0.8
				c-0.8,0.2-1.6,0.4-2.4,0.7c-0.1,0-0.2,0.1-0.3,0.1c-0.4,0.2-0.9,0.3-1.3,0.5c-1,0.4-1.8,0.9-2.6,1.4c-0.3,0.2-0.5,0.3-0.8,0.5
				c-0.1,0-0.1,0.1-0.2,0.1c-0.2,0.2-0.4,0.3-0.6,0.5c-0.1,0.1-0.2,0.1-0.3,0.2c-0.8,0.6-1.5,1.3-2.1,2c0,0,0,0.1-0.1,0.1
				c-0.2,0.2-0.4,0.5-0.6,0.8c1.6,0.6,3.5,1.1,5.5,1.6l2.9-1l0.6,1.5l1.1-0.5l0.2,0.9c2.4,0.3,5,0.5,7.5,0.6l1.5-1.5l1.9,1.4
				c3.7-0.2,7.3-0.7,10.5-1.5v-1.4l2.2,0.8c0.2-0.1,0.5-0.1,0.7-0.2l1.4-2l1.4,0.9c-5.5,3.3-11.3,4.7-16.9,5l-1.2-1.6l-1.6,1.6
				c-2.8-0.1-5.5-0.4-8.1-0.9L25,34.8l-1,1l-0.2-0.3L23.8,35l-0.6-1.2l-1.8,0.6c-2-0.6-3.9-1.3-5.6-2.1c0,0-0.1,0.1-0.1,0.1
				c-1.2,1.6-2,3.4-2.6,5.2c0-0.1,0.1-0.3,0.1-0.4c-0.1,0.1-0.1,0.3-0.2,0.5c-0.1,0.3-0.2,0.7-0.3,0.9c0,0,0,0,0,0
				c0,0.1-0.1,0.1-0.1,0.2c-0.8,2.7-1,5.5-1,8.2c0.1,13.3,12.9,18.7,23.8,18.7c2.4,0,4.8-0.3,7.1-0.8c8.5-1.8,16-7,16-18
				C58.5,45.6,58.4,44.3,58.4,43z M12.7,38.9c0-0.2,0.1-0.4,0.1-0.5c0.1-0.3,0.2-0.5,0.2-0.8C12.9,38,12.8,38.4,12.7,38.9z
				 M24.7,46.5h-0.1l-1.3,0.8c-1.1,0.7-2.7,0-3-1.2l-0.4-1c-0.2-0.7-0.8-1.2-1.4-1.4l-0.9-0.3C16,43,15.7,40.9,17,40l1-0.6
				C19,38.9,19.7,38,20,37l0.2-0.6c0.2-0.8,0.7-1.3,1.4-1.4c0.5-0.1,1,0,1.5,0.2c0,0,0,0,0.1,0c1,0.8,2.3,1.1,3.5,1.1h0.2
				c1.4,0.1,2.3,1.5,1.7,2.8L28.2,40c-0.6,1-0.7,2.1-0.3,3l0.4,1c0.4,1-0.4,2.2-1.4,2.3L24.7,46.5z M35.7,55.7c-4.8,0-8.6-2-8.6-4.4
				c0-2.4,3.9-4.4,8.6-4.4c4.8,0,8.6,2,8.6,4.4C44.3,53.7,40.4,55.7,35.7,55.7z M57.1,37.6c0.1,0.2,0.2,0.5,0.2,0.8
				c0,0.1,0.1,0.3,0.1,0.5C57.3,38.4,57.2,38,57.1,37.6z"/>
			<path class="st1" d="M13,37.6c-0.1,0.4-0.2,0.8-0.3,1.3c0-0.2,0.1-0.4,0.1-0.5C12.9,38.1,12.9,37.9,13,37.6z"/>
			<path class="st1" d="M13.2,36.8c0,0.1-0.1,0.3-0.1,0.4c-0.1,0.2-0.1,0.3-0.2,0.4c-0.1,0.3-0.2,0.7-0.3,1c0,0,0,0,0,0
				c0.1-0.2,0.1-0.5,0.2-0.7C13,37.5,13.1,37.1,13.2,36.8z"/>
			<path class="st1" d="M26.1,41.2c0,1.4-1.1,2.6-2.6,2.6c-1.4,0-2.6-1.1-2.6-2.6c0-1.4,1.1-2.6,2.6-2.6
				C24.9,38.7,26.1,39.8,26.1,41.2z"/>
			<ellipse class="st1" cx="35.7" cy="51.3" rx="8.6" ry="4.4"/>
			<path class="st1" d="M56.9,36.9c0.1,0.2,0.1,0.5,0.2,0.7c-0.6-1.8-1.5-3.6-2.6-5.2c-1-1.4-2.1-2.7-3.5-3.7H51
				c0,0,0.1,0.1,0.1,0.1c1,0.8,1.8,1.6,2.6,2.4c0,0.1,0.1,0.1,0.1,0.2c0.3,0.3,0.5,0.7,0.8,1c0,0.1,0.1,0.1,0.1,0.2
				c0,0,0.1,0.1,0.1,0.2c0.2,0.3,0.4,0.6,0.5,0.9c0.6,1,1.1,2,1.5,3.1c0,0,0,0,0,0c0.1,0.3,0.2,0.5,0.3,0.8
				C57.1,37.3,57,37.1,56.9,36.9z"/>
			<path class="st1" d="M57.4,38.9c-0.1-0.4-0.2-0.9-0.3-1.3c0.1,0.3,0.2,0.5,0.2,0.8C57.3,38.5,57.4,38.7,57.4,38.9z"/>
			<path class="st1" d="M57.5,38.7C57.5,38.7,57.5,38.7,57.5,38.7c-0.1-0.2-0.2-0.5-0.2-0.7C57.4,38.2,57.5,38.4,57.5,38.7z"/>
			<path class="st2" d="M16.7,31c-0.2,0.2-0.4,0.5-0.6,0.8c-0.1,0.2-0.3,0.3-0.4,0.5c0,0-0.1,0.1-0.1,0.1c-1.2,1.6-2,3.4-2.6,5.2
				c0-0.1,0.1-0.3,0.1-0.4c0-0.1,0.1-0.3,0.1-0.4c0,0,0,0,0,0c0.5-1.5,1.3-2.9,2.3-4.2c0.1-0.1,0.1-0.2,0.2-0.2
				c0.1-0.2,0.2-0.4,0.4-0.5C16.3,31.5,16.5,31.2,16.7,31z"/>
			<path class="st2" d="M19.2,28.7c-0.1,0.1-0.2,0.1-0.3,0.2C19,28.8,19,28.8,19.2,28.7C19.1,28.7,19.1,28.7,19.2,28.7z"/>
			<path class="st3" d="M12.5,38.6c0-0.1,0.1-0.2,0.1-0.3l0,0c0,0,0,0,0-0.1"/>
			<path class="st1" d="M19.2,28.7c-0.1,0.1-0.2,0.1-0.3,0.2c-0.8,0.6-1.5,1.3-2.1,2c0,0,0,0.1-0.1,0.1c-0.2,0.2-0.4,0.5-0.6,0.8
				c-0.1,0.2-0.3,0.3-0.4,0.5c0,0-0.1,0.1-0.1,0.1c-1.2,1.6-2,3.4-2.6,5.2c0-0.1,0.1-0.3,0.1-0.4c0-0.1,0.1-0.3,0.1-0.4c0,0,0,0,0,0
				c0.1-0.4,0.2-0.8,0.3-1.2c0.1-0.4,0.2-0.7,0.4-1c0.3-0.7,0.7-1.4,1.3-2.2c-4.4-1-9.8-2.9-11.2-4.1c-0.2-0.1-0.2-0.3-0.3-0.4
				c-0.1-0.1-0.1-0.2-0.2-0.5c-0.2-0.5,0.3-1,0.9-0.9c0.9,0.2,2.3,0.6,4,0.9c1.5,1.6,4,3.3,7.3,4.8c0.1-0.2,0.2-0.4,0.4-0.5
				c-3.3-1.2-5.7-2.6-6.8-4.1C12.4,28.3,16.1,28.9,19.2,28.7C19.1,28.7,19.1,28.7,19.2,28.7z"/>
			<path class="st2" d="M13,37.6c-0.1,0.4-0.2,0.8-0.3,1.3c0-0.2,0.1-0.4,0.1-0.5C12.9,38.1,12.9,37.9,13,37.6z"/>
			<path class="st4" d="M15.3,32.3c-0.6,0.8-1.1,1.5-1.3,2.2c-0.1,0.3-0.3,0.7-0.4,1c-0.1,0.4-0.2,0.8-0.3,1.2c0,0,0,0,0,0
				c0,0.1-0.1,0.3-0.1,0.4c-0.1,0.2-0.1,0.3-0.2,0.4c-0.1,0.3-0.2,0.7-0.3,1c0,0,0,0,0,0c0,0-0.1-0.1-0.1-0.1
				c-0.9-0.6-1.6-1.2-2.4-1.8c-1.1-1-2.1-2-2.8-2.9c-1.7-2.1-2.7-4-3.3-5.5C5.4,29.4,10.9,31.3,15.3,32.3z"/>
			<path class="st5" d="M54.8,32.7L54.8,32.7L54.8,32.7C54.7,32.6,54.8,32.6,54.8,32.7z"/>
			<path class="st3" d="M57.5,38.9C57.5,38.9,57.4,38.9,57.5,38.9"/>
			<path class="st3" d="M51.1,28.7C51.1,28.7,51,28.7,51.1,28.7"/>
			<g>
				<ellipse class="st6" cx="35.7" cy="51.3" rx="8.6" ry="4.4"/>
				<g>
					<line class="st7" x1="33.6" y1="49.5" x2="33.6" y2="53.4"/>
					<line class="st7" x1="37.8" y1="49.5" x2="37.8" y2="53.4"/>
				</g>
			</g>
			<path class="st8" d="M28.2,40c-0.6,1-0.7,2.1-0.3,3l0.4,1c0.4,1-0.4,2.2-1.4,2.3l-2.2,0.2h-0.1l-1.3,0.8c-1.1,0.7-2.7,0-3-1.2
				l-0.4-1c-0.2-0.7-0.8-1.2-1.4-1.4l-0.9-0.3C16,43,15.7,40.9,17,40l1-0.6C19,38.9,19.7,38,20,37l0.2-0.6c0.2-0.8,0.7-1.3,1.4-1.4
				c0.5-0.1,1,0,1.5,0.2c0,0,0,0,0.1,0c1,0.8,2.3,1.1,3.5,1.1h0.2c1.4,0.1,2.3,1.5,1.7,2.8L28.2,40z"/>
			<path class="st0" d="M32.5,59c-0.5,0-0.8,0.5-0.5,0.9c0.6,1.1,1.9,3,3.9,3s3.3-1.8,3.9-3c0.2-0.4-0.1-0.9-0.5-0.9H32.5z"/>
			<path class="st9" d="M9,33.8c-2.4-1.2-5.1,2.7-6.2,4.3c-0.2,0.4-0.1,0.9,0.3,1l4.7,2.6c0.4,0.2,0.9,0,1-0.4
				C9.6,39.5,11.3,35.1,9,33.8z"/>
			<g>
				<path class="st1" d="M57.4,38.9c-0.1-0.4-0.2-0.9-0.3-1.3c0.1,0.3,0.2,0.5,0.2,0.8C57.3,38.5,57.4,38.7,57.4,38.9z"/>
				<path class="st1" d="M66.5,27.5c-0.1,0.1-0.1,0.2-0.2,0.4c0,0,0,0,0,0c0,0,0,0,0,0.1c-0.4,0.9-4.5,2.5-8.6,3.7
					c-0.3,0.1-0.6,0.2-0.9,0.3c-0.6,0.2-1.2,0.3-1.8,0.4c0,0,0,0,0,0c1.3,1.5,1.6,2.8,2,4.4c0,0,0,0,0,0c0,0,0,0.1,0,0.1
					c0.1,0.2,0.1,0.5,0.2,0.7c-0.6-1.8-1.5-3.6-2.6-5.2c-1-1.4-2.1-2.7-3.5-3.7h0.1c5,0.3,11.9-1.5,14.5-2.1
					C66.2,26.4,66.6,27,66.5,27.5z"/>
				<path class="st4" d="M66.4,27.7c-0.6,1.4-1.6,3.7-3.4,6c-0.8,1-1.8,2.1-3,3.1c-0.7,0.6-1.5,1.2-2.3,1.7c0,0,0,0,0,0
					c-0.1-0.2-0.1-0.5-0.2-0.7c0-0.1-0.1-0.2-0.1-0.4c0,0,0,0,0,0c-0.1-0.2-0.2-0.4-0.2-0.7c-0.4-1.1-0.9-2.2-1.5-3.2
					c-0.2-0.3-0.4-0.6-0.6-1c0,0,0,0,0,0s0,0,0,0c0,0,0,0,0-0.1h0c0-0.1-0.1-0.1-0.1-0.2c0,0,0,0,0,0c0.1,0,0.2,0,0.3-0.1
					c0.6-0.1,1.2-0.3,1.8-0.5c0.3-0.1,0.6-0.2,0.9-0.3c3.9-1.2,8-2.8,8.7-3.8c0,0,0,0,0,0C66.3,27.8,66.3,27.8,66.4,27.7z"/>
				<path class="st9" d="M61,33.8c2.4-1.2,5.1,2.7,6.2,4.3c0.2,0.4,0.1,0.9-0.3,1l-4.7,2.6c-0.4,0.2-0.9,0-1-0.4
					C60.4,39.5,58.7,35.1,61,33.8z"/>
			</g>
		</g>
		<g>
			<path class="st10" d="M60.3,26.1L60.3,26.1c0,0.6-0.3,1.2-0.8,1.8c-1,1.2-3,2.5-5.7,3.5c0,0-0.1,0-0.1,0c0,0,0,0,0,0l-0.2-0.1
				l-1.4-0.9l-1.4,2c-0.2,0.1-0.5,0.1-0.7,0.2l-2.3-0.8v1.4c-3.2,0.8-6.9,1.3-10.5,1.5l-1.9-1.4l-1.5,1.4c-2.5,0-5.1-0.2-7.5-0.6
				l-0.2-0.9L25,33.8l-0.5-1.5l-2.9,1c-2-0.4-3.8-1-5.5-1.6c0,0,0,0,0,0c-3.3-1.2-5.7-2.6-6.8-4.1c-0.2-0.3-0.4-0.6-0.4-0.9l0.4-0.7
				l-0.5-0.2c0.2-2.3,3.9-3.9,9.5-4.9c0.2,0,0.4-0.1,0.6-0.1c0.1,0,0.2,0,0.3,0c4.4-0.7,9.8-1,15.6-1c5.8,0,11.1,0.3,15.4,1
				c0.3,0,0.5,0.1,0.8,0.1c0.4,0.1,0.7,0.1,1,0.2h0C57.1,22.2,60.3,23.8,60.3,26.1z"/>
			<path class="st11" d="M49.5,26.4c-2.9,1.1-8.8,2.5-15.2,2.5c-6.4,0-11.9-1.4-14.7-2.5c-1.2-0.5-1.8-1.6-1.5-2.7l0.4-1.3
				c3.7,1.6,9.5,3.1,15.8,3.1c6.4,0,12.5-1.6,16.4-3.2l0.4,1.3C51.3,24.8,50.6,26,49.5,26.4z"/>
			<path class="st12" d="M50.6,22.4c-3.9,1.6-10,3.2-16.4,3.2c-6.3,0-12.1-1.5-15.8-3.1l0.2-0.7L22,9.9C22,9.2,22.2,8.5,22.6,8
				c0.4,1.8,5.6,3.1,11.9,3.1c6.4,0,11.5-1.4,11.9-3.2c0.4,0.6,0.6,1.2,0.7,1.9l3.3,11.9L50.6,22.4z"/>
			<path class="st13" d="M46.5,7.7c0,0.1,0,0.1,0,0.2c-0.4,1.8-5.6,3.2-11.9,3.2C28.2,11.1,23,9.7,22.6,8c0-0.1,0-0.2,0-0.2
				c0-1.9,5.3-3.4,11.9-3.4C41.1,4.3,46.5,5.9,46.5,7.7z"/>
		</g>
		<path class="st14" d="M53.6,31.3c-5.5,3.3-11.3,4.7-16.9,5l-1.2-1.6l-1.6,1.6c-2.8,0-5.5-0.4-8.1-0.9L25,34.7l-0.5,0.5
			c-0.3-0.1-0.5-0.1-0.8-0.2l-0.6-1.2l-1.8,0.6c-2-0.6-3.9-1.3-5.6-2.1c0.1-0.2,0.2-0.4,0.4-0.5c1.6,0.6,3.5,1.1,5.5,1.6l2.9-1
			l0.5,1.5l1.1-0.5l0.2,0.9c2.4,0.3,5,0.5,7.5,0.6l1.5-1.4l1.9,1.4c3.7-0.2,7.3-0.7,10.5-1.5v-1.4l2.3,0.8c0.2-0.1,0.5-0.1,0.7-0.2
			l1.4-2L53.6,31.3z"/>
		<path class="st14" d="M16.1,31.7c-0.1,0.2-0.3,0.3-0.4,0.5c-3.2-1.5-5.8-3.2-7.3-4.8c0.3,0.1,0.6,0.1,0.9,0.2
			C10.4,29.1,12.8,30.6,16.1,31.7z"/>
		<polyline class="st15" points="22.2,39.5 24.9,41.9 22.2,44.2 		"/>
		<polyline class="st16" points="47.7,39.5 45,41.9 47.7,44.2 		"/>
	</g>
	<path class="st8" d="M58.1,53.8c-1.3,3.6-3.8,6.5-7.2,8.6c-0.5-0.3-0.8-0.9-0.8-1.6c0,0,0-0.1,0-0.2l0.1-0.8c0.2-1.1,0-2.1-0.6-2.8
		L49,56.3c-0.6-0.8-0.3-2.1,0.6-2.4l1.9-0.8l0.1,0l1-1.1c0.8-0.9,2.4-0.8,3.1,0.2l0.6,0.7c0.1,0.1,0.2,0.2,0.3,0.3
		c0.4,0.4,0.9,0.6,1.4,0.5H58.1z"/>
</g>
</svg>
