<?xml version="1.0" encoding="utf-8"?>
<!-- Generator: Adobe Illustrator 27.5.0, SVG Export Plug-In . SVG Version: 6.00 Build 0)  -->
<svg version="1.1" id="Layer_1" xmlns="http://www.w3.org/2000/svg" xmlns:xlink="http://www.w3.org/1999/xlink" x="0px" y="0px"
	 viewBox="0 0 70 70" style="enable-background:new 0 0 70 70;" xml:space="preserve">
<style type="text/css">
	.st0{fill:#4B3B40;}
	.st1{fill:#FDEAED;}
	.st2{fill:none;}
	.st3{fill:#FEF7EC;}
	.st4{fill:#E45354;}
	.st5{fill:#F29B9E;}
	.st6{fill:none;stroke:#4B3B40;stroke-linecap:round;stroke-miterlimit:10;}
	.st7{fill:#4C3C41;}
	.st8{fill:none;stroke:#010101;stroke-linecap:round;stroke-miterlimit:10;}
	.st9{fill:#FBE96C;}
	.st10{fill:#EED464;}
	.st11{fill:none;stroke:#FEF7EC;stroke-linecap:round;stroke-linejoin:round;stroke-miterlimit:10;}
	.st12{fill:none;stroke:#4B3B40;stroke-linecap:round;stroke-linejoin:round;stroke-miterlimit:10;}
	.st13{fill:none;stroke:#4B3B40;stroke-width:1.5;stroke-linecap:round;stroke-miterlimit:10;}
</style>
<g>
	<path class="st0" d="M9.2,45.4c-0.4,0-0.8-0.1-1.1-0.3l-4.5-2.5c-1.2-0.6-1.7-2.1-1-3.4l0-0.1L2.7,39c1.1-1.7,2.1-2.9,3.2-3.8
		c-0.8-1.3-1.6-2.6-2.1-4l2.9-2.1c0.9,0.7,5.5,2.5,9.9,3.5l2.8,0.7l-1.8,2.3c-0.2,0.2-0.4,0.4-0.5,0.7c0,0-0.1,0.2-0.2,0.3
		c-0.1,0.1-0.1,0.2-0.2,0.4l-0.2,0.4c0,0.1-0.1,0.2-0.1,0.4l0,0.1c0,0.1-0.1,0.2-0.1,0.3c-0.1,0.3-0.2,0.5-0.2,0.9v0.5l-0.3,0.3
		c-0.1,0.2-0.1,0.4-0.2,0.6c0,0.1-0.1,0.3-0.1,0.4c0,0.1-0.1,0.2-0.1,0.3l-0.8,2.5l-2.2-1.6c-0.3,0.9-0.6,1.7-0.8,2.1
		C11.1,44.8,10.2,45.4,9.2,45.4z"/>
	<path class="st0" d="M13.5,40.5c0,0,0-0.1,0-0.1c0,0,0.1,0.1,0.1,0.1c0.1-0.2,0.1-0.5,0.2-0.7c0.1-0.3,0.2-0.7,0.3-1c0,0,0,0,0,0
		c0.1-0.4,0.2-0.8,0.3-1.2c0-0.1,0.1-0.3,0.1-0.4c0.1-0.2,0.1-0.3,0.2-0.5c0,0,0-0.1,0-0.1c0.1-0.1,0.1-0.3,0.2-0.4
		c0.1-0.2,0.2-0.4,0.3-0.6c0.1-0.1,0.1-0.2,0.2-0.3c0.2-0.3,0.4-0.5,0.6-0.8c-4.2-1-9.4-2.8-10.7-3.9c0.6,1.4,1.5,3.3,3.1,5.2
		c0,0,0,0,0,0c-1.8,0.5-3.6,3-4.3,4.2c-0.2,0.4-0.1,0.8,0.3,1l4.5,2.5c0.4,0.2,0.8,0,1-0.4c0.5-1,1.2-2.9,1.3-4.5c0,0,0,0,0,0
		c0.7,0.6,1.4,1.2,2.2,1.7L13.5,40.5z"/>
	<path class="st0" d="M35.4,68.2c-11.8,0-24.5-6.2-24.6-19.7c0-3,0.4-5.8,1.1-8.3l0.1-0.5c0.1-0.2,0.1-0.4,0.2-0.5
		c0.1-0.3,0.2-0.7,0.3-1c0.1-0.4,0.2-0.7,0.3-1.1c0.1-0.2,0.1-0.4,0.2-0.6c0-0.1,0.1-0.3,0.2-0.5l0.1-0.2l0.1-0.2
		c-3.4-0.9-7.6-2.4-9.1-3.7c-0.3-0.3-0.6-0.6-0.7-0.9c-0.1-0.1-0.1-0.2-0.2-0.4l-0.1-0.2C3,29.7,3,28.8,3.5,28.2
		c0.5-0.7,1.2-1.1,2-1.1c0.2,0,0.5,0,0.7,0.1l0.5,0.1c1.2,0.3,3,0.7,5,1.1c0.3-1.2,1.2-2.5,3.2-3.8c0-2.1,0.4-4.1,1-6.1
		c0,0,0,0,0-0.1c-0.3-0.8-0.8-3.1,1.6-6.4c2.3-3.3,4.6-3.7,5.5-3.7c0,0,0.1,0,0.1,0c0.7-0.6,1.5-1.1,2.3-1.6
		c0.1-0.4,0.2-0.8,0.6-1.3c0.6-0.9,3.1-3.7,9.8-3.7c6.9,0,9.4,2.8,10,3.7c0.3,0.5,0.5,0.9,0.6,1.3c0.8,0.5,1.6,1,2.3,1.6
		c0.1,0,0.1,0,0.2,0c0.9,0,3.2,0.4,5.5,3.7c2.3,3.3,1.9,5.6,1.6,6.4c0,0.1-0.1,0.2-0.1,0.2c0.6,1.9,0.9,3.9,1,5.9
		c1.9,1.2,2.8,2.4,3.1,3.5c1-0.2,1.9-0.4,2.6-0.6c0.4-0.1,0.8-0.2,1.1-0.3c0.2-0.1,0.4-0.1,0.7-0.1c0.8,0,1.6,0.4,2,1.1
		c0.5,0.7,0.5,1.5,0.3,2.3l-0.1,0.2l0,0l0,0.1l0,0.1c-0.6,1.7-1.4,3.2-2.4,4.6c1,0.9,2,2.1,3,3.6l0.1,0.1l0,0.1
		c0.3,0.6,0.4,1.2,0.2,1.8c-0.2,0.7-0.6,1.3-1.3,1.6L62,45.1c-0.4,0.2-0.8,0.3-1.2,0.3l0,0c-0.6,0-1.1-0.2-1.6-0.6
		c0,0.5,0,1.1,0,1.7c0,0.7,0,1.3,0,2c0,2.4-0.4,4.7-1.1,6.8c-1.4,3.9-4,7-7.8,9.2c-2.3,1.3-4.9,2.4-7.9,3C40,68,37.6,68.2,35.4,68.2
		z"/>
	<path class="st0" d="M65.8,40c-0.7-1.1-2.4-3.5-4.1-4.1c1.8-2.2,2.8-4.4,3.3-5.8c0,0,0,0.1,0,0.1c0.1-0.2,0.1-0.3,0.1-0.4
		c0.2-0.5-0.3-1-0.8-0.8c-1.2,0.3-3.4,0.8-5.9,1.3c0.1-0.3,0.1-0.5,0.1-0.8c0-1.4-1.2-2.7-3.4-3.8V25c0-2.4-0.4-4.6-1.2-6.7l0.2,0
		c0.3-0.1,1.1-1.9-1.1-5.1s-4.3-3.1-4.5-2.8l-0.1,0.1c-1.2-1-2.5-1.9-4-2.6l0.2-0.5c0.2-0.5-1.8-3.7-8.7-3.7c-6.9,0-8.8,3.1-8.6,3.7
		l0.2,0.5c-1.4,0.7-2.7,1.6-3.9,2.6l-0.1-0.1C23.3,10,21.2,10,19,13.1s-1.4,5-1.1,5.1l0.1,0c-0.8,2.1-1.2,4.4-1.2,6.7v0.7
		c-2.1,1.1-3.4,2.4-3.4,3.8c0,0.4,0.1,0.7,0.2,1.1c-3.2-0.5-6.3-1.3-7.9-1.7c-0.5-0.2-1,0.4-0.8,0.8C5,30,5.1,30.1,5.1,30.2
		c0,0.1,0.1,0.2,0.3,0.4c1.3,1.1,6.5,2.9,10.7,3.9c-0.2,0.3-0.4,0.5-0.6,0.8c-0.1,0.1-0.1,0.2-0.2,0.3c-0.1,0.2-0.2,0.4-0.3,0.6
		c-0.1,0.1-0.1,0.3-0.2,0.4c0,0,0,0.1,0,0.1c-0.1,0.2-0.1,0.3-0.2,0.5c-0.1,0.1-0.1,0.3-0.1,0.4c-0.1,0.4-0.2,0.8-0.3,1.2
		c0,0,0,0,0,0c-0.1,0.3-0.2,0.7-0.3,1c-0.1,0.2-0.1,0.5-0.2,0.7c0,0.1,0,0.1-0.1,0.2c-0.7,2.5-1,5.3-1,7.8
		c0.1,12.7,12.4,17.9,22.8,17.9c2.3,0,4.5-0.3,6.8-0.7c2.6-0.6,5.1-1.5,7.3-2.8c3.1-1.9,5.7-4.5,7-8.3c0.6-1.8,1-3.8,1-6.2
		c0-1.3-0.1-2.5-0.1-3.7c-0.2-1.4-0.4-2.6-0.7-3.9c0-0.1,0-0.2-0.1-0.3c0,0,0,0,0,0c0,0,0,0,0,0c0,0,0,0,0,0
		c0.8-0.5,1.6-1.1,2.2-1.7c0.2,1.6,0.9,3.3,1.3,4.2c0.2,0.4,0.6,0.5,1,0.4l4.5-2.5C65.9,40.8,66,40.4,65.8,40z M23.7,48.8
		c-0.1,0.1-0.3,0.1-0.4,0.2C23.5,48.9,23.6,48.8,23.7,48.8L25,48h0L23.7,48.8z M28.8,41.1l-0.4,0.7c-0.5,1-0.6,2-0.3,2.9l0.4,0.9
		c0.3,0.9-0.2,1.8-1,2.1c0.8-0.3,1.3-1.2,1-2.1l-0.4-0.9c-0.4-0.9-0.3-1.9,0.3-2.9L28.8,41.1c0.5-1.3-0.3-2.6-1.6-2.7H27
		c-1.2,0-2.4-0.4-3.4-1.1c-0.5-0.4-1.2-0.4-1.7-0.2c0.5-0.2,1.2-0.2,1.7,0.2c1,0.7,2.2,1.1,3.4,1.1h0.2
		C28.5,38.5,29.4,39.8,28.8,41.1z M40.3,56.1c2.2-0.8,3.6-2,3.6-3.5c0-2.3-3.7-4.2-8.3-4.2c-1.7,0-3.3,0.3-4.6,0.7
		c1.3-0.5,2.9-0.7,4.6-0.7c4.6,0,8.3,1.9,8.3,4.2C43.9,54.1,42.5,55.4,40.3,56.1z M56.7,33.8c-0.3,0.1-0.6,0.2-0.9,0.2
		c-0.6,0.2-1.2,0.3-1.7,0.4c0,0,0,0,0,0c0,0,0,0,0,0c0.6-0.1,1.2-0.3,1.8-0.4C56,34,56.4,33.9,56.7,33.8c0.9-0.3,1.9-0.6,2.8-0.9
		C58.5,33.2,57.6,33.5,56.7,33.8z"/>
</g>
<g>
	<g>
		<path class="st1" d="M19.8,31c-0.1,0.1-0.2,0.1-0.3,0.2C19.6,31.2,19.7,31.1,19.8,31C19.8,31,19.8,31,19.8,31z"/>
		<path class="st2" d="M13.5,40.5c0-0.1,0.1-0.2,0.1-0.3l0,0c0,0,0,0,0-0.1"/>
		<path class="st3" d="M56.2,39.5c-0.1-0.2-0.2-0.4-0.2-0.6c0,0,0-0.1,0-0.1C56.1,39,56.1,39.2,56.2,39.5z"/>
		<path class="st3" d="M56.6,40.6C56.6,40.6,56.5,40.6,56.6,40.6c-0.1-0.2-0.1-0.5-0.2-0.7C56.4,40.1,56.5,40.3,56.6,40.6z"/>
		<path class="st4" d="M16.1,34.5c-0.2,0.3-0.4,0.5-0.6,0.8c-0.1,0.1-0.1,0.2-0.2,0.3c-0.1,0.2-0.2,0.4-0.3,0.6
			c-0.1,0.1-0.1,0.3-0.2,0.4c0,0,0,0.1,0,0.1c-0.1,0.2-0.1,0.3-0.2,0.5c-0.1,0.1-0.1,0.3-0.1,0.4c-0.1,0.4-0.2,0.8-0.3,1.2
			c0,0,0,0,0,0c-0.1,0.3-0.2,0.7-0.3,1c-0.1,0.2-0.1,0.5-0.2,0.7c0,0-0.1-0.1-0.1-0.1c-0.8-0.6-1.6-1.1-2.3-1.8
			c-1.1-0.9-2-1.9-2.7-2.8c-1.6-2-2.6-3.9-3.1-5.2C6.7,31.7,11.9,33.5,16.1,34.5z"/>
		<path class="st2" d="M56.5,40.8C56.5,40.8,56.5,40.8,56.5,40.8"/>
		<g>
			<ellipse class="st5" cx="35.6" cy="52.7" rx="8.3" ry="4.2"/>
			<g>
				<line class="st6" x1="33.6" y1="50.9" x2="33.6" y2="54.7"/>
				<line class="st6" x1="37.6" y1="50.9" x2="37.6" y2="54.7"/>
			</g>
		</g>
		<path class="st7" d="M28.5,41.8c-0.5,1-0.6,2-0.3,2.9l0.4,0.9c0.4,1-0.4,2.1-1.4,2.2L25.1,48H25l-1.3,0.7c-1.1,0.6-2.5,0-2.9-1.2
			l-0.4-0.9c-0.2-0.6-0.7-1.2-1.4-1.4L18.3,45c-1.5-0.4-1.7-2.4-0.5-3.2l1-0.5c0.9-0.5,1.5-1.4,1.8-2.4l0.2-0.5
			c0.3-1.3,1.7-1.8,2.8-1.1c1,0.7,2.2,1.1,3.4,1.1h0.2c1.4,0.1,2.2,1.5,1.6,2.7L28.5,41.8z"/>
		<path class="st8" d="M31.7,60.8c0,0,1.6-0.4,4.4-0.4s3.8,0.4,3.8,0.4"/>
		<path class="st9" d="M25,28.2c-1.7,0.6-3.2,1.4-4.5,2.2c-0.1,0-0.1,0.1-0.1,0.1c-0.9-1.2-2.8-4.4-0.9-8.3
			C19.8,24.7,22.4,27.5,25,28.2z"/>
		<path class="st9" d="M49.8,30.6c-1.4-1-3-1.8-4.8-2.4c2.8-0.6,5.4-3.6,5.7-6C52.7,26.3,50.6,29.6,49.8,30.6z"/>
		<path class="st9" d="M10.1,35.9c-2.3-1.2-4.9,2.5-5.9,4.1c-0.2,0.4-0.1,0.8,0.3,1l4.5,2.5c0.4,0.2,0.8,0,1-0.4
			C10.7,41.4,12.4,37.1,10.1,35.9z"/>
		<path class="st3" d="M64.3,29c-2.5,0.5-9.1,2.2-13.9,2h0c-0.2-0.1-0.4-0.2-0.5-0.4c0,0,0,0,0,0c-1.4-1-3-1.8-4.8-2.4c0,0,0,0,0,0
			c-2.7-0.9-6-1.5-9.9-1.5c-3.8,0-7,0.5-9.6,1.4c-0.1,0-0.2,0.1-0.3,0.1c-1.7,0.6-3.2,1.4-4.5,2.2c-0.1,0-0.1,0.1-0.1,0.1
			c-0.2,0.2-0.4,0.3-0.6,0.4c0,0,0,0,0,0c-0.1,0.1-0.2,0.1-0.3,0.2c0.1-0.1,0.2-0.1,0.3-0.2C15,31.3,8.4,29.6,5.8,28.9
			c-0.5-0.2-1,0.4-0.8,0.8C5,30,5.1,30.1,5.1,30.2c0,0.1,0.1,0.2,0.3,0.4c1.3,1.1,6.5,2.9,10.7,3.9c-0.2,0.3-0.4,0.5-0.6,0.8
			c-0.1,0.1-0.1,0.2-0.2,0.3c-0.1,0.2-0.2,0.4-0.3,0.6c-0.1,0.1-0.1,0.3-0.2,0.4c0,0,0,0.1,0,0.1c-0.1,0.2-0.1,0.3-0.2,0.5
			c-0.1,0.1-0.1,0.3-0.1,0.4c-0.1,0.4-0.2,0.8-0.3,1.2c0,0,0,0,0,0c-0.1,0.3-0.2,0.7-0.3,1c-0.1,0.2-0.1,0.5-0.2,0.7
			c0,0.1,0,0.1-0.1,0.2c-0.7,2.5-1,5.3-1,7.8c0.1,12.7,12.4,17.9,22.8,17.9c2.3,0,4.5-0.3,6.8-0.7c2.6-0.6,5.1-1.5,7.3-2.8
			c3.1-1.9,5.7-4.5,7-8.3c0.6-1.8,1-3.8,1-6.2c0-1.3-0.1-2.5-0.1-3.7c-0.2-1.4-0.4-2.6-0.7-3.9c0-0.1,0-0.2-0.1-0.3c0,0,0,0,0,0
			c-0.1-0.2-0.1-0.5-0.2-0.7c0-0.1-0.1-0.2-0.1-0.4c0,0,0,0,0,0c-0.1-0.2-0.2-0.4-0.2-0.6c0,0,0-0.1,0-0.1c0,0,0,0,0,0
			c-0.4-1.5-0.7-2.7-1.9-4.2c0,0,0,0,0,0c0.6-0.1,1.2-0.3,1.8-0.4c0.3-0.1,0.6-0.2,0.9-0.2c3.8-1.1,7.7-2.7,8.3-3.6c0,0,0,0,0,0
			c0.1-0.2,0.1-0.3,0.1-0.4C65.3,29.4,64.8,28.8,64.3,29z M25.1,48L25.1,48l-1.4,0.7c-1.1,0.6-2.5,0-2.9-1.2l-0.4-0.9
			c-0.2-0.6-0.7-1.2-1.4-1.4L18.3,45c-1.5-0.4-1.7-2.4-0.5-3.2l1-0.5c0.9-0.5,1.5-1.4,1.8-2.4l0.2-0.5c0.3-1.3,1.7-1.8,2.8-1.1
			c1,0.7,2.2,1.1,3.4,1.1h0.2c1.4,0.1,2.2,1.5,1.6,2.7l-0.4,0.7c-0.5,1-0.6,2-0.3,2.9l0.4,0.9c0.4,1-0.4,2.1-1.4,2.2L25.1,48z
			 M35.6,56.8c-4.6,0-8.3-1.9-8.3-4.2c0-2.3,3.7-4.2,8.3-4.2c4.6,0,8.3,1.9,8.3,4.2C43.9,55,40.2,56.8,35.6,56.8z"/>
		<path class="st3" d="M64.9,30.2C64.9,30.3,64.9,30.3,64.9,30.2c-0.4,1-4.4,2.5-8.3,3.6C60.4,32.7,64.3,31.1,64.9,30.2z"/>
		<path class="st4" d="M65,30.1c-0.5,1.4-1.5,3.5-3.3,5.8c-0.8,1-1.8,2-2.9,3c-0.7,0.6-1.4,1.1-2.2,1.7c0,0,0,0,0,0
			c-0.1-0.2-0.1-0.5-0.2-0.7c0-0.1-0.1-0.2-0.1-0.4c0,0,0,0,0,0c-0.1-0.2-0.2-0.4-0.2-0.6c0,0,0-0.1,0-0.1c0,0,0,0,0,0
			c-0.4-1.5-0.7-2.7-1.9-4.2c0.6-0.1,1.1-0.3,1.7-0.4c0.3-0.1,0.6-0.2,0.9-0.2c3.8-1.1,7.7-2.7,8.3-3.6C64.9,30.2,64.9,30.2,65,30.1
			C65,30.2,65,30.1,65,30.1z"/>
		<path class="st9" d="M59.9,35.9c2.3-1.2,4.9,2.5,5.9,4.1c0.2,0.4,0.1,0.8-0.3,1l-4.5,2.5c-0.4,0.2-0.8,0-1-0.4
			C59.3,41.4,57.6,37.1,59.9,35.9z"/>
		<path class="st7" d="M56.5,54.6c-1.3,3.7-3.8,6.4-7,8.3c-0.4-0.3-0.6-0.8-0.6-1.4c0,0,0-0.1,0-0.1l0.1-0.8c0.2-1.1,0-2-0.6-2.7
			l-0.6-0.7c-0.6-0.8-0.3-2,0.6-2.4l1.8-0.8l0.1,0l0.9-1c0.8-0.9,2.3-0.8,3,0.2l0.6,0.7c0.1,0.1,0.2,0.2,0.3,0.3
			C55.4,54.5,55.9,54.7,56.5,54.6L56.5,54.6z"/>
		<path class="st7" d="M48.4,44.2c0,1-0.8,1.8-1.8,1.8c-1,0-1.8-0.8-1.8-1.8c0-1,0.8-1.8,1.8-1.8C47.6,42.4,48.4,43.2,48.4,44.2z"/>
		<path class="st3" d="M25.7,44.2c0,1-0.8,1.8-1.8,1.8c-1,0-1.8-0.8-1.8-1.8c0-1,0.8-1.8,1.8-1.8C24.8,42.4,25.7,43.2,25.7,44.2z"/>
	</g>
	<g>
		<path class="st9" d="M58.5,29.5c0,4-10,8.8-22.4,8.8s-22.6-4.7-22.6-8.8s10.1-7.3,22.5-7.3S58.5,25.5,58.5,29.5z"/>
		<path class="st10" d="M55.1,24.9v3.5c-8,6.9-27.7,8-38.3,0v-3.5c0-7.5,4.3-14,10.6-17.2l7.7,20.1c0.3,0.7,1.3,0.7,1.5,0l7.7-20.1
			c1.9,0.9,3.6,2.2,5,3.6C53,14.9,55.1,19.7,55.1,24.9z"/>
		<path class="st9" d="M44.6,7.3l-0.2,0.5l-7.7,20.1c-0.3,0.7-1.3,0.7-1.5,0L27.5,7.8l-0.2-0.5c-0.2-0.5,1.7-3.7,8.6-3.7
			S44.8,6.8,44.6,7.3z"/>
		<path class="st9" d="M48.5,10.3l-0.2,0.2l-6.7,9.9c-0.2,0.4,0.1,0.8,0.5,0.7l11.6-2.9l0.3-0.1c0.3-0.1,1.1-1.9-1.1-5.1
			C50.8,10,48.7,10,48.5,10.3z"/>
		<path class="st9" d="M23.5,10.3l0.2,0.2l6.7,9.9c0.2,0.4-0.1,0.8-0.5,0.7l-11.6-2.9l-0.3-0.1c-0.3-0.1-1.1-1.9,1.1-5.1
			S23.3,10,23.5,10.3z"/>
	</g>
	<line class="st11" x1="22" y1="41.3" x2="25.7" y2="41.3"/>
	<line class="st12" x1="44.7" y1="41.3" x2="48.4" y2="41.3"/>
	<line class="st13" x1="31.6" y1="60.4" x2="40.2" y2="60.4"/>
	<path class="st13" d="M31,59.1c0,0,1,1.4-0.2,2.7"/>
</g>
</svg>
