<?xml version="1.0" encoding="utf-8"?>
<!-- Generator: Adobe Illustrator 27.5.0, SVG Export Plug-In . SVG Version: 6.00 Build 0)  -->
<svg version="1.1" id="Layer_1" xmlns="http://www.w3.org/2000/svg" xmlns:xlink="http://www.w3.org/1999/xlink" x="0px" y="0px"
	 viewBox="0 0 70 70" style="enable-background:new 0 0 70 70;" xml:space="preserve">
<style type="text/css">
	.st0{fill:#4B3B40;}
	.st1{font-family:'PatrickHand-Regular';}
	.st2{font-size:1.8829px;}
	.st3{fill:#FDEAED;}
	.st4{fill:none;}
	.st5{fill:#FEF7EC;}
	.st6{fill:#E45354;}
	.st7{fill:#F29B9E;}
	.st8{fill:none;stroke:#4B3B40;stroke-linecap:round;stroke-miterlimit:10;}
	.st9{fill:#4C3C41;}
	.st10{fill:#F7F8F9;}
	.st11{fill:none;stroke:#010101;stroke-linecap:round;stroke-miterlimit:10;}
	.st12{fill:#FBE96C;}
	.st13{fill:none;stroke:#4C3C41;stroke-width:1.5;stroke-linecap:round;stroke-miterlimit:10;}
	.st14{fill:none;stroke:#FEF7EC;stroke-linecap:round;stroke-linejoin:round;stroke-miterlimit:10;}
	.st15{fill:#90D7F1;}
	.st16{fill:#CBEBF6;}
</style>
<g>
	<text transform="matrix(1 0 0 1 34.6147 17.2695)" class="st0 st1 st2">N</text>
	<text transform="matrix(1 0 0 1 28.793 22.7305)" class="st0 st1 st2">W</text>
	<text transform="matrix(1 0 0 1 40.6309 22.7305)" class="st0 st1 st2">E</text>
	<text transform="matrix(1 0 0 1 34.6147 28.9443)" class="st0 st1 st2">S</text>
	<path class="st0" d="M35.5,61.9c-12.2,0-25.4-6.4-25.5-20.4c0-1.3,0.1-2.5,0.2-3.7c0-0.1-0.1-0.1-0.1-0.1c-0.5,0.4-1,0.6-1.6,0.6
		c-0.4,0-0.8-0.1-1.2-0.3l-4.7-2.6c-1.2-0.6-1.7-2.2-1.1-3.5l0-0.1l0.1-0.1c1.1-1.7,2.2-3,3.3-3.9c0,0,0-0.1,0-0.1
		c-0.8-1.2-1.5-2.4-2-3.7c-0.2-0.2-0.3-0.4-0.4-0.6c-0.1-0.1-0.1-0.2-0.2-0.4l-0.1-0.2C1.9,22,2,21.1,2.5,20.4
		c0.5-0.7,1.3-1.1,2.1-1.1c0.2,0,0.5,0,0.7,0.1l0.6,0.1c2.4,0.6,7,1.7,11,1.9c0.1,0,0.1-0.1,0.1-0.1c-1-2.6-0.9-5.3,0.4-7.9l0.2-0.4
		c0.8-1.6,3.1-1.2,3.3,0.6l0,0.4c0.2,1.4,1.8,3.5,3.8,4.3c0,0,0,0,0.1,0c0.8-0.3,1.7-0.5,2.7-0.7c0,0,0,0,0,0
		c0.9-1.5,2.2-2.6,3.8-3.4c0,0,0,0,0,0l2-4.4c0.4-0.9,1.4-1.4,2.4-1.2c0.7,0.2,1.2,0.7,1.5,1.3c0.6,1.3,1.8,4.1,2,4.4c0,0,0,0,0,0
		c1.5,0.8,2.7,1.9,3.5,3.3c0,0,0,0,0,0c0.9,0.2,1.8,0.4,2.6,0.7c0,0,0,0,0.1,0c2-0.7,3.8-2.9,3.9-4.4l0.1-0.5
		c0.2-1.7,2.5-2.1,3.3-0.6l0.2,0.4c1.5,2.9,1.3,5.7,0.5,7.9c0,0.1,0,0.1,0.1,0.1c3.6-0.2,7.7-1.1,10.2-1.7c0.5-0.1,0.8-0.2,1.2-0.3
		c0.2-0.1,0.5-0.1,0.7-0.1c0.8,0,1.6,0.4,2.1,1.1c0.5,0.7,0.6,1.6,0.3,2.3l-0.1,0.2l0,0l0,0l0,0l0,0c-0.7,1.7-1.5,3.3-2.4,4.7
		c0,0,0,0.1,0,0.1c1,0.9,2.1,2.1,3.1,3.7l0.1,0.1l0,0.1c0.3,0.6,0.4,1.3,0.2,1.9c-0.2,0.7-0.7,1.3-1.3,1.7L63,37.9
		c-0.4,0.2-0.8,0.3-1.2,0.3l0,0c-0.6,0-1.2-0.2-1.7-0.6c0,0.6,0,1.1,0,1.7c0,0.7,0,1.4,0,2.1c0,2.5-0.4,4.9-1.1,7
		c-1.4,4-4.1,7.2-8,9.6l-2.8,1.4c-1.6,0.7-3.4,1.2-5.3,1.7C40.3,61.6,37.8,61.9,35.5,61.9z"/>
	<path class="st0" d="M67,32.7c-0.7-1.2-2.4-3.5-4.2-4.3c0,0-0.1-0.1,0-0.1c1.8-2.3,2.8-4.5,3.4-5.9c0,0,0,0.1-0.1,0.1
		c0.1-0.2,0.1-0.3,0.2-0.4c0.2-0.5-0.3-1-0.8-0.8c-2.6,0.6-9.4,2.3-14.4,2.1h0c-0.2-0.1-0.4-0.2-0.5-0.4c0,0,0,0,0,0
		c0.9-1.1,2.9-4.4,1-8.5c0-0.1-0.1-0.1-0.1,0c-0.4,2.5-3.1,5.3-5.9,5.9c0,0,0,0,0,0c0,0,0,0,0,0c-1.2-0.4-2.4-0.7-3.8-1
		c0,0,0,0-0.1,0c-0.8-1.6-2.1-2.9-3.8-3.6c0,0,0-0.1,0-0.1l-2.2-4.9c-0.1-0.2-0.4-0.2-0.5,0l-2.2,4.9c0,0,0,0,0,0
		c-1.8,0.6-3.2,1.9-4,3.6c0,0,0,0-0.1,0c-1.3,0.2-2.5,0.5-3.6,0.9c-0.1,0-0.2,0.1-0.3,0.1c0,0,0,0,0,0c-2.7-0.7-5.2-3.5-5.7-5.9
		c0-0.1-0.1-0.1-0.1,0c-1.8,3.9,0.1,7.2,1,8.3c0,0,0,0,0,0c-0.2,0.2-0.4,0.3-0.6,0.5c0,0,0,0,0,0c0,0,0,0,0,0c0,0,0,0,0,0
		c-0.1,0.1-0.1,0.1-0.2,0.2c0,0,0,0-0.1,0c0.1-0.1,0.2-0.1,0.3-0.2c-5,0.3-11.8-1.5-14.6-2.2c-0.6-0.2-1,0.4-0.8,0.8
		c0.1,0.3,0.1,0.3,0.2,0.5c0,0.1,0.1,0.2,0.3,0.4C5,24.3,6,26.2,7.6,28.3c0,0,0,0.1,0,0.1C5.7,29,4,31.5,3.2,32.7
		c-0.2,0.4-0.1,0.8,0.3,1l4.6,2.5c0.4,0.2,0.8,0,1-0.4c0.5-1,1.3-3,1.4-4.7c0.3,0.3,0.7,0.6,1.1,0.9c0.4,0.3,0.8,0.6,1.2,0.9l0,0.1
		c0,0,0-0.1,0-0.1c0,0,0.1,0.1,0.1,0.1c0,0.1,0,0.1-0.1,0.2c-0.2,0.5-0.3,1.1-0.4,1.6c-0.5,2.1-0.6,4.4-0.6,6.5
		C11.9,54.7,24.7,60,35.5,60c2.4,0,4.7-0.3,7.1-0.8c2.7-0.6,5.3-1.5,7.6-2.9c0,0,0,0,0,0c0,0,0,0,0,0c3.2-1.9,5.9-4.7,7.2-8.6h0
		c0,0,0,0,0,0c0.6-1.9,1-4,1-6.4c0-1.3-0.1-2.6-0.1-3.9c0,0,0,0,0,0c-0.1-1-0.3-1.9-0.4-2.8c-0.1-0.5-0.2-1-0.4-1.5c0,0,0-0.1,0-0.1
		c0.5-0.3,1-0.7,1.4-1c0.3-0.2,0.6-0.5,0.9-0.7c0.2,1.6,0.9,3.4,1.3,4.4c0.2,0.4,0.7,0.6,1,0.4l4.6-2.5C67.1,33.6,67.2,33.1,67,32.7
		z M56.6,26.5c-0.6,0.2-1.2,0.3-1.8,0.5c0,0,0,0,0,0C55.4,26.8,56,26.7,56.6,26.5z M17.3,34.6l1-0.6c0.9-0.6,1.6-1.4,1.9-2.4
		l0.2-0.6c0.3-1.3,1.8-1.9,2.9-1.1c1,0.8,2.3,1.1,3.5,1.1H27c0.5,0,1,0.3,1.3,0.6C28,31.3,27.5,31.1,27,31h-0.2
		c-1.2,0-2.4-0.4-3.5-1.1c-1.1-0.8-2.6-0.2-2.9,1.1l-0.2,0.6c-0.3,1-0.9,1.9-1.9,2.4L17.3,34.6c-1,0.6-1.1,2-0.4,2.7
		C16.2,36.6,16.3,35.2,17.3,34.6z M20.4,40.5L20,39.6c-0.1-0.3-0.3-0.6-0.5-0.9c0.2,0.2,0.4,0.6,0.5,0.9L20.4,40.5
		c0.1,0.3,0.3,0.6,0.5,0.8C20.7,41.1,20.5,40.8,20.4,40.5z M27.2,45.8c0-2.4,3.8-4.3,8.6-4.3c3.3,0,6.1,0.9,7.5,2.3
		c-1.4-1.3-4.3-2.3-7.5-2.3C31,41.5,27.2,43.4,27.2,45.8c0,0.7,0.4,1.5,1,2.1C27.6,47.3,27.2,46.6,27.2,45.8z"/>
</g>
<g>
	<g>
		<path class="st3" d="M19.4,23.4c-0.1,0.1-0.2,0.1-0.3,0.2C19.2,23.5,19.3,23.5,19.4,23.4C19.4,23.4,19.4,23.4,19.4,23.4z"/>
		<path class="st4" d="M12.8,33.2c0-0.1,0.1-0.2,0.1-0.3l0,0c0,0,0,0,0-0.1"/>
		<path class="st5" d="M57.1,32.2c-0.1-0.2-0.2-0.4-0.2-0.7c0,0,0-0.1,0-0.1C56.9,31.6,57,31.9,57.1,32.2z"/>
		<path class="st5" d="M57.4,33.3C57.4,33.3,57.4,33.3,57.4,33.3c-0.1-0.2-0.2-0.5-0.2-0.7C57.3,32.8,57.4,33,57.4,33.3z"/>
		<path class="st6" d="M15.5,27c-0.2,0.3-0.4,0.6-0.6,0.8c-0.1,0.1-0.1,0.2-0.2,0.3c-0.1,0.2-0.2,0.4-0.3,0.6
			c-0.1,0.1-0.1,0.3-0.2,0.4c0,0,0,0.1,0,0.1c-0.1,0.2-0.1,0.4-0.2,0.5c-0.1,0.2-0.1,0.3-0.2,0.5c0,0.1-0.1,0.3-0.1,0.4
			c-0.1,0.3-0.1,0.5-0.2,0.8c0,0,0,0,0,0c-0.1,0.3-0.2,0.7-0.4,1.1c-0.1,0.2-0.1,0.5-0.2,0.7c0,0-0.1-0.1-0.1-0.1
			c-0.4-0.3-0.9-0.6-1.3-0.9c-0.4-0.3-0.7-0.6-1.1-0.9c0.1-1.2-0.2-2.3-1.2-2.8c-0.5-0.3-1.1-0.3-1.6-0.1c-1.7-2.1-2.6-4-3.2-5.4
			C5.8,24.1,11.2,26,15.5,27z"/>
		<path class="st6" d="M10.5,31.3c-1.1-1-2-1.9-2.8-2.9c0.5-0.2,1.1-0.1,1.6,0.1C10.3,29,10.6,30.1,10.5,31.3z"/>
		<path class="st4" d="M57.4,33.5C57.4,33.5,57.3,33.5,57.4,33.5"/>
		<g>
			<ellipse class="st7" cx="35.8" cy="45.8" rx="8.6" ry="4.3"/>
			<g>
				<line class="st8" x1="33.7" y1="44" x2="33.7" y2="47.9"/>
				<line class="st8" x1="37.8" y1="44" x2="37.8" y2="47.9"/>
			</g>
		</g>
		<path class="st9" d="M28.3,34.6c-0.6,1-0.7,2.1-0.3,3l0.4,0.9c0.4,1-0.4,2.2-1.4,2.3L24.8,41h-0.1l-1.3,0.8c-1.1,0.7-2.6,0-3-1.2
			L20,39.6c-0.2-0.7-0.8-1.2-1.4-1.4l-0.8-0.3c-1.5-0.4-1.8-2.4-0.5-3.3l1-0.6c0.9-0.6,1.6-1.4,1.9-2.4l0.2-0.6
			c0.3-1.3,1.8-1.9,2.9-1.1c1,0.8,2.3,1.1,3.5,1.1H27c1.4,0.1,2.3,1.5,1.7,2.8L28.3,34.6z"/>
		<circle class="st10" cx="23.7" cy="36.8" r="1.9"/>
		<path class="st11" d="M31.7,54.3c0,0,1.3,1.9,4.2,1.9c2.9,0,4.2-1.9,4.2-1.9"/>
		<path class="st12" d="M24.8,20.5c-1.8,0.6-3.3,1.4-4.7,2.3c-0.1,0-0.1,0.1-0.2,0.1c-0.9-1.2-2.9-4.5-0.9-8.6
			C19.4,16.8,22.1,19.7,24.8,20.5z"/>
		<path class="st12" d="M50.4,23c-1.5-1-3.1-1.8-5-2.5c2.9-0.6,5.6-3.7,5.9-6.2C53.4,18.5,51.3,21.9,50.4,23z"/>
		<path class="st12" d="M10.5,31.3c-0.1,1.7-0.9,3.6-1.4,4.7c-0.2,0.4-0.7,0.6-1,0.4l-4.6-2.5c-0.4-0.2-0.5-0.7-0.3-1
			c0.8-1.2,2.6-3.8,4.5-4.4c0.5-0.2,1.1-0.1,1.6,0.1C10.3,29,10.6,30.1,10.5,31.3z"/>
		<path class="st5" d="M65.4,21.3c-2.6,0.6-9.4,2.3-14.4,2.1h0c-0.2-0.1-0.4-0.2-0.5-0.4c0,0,0,0,0,0c-1.5-1-3.1-1.8-5-2.5
			c0,0,0,0,0,0c-2.8-0.9-6.2-1.5-10.3-1.5c-4,0-7.2,0.5-10,1.4c-0.1,0-0.2,0.1-0.3,0.1c-1.8,0.6-3.3,1.4-4.7,2.3
			c-0.1,0-0.1,0.1-0.2,0.1c-0.2,0.2-0.4,0.3-0.6,0.5c0,0,0,0,0,0c-0.1,0.1-0.2,0.1-0.3,0.2c0.1-0.1,0.2-0.1,0.3-0.2
			c-5,0.3-11.8-1.5-14.6-2.2c-0.6-0.2-1,0.4-0.8,0.8c0.1,0.3,0.1,0.3,0.2,0.5c0,0.1,0.1,0.2,0.3,0.4c1.4,1.2,6.8,3,11.1,4.1
			c-0.2,0.3-0.4,0.6-0.6,0.8c-0.1,0.1-0.1,0.2-0.2,0.3c-0.1,0.2-0.2,0.4-0.3,0.6c-0.1,0.1-0.1,0.3-0.2,0.4c0,0,0,0.1,0,0.1
			c-0.1,0.2-0.1,0.4-0.2,0.5c-0.1,0.2-0.1,0.3-0.2,0.5c0,0.1-0.1,0.3-0.1,0.4c-0.1,0.3-0.1,0.5-0.2,0.8c0,0,0,0,0,0
			c-0.1,0.3-0.2,0.7-0.4,1.1c-0.1,0.2-0.1,0.5-0.2,0.7c0,0.1,0,0.1-0.1,0.2c-0.2,0.5-0.3,1.1-0.4,1.6c-0.5,2.1-0.6,4.4-0.6,6.5
			C11.9,54.7,24.7,60,35.5,60c2.4,0,4.7-0.3,7.1-0.8c2.7-0.6,5.3-1.5,7.6-2.9c3.2-1.9,5.9-4.7,7.2-8.6c0.6-1.9,1-4,1-6.4
			c0-1.3-0.1-2.6-0.1-3.9c-0.1-1-0.3-1.9-0.4-2.8c-0.1-0.4-0.2-0.8-0.3-1.3c0-0.1,0-0.2-0.1-0.3c0,0,0,0,0,0
			c-0.1-0.2-0.1-0.5-0.2-0.7c0-0.1-0.1-0.2-0.1-0.4c0,0,0,0,0,0c-0.1-0.2-0.2-0.4-0.2-0.7c0,0,0-0.1,0-0.1c0,0,0,0,0,0
			c-0.1-0.4-0.2-0.8-0.3-1.2c-0.1-0.2-0.1-0.5-0.2-0.7c-0.1-0.2-0.1-0.3-0.2-0.5c0-0.1-0.1-0.2-0.1-0.3c-0.1-0.2-0.2-0.4-0.3-0.6
			c-0.1-0.2-0.3-0.5-0.5-0.7c-0.1-0.1-0.2-0.3-0.3-0.4c0,0,0,0,0,0c0.6-0.1,1.2-0.3,1.8-0.4c0.3-0.1,0.6-0.2,0.9-0.3
			c3.9-1.1,7.9-2.8,8.6-3.7c0,0,0,0,0,0c0.1-0.2,0.1-0.3,0.2-0.4C66.5,21.7,66,21.1,65.4,21.3z M24.8,41L24.8,41l-1.4,0.8
			c-1.1,0.7-2.6,0-3-1.2L20,39.6c-0.2-0.7-0.8-1.2-1.4-1.4l-0.8-0.3c-1.5-0.4-1.8-2.4-0.5-3.3l1-0.6c0.9-0.6,1.6-1.4,1.9-2.4
			l0.2-0.6c0.3-1.3,1.8-1.9,2.9-1.1c1,0.8,2.3,1.1,3.5,1.1H27c1.4,0.1,2.3,1.5,1.7,2.8l-0.4,0.8c-0.6,1-0.7,2.1-0.3,3l0.4,0.9
			c0.4,1-0.4,2.2-1.4,2.3L24.8,41z M35.8,50.1c-4.7,0-8.6-1.9-8.6-4.3c0-2.4,3.8-4.3,8.6-4.3c4.7,0,8.6,1.9,8.6,4.3
			C44.3,48.2,40.5,50.1,35.8,50.1z"/>
		<path class="st5" d="M66.1,22.6C66.1,22.6,66.1,22.6,66.1,22.6c-0.4,1-4.5,2.6-8.6,3.7C61.4,25.1,65.5,23.5,66.1,22.6z"/>
		<path class="st6" d="M66.2,22.5c-0.6,1.4-1.6,3.7-3.4,6c-0.6-0.2-1.3-0.3-1.9,0.1c-1.1,0.5-1.3,1.7-1.2,3.1
			c-0.3,0.2-0.6,0.5-0.9,0.7c-0.5,0.3-0.9,0.7-1.4,1c-0.1-0.2-0.1-0.5-0.2-0.7c0-0.1-0.1-0.2-0.1-0.4c0,0,0,0,0,0
			c-0.1-0.3-0.2-0.5-0.3-0.8c0,0,0,0,0,0c-0.1-0.4-0.2-0.8-0.3-1.2c-0.1-0.2-0.1-0.5-0.2-0.7c-0.1-0.2-0.1-0.3-0.2-0.5
			c0-0.1-0.1-0.2-0.1-0.3c-0.1-0.2-0.2-0.4-0.3-0.6c-0.1-0.2-0.3-0.5-0.5-0.7c-0.1-0.1-0.2-0.3-0.3-0.4c0.6-0.1,1.2-0.3,1.8-0.5
			c0.3-0.1,0.6-0.2,0.9-0.3c4.1-1.1,8.2-2.7,8.5-3.6c0,0,0,0,0-0.1c0,0,0,0,0,0C66.1,22.5,66.2,22.5,66.2,22.5z"/>
		<path class="st6" d="M56.8,31.4c0.1,0.3,0.2,0.5,0.3,0.8c-0.1-0.2-0.2-0.4-0.2-0.7C56.8,31.5,56.8,31.4,56.8,31.4z"/>
		<path class="st6" d="M57.2,32.6c0.1,0.2,0.2,0.5,0.2,0.7c0,0,0,0,0,0C57.3,33.1,57.3,32.8,57.2,32.6z"/>
		<path class="st6" d="M62.8,28.4c-0.8,1-1.8,2.1-3,3.1c-0.1-1.3,0.1-2.5,1.2-3.1C61.5,28.2,62.1,28.2,62.8,28.4z"/>
		<path class="st6" d="M66.1,22.6C66.1,22.6,66.1,22.6,66.1,22.6c-0.4,1-4.5,2.6-8.6,3.7C61.4,25.1,65.5,23.5,66.1,22.6z"/>
		<path class="st12" d="M66.7,33.8l-4.6,2.5c-0.4,0.2-0.8,0-1-0.4c-0.5-1-1.2-2.8-1.3-4.4c-0.1-1.3,0.1-2.5,1.2-3.1
			c0.6-0.3,1.2-0.3,1.9-0.1c1.8,0.7,3.5,3.1,4.3,4.3C67.2,33.1,67.1,33.6,66.7,33.8z"/>
		<path class="st9" d="M57.3,47.9c-1.4,3.9-4,6.6-7.2,8.6c-0.4-0.3-0.6-0.9-0.6-1.5c0,0,0-0.1,0-0.2l0.1-0.8c0.2-1.1,0-2.1-0.6-2.8
			l-0.6-0.7c-0.6-0.8-0.3-2.1,0.6-2.5l1.9-0.8l0.1,0l1-1.1c0.8-0.9,2.4-0.8,3.1,0.2l0.6,0.7c0.1,0.1,0.2,0.2,0.3,0.3
			C56.3,47.7,56.8,47.9,57.3,47.9L57.3,47.9z"/>
		<path class="st13" d="M32,54.4c0,0,1.2,1.8,4,1.8s4-1.8,4-1.8"/>
		<line class="st14" x1="22.4" y1="32.6" x2="25.7" y2="34"/>
		<circle class="st9" cx="47.3" cy="36.8" r="1.9"/>
		<line class="st8" x1="48.6" y1="32.6" x2="45.3" y2="34"/>
	</g>
	<path class="st0" d="M57.8,34.8L57.7,35c-8.9-8.9-19.2-11.7-30.5-8.2C18.6,29.5,12.6,35,12.5,35l0,0c0.1-0.5,0.2-1.1,0.4-1.6
		c0-0.1,0-0.1,0.1-0.2c0.1-0.2,0.1-0.5,0.2-0.7c0.1-0.4,0.2-0.7,0.4-1.1c0,0,0,0,0,0c0.1-0.3,0.1-0.6,0.2-0.8
		c7.1-5,25.2-14.8,42.7-0.4c0.1,0.4,0.2,0.8,0.3,1.2c0,0,0,0,0,0c0.1,0.3,0.2,0.5,0.3,0.8c0,0,0,0,0,0c0,0.1,0.1,0.3,0.1,0.4
		c0.1,0.2,0.2,0.5,0.2,0.7c0,0.1,0.1,0.2,0.1,0.3C57.6,34,57.7,34.4,57.8,34.8z"/>
	<g>
		<g>
			<path class="st15" d="M35.4,10.7l2.3,5.1c0.1,0.2,0,0.3-0.2,0.3l-4.5,0c-0.2,0-0.3-0.2-0.2-0.3l2.3-5.1
				C35.1,10.6,35.4,10.6,35.4,10.7z"/>
			<path class="st15" d="M35.4,33.7l2.3-5.1c0.1-0.2,0-0.3-0.2-0.3l-4.5,0c-0.2,0-0.3,0.2-0.2,0.3l2.3,5.1
				C35.1,33.9,35.4,33.9,35.4,33.7z"/>
		</g>
		<path class="st15" d="M46.6,22.5l-5.1,2.3c-0.2,0.1-0.3,0-0.3-0.2V20c0-0.2,0.2-0.3,0.3-0.2l5.1,2.3
			C46.8,22.1,46.8,22.4,46.6,22.5z"/>
		<path class="st15" d="M23.6,22.5l5.1,2.3c0.2,0.1,0.3,0,0.3-0.2l0-4.5c0-0.2-0.2-0.3-0.3-0.2L23.6,22
			C23.4,22.1,23.4,22.4,23.6,22.5z"/>
	</g>
	<circle class="st16" cx="35.1" cy="22.5" r="7.1"/>
	<text transform="matrix(1 0 0 1 34.6147 17.2695)" class="st0 st1 st2">N</text>
	<text transform="matrix(1 0 0 1 28.793 22.73)" class="st0 st1 st2">W</text>
	<text transform="matrix(1 0 0 1 40.6309 22.73)" class="st0 st1 st2">E</text>
	<text transform="matrix(1 0 0 1 34.6147 28.9443)" class="st0 st1 st2">S</text>
	<circle class="st5" cx="35.1" cy="22.5" r="4.7"/>
	<g>
		<path class="st6" d="M36.7,22.2c-1.2,0.2-1.4,0.3-1.6,1.6c-0.2-1.2-0.3-1.4-1.6-1.6c1.2-0.2,1.4-0.3,1.6-1.6
			C35.3,21.9,35.4,22.1,36.7,22.2z"/>
	</g>
</g>
</svg>
