<?xml version="1.0" encoding="utf-8"?>
<!-- Generator: Adobe Illustrator 27.5.0, SVG Export Plug-In . SVG Version: 6.00 Build 0)  -->
<svg version="1.1" id="Layer_1" xmlns="http://www.w3.org/2000/svg" xmlns:xlink="http://www.w3.org/1999/xlink" x="0px" y="0px"
	 viewBox="0 0 70 70" style="enable-background:new 0 0 70 70;" xml:space="preserve">
<style type="text/css">
	.st0{fill:#4B3B40;}
	.st1{fill:#FDF7EB;}
	.st2{fill:none;}
	.st3{fill:#A58289;}
	.st4{fill:#E45354;}
	.st5{fill:#922D2D;}
	.st6{fill:#F29B9E;}
	.st7{fill:none;stroke:#4C3C41;stroke-linecap:round;stroke-linejoin:round;stroke-miterlimit:10;}
	.st8{fill:#67575B;}
	.st9{fill:#4C3C41;}
	.st10{fill:#F7F8F9;}
	.st11{fill:none;stroke:#4C3C41;stroke-width:1.5;stroke-linecap:round;stroke-miterlimit:10;}
	.st12{fill:#FBE96C;}
	.st13{fill:#A6224E;}
	.st14{fill:#F8C78C;}
	.st15{fill:#F4DCCB;}
	.st16{fill:#E9C731;}
	.st17{fill:#BA9983;}
	.st18{fill:#F4D451;}
</style>
<g>
	<path class="st0" d="M8.5,38.6c-0.4,0-0.8-0.1-1.1-0.3l-4.6-2.6c-1.2-0.6-1.7-2.2-1-3.5l0-0.1l0.1-0.1c0.8-1.2,1.5-2.2,2.3-3
		c0.5-0.5,0.5-1.2,0.2-1.7c-0.7-1.2-1.3-2.4-1.8-3.7c0-0.1-0.2-0.5-0.2-0.5c-0.3-0.8-0.2-1.6,0.3-2.3c0.5-0.7,1.3-1.1,2.1-1.1
		c0.2,0,0.5,0,0.7,0.1L5.9,20c2.6,0.6,8.1,2,12.3,2c0.3,0,0.7,0,1,0l1.6-0.1c1.4-0.1,2,1.7,0.9,2.5l-1.3,0.9c-1.2,0.9-2.2,1.9-3,3.2
		c-1,1.4-1.9,3.1-2.4,4.9l-0.1,0c0,0,0,0.1,0,0.1c0,0.1-0.1,0.2-0.1,0.4c-0.1,0.2-0.1,0.4-0.2,0.5l-0.5,1.4
		c-0.2,0.5-0.7,0.7-1.2,0.4c-0.2-0.1-0.3-0.2-0.5-0.3c-0.4-0.3-1-0.1-1.2,0.4c-0.2,0.4-0.3,0.7-0.4,1C10.4,38,9.5,38.6,8.5,38.6z"/>
	<path class="st0" d="M17.2,23.9c-0.2,0-0.4,0-0.7,0c-0.6,0-1.3-0.1-2-0.2c-0.1,0-0.3,0-0.4-0.1c-0.2,0-0.5-0.1-0.7-0.1
		c-0.2,0-0.5-0.1-0.7-0.1c-2.2-0.3-4.2-0.8-5.9-1.2c-0.4-0.1-0.7-0.2-1-0.2c-0.1,0-0.2-0.1-0.4-0.1c-0.2,0-0.3-0.1-0.5-0.1
		c-0.1,0-0.2,0-0.2-0.1c-0.6-0.2-1,0.4-0.8,0.8C4,22.6,4,22.8,4.2,23c0.1,0.3,0.2,0.6,0.4,1c0.1,0.1,0.1,0.3,0.2,0.5
		C4.9,24.7,5,25,5.2,25.3c0.1,0.2,0.2,0.5,0.4,0.7c0.1,0.2,0.2,0.3,0.3,0.5C6,26.6,6,26.8,6.2,27c0.1,0.2,0.3,0.5,0.5,0.7
		c0.4,0.6,0.3,1.4-0.3,1.9c0,0-0.1,0.1-0.1,0.1c-0.1,0.1-0.2,0.2-0.3,0.2c-1.1,1-2.1,2.4-2.6,3.2c-0.2,0.4-0.1,0.8,0.3,1l4.6,2.5
		c0.4,0.2,0.8,0,1-0.4c0.3-0.7,0.8-1.9,1.1-3.1c0.1-0.4,0.5-0.6,0.9-0.6c0.1,0,0.2,0.1,0.4,0.2c0.4,0.3,0.8,0.6,1.3,1
		c0.1-0.3,0.2-0.7,0.3-0.9c0.1-0.2,0.2-0.4,0.2-0.6c0,0.1-0.1,0.3-0.1,0.4c0,0.1,0,0.1,0,0.2c0.1-0.2,0.1-0.5,0.2-0.7l0.2-0.4
		c0.1-0.2,0.1-0.4,0.2-0.6c0.2-0.6,0.5-1.2,0.8-1.7c0.1-0.2,0.2-0.3,0.3-0.5c0,0,0-0.1,0.1-0.1c0,0,0,0,0,0c0.3-0.4,0.5-0.9,0.8-1.2
		c0.6-0.8,1.2-1.6,1.9-2.3C18.2,24.7,17.9,23.9,17.2,23.9z M5.1,23.8c0,0-0.1,0-0.1-0.1C5,23.8,5.1,23.8,5.1,23.8
		C5.1,23.8,5.2,23.9,5.1,23.8c0.1,0,0.1,0.1,0.1,0.1C5.2,23.9,5.2,23.9,5.1,23.8z M6.4,24.5c-0.1,0-0.2-0.1-0.3-0.2
		c-0.3-0.1-0.5-0.3-0.8-0.4c0,0,0.1,0,0.1,0.1c0.8,0.4,1.8,0.8,3,1.3c0.2,0.1,0.4,0.2,0.6,0.2c0.4,0.1,0.8,0.3,1.1,0.4
		c0.4,0.1,0.8,0.3,1.2,0.4c0.1,0,0.2,0.1,0.3,0.1c0.3,0.1,0.6,0.2,0.9,0.3c0.3,0.1,0.6,0.2,0.9,0.3c0.1,0,0.2,0.1,0.3,0.1
		c0.5,0.1,1,0.3,1.5,0.4c0,0-0.1,0.1-0.1,0.1c-0.5-0.1-1-0.2-1.5-0.4c0,0,0,0,0,0c0,0,0,0-0.1,0c-0.5-0.1-0.9-0.3-1.4-0.4
		c-0.1,0-0.3-0.1-0.4-0.1c-0.3-0.1-0.6-0.2-1-0.3c-0.3-0.1-0.6-0.2-0.9-0.3c-0.3-0.1-0.6-0.2-0.9-0.3C8.2,25.3,7.2,24.9,6.4,24.5z"
		/>
	<path class="st0" d="M67.2,35.8l-4.5,2.5c-0.4,0.2-0.8,0.3-1.2,0.3c-0.2,0-0.5,0-0.7-0.1c-0.5-0.1-1.1,0.2-1,0.8
		c0.1,1.1,0.1,2,0.1,2.5c0,2.6-0.4,5-1.2,7.2c-1.4,3.8-4,6.8-7.6,9.1c-2.4,1.5-5.2,2.5-8.3,3.2c-2.7,0.5-5.1,0.8-7.4,0.8
		c-12.1,0-25.2-6.3-25.3-20.3c0-1.3,0.1-2.6,0.2-3.9c0.2-1.5,0.4-2.8,0.7-4.1l-0.3,0.1l0.5-1.2l0-0.1l0.9-2.1c0.5-1.1,1-2.2,1.8-3.3
		l0,0c0,0,0-0.1,0.1-0.1c0.1-0.2,0.2-0.3,0.4-0.5l0.1-0.1c0.1-0.2,0.2-0.4,0.4-0.5c0.3-0.4,0.6-0.7,0.8-1c0,0,0.1-0.1,0.1-0.1
		c0.1-0.2,0.3-0.3,0.5-0.5c0.1-0.1,0.2-0.3,0.3-0.4c0.1-0.1,0.3-0.3,0.5-0.4l0.3-0.3c0.1-0.1,0.2-0.2,0.3-0.2
		c-0.2-0.3-0.3-0.6-0.4-0.9c-0.8-2-1.3-4.9,0.3-8.1l1.7-3.3c0.3-0.7,1.4-0.5,1.5,0.3l0.4,3.7c0.1,0.8,0.6,1.8,1.4,2.7
		c0.4-0.2,0.8-0.3,1.2-0.3c0.4,0,0.8,0.1,1.2,0.2c0.2,0.1,0.4,0.1,0.6,0c0.3-0.1,0.7-0.2,1-0.2c0.7,0,1.3,0.2,2,0.7
		c0.5-0.1,0.8-0.1,1.1-0.2c0.1,0,0.2,0,0.3,0l0.2-0.2c0.3-0.4,0.8-0.4,1.2-0.1l0.5,0.5c0.2,0.1,0.4,0.2,0.6,0.2c0.3,0,0.6,0,1,0
		c0.1,0,0.1,0,0.2,0c0.2-0.1,0.3-0.2,0.5-0.3L34,17l0.6-1h0l0.1-0.2c0.3-0.5,1-0.5,1.3,0l0.1,0.2h0l0.5,0.8c0,0,0,0,0,0l0.3,0.5
		c0.1,0.2,0.2,0.3,0.4,0.3c0.1,0,0.2,0.1,0.2,0.1c0.3,0,0.6,0,0.9,0.1c0.2,0,0.4-0.1,0.6-0.2l0.5-0.5c0.3-0.3,0.9-0.3,1.2,0.1
		c0.1,0.1,0.3,0.2,0.4,0.3c0.1,0,0.1,0,0.2,0c0.1,0,0.3,0,0.4-0.1c0.6-0.3,1.1-0.5,1.7-0.5c0.4,0,0.7,0.1,1,0.2
		c0.2,0.1,0.4,0.1,0.6,0c0.4-0.2,0.8-0.2,1.2-0.2c0.2,0,0.4,0,0.6,0.1c0.5-0.2,0.9-0.4,1.5-0.6c0.4-0.7,0.7-1.3,0.8-1.8l0.4-3.6
		c0.1-0.8,1.1-1,1.5-0.3l1.7,3.2c1.3,2.5,1.3,5,0.8,7c-0.2,0.5,0.3,1.1,0.8,1c3.3-0.3,6.8-1.1,9.1-1.6c0.5-0.1,0.9-0.2,1.2-0.3
		c0.2-0.1,0.5-0.1,0.7-0.1c0.8,0,1.6,0.4,2.1,1.1c0.5,0.7,0.6,1.6,0.3,2.3l-0.1,0.3l0,0c-0.5,1.3-1.1,2.5-1.8,3.7
		c-0.3,0.6-0.3,1.2,0.2,1.7c0.8,0.8,1.5,1.8,2.3,3l0.1,0.1l0,0.1C69,33.6,68.5,35.2,67.2,35.8z"/>
	<path class="st0" d="M66.7,33.1c-0.4-0.7-1.2-1.8-2.1-2.7c-0.1-0.1-0.2-0.2-0.2-0.2c-0.2-0.2-0.4-0.4-0.7-0.6
		c-0.6-0.4-0.7-1.3-0.3-1.9c0.3-0.4,0.5-0.8,0.7-1.2c0.1-0.2,0.3-0.5,0.4-0.7c0.1-0.2,0.2-0.4,0.3-0.6c0.3-0.6,0.6-1.1,0.8-1.6
		c0.1-0.2,0.1-0.3,0.2-0.5c0,0,0,0,0,0c0,0,0,0,0,0l-0.1,0.1c0,0,0,0,0,0c0,0,0,0,0,0c0,0,0,0,0,0c0,0,0,0,0,0c0,0,0,0,0,0
		c0,0,0,0,0,0c0,0,0,0,0,0c0,0,0-0.1,0-0.1c0.1-0.2,0.1-0.4,0.2-0.5c0.2-0.5-0.3-1-0.9-0.8c-0.5,0.1-1.2,0.3-2.1,0.5
		c-0.2,0.1-0.5,0.1-0.7,0.2c0,0,0,0,0,0c-0.3,0.1-0.5,0.1-0.8,0.2c-0.1,0-0.3,0.1-0.4,0.1c-0.4,0.1-0.8,0.2-1.3,0.3
		c-0.3,0.1-0.7,0.1-1,0.2c-2.6,0.5-5.5,0.8-8,0.7c0,0,0,0,0,0c0,0,0,0,0,0c-0.2-0.1-0.4-0.2-0.5-0.4c-0.3-0.2-0.6-0.4-0.9-0.6
		c-0.3-0.2-0.6-0.4-0.9-0.5c-0.6-0.3-1.3-0.7-2-0.9h0c0,0,0,0,0-0.1c0,0,0,0,0,0h0c0.7,0.3,1.4,0.6,2.1,1c0.1,0.1,0.3,0.2,0.4,0.2
		c0.2,0.1,0.4,0.2,0.5,0.3c0.4,0.2,0.8,0.2,1.1-0.2c0.1-0.1,0.2-0.3,0.3-0.4c0.1-0.1,0.1-0.2,0.2-0.4c0,0,0-0.1,0-0.1
		c0.1-0.1,0.1-0.2,0.2-0.4c0.1-0.2,0.1-0.4,0.2-0.5c0.2-0.5,0.3-1.1,0.4-1.7c0-0.1,0-0.2,0-0.3c0-0.2,0-0.4,0-0.6c0,0,0,0,0,0
		c0-0.2,0-0.4,0-0.6c0-0.1,0-0.2,0-0.3c0-0.2,0-0.3-0.1-0.5c0,0,0,0,0-0.1c-0.2-0.7-1.1-0.8-1.4-0.2c0,0,0,0,0,0
		c-0.1,0.2-0.2,0.3-0.3,0.5c-0.1,0.2-0.2,0.3-0.4,0.5c-0.1,0.2-0.2,0.3-0.4,0.5c-0.1,0.2-0.3,0.3-0.4,0.5c-0.1,0.2-0.3,0.3-0.5,0.4
		c-0.2,0.1-0.3,0.3-0.5,0.4c-0.2,0.1-0.3,0.2-0.5,0.4c-0.2,0.1-0.4,0.2-0.5,0.3c0.1-0.7,0.1-1.2-0.2-1.4c-0.4-0.3-1.1,0.1-1.9,0.8
		c-0.2,0.2-0.5,0.5-0.7,0.8c0-0.1,0-0.2,0.1-0.3c0.1-0.6,0-1-0.3-1.2c-0.4-0.3-1.1,0.1-1.9,0.8c-0.1,0.1-0.3,0.3-0.4,0.4h0
		c-0.3-0.1-0.7-0.1-1.1-0.2L40,19.2l0,0l-0.5,0.5c-0.1,0-0.2,0-0.3,0c-0.4,0-0.9-0.1-1.3-0.1c-0.3,0-0.6,0-0.9-0.1
		c-0.2,0-0.3,0-0.5,0c0,0-0.1,0-0.2,0c-0.2,0-0.3-0.1-0.5-0.3c0,0,0,0,0,0l-0.5-0.8L35,19.1c-0.1,0.2-0.3,0.3-0.5,0.4
		c0,0-0.1,0-0.1,0c-0.2,0-0.3,0-0.5,0c-0.2,0-0.3,0-0.4,0c-0.1,0-0.3,0-0.4,0c-0.2,0-0.4,0-0.7,0c-0.3,0-0.7,0-1,0.1l-0.4-0.4l0,0
		l-0.3,0.5c-0.3,0-0.6,0.1-0.9,0.1c-0.4,0.1-0.8,0.1-1.2,0.2h0c-0.1-0.1-0.1-0.1-0.2-0.2c-0.1-0.1-0.1-0.1-0.2-0.2
		c-0.8-0.7-1.5-1.1-1.9-0.8c-0.3,0.2-0.4,0.6-0.3,1.2c0,0.1,0,0.2,0.1,0.4h0c0,0,0,0,0,0c0,0,0,0,0,0c-0.1-0.1-0.2-0.2-0.3-0.4
		c-0.1-0.1-0.2-0.3-0.4-0.4c-0.8-0.7-1.5-1.1-1.9-0.8c-0.1,0-0.1,0.1-0.1,0.1c0,0-0.1,0.1-0.1,0.2C23,19.3,23,19.6,23,20h0
		c-0.3-0.2-0.7-0.4-1-0.7c-0.2-0.1-0.3-0.2-0.5-0.4c-0.7-0.7-1.4-1.5-1.8-2.2c-0.3-0.6-1.3-0.5-1.4,0.2c0,0.2-0.1,0.5-0.1,0.7
		c0,0.2,0,0.4,0,0.6v0c0,0.2,0,0.5,0,0.7c0,0,0,0,0,0c0,0.2,0.1,0.4,0.1,0.6c0,0,0,0,0,0c0,0.2,0.1,0.4,0.1,0.6
		c0.1,0.5,0.3,1,0.6,1.5c0,0.1,0.1,0.2,0.1,0.3c0.1,0.2,0.3,0.5,0.4,0.7c0.2,0.4,0.7,0.5,1.1,0.2c0,0,0.1-0.1,0.2-0.1
		c0.2-0.1,0.3-0.2,0.5-0.3c0.2-0.1,0.5-0.2,0.7-0.4c0.2-0.1,0.5-0.2,0.7-0.4c0,0,0,0,0,0c0.2-0.1,0.5-0.2,0.7-0.3c0,0,0,0,0,0
		c0,0,0,0,0,0c0,0,0,0,0,0c-0.2,0.1-0.4,0.2-0.6,0.3c-0.1,0-0.2,0.1-0.3,0.1c-0.3,0.1-0.6,0.3-0.9,0.4c-0.6,0.3-1.1,0.6-1.6,1
		c-0.3,0.2-0.5,0.4-0.7,0.6c-0.3,0.2-0.6,0.5-0.8,0.7c-0.1,0.1-0.1,0.1-0.2,0.2c0,0-0.1,0.1-0.1,0.1c0,0,0,0,0,0
		c-0.1,0-0.1,0.1-0.2,0.1c-0.1,0-0.1,0.1-0.2,0.1c0,0-0.1,0.1-0.1,0.1c0,0.1-0.1,0.1-0.1,0.2h0c-0.1,0.1-0.2,0.2-0.2,0.2
		c-0.1,0.1-0.1,0.2-0.2,0.2c0,0,0,0,0,0c0,0,0,0,0,0c0,0,0,0.1-0.1,0.1c-0.1,0.2-0.3,0.3-0.4,0.5c-0.1,0.2-0.2,0.3-0.4,0.5
		c-0.1,0.2-0.3,0.4-0.4,0.6c-0.8,1.2-1.5,2.3-2,3.6c-0.1,0.2-0.2,0.4-0.2,0.6l-0.2,0.4c-0.1,0.2-0.2,0.4-0.2,0.7c0,0,0,0.1,0,0.1
		c0,0.1,0,0.1-0.1,0.2c0,0.1-0.1,0.2-0.1,0.3c0,0,0,0.1,0,0.2c0,0,0,0,0,0.1c0,0,0,0.1,0,0.1c0,0,0,0,0,0c-0.2,0.7-0.3,1.3-0.5,2
		c-0.4,2-0.6,4.1-0.6,6C12,54.9,24.6,60.2,35.4,60.2c2.3,0,4.7-0.3,7-0.8c2.8-0.6,5.5-1.6,7.9-3.1c3-1.8,5.4-4.4,6.7-8
		c0.7-1.9,1.1-4.1,1.1-6.6c0-0.2,0-0.6,0-1c0-0.1,0-0.2,0-0.4c0-0.7-0.1-1.5-0.2-2.3c0-0.3-0.1-0.6-0.1-0.9
		c-0.1-1.2-0.3-2.3-0.4-2.9c0.1-0.3,0.3-0.6,0.4-1c0.1-0.1,0.2-0.2,0.4-0.3c0.1-0.1,0.2-0.2,0.3-0.3c0,0,0,0,0,0
		c0.4-0.3,1.1-0.1,1.2,0.4c0.1,0.5,0.3,1,0.4,1.4c0.1,0.2,0.1,0.4,0.2,0.6c0.2,0.4,0.3,0.7,0.4,1c0.2,0.4,0.7,0.6,1,0.4l4.6-2.5
		C66.8,34,66.9,33.5,66.7,33.1z M57.4,26.8c-0.3,0.1-0.5,0.2-0.8,0.2c-0.7,0.2-1.3,0.4-2,0.5c0,0,0-0.1-0.1-0.1
		c0.6-0.1,1.3-0.3,2-0.5C56.8,26.9,57.1,26.8,57.4,26.8c0.3-0.2,0.7-0.3,1-0.4c0.4-0.1,0.8-0.2,1.1-0.3c0.3-0.1,0.6-0.2,0.9-0.3
		c0.5-0.2,0.9-0.3,1.3-0.5c0.1,0,0.3-0.1,0.4-0.1c0,0,0,0-0.1,0c-0.2,0.1-0.5,0.2-0.7,0.3c-0.3,0.1-0.5,0.2-0.8,0.3
		C59.5,26.1,58.4,26.5,57.4,26.8z"/>
	<path class="st0" d="M37.3,17.9c-0.1-0.2-0.2-0.3-0.3-0.5c-0.4-0.8-1.1-2.1-0.9-4.2c0.1-0.9,0.2-1.7,0.5-2.5c0.8-2.5,2.3-2.9,3-2.9
		h0.1l0.1,0c0.7,0.1,2.3,0.5,2.7,3.4c0.1,0.7,0.1,1.6,0.1,2.5c-0.2,2.1-1.1,3.2-1.6,4c-0.1,0.2-0.2,0.3-0.3,0.5L40.2,19
		c-0.6,1-2.1,0.9-2.5-0.2L37.3,17.9z"/>
	<path class="st0" d="M40.8,13.7c0.1-0.7,0-1.4-0.1-2c-0.2-1-0.5-1.8-1-1.8c-0.5,0-1,0.6-1.3,1.6c-0.2,0.6-0.3,1.3-0.4,2
		c0,0,0,0,0,0.1C37.8,15.3,40.6,15.5,40.8,13.7C40.8,13.7,40.8,13.7,40.8,13.7z"/>
	<path class="st0" d="M33.8,18.1c-0.1-0.2-0.2-0.3-0.3-0.5c-0.5-0.8-1.3-2-1.3-4.1c0-0.9,0.1-1.7,0.3-2.5c0.7-2.8,2.3-3.1,3-3.1
		c0.7,0,2.3,0.3,3,3.2c0.2,0.7,0.3,1.6,0.3,2.5c0,2.1-0.8,3.3-1.3,4.1c-0.1,0.2-0.2,0.3-0.3,0.5l-0.4,0.8c-0.5,1-2,1-2.5,0
		L33.8,18.1z"/>
	<path class="st0" d="M36.8,13.5c0-0.7-0.1-1.4-0.2-2c-0.2-1-0.7-1.7-1.2-1.7c-0.5,0-0.9,0.7-1.2,1.7c-0.1,0.6-0.2,1.3-0.2,2
		c0,0,0,0,0,0.1C34.1,15.4,36.8,15.4,36.8,13.5C36.8,13.6,36.8,13.5,36.8,13.5z"/>
	<path class="st0" d="M30.2,18.2c-0.1-0.2-0.2-0.3-0.3-0.5c-0.6-0.7-1.5-1.9-1.6-4c-0.1-0.9-0.1-1.7,0.1-2.5c0.4-2.9,2-3.3,2.7-3.4
		l0.1,0l0.1,0c0.8,0,2.2,0.4,3,2.9c0.2,0.7,0.4,1.5,0.5,2.4c0.2,2.1-0.5,3.4-0.9,4.2c-0.1,0.2-0.2,0.3-0.3,0.5l-0.3,0.9
		c-0.4,1.1-1.9,1.2-2.5,0.2L30.2,18.2z"/>
	<path class="st0" d="M30.1,13.7c0.2,1.8,2.9,1.5,2.8-0.2c0,0,0,0,0-0.1c-0.1-0.7-0.2-1.4-0.4-2c-0.3-1-0.8-1.6-1.3-1.6
		c-0.5,0-0.9,0.8-1,1.8C30.1,12.2,30,12.9,30.1,13.7C30.1,13.7,30.1,13.7,30.1,13.7z"/>
</g>
<g>
	<path class="st1" d="M58.1,41.8c0,10.8-7.4,15.9-15.7,17.7c-2.3,0.5-4.7,0.7-7,0.7c-10.8,0-23.4-5.3-23.5-18.4c0-2.6,0.3-5.4,1-8
		c0-0.1,0.1-0.2,0.1-0.3c0.1-0.2,0.1-0.5,0.2-0.6c0.2-0.6,0.4-1.1,0.6-1.7c0.5-1.2,1.2-2.4,2-3.6c0.1-0.2,0.3-0.4,0.4-0.6
		c0.2-0.3,0.5-0.6,0.8-0.9c0,0,0.1-0.1,0.1-0.1c0.1-0.2,0.3-0.3,0.5-0.5h0c0.2-0.3,0.5-0.5,0.8-0.7c0.1,0,0.1-0.1,0.2-0.2
		c0.3-0.2,0.6-0.5,0.8-0.7c0.3-0.2,0.5-0.4,0.7-0.6c1.1-0.7,2.3-1.4,3.6-1.9c0.4-0.2,0.9-0.3,1.3-0.5c2.7-0.9,6-1.4,9.9-1.4
		c4,0,7.4,0.6,10.2,1.5c0.3,0.1,0.6,0.2,0.8,0.3c1.6,0.6,3,1.4,4.2,2.2c0.2,0.2,0.5,0.3,0.7,0.5c1.4,1.1,2.6,2.3,3.6,3.7
		c0,0,0.1,0.1,0.1,0.2c0.3,0.5,0.6,1,0.9,1.5c0.1,0.3,0.3,0.5,0.4,0.8c0.1,0.3,0.3,0.5,0.4,0.8l0,0c0,0.1,0.1,0.2,0.1,0.3
		c0.3,0.7,0.5,1.4,0.7,2.1c0,0.2,0.1,0.4,0.1,0.6C57.6,35.3,58.1,40.5,58.1,41.8z"/>
	<path class="st2" d="M12.8,33.6c0-0.1,0.1-0.2,0.1-0.3l0,0c0,0,0,0,0-0.1"/>
	<path class="st1" d="M19.3,23.9c-1.4,1-2.5,2.2-3.5,3.6c-1.3,1.8-2.2,3.8-2.8,5.9c0,0.1-0.1,0.3-0.1,0.5c0.7-2.6,0.7-4.3,2.5-6.5
		C10.7,26.3,4.6,24.1,4.1,23c-0.1-0.2-0.1-0.4-0.2-0.5c-0.2-0.5,0.3-1,0.8-0.8C7.5,22.4,14.3,24.1,19.3,23.9z"/>
	<path class="st3" d="M57.1,33.4c-12.7-4.3-24.5-3.9-33-2.6c-0.3-0.1-0.6-0.3-0.8-0.5c-1.1-0.7-2.6-0.2-2.9,1.1l0,0.1
		c-3.3,0.7-5.8,1.5-7.4,2c0.1-0.2,0.1-0.5,0.2-0.6c0.2-0.6,0.4-1.1,0.6-1.7c0.2,0,0.3-0.1,0.5-0.1c1.3-0.3,3-0.8,5.2-1.2
		c1.8-0.3,3.9-0.7,6.3-1l0.1,0c2.2-0.3,4.5-0.4,7-0.5c1.7-0.1,3.4-0.1,5.2,0c2.3,0.1,4.6,0.3,7,0.6l0.6,0.1l0.1,0
		c1.6,0.2,3.2,0.5,4.9,0.9c1.9,0.4,3.8,0.9,5.7,1.5C56.6,32,56.9,32.7,57.1,33.4z"/>
	<path class="st4" d="M15.7,27.6c-1.1,1.6-2,3.4-2.6,5.2c-0.1,0.3-0.2,0.7-0.3,0.9C7.3,30,5.1,25.4,4.1,23
		C4.6,24.1,11.1,26.6,15.7,27.6z"/>
	<path class="st5" d="M54.4,27.8L54.4,27.8L54.4,27.8C54.4,27.7,54.4,27.7,54.4,27.8z"/>
	<path class="st2" d="M50.8,23.9C50.8,23.9,50.7,23.9,50.8,23.9"/>
	<g>
		<ellipse class="st6" cx="35.7" cy="46.1" rx="8.5" ry="4.3"/>
		<g>
			<line class="st7" x1="33.6" y1="44.3" x2="33.6" y2="48.2"/>
			<line class="st7" x1="37.7" y1="44.3" x2="37.7" y2="48.2"/>
		</g>
	</g>
	<path class="st8" d="M24.1,30.8c-1.3,0.2-2.6,0.4-3.7,0.7l0-0.1c0.3-1.3,1.8-1.9,2.9-1.1C23.6,30.5,23.9,30.7,24.1,30.8z"/>
	<path class="st9" d="M28.3,35c-0.6,1-0.7,2.1-0.3,3l0.4,0.9c0.4,1-0.4,2.2-1.4,2.2l-2.2,0.2h-0.1l-1.3,0.7c-1.1,0.7-2.6,0-3-1.2
		L20,39.9c-0.2-0.7-0.7-1.2-1.4-1.4l-0.8-0.3c-1.5-0.4-1.8-2.4-0.5-3.3l1-0.6c0.9-0.6,1.6-1.4,1.9-2.4l0.2-0.5
		c1.2-0.2,2.4-0.5,3.7-0.7c0.8,0.4,1.7,0.6,2.6,0.6H27c1.4,0.1,2.2,1.5,1.7,2.8L28.3,35z"/>
	<path class="st9" d="M58.7,49c-1.4,3.8-4,6.8-7.6,9.1c-0.5-0.4-0.8-1-0.8-1.7c0,0,0-0.1,0-0.2l0.1-0.8c0.2-1.1,0-2.2-0.7-2.9
		l-0.7-0.8c-0.7-0.9-0.3-2.2,0.6-2.6l2-0.9l0.1,0l1-1.1c0.9-1,2.5-0.8,3.2,0.2l0.6,0.8c0.1,0.1,0.2,0.2,0.3,0.3
		c0.4,0.4,0.9,0.6,1.5,0.6H58.7z"/>
	<circle class="st10" cx="23.7" cy="36.2" r="2.5"/>
	<circle class="st9" cx="47.5" cy="36.2" r="2.5"/>
	<path class="st11" d="M31.6,54.5c0,0,1.3,1.9,4.2,1.9c2.9,0,4.2-1.9,4.2-1.9"/>
	<path class="st12" d="M25,20.9c-1.9,0.7-3.6,1.5-5,2.4c-0.8-1.1-3-4.5-0.9-8.6C19.4,17.2,22.2,20.2,25,20.9z"/>
	<path class="st12" d="M50.1,23.4c-1.4-1-3.1-1.9-5-2.5c2.9-0.6,5.7-3.6,6-6.2C53.2,18.9,51,22.4,50.1,23.4z"/>
	<path class="st12" d="M9.4,28.9c-2.3-1.2-5,2.6-6.1,4.2c-0.2,0.4-0.1,0.8,0.3,1l4.6,2.5c0.4,0.2,0.8,0,1-0.4
		C10,34.5,11.7,30.1,9.4,28.9z"/>
	<g>
		<path class="st1" d="M50.7,23.9c1.4,1,2.5,2.2,3.5,3.6c1.3,1.8,2.2,3.8,2.8,5.9c0,0.1,0.1,0.3,0.1,0.5c-0.7-2.6-0.7-4.3-2.5-6.5
			c4.7-1,10.8-3.2,11.2-4.3c0.1-0.2,0.1-0.4,0.2-0.5c0.2-0.5-0.3-1-0.8-0.8C62.5,22.4,55.7,24.1,50.7,23.9z"/>
		<path class="st4" d="M54.3,27.6c1.1,1.6,2,3.4,2.6,5.2c0.1,0.3,0.2,0.7,0.3,0.9c5.5-3.6,7.8-8.3,8.7-10.8
			C65.4,24.1,58.9,26.6,54.3,27.6z"/>
		<path class="st12" d="M60.6,28.9c2.3-1.2,5,2.6,6.1,4.2c0.2,0.4,0.1,0.8-0.3,1l-4.6,2.5c-0.4,0.2-0.8,0-1-0.4
			C60,34.5,58.3,30.1,60.6,28.9z"/>
	</g>
	<polygon class="st13" points="44.5,28.8 41.4,31.8 38.9,28.3 	"/>
	<path class="st13" d="M38.1,28.3l-2.6,4.3l-2.6-4.3C34.6,28.3,36.3,28.3,38.1,28.3z"/>
	<polygon class="st13" points="25.8,28.7 25.8,28.7 23.7,32.4 20.3,29.6 25.7,28.7 	"/>
	<path class="st13" d="M19.5,29.8l-1.7,3.5L14.3,31C15.6,30.7,17.4,30.2,19.5,29.8z"/>
	<polygon class="st13" points="32.1,28.3 29.6,31.8 26.5,28.8 	"/>
	<polygon class="st13" points="50.6,29.8 47.3,32.6 45.1,28.9 45.7,29 45.8,29 	"/>
	<polygon class="st13" points="53.2,33.9 56.8,31.5 51.3,30 	"/>
	<path class="st13" d="M24.1,22.7c1.1,1.7,2.3,1.8,3.2,2.4c-0.1-1,0.3-2.2-0.9-3.9c-0.4-0.6-0.9-1.2-1.3-1.6
		c-0.8-0.7-1.5-1.1-1.9-0.8c-0.4,0.3-0.4,1.1,0,2.1C23.4,21.4,23.7,22.1,24.1,22.7z"/>
	<path class="st14" d="M24.7,19.8c-0.7-0.6-1.1-0.7-1.2-0.6c-0.1,0.1-0.2,0.5,0.1,1.3l1.2,0.6L24.7,19.8z"/>
	<path class="st13" d="M26.9,22.7c1.1,1.7,2.3,1.8,3.2,2.4c-0.1-1,0.3-2.2-0.9-3.9c-0.4-0.6-0.9-1.2-1.3-1.6
		c-0.8-0.7-1.5-1.1-1.9-0.8c-0.4,0.3-0.4,1.1,0,2.1C26.2,21.4,26.5,22.1,26.9,22.7z"/>
	<path class="st14" d="M27.5,19.8c-0.7-0.6-1.1-0.7-1.2-0.6c-0.1,0.1-0.2,0.5,0.1,1.3l1.2,0.6L27.5,19.8z"/>
	<path class="st13" d="M45.8,22.7c-1.1,1.7-2.3,1.8-3.2,2.4c0.1-1-0.3-2.2,0.9-3.9c0.4-0.6,0.9-1.2,1.3-1.6c0.8-0.7,1.5-1.1,1.9-0.8
		c0.4,0.3,0.4,1.1,0,2.1C46.5,21.4,46.2,22.1,45.8,22.7z"/>
	<path class="st14" d="M45.2,19.8c0.7-0.6,1.1-0.7,1.2-0.6c0.1,0.1,0.2,0.5-0.1,1.3l-1.2,0.6L45.2,19.8z"/>
	<path class="st13" d="M43,22.7c-1.1,1.7-2.3,1.8-3.2,2.4c0.1-1-0.3-2.2,0.9-3.9c0.4-0.6,0.9-1.2,1.3-1.6c0.8-0.7,1.5-1.1,1.9-0.8
		c0.4,0.3,0.4,1.1,0,2.1C43.7,21.4,43.4,22.1,43,22.7z"/>
	<path class="st14" d="M42.4,19.8c0.7-0.6,1.1-0.7,1.2-0.6c0.1,0.1,0.2,0.5-0.1,1.3l-1.2,0.6L42.4,19.8z"/>
	<g>
		<g>
			<g>
				<path class="st15" d="M40.8,13.7c-0.2,2.1-1.2,2.7-1.7,3.6c-0.4-1-1.3-1.8-1.1-3.8c0.1-0.7,0.2-1.4,0.4-2c0.3-1,0.8-1.6,1.3-1.6
					c0.5,0,0.9,0.8,1,1.8C40.8,12.2,40.8,12.9,40.8,13.7z"/>
			</g>
			<path class="st16" d="M38.9,11.4c0.3-0.8,0.7-1.1,0.8-1.1c0.1,0,0.4,0.3,0.6,1.2l-0.8,1.1L38.9,11.4z"/>
		</g>
	</g>
	<g>
		<g>
			<g>
				<path class="st15" d="M36.8,13.5c0,2.1-0.9,2.8-1.4,3.7C35,16.3,34,15.6,34,13.5c0-0.7,0.1-1.4,0.2-2c0.2-1,0.7-1.7,1.2-1.7
					c0.5,0,0.9,0.7,1.2,1.7C36.8,12.1,36.8,12.8,36.8,13.5z"/>
			</g>
			<path class="st16" d="M34.8,11.4c0.2-0.9,0.6-1.2,0.7-1.2s0.4,0.3,0.7,1.2l-0.7,1.2L34.8,11.4z"/>
		</g>
	</g>
	<g>
		<g>
			<path class="st15" d="M32.9,13.4c0.2,2.1-0.7,2.9-1.1,3.8c-0.5-0.9-1.5-1.5-1.7-3.6c-0.1-0.7,0-1.4,0.1-2c0.2-1,0.5-1.8,1-1.8
				c0.5,0,1,0.6,1.3,1.6C32.7,12,32.8,12.7,32.9,13.4z"/>
		</g>
		<path class="st16" d="M30.6,11.5c0.2-0.9,0.4-1.2,0.6-1.2c0.1,0,0.5,0.3,0.8,1.1l-0.6,1.2L30.6,11.5z"/>
	</g>
	<polygon class="st13" points="37,22.3 40,19.2 42.6,22.7 	"/>
	<polygon class="st13" points="28.3,22.7 30.8,19.2 33.9,22.2 	"/>
	<path class="st13" d="M32.8,22.6l2.6-4.3l2.6,4.3C36.4,22.7,34.6,22.7,32.8,22.6z"/>
	<g>
		<path class="st17" d="M56.4,31.3c-1.9-0.6-3.8-1.1-5.7-1.5c-1.6-0.4-3.3-0.6-4.9-0.9l-0.1,0l-0.6-0.1c-2.4-0.3-4.8-0.5-7-0.6
			c-1.8-0.1-3.5-0.1-5.2,0c-2.5,0.1-4.8,0.3-7,0.5l-0.1,0c-2.3,0.3-4.5,0.6-6.3,1c-2.1,0.4-3.9,0.8-5.2,1.2c-0.2,0-0.4,0.1-0.5,0.1
			c0.5-1.2,1.2-2.4,2-3.6c0.1-0.2,0.3-0.4,0.4-0.6c0.2-0.3,0.5-0.6,0.8-0.9c0,0,0.5-0.4,0.6-0.6c0.8-1.2,3.2-1.6,4.5-2.1
			c6.8-1.8,17.2-1.7,25.2,0c1.6,0.6,4.7,0.9,7.1,4.4c0,0,0.1,0.1,0.1,0.2c0.3,0.5,0.6,1,0.9,1.5c0.1,0.3,0.3,0.5,0.4,0.8
			c0.1,0.3,0.3,0.5,0.4,0.8l0,0C56.3,31.1,56.3,31.2,56.4,31.3z"/>
	</g>
	
		<rect x="33.8" y="22.8" transform="matrix(0.7071 0.7071 -0.7071 0.7071 27.6976 -17.8785)" class="st18" width="3.3" height="3.3"/>
</g>
</svg>
