<?xml version="1.0" encoding="utf-8"?>
<!-- Generator: Adobe Illustrator 27.5.0, SVG Export Plug-In . SVG Version: 6.00 Build 0)  -->
<svg version="1.1" id="Layer_1" xmlns="http://www.w3.org/2000/svg" xmlns:xlink="http://www.w3.org/1999/xlink" x="0px" y="0px"
	 viewBox="0 0 70 70" style="enable-background:new 0 0 70 70;" xml:space="preserve">
<style type="text/css">
	.st0{fill:#FDF7EB;}
	.st1{fill:#E55353;}
	.st2{fill:#4B3B40;stroke:#4B3B40;stroke-width:1.25;stroke-miterlimit:10;}
	.st3{fill:none;stroke:#FFEAEC;stroke-width:1.25;stroke-linecap:round;stroke-miterlimit:10;}
	.st4{fill:#FCEA6D;}
</style>
<g id="Layer_2_00000050634386963603214900000005990411202058517650_">
</g>
<g id="Layer_1_00000127744376568465369920000017309566200685205170_">
	<g>
		<path class="st0" d="M59.7,39.9c0,0.6,0,1.2-0.1,1.8c-0.3,4.3-1.9,7.8-4.2,10.4c-3.1,3.6-7.7,5.7-12.6,6.8c-2.5,0.5-5,0.8-7.5,0.8
			c-11.5,0-25-5.7-25.1-19.7c0-2.8,0.3-5.8,1.1-8.6c0.1-0.3,0.2-0.7,0.3-1c0.6-2,1.5-3.8,2.8-5.6c1-1.5,2.3-2.8,3.8-4
			c0.3-0.2,0.5-0.4,0.8-0.6c1.5-1,3.3-1.9,5.3-2.6c2.9-1,6.4-1.5,10.6-1.5c4.3,0,7.9,0.6,10.9,1.6c2.1,0.7,3.8,1.6,5.4,2.7
			c0.2,0.2,0.5,0.3,0.7,0.5l0,0c1.5,1.2,2.8,2.5,3.8,4c0,0,0.1,0.1,0.1,0.2c1.3,2,2.3,4.2,2.9,6.5c0.4,1.4,0.6,2.8,0.8,4.3
			C59.6,37.1,59.7,38.5,59.7,39.9z"/>
		<path class="st0" d="M18.2,21.7c-1.5,1.1-2.7,2.4-3.7,3.9c-1.4,1.9-2.4,2.1-0.5-0.2C9,24.3,2.5,22,2,20.8
			c-0.1-0.2-0.1-0.4-0.2-0.5c-0.2-0.5,0.3-1.1,0.9-0.9C5.6,20.1,12.9,22,18.2,21.7z"/>
		<path class="st1" d="M13.9,24.6c0.2,0.1,0.3,0.3,0.2,0.5c-1.1,1.6-1.9,3.4-2.5,5.2c-0.1,0.3-0.2,0.7-0.3,1
			c-5-3.4-7.5-7.5-8.8-10.2c-0.1-0.3,0.2-0.6,0.5-0.4C5.1,21.9,10,23.6,13.9,24.6z"/>
		<ellipse class="st2" cx="35.4" cy="47.8" rx="9.1" ry="4.6"/>
		<g>
			<line class="st3" x1="32" y1="46" x2="32" y2="50"/>
			<line class="st3" x1="38.9" y1="46" x2="38.9" y2="50"/>
		</g>
		<path class="st2" d="M30.6,35.3l0.5,1.3c0.5,1.5-0.5,3.1-2.1,3.3l-3.2,0.3c-0.1,0-0.1,0-0.2,0l-1.9,1c-1.7,0.9-3.8,0-4.3-1.8
			l-0.3-1.2c-0.3-1-1-1.7-2-2l-1.3-0.3c-2.2-0.6-2.6-3.5-0.7-4.7l1.5-0.9c1.3-0.8,2.3-2.1,2.7-3.6l0.2-0.9c0.5-1.8,2.6-2.6,4.2-1.6
			l0,0c1.5,1,3.3,1.6,5.1,1.7H29c2,0.1,3.3,2.2,2.4,4L30.8,31C30.2,32.4,30.1,33.9,30.6,35.3z"/>
		<path class="st2" d="M59.6,41.6c-0.3,4.3-1.9,7.8-4.2,10.4c-0.5-0.3-1-0.4-1.6-0.4h-1c-1.1,0-1.9-1.1-1.6-2.1l0.6-2.1v-0.1
			l-0.2-1.5c-0.2-1.3,0.9-2.5,2.2-2.3l0.8,0.1c0.7,0.1,1.4-0.2,1.8-0.8l0.5-0.7C57.7,41.1,58.8,41.1,59.6,41.6z"/>
		<path class="st4" d="M23,18c-1.3,0.5-2.4,1.1-3.5,1.8c-0.2,0.2-0.6,0.1-0.7-0.1c-0.9-1.3-2.2-4-1.3-7.2c0.1-0.5,0.8-0.5,1,0
			c0.8,1.9,2.6,3.7,4.5,4.6C23.4,17.2,23.4,17.8,23,18z"/>
		<path class="st4" d="M50.8,19.9c-1.1-0.7-2.2-1.3-3.5-1.8c-0.4-0.2-0.5-0.8,0-1c2-0.9,3.8-2.8,4.6-4.7c0.2-0.5,0.9-0.4,1,0.1
			c1,3.3-0.5,6.1-1.4,7.3C51.3,20,51,20,50.8,19.9z"/>
		<g>
			<path class="st0" d="M51.8,21.7c1.5,1.1,2.7,2.4,3.7,3.9c1.4,1.9,2.4,4.1,3,6.3c0,0.1,0.1,0.3,0.1,0.5c-0.8-2.8-0.8-4.6-2.7-6.9
				c5-1.1,11.5-3.4,12-4.6c0.1-0.2,0.1-0.4,0.2-0.5c0.2-0.5-0.3-1.1-0.9-0.9C64.4,20.1,57.1,22,51.8,21.7z"/>
			<path class="st1" d="M56.2,24.5c-0.3,0.1-0.4,0.4-0.3,0.7c1,1.6,1.8,3.3,2.4,5c0.1,0.3,0.2,0.7,0.3,1c4.8-3.2,7.3-7.1,8.6-9.9
				c0.2-0.4-0.2-0.8-0.6-0.6C64.5,22.1,59.9,23.6,56.2,24.5z"/>
		</g>
	</g>
</g>
</svg>
