<?xml version="1.0" encoding="utf-8"?>
<!-- Generator: Adobe Illustrator 27.5.0, SVG Export Plug-In . SVG Version: 6.00 Build 0)  -->
<svg version="1.1" xmlns="http://www.w3.org/2000/svg" xmlns:xlink="http://www.w3.org/1999/xlink" x="0px" y="0px"
	 viewBox="0 0 70 70" style="enable-background:new 0 0 70 70;" xml:space="preserve">
<style type="text/css">
	.st0{fill:#FFEAEC;}
	.st1{fill:none;}
	.st2{fill:#FDF7EB;}
	.st3{fill:#E55353;}
	.st4{fill:#F39A9D;}
	.st5{fill:none;stroke:#4B3B40;stroke-linecap:round;stroke-miterlimit:10;}
	.st6{fill:#4B3B40;}
	.st7{fill:#F7F8F9;}
	.st8{fill:none;stroke:#000000;stroke-linecap:round;stroke-miterlimit:10;}
	.st9{fill:#FCEA6D;}
	.st10{fill:none;stroke:#4B3B40;stroke-width:1.5;stroke-linecap:round;stroke-miterlimit:10;}
</style>
<g id="Layer_2">
</g>
<g id="Layer_1">
	<g>
		<path class="st0" d="M18.3,20.7c-0.1,0.1-0.2,0.1-0.3,0.2C18.1,20.8,18.2,20.8,18.3,20.7C18.3,20.7,18.3,20.7,18.3,20.7z"/>
		<path class="st1" d="M11.3,31.1c0-0.1,0.1-0.2,0.1-0.3l0,0c0,0,0,0,0-0.1"/>
		<path class="st2" d="M58.3,30c-0.1-0.2-0.2-0.5-0.3-0.7c0,0,0-0.1,0-0.1C58.2,29.5,58.2,29.7,58.3,30z"/>
		<path class="st2" d="M58.7,31.2C58.7,31.2,58.7,31.2,58.7,31.2c-0.1-0.2-0.2-0.5-0.2-0.8C58.6,30.7,58.6,30.9,58.7,31.2z"/>
		<path class="st3" d="M14.2,24.5c-0.2,0.3-0.5,0.6-0.7,0.9c-0.1,0.1-0.1,0.2-0.2,0.3c-0.1,0.2-0.2,0.4-0.3,0.6
			c-0.1,0.1-0.1,0.3-0.2,0.4c0,0,0,0.1,0,0.1c-0.1,0.2-0.1,0.4-0.2,0.6c-0.1,0.2-0.1,0.3-0.2,0.5c-0.1,0.4-0.2,0.8-0.3,1.3
			c0,0,0,0,0,0c-0.1,0.4-0.3,0.7-0.4,1.1c-0.1,0.2-0.2,0.5-0.2,0.8c0,0-0.1-0.1-0.1-0.1c-0.9-0.6-1.7-1.3-2.5-1.9
			c-1.2-1-2.2-2.1-3-3.1c-1.8-2.2-2.8-4.3-3.4-5.8C3.9,21.4,9.6,23.4,14.2,24.5z"/>
		<path class="st1" d="M58.7,31.4c0,0-0.1,0-0.1,0.1"/>
		<g>
			<ellipse class="st4" cx="35.7" cy="44.5" rx="9.1" ry="4.6"/>
			<g>
				<line class="st5" x1="33.5" y1="42.6" x2="33.5" y2="46.7"/>
				<line class="st5" x1="37.9" y1="42.6" x2="37.9" y2="46.7"/>
			</g>
		</g>
		<path class="st6" d="M27.8,32.6c-0.6,1.1-0.7,2.2-0.3,3.2l0.4,1c0.4,1.1-0.4,2.3-1.5,2.4l-2.3,0.2H24l-1.4,0.8
			c-1.2,0.7-2.8,0-3.2-1.3l-0.4-1c-0.2-0.7-0.8-1.3-1.5-1.5l-0.9-0.3c-1.6-0.4-1.9-2.6-0.5-3.5l1.1-0.6c1-0.6,1.7-1.5,2-2.6l0.2-0.6
			c0.3-1.4,1.9-2,3.1-1.2c1.1,0.8,2.4,1.2,3.7,1.2h0.2c1.5,0.1,2.4,1.6,1.8,3L27.8,32.6z"/>
		<circle class="st7" cx="22.9" cy="33.9" r="2.7"/>
		<path class="st6" d="M51.1,33.9c0,1.5-1.2,2.7-2.7,2.7c-1.5,0-2.7-1.2-2.7-2.7c0-1.5,1.2-2.7,2.7-2.7
			C49.9,31.2,51.1,32.4,51.1,33.9z"/>
		<path class="st8" d="M31.4,53.5c0,0,1.4,2,4.5,2s4.5-2,4.5-2"/>
		<path class="st9" d="M24,17.6c-1.9,0.7-3.5,1.5-5,2.5c-0.1,0-0.1,0.1-0.2,0.1c-0.9-1.2-2.8-4.3-1.4-8.1c0.1-0.3,0.5-0.3,0.6,0
			C19,14.5,21.5,16.9,24,17.6z"/>
		<path class="st9" d="M51.3,20.3c-1.6-1.1-3.3-2-5.3-2.7c2.7-0.6,5.3-3.2,6-5.6c0.1-0.3,0.5-0.3,0.6,0C54.1,16,52.1,19.2,51.3,20.3
			z"/>
		<path class="st9" d="M7.6,26.1c-2.5-1.3-5.4,2.8-6.5,4.5C0.9,31,1,31.5,1.4,31.7l4.9,2.7c0.4,0.2,0.9,0,1.1-0.4
			C8.3,32.1,10.1,27.4,7.6,26.1z"/>
		<path class="st2" d="M67.2,18.5c-2.8,0.6-10,2.5-15.3,2.2h0c-0.2-0.2-0.4-0.2-0.6-0.4c0,0,0,0,0,0c-1.6-1.1-3.3-2-5.3-2.7
			c0,0,0,0,0,0c-3-1-6.6-1.6-10.9-1.6c-4.2,0-7.7,0.5-10.6,1.5c-0.1,0-0.2,0.1-0.4,0.1c-1.9,0.7-3.5,1.5-5,2.5
			c-0.1,0-0.1,0.1-0.2,0.1c-0.2,0.2-0.4,0.3-0.6,0.5c0,0,0,0,0,0c-0.1,0.1-0.2,0.1-0.3,0.2c0.1-0.1,0.2-0.1,0.3-0.2
			C13,21,5.7,19.1,2.8,18.4c-0.6-0.2-1.1,0.4-0.9,0.9C2,19.6,2,19.7,2.1,19.8c0,0.1,0.2,0.2,0.3,0.4c1.5,1.2,7.2,3.2,11.8,4.3
			c-0.2,0.3-0.5,0.6-0.7,0.9c-0.1,0.1-0.1,0.2-0.2,0.3c-0.1,0.2-0.2,0.4-0.3,0.6c-0.1,0.1-0.1,0.3-0.2,0.4c0,0,0,0.1,0,0.1
			c-0.1,0.2-0.1,0.4-0.2,0.6c-0.1,0.2-0.1,0.3-0.2,0.5c-0.1,0.4-0.2,0.8-0.3,1.3c0,0,0,0,0,0c-0.1,0.4-0.3,0.7-0.4,1.1
			c-0.1,0.2-0.2,0.5-0.2,0.8c0,0.1,0,0.1-0.1,0.2c-0.8,2.8-1.1,5.8-1.1,8.6c0.1,14,13.6,19.7,25.1,19.7c2.5,0,5-0.3,7.5-0.8
			c2.9-0.6,5.6-1.6,8.1-3c3.4-2,6.2-5,7.7-9.1c0.7-2,1.1-4.2,1.1-6.8c0-1.4-0.1-2.8-0.1-4.1c-0.2-1.5-0.4-2.9-0.8-4.3
			c0-0.1,0-0.2-0.1-0.3c0,0,0,0,0,0c-0.1-0.2-0.2-0.5-0.2-0.8c0-0.1-0.1-0.3-0.1-0.4c0,0,0,0,0,0c-0.1-0.2-0.2-0.5-0.3-0.7
			c0,0,0-0.1,0-0.1c0,0,0,0,0,0c-0.4-1.6-0.8-3-2.1-4.6c0,0,0,0,0,0c0.6-0.1,1.3-0.3,1.9-0.5c0.3-0.1,0.7-0.2,1-0.3
			c4.1-1.2,8.4-3,9.1-4c0,0,0,0,0,0c0.1-0.2,0.1-0.3,0.2-0.4C68.3,18.9,67.8,18.3,67.2,18.5z M24.1,39.4L24.1,39.4l-1.5,0.8
			c-1.2,0.7-2.8,0-3.2-1.3l-0.4-1c-0.2-0.7-0.8-1.3-1.5-1.5l-0.9-0.3c-1.6-0.4-1.9-2.6-0.5-3.5l1.1-0.6c1-0.6,1.7-1.5,2-2.6l0.2-0.6
			c0.3-1.4,1.9-2,3.1-1.2c1.1,0.8,2.4,1.2,3.7,1.2h0.2c1.5,0.1,2.4,1.6,1.8,3l-0.4,0.8c-0.6,1.1-0.7,2.2-0.3,3.2l0.4,1
			c0.4,1.1-0.4,2.3-1.5,2.4L24.1,39.4z M35.7,49.1c-5,0-9.1-2.1-9.1-4.6s4.1-4.6,9.1-4.6c5,0,9.1,2.1,9.1,4.6S40.7,49.1,35.7,49.1z
			 M48.4,36.6c-1.5,0-2.7-1.2-2.7-2.7c0-1.5,1.2-2.7,2.7-2.7c1.5,0,2.7,1.2,2.7,2.7C51.1,35.4,49.9,36.6,48.4,36.6z"/>
		<path class="st2" d="M67.9,19.8C67.9,19.8,67.9,19.9,67.9,19.8c-0.4,1.1-4.8,2.8-9.1,4C63,22.5,67.2,20.8,67.9,19.8z"/>
		<path class="st3" d="M68,19.7c-0.6,1.5-1.7,3.9-3.6,6.3c-0.9,1.1-1.9,2.2-3.2,3.3c-0.7,0.6-1.6,1.3-2.5,1.8c0,0,0,0,0,0
			c-0.1-0.2-0.2-0.5-0.2-0.8c0-0.1-0.1-0.3-0.1-0.4c0,0,0,0,0,0c-0.1-0.2-0.2-0.5-0.3-0.7c0,0,0-0.1,0-0.1c0,0,0,0,0,0
			c-0.4-1.6-0.8-3-2.1-4.6c0.6-0.1,1.3-0.3,1.9-0.5c0.3-0.1,0.7-0.2,1-0.3c4.1-1.2,8.4-3,9.1-4c0,0,0,0,0,0C68,19.8,68,19.7,68,19.7
			z"/>
		<path class="st9" d="M62.4,26.1c2.5-1.3,5.4,2.8,6.5,4.5c0.2,0.4,0.1,0.9-0.3,1.1l-4.9,2.7c-0.4,0.2-0.9,0-1.1-0.4
			C61.7,32.1,59.9,27.4,62.4,26.1z"/>
		<path class="st6" d="M58.6,46.7c-1.4,4.1-4.2,7-7.7,9.1c-0.4-0.4-0.7-0.9-0.7-1.5c0-0.1,0-0.1,0-0.2l0.1-0.8c0.2-1.2,0-2.2-0.7-3
			l-0.7-0.8c-0.7-0.9-0.3-2.2,0.6-2.6l2-0.9l0.1,0l1-1.1c0.9-1,2.5-0.8,3.3,0.2l0.7,0.8c0.1,0.1,0.2,0.2,0.3,0.3
			C57.5,46.5,58,46.7,58.6,46.7L58.6,46.7z"/>
		<path class="st10" d="M31.7,53.7c0,0,1.3,1.9,4.2,1.9c2.9,0,4.2-1.9,4.2-1.9"/>
	</g>
</g>
</svg>
