<?xml version="1.0" encoding="utf-8"?>
<!-- Generator: Adobe Illustrator 27.5.0, SVG Export Plug-In . SVG Version: 6.00 Build 0)  -->
<svg version="1.1" xmlns="http://www.w3.org/2000/svg" xmlns:xlink="http://www.w3.org/1999/xlink" x="0px" y="0px"
	 viewBox="0 0 678 680" style="enable-background:new 0 0 678 680;" xml:space="preserve">
<style type="text/css">
	.st0{fill:none;stroke:#59AD97;stroke-width:10;stroke-miterlimit:10;}
	.st1{fill:none;stroke:#59AD97;stroke-width:12;stroke-linecap:round;stroke-miterlimit:10;}
	.st2{fill:none;stroke:#59AD97;stroke-width:8;stroke-linecap:round;stroke-miterlimit:10;}
	.st3{fill:none;stroke:#59AD97;stroke-width:8;stroke-miterlimit:10;}
	.st4{fill:none;stroke:#59AD97;stroke-width:12;stroke-miterlimit:10;}
	.st5{fill:none;stroke:#59AD97;stroke-width:5;stroke-miterlimit:10;}
	.st6{fill:none;stroke:#59AD97;stroke-width:13;stroke-miterlimit:10;}
	.st7{fill:#59AD97;stroke:#59AD97;stroke-miterlimit:10;}
	.st8{fill:none;stroke:#59AD97;stroke-width:5;stroke-linecap:round;stroke-miterlimit:10;}
	.st9{fill:none;stroke:#72B279;stroke-width:10;stroke-miterlimit:10;}
	.st10{fill:#DCF9E0;}
	.st11{fill:#5F7A67;}
	.st12{fill:#40493A;stroke:#40493A;stroke-width:1.25;stroke-miterlimit:10;}
	.st13{fill:none;stroke:#BEEAC6;stroke-width:3;stroke-linecap:round;stroke-linejoin:round;stroke-miterlimit:10;}
	.st14{fill:#44AD9E;}
	.st15{fill:#59AD97;}
	.st16{font-family:'PatrickHand-Regular';}
	.st17{font-size:24px;}
</style>
<g id="Layer_1">
	<line class="st0" x1="592" y1="340" x2="501.5" y2="340"/>
	<line class="st0" x1="175.5" y1="340" x2="86" y2="340"/>
	<line class="st0" x1="196.4" y1="257.6" x2="119.9" y2="213.5"/>
	<line class="st0" x1="558.1" y1="466.5" x2="478.7" y2="420.7"/>
	<line class="st0" x1="198.5" y1="421.1" x2="119.9" y2="466.5"/>
	<line class="st0" x1="558.1" y1="213.5" x2="480.9" y2="258.1"/>
	<path class="st1" d="M419.3,479.1l-34.5-59.8c14-8,25.8-19.4,34.1-33.2c8.2-13.5,13.1-29.3,13.5-46.1c0-0.8,0-1.7,0-2.5
		c0-16.3-4.1-31.6-11.4-44.9c-8-14.7-19.8-27-34-35.6c0,0,34.3-59.7,34.3-59.7"/>
	<path class="st2" d="M421.4,197.3L421.4,197.3c0.1-0.1,0.1-0.1,0.1-0.1c0.1,0,0.1,0.1,0.2,0.1c7.7,4.6,14.9,9.7,21.7,15.5
		c0.7,0.6,1.4,1.2,2,1.7c6.1,5.3,11.8,11,17,17.2c0.6,0.7,1.1,1.3,1.7,2c0,0,0.1,0.1,0.1,0.1c1.7,2,3.3,4.2,4.9,6.3c0,0,0,0,0,0
		c1.1,1.4,2.1,2.9,3.1,4.3c0,0,0,0,0,0c1,1.5,2,2.9,3,4.4c2,3,3.8,6.1,5.6,9.2c13.1,23.5,20.6,50.6,20.6,79.4c0,0.8,0,1.7,0,2.5
		c-0.4,29.4-8.7,57-22.8,80.7c-14.4,24.2-34.9,44.4-59.4,58.4"/>
	<path class="st3" d="M258.2,479.4c-2-1.1-4-2.3-6-3.6c-0.4-0.2-0.8-0.5-1.2-0.8c-1.2-0.8-2.4-1.5-3.6-2.3c-0.6-0.4-1.2-0.8-1.7-1.2
		c-0.6-0.4-1.1-0.8-1.7-1.2c-0.4-0.3-0.9-0.6-1.3-0.9c-2.1-1.6-4.2-3.2-6.3-4.8c-0.7-0.5-1.4-1.1-2-1.7c-2.3-1.9-4.6-3.9-6.8-6
		c-0.5-0.5-1-0.9-1.5-1.4c-1.8-1.7-3.5-3.4-5.2-5.1c-0.7-0.8-1.4-1.5-2.1-2.3c-0.2-0.2-0.3-0.3-0.4-0.5c-0.5-0.6-1-1.1-1.5-1.7
		c-0.5-0.6-1-1.1-1.5-1.7c-0.5-0.5-1-1.1-1.4-1.7c-0.6-0.7-1.2-1.4-1.7-2.1c-0.6-0.7-1.1-1.4-1.6-2.1c-4.4-5.5-8.4-11.3-12-17.4
		c-14.2-23.8-22.6-51.5-23-81.1c0-0.8,0-1.7,0-2.5c0-29,7.6-56.2,20.9-79.9c14.2-25.2,35-46.3,59.9-60.9"/>
	<path class="st4" d="M256.3,196.7l34.5,59.8c-14.5,8.5-26.5,20.9-34.6,35.7c-7.4,13.4-11.6,28.9-11.6,45.3c0,0.8,0,1.7,0,2.5
		c0.4,17,5.4,33,13.8,46.6c8.5,13.8,20.4,25.2,34.5,33.1v0c0,0,0.1,0,0.1,0.1l-34.5,59.8c-0.1,0-0.1-0.1-0.2-0.1"/>
	<path class="st5" d="M491,603.3c-44.7,25.9-96.6,40.7-152,40.7s-107.3-14.8-152-40.7"/>
	<polyline class="st6" points="491,603 419.3,479.1 384.8,419.3 	"/>
	<path class="st4" d="M293,419.8c0.4,0.2,0.8,0.4,1.2,0.6c0,0,0.1,0,0.1,0.1c0.8,0.4,1.6,0.9,2.5,1.3c0,0,0.1,0,0.1,0.1
		c0.8,0.4,1.7,0.8,2.5,1.2c0,0,0.1,0,0.1,0.1c0.8,0.4,1.6,0.7,2.4,1.1c0.1,0,0.2,0,0.2,0.1c0.9,0.4,1.7,0.7,2.6,1
		c0.9,0.3,1.8,0.7,2.8,1c0.9,0.3,1.9,0.6,2.8,0.9c5.6,1.8,11.5,3,17.5,3.7c0.9,0.1,1.9,0.2,2.8,0.3c2.6,0.2,5.2,0.3,7.8,0.3
		c1.2,0,2.3,0,3.5-0.1c0.9,0,1.8-0.1,2.7-0.1c1.7-0.1,3.3-0.2,4.9-0.4c1.5-0.2,3-0.4,4.4-0.6c1.7-0.3,3.4-0.6,5.1-1
		c0.3-0.1,0.7-0.1,1-0.2c2-0.5,4.1-1,6-1.6c0.9-0.3,1.7-0.5,2.5-0.8c2.9-1,5.7-2.1,8.4-3.3c0.9-0.4,1.7-0.8,2.6-1.2
		c0,0,0.1,0,0.1-0.1c1.3-0.6,2.6-1.3,3.8-2c0,0,0.1,0,0.1-0.1c0.4-0.2,0.9-0.5,1.3-0.7"/>
	<line class="st6" x1="293" y1="419.8" x2="187" y2="603"/>
	<path class="st7" d="M339,6C154.5,6,5,155.5,5,340s149.5,334,334,334s334-149.5,334-334S523.5,6,339,6z M554,555
		c-18.7,18.7-39.9,35-62.9,48.4c-44.7,25.9-96.6,40.7-152,40.7s-107.3-14.8-152-40.7C163.9,590,142.8,573.7,124,555
		c-18.7-18.7-35-39.9-48.3-62.9C49.8,447.3,35,395.4,35,340s14.8-107.3,40.7-152C89,164.9,105.3,143.8,124,125
		c18.7-18.7,39.9-35,62.9-48.3C231.7,50.8,283.6,36,339,36s107.3,14.8,152,40.7C514.1,90,535.2,106.3,554,125
		c18.7,18.7,35,39.9,48.3,62.9c25.9,44.7,40.7,96.6,40.7,152s-14.8,107.3-40.7,152C589,515.1,572.7,536.2,554,555z"/>
	<path class="st8" d="M643,340c0,55.4-14.8,107.3-40.7,152C589,515.1,572.7,536.2,554,555c-18.7,18.7-39.9,35-62.9,48.4l-25.5-44.2
		c38.4-22.2,70.4-54.2,92.6-92.6c21.5-37.1,33.8-80.2,33.9-126.2V340c0-46.1-12.3-89.3-33.9-126.5c-22.1-38.3-54-70.2-92.3-92.4
		l-0.3-0.2L491,76.7C514.1,90,535.2,106.3,554,125c18.7,18.7,35,39.9,48.3,62.9C628.2,232.7,643,284.6,643,340z"/>
	<path class="st8" d="M258.5,479.5l-46,79.6L187,603.3C163.9,590,142.8,573.7,124,555c-18.7-18.7-35-39.9-48.3-62.9
		C49.8,447.3,35,395.4,35,340s14.8-107.3,40.7-152C89,164.9,105.3,143.8,124,125c18.7-18.7,39.9-35,62.9-48.3c0,0,0.1,0.2,0.3,0.5
		l0.3,0.6c0.1,0.1,0.2,0.2,0.2,0.4l24.6,42.7c-38.3,22.1-70.2,54-92.4,92.3c-0.1,0.1-0.1,0.2-0.2,0.3
		C98.4,250.6,86.1,293.7,86,339.6v0.4c0,46,12.3,89,33.7,126.2c0.1,0.1,0.1,0.2,0.2,0.3c22.1,38.3,54,70.2,92.3,92.4l46.1-79.6
		C258.3,479.4,258.4,479.5,258.5,479.5z"/>
	<path class="st9" d="M187.6,77.8c-0.1-0.2-0.2-0.4-0.3-0.6"/>
	<path class="st6" d="M187.8,78.2c4.5,7.6,24.8,42.5,25,42.5l43.7,75.9l34.4,59.8"/>
	<path class="st1" d="M290.9,256.4c0.6-0.4,1.3-0.7,1.9-1.1c0.7-0.4,1.5-0.8,2.2-1.2c0.2-0.1,0.5-0.3,0.7-0.4c0.3-0.2,0.6-0.3,1-0.5
		c0.3-0.1,0.5-0.3,0.8-0.4c0.5-0.2,0.9-0.4,1.4-0.7c0.2-0.1,0.4-0.2,0.5-0.2c0.1-0.1,0.2-0.1,0.3-0.1c0.7-0.3,1.3-0.6,2-0.9
		c0.2-0.1,0.4-0.2,0.5-0.2c0.5-0.2,1-0.4,1.5-0.6c0.2-0.1,0.3-0.1,0.5-0.2c0.1,0,0.2-0.1,0.4-0.1c0.5-0.2,1-0.4,1.5-0.6
		c0.3-0.1,0.6-0.2,1-0.4c0.3-0.1,0.6-0.2,0.9-0.3c0.3-0.1,0.6-0.2,0.9-0.3c0.5-0.2,1-0.3,1.5-0.5c1-0.3,2-0.6,3-0.9
		c0.5-0.1,1-0.3,1.5-0.4c0,0,0.1,0,0.1,0c0.3-0.1,0.6-0.2,1-0.2c0.1,0,0.3-0.1,0.4-0.1c0.4-0.1,0.8-0.2,1.2-0.3
		c0.3-0.1,0.5-0.1,0.8-0.2c0.3-0.1,0.6-0.1,1-0.2c0,0,0,0,0,0c0.5-0.1,1-0.2,1.5-0.3c0.5-0.1,1-0.2,1.5-0.3h0c0,0,0,0,0,0
		c0.8-0.1,1.6-0.3,2.5-0.4c0.3,0,0.6-0.1,0.9-0.1c0.2,0,0.4-0.1,0.5-0.1c0.2,0,0.4,0,0.6-0.1h0c0.6-0.1,1.2-0.1,1.8-0.2
		c0.8-0.1,1.6-0.2,2.4-0.2c0.8-0.1,1.6-0.1,2.4-0.2h0c1.1,0,2.1-0.1,3.2-0.1c0.6,0,1.2,0,1.8,0c0.3,0,0.6,0,1,0h0.6c0,0,0.1,0,0.1,0
		c0.1,0,0.3,0,0.4,0c0.4,0,0.7,0,1.1,0c0.4,0,0.8,0,1.2,0.1c0.2,0,0.3,0,0.5,0c0.5,0,1,0.1,1.5,0.1c0.6,0,1.2,0.1,1.7,0.1
		c0.5,0,1.1,0.1,1.6,0.2c0.4,0,0.7,0.1,1.1,0.1c0.2,0,0.5,0,0.7,0.1c0.2,0,0.4,0,0.6,0.1l0.2,0c0,0,0,0,0,0c0,0,0,0,0,0
		c0,0,0,0,0.1,0c0.2,0,0.5,0.1,0.7,0.1c0.4,0.1,0.9,0.1,1.3,0.2c0.1,0,0.2,0,0.3,0c0.2,0,0.4,0.1,0.5,0.1c0,0,0.1,0,0.1,0
		c0,0,0,0,0,0c0,0,0,0,0.1,0c0.2,0,0.4,0.1,0.7,0.1c0.3,0,0.5,0.1,0.8,0.1c0.3,0.1,0.6,0.1,0.9,0.2c0.6,0.1,1.2,0.2,1.8,0.4
		c0.4,0.1,0.8,0.2,1.2,0.3c0,0,0,0,0,0c0.5,0.1,1,0.2,1.5,0.4c0,0,0,0,0,0c0,0,0.1,0,0.1,0c0.5,0.1,0.9,0.2,1.4,0.4
		c1,0.3,2,0.6,3,0.9c0.9,0.2,1.7,0.5,2.5,0.8c0.7,0.2,1.3,0.4,2,0.7c1,0.3,2,0.7,2.9,1.1c0.1,0.1,0.3,0.1,0.4,0.2
		c0.4,0.1,0.8,0.3,1.2,0.5c0.4,0.2,0.9,0.4,1.3,0.6c0.2,0.1,0.4,0.2,0.6,0.2c0.2,0.1,0.4,0.2,0.6,0.3c0.1,0.1,0.3,0.1,0.4,0.2
		c0.7,0.3,1.5,0.7,2.2,1c0.6,0.3,1.3,0.6,1.9,0.9c0.5,0.2,0.9,0.5,1.4,0.7c0.3,0.1,0.6,0.3,0.8,0.5c0.2,0.1,0.4,0.2,0.6,0.3
		c0.3,0.1,0.5,0.3,0.8,0.4c0.6,0.3,1.2,0.7,1.8,1.1"/>
	<path class="st6" d="M490,75c0,0-68.5,122.2-68.5,122.2c0,0,0,0.1,0,0.1c-1.2,2.3-24.6,42.9-32.1,55.8c-0.1,0.2-2.3,3.9-2.3,3.9"/>
	<path class="st8" d="M491,76.7C446.3,50.8,394.4,36,339,36S231.7,50.8,187,76.7"/>
</g>
<g id="Layer_3">
	<g>
		<path class="st10" d="M388,344.7c0,1.2,0,2.4-0.1,3.6c-0.7,8.8-3.8,15.8-8.5,21.1c-6.4,7.3-15.6,11.6-25.6,13.7
			c-5.1,1-10.2,1.5-15.3,1.5c-23.3,0-50.8-11.6-50.9-39.9c0-5.7,0.6-11.7,2.2-17.5c0.2-0.7,0.4-1.4,0.7-2.1c1.3-4,3.1-7.8,5.6-11.3
			c2.1-3,4.7-5.7,7.8-8.1c0.5-0.4,1.1-0.8,1.6-1.2c3.1-2.1,6.6-3.9,10.7-5.3c6-2,13.1-3.1,21.5-3.1c8.7,0,16,1.2,22.1,3.2
			c4.2,1.4,7.8,3.2,10.9,5.4c0.5,0.3,1,0.7,1.4,1h0c3.1,2.4,5.7,5.2,7.7,8.2c0.1,0.1,0.1,0.2,0.2,0.3c2.7,4,4.6,8.5,5.8,13.3
			c0.8,2.8,1.3,5.7,1.6,8.7C387.9,339,388.1,341.8,388,344.7z"/>
		<path class="st10" d="M303.9,307.7c-3,2.3-5.5,5-7.6,7.8c-2.8,3.9-4.9,4.3-1-0.3c-10.1-2.2-23.3-6.9-24.3-9.4
			c-0.1-0.4-0.3-0.7-0.4-1.1c-0.4-1.1,0.7-2.2,1.8-1.9C278.3,304.6,293.1,308.4,303.9,307.7z"/>
		<path class="st11" d="M295.2,313.6c0.5,0.1,0.6,0.6,0.4,1c-2.2,3.3-3.9,6.8-5,10.5c-0.2,0.7-0.5,1.4-0.7,2.1
			c-10.1-6.8-15.3-15.2-17.8-20.7c-0.3-0.6,0.4-1.2,1-0.8C277.3,308.2,287.3,311.7,295.2,313.6z"/>
		<ellipse class="st12" cx="338.9" cy="360.9" rx="18.5" ry="9.3"/>
		<g>
			<line class="st13" x1="331.9" y1="357.1" x2="331.9" y2="365.3"/>
			<line class="st13" x1="345.9" y1="357.1" x2="345.9" y2="365.3"/>
		</g>
		<path class="st12" d="M329,335.3l1,2.6c1.1,3.1-1,6.3-4.2,6.6l-6.4,0.6c-0.1,0-0.2,0-0.3,0.1l-3.8,2.1c-3.4,1.9-7.7,0.1-8.7-3.7
			l-0.7-2.4c-0.5-2-2.1-3.5-4.1-4.1l-2.6-0.7c-4.5-1.2-5.3-7.1-1.3-9.5l3-1.8c2.7-1.6,4.6-4.2,5.4-7.3l0.4-1.8
			c0.9-3.7,5.3-5.4,8.4-3.2h0c3,2.1,6.6,3.3,10.3,3.4l0.5,0c4.1,0.2,6.7,4.5,4.8,8.2l-1.1,2.2C328.2,329.5,328,332.6,329,335.3z"/>
		<path class="st12" d="M388,348.3c-0.7,9.1-3.8,16.2-8.5,21.7c-1-0.6-2.1-0.9-3.3-0.9l-2,0c-2.3,0-3.9-2.3-3.2-4.5l1.2-4.4
			c0-0.1,0-0.1,0-0.2l-0.4-3.1c-0.4-2.7,1.9-5.1,4.6-4.8l1.7,0.2c1.4,0.1,2.8-0.5,3.7-1.7l1.1-1.5
			C384.2,347.2,386.5,347.1,388,348.3z"/>
		<path class="st14" d="M313.5,300.3c-2.6,1.1-5,2.3-7.1,3.7c-0.5,0.3-1.1,0.2-1.5-0.3c-1.8-2.6-4.5-8-2.6-14.7
			c0.3-1,1.7-1.1,2.1-0.1c1.6,3.8,5.2,7.5,9.2,9.4C314.4,298.7,314.4,299.9,313.5,300.3z"/>
		<path class="st14" d="M370,304.1c-2.1-1.4-4.5-2.7-7.2-3.8c-0.9-0.4-0.9-1.6,0-2c4.1-1.8,7.7-5.6,9.4-9.5c0.4-1,1.8-0.9,2.1,0.1
			c1.9,6.8-1,12.3-2.8,14.8C371.2,304.3,370.5,304.4,370,304.1z"/>
		<g>
			<path class="st10" d="M372.1,307.7c3,2.3,5.5,5,7.6,7.8c2.8,3.9,4.8,8.2,6.2,12.7c0.1,0.3,0.2,0.6,0.3,0.9
				c-1.6-5.7-1.6-9.3-5.4-14c10.1-2.2,23.3-6.9,24.3-9.4c0.1-0.4,0.3-0.7,0.4-1.1c0.4-1.1-0.7-2.2-1.8-1.9
				C397.7,304.6,382.9,308.4,372.1,307.7z"/>
			<path class="st11" d="M381.1,313.5c-0.6,0.1-0.9,0.9-0.5,1.4c2.1,3.2,3.7,6.6,4.9,10.2c0.2,0.7,0.5,1.4,0.7,2.1
				c9.7-6.5,14.9-14.5,17.5-20c0.4-0.8-0.5-1.6-1.3-1.2C397.8,308.5,388.6,311.7,381.1,313.5z"/>
		</g>
		<g>
			<g>
			</g>
		</g>
	</g>
	<text transform="matrix(1.2934 0 0 1 310.9966 506.126)"><tspan x="0" y="0" class="st15 st16 st17">CITY</tspan><tspan x="9.1" y="24" class="st15 st16 st17">OF</tspan></text>
	<g>
		<g>
			<path class="st15" d="M268.5,558.1c-0.6-0.6-0.8-1-0.7-1.5s0.5-0.7,1.1-0.8c0.5-4.6,1.7-9.8,3.6-15.4c0.6-1.7,1.7-5,3.5-9.9
				c0.4-0.4,0.9-0.7,1.6-0.8c0.7-0.1,1.4-0.1,2,0.1c0.6,0.2,0.9,0.3,1,0.4c5.4,3,9.9,6.6,13.7,11.2c3.7,4.6,5.5,9.4,4.7,14.4
				c-0.9,5.4-5.1,8.5-12.3,8.3c-2.1-0.1-4.2-0.4-6.4-0.9c-2.2-0.6-4.1-1.2-5.7-1.9c0.1,0.3,0.1,0.7,0,1.1c-0.1,0.4-0.6,0.7-1.5,0.9
				c-0.9,0.2-1.9,0.1-2.9-0.2c-1.1-0.3-1.6-0.9-1.6-1.9C268.5,559.9,268.5,559.3,268.5,558.1z M277.9,541.8
				c-1.6,5.4-2.7,10.6-3.2,15.7c1,0.5,2.9,1.2,5.5,1.9c2.6,0.7,5.3,1,7.8,1c2.6,0,4-0.7,4.4-1.8c0.3-0.8,0.5-1.5,0.6-2
				c0.9-4.1,0-8-2.3-11.8c-2.3-3.8-5.8-7.2-10.5-10.3C279.1,538,278.3,540.4,277.9,541.8z"/>
			<path class="st15" d="M319.3,538.1c1,0.1,1.9,0.5,2.5,1.3c0.7,0.8,1.5,2.3,2.4,4.6c2.3,5.4,4.5,13.7,7,25c0,0.1,0.1,0.3,0.1,0.6
				s-0.2,0.5-0.7,0.7c-0.5,0.3-1.1,0.4-2,0.3c-0.8,0-1.6-0.2-2.1-0.5c-0.6-0.3-0.9-0.8-1.1-1.4c-0.2-0.6-0.4-1.9-0.8-3.7
				c-0.9-4.1-1.4-6.3-1.8-6.5c-0.5-0.3-2.3-0.6-5.4-1.2c-3.1-0.6-5.1-1-6.1-1.1c-1-0.1-1.6-0.1-1.8,0c-0.9,0.4-2.5,4.1-5.1,11
				c-0.3,0.6-1.2,0.7-2.9,0.5c-1.6-0.3-2.4-0.9-2.2-1.8c0.4-2.3,2.4-6.4,5.8-12.4c3.4-6,5.9-10,7.6-11.9
				C315.1,539,317.2,537.8,319.3,538.1z M318.5,543.3c-0.6-0.1-1.9,1.2-3.8,3.8c-1.9,2.6-3,4.2-3.1,4.9c0,0.2,0,0.3,0.1,0.4
				c0.3,0.3,1.7,0.7,4.2,1.2c2.4,0.5,4.1,0.7,4.9,0.8c0.8,0.1,1.3,0.1,1.4,0c0.1-0.1,0.2-0.3,0.2-0.8c0-0.4-0.4-2.2-1.3-5.4
				C320,545,319.2,543.4,318.5,543.3z"/>
			<path class="st15" d="M346.8,569.7c-2.1-3.8-4.1-7.3-6.2-10.5c-2-3.2-4.6-7.3-7.4-12.2c-1-1.7-1.6-2.8-1.8-3.2
				c-0.2-0.4-0.3-0.9-0.3-1.4c0-0.5,0.4-1,1-1.4c0.7-0.5,1.4-0.7,2.2-0.6c0.8,0,1.5,0.3,2,1c1.2,2.1,1.8,3.2,3,5.3
				c4.4,7.5,7.9,12.8,10,16.1c0.5-1.4,0.7-2,1.1-3.4c0.9-3,1.8-5.9,2.7-8.9c2.5-8,5-12.2,7.7-12.5c0.5-0.1,0.9,0,1.3,0.2
				c0.4,0.2,0.6,0.5,0.6,0.8c0,0.4-0.2,1-0.6,1.8c-0.5,0.8-1,2.2-1.6,4.2c-0.6,2-1.1,3.2-1.2,3.5c-0.2,0.4-1,3.1-2.6,8.3
				c-1.6,5.2-3.1,9.3-4.5,12.2c-0.2,0.5-0.6,1-1.3,1.3c-0.7,0.4-1.4,0.6-2.3,0.6C347.9,570.9,347.3,570.5,346.8,569.7z"/>
			<path class="st15" d="M369.1,538.2c0.6-0.4,1.3-0.7,2.2-0.8c0.8-0.1,1.5,0.2,1.7,0.8c1,3.1,1.7,9.2,2.9,16.4
				c0.7,4.4,1.1,8.3,1.2,11.4c0,0.5-0.4,1-1.1,1.5c-0.7,0.5-1.5,0.8-2.3,0.9c-1.3,0.2-2.1-0.2-2.2-1.1c0.1-3.2-0.2-7.2-0.9-11.9
				c-1-6.4-1.5-9.6-2.5-15.9C368.1,539.1,368.5,538.6,369.1,538.2z"/>
			<path class="st15" d="M393.8,532c2.7-0.7,5-1,7.1-0.9c2.1,0.1,3.3,0.7,3.6,1.7c0.1,0.5,0.1,0.9-0.1,1.3c-0.2,0.4-0.6,0.7-1.2,0.9
				c-0.6,0.2-2,0.2-4.2,0.1s-4.1,0-5.7,0.5c-1.6,0.4-3.2,1.2-4.8,2.4c-1.6,1.2-2.3,2.3-2,3.5c0.3,1.5,1.7,2.4,4.1,2.6
				c1.8,0.1,4.2,0,7.4-0.4c3.2-0.4,5.9-0.3,8.3,0.3c2.3,0.7,4,2.2,4.8,4.8c1.3,3.9,0.5,7.4-2.5,10.3c-1.7,1.6-4.4,3-8.1,4
				c-3.7,1-7.6,1.1-11.5,0.6c-2.6-0.4-3.9-1-4.1-1.8c-0.1-0.3,0.1-0.7,0.4-1.2c0.3-0.5,0.8-0.9,1.4-1.3c0.6-0.4,1.3-0.6,1.9-0.5
				c0.6,0,1.6,0.2,3,0.3c1.4,0.1,2.4,0.2,3.1,0.2c2.1,0,4-0.2,5.7-0.6c1.7-0.5,3.2-1.5,4.5-3c1.3-1.6,1.6-3.2,1.1-4.8
				c-0.6-2.1-2.6-3.2-6-3.2c-1.6,0-3.4,0.1-5.3,0.4c-4,0.5-7.2,0.3-9.4-0.5c-2.2-0.8-3.5-2.4-4-4.8c-0.5-2.4,0.6-4.5,3-6.5
				C386.3,534.5,389.6,533.1,393.8,532z"/>
		</g>
	</g>
</g>
</svg>
