<?xml version="1.0" encoding="utf-8"?>
<!-- Generator: Adobe Illustrator 27.5.0, SVG Export Plug-In . SVG Version: 6.00 Build 0)  -->
<svg version="1.1" id="Layer_1" xmlns="http://www.w3.org/2000/svg" xmlns:xlink="http://www.w3.org/1999/xlink" x="0px" y="0px"
	 viewBox="0 0 70 70" style="enable-background:new 0 0 70 70;" xml:space="preserve">
<style type="text/css">
	.st0{fill:#4B3B40;}
	.st1{fill:#FBD26E;}
	.st2{fill:#FDEAED;}
	.st3{fill:none;}
	.st4{fill:#FEF7EC;}
	.st5{fill:#E45354;}
	.st6{fill:#F29B9E;}
	.st7{fill:none;stroke:#4B3B40;stroke-linecap:round;stroke-miterlimit:10;}
	.st8{fill:#4C3C41;}
	.st9{fill:none;stroke:#010101;stroke-linecap:round;stroke-miterlimit:10;}
	.st10{fill:#FBE96C;}
	.st11{fill:none;stroke:#4C3C41;stroke-width:1.5;stroke-linecap:round;stroke-miterlimit:10;}
	.st12{fill:none;stroke:#FEF7EC;stroke-width:1.5;stroke-linecap:round;stroke-miterlimit:10;}
	.st13{fill:none;stroke:#4B3B40;stroke-width:1.5;stroke-linecap:round;stroke-miterlimit:10;}
</style>
<g>
	<path class="st0" d="M35.1,68.2c-9.6,0-20-5-20-16c0-1.1,0.1-2.1,0.2-3.1c-0.4,0.3-0.9,0.5-1.4,0.5c-0.3,0-0.6-0.1-0.9-0.2l-3.7-2
		c-1-0.5-1.4-1.7-0.8-2.8l0-0.1l0-0.1c0.9-1.3,1.7-2.4,2.6-3.1c-0.6-1-1.2-2-1.6-3c-0.1-0.2-0.2-0.3-0.3-0.5c0-0.1-0.1-0.2-0.1-0.3
		L9,37.5c-0.2-0.6-0.2-1.3,0.2-1.8c0.4-0.6,1-0.9,1.7-0.9c0.2,0,0.4,0,0.6,0.1l0.5,0.1c1.9,0.5,5.6,1.4,8.8,1.5
		c-0.6-1.4-0.9-3.3-0.1-5.4c0.3-0.7,0.9-1.1,1.6-1.1c0.8,0,1.4,0.5,1.7,1.2c0.4,1.2,1.7,2.5,2.9,3c2.3-0.7,4.9-1.1,8.1-1.1
		c3,0,5.7,0.4,8.1,1.1c1.4-0.5,2.6-1.9,3-3c0.2-0.7,0.9-1.2,1.7-1.2c0.7,0,1.4,0.4,1.6,1.1c0.8,2.2,0.5,4.1,0,5.5
		c2.9-0.2,6.1-0.9,8.1-1.4c0.4-0.1,0.7-0.2,0.9-0.2c0.2,0,0.4-0.1,0.5-0.1c0.7,0,1.3,0.3,1.7,0.9c0.4,0.5,0.4,1.2,0.2,1.8l-0.1,0.1
		l0,0l-0.2,0.5c-0.5,1.2-1.1,2.3-1.8,3.4c0.8,0.7,1.6,1.7,2.5,3l0,0.1l0,0.1c0.5,1,0.1,2.3-0.9,2.8l-3.6,2c-0.3,0.2-0.6,0.2-1,0.2
		l0,0c-0.5,0-0.9-0.2-1.3-0.5c0,0.4,0,0.9,0,1.4c0,0.5,0,1.1,0,1.6c0,1.5-0.2,2.9-0.5,4.2l0.1,0l-0.4,1.2c-1.1,3.2-3.2,5.7-6.3,7.5
		l-1,0.6l0,0c-1.6,0.8-3.4,1.4-5.4,1.9C38.9,68,37,68.2,35.1,68.2z"/>
	<path class="st1" d="M59.9,45.3c-0.6-0.9-1.9-2.8-3.4-3.4c1.5-1.8,2.2-3.6,2.7-4.7c0,0,0,0.1,0,0.1c0,0,0,0,0,0
		c-0.5,0.7-3.7,2-6.7,2.9c-0.2,0.1-0.5,0.1-0.7,0.2c-0.5,0.1-1,0.3-1.4,0.4c1,1.2,1.3,2.2,1.6,3.4c0,0,0,0,0,0c0,0,0,0.1,0,0.1
		c0.1,0.2,0.1,0.3,0.2,0.5c0,0,0,0,0,0c0,0.1,0.1,0.2,0.1,0.3c0.1,0.2,0.1,0.4,0.2,0.6c0,0,0,0,0,0c-0.1-0.2-0.1-0.4-0.2-0.6
		c0-0.1-0.1-0.2-0.1-0.3c0,0,0,0,0,0c-0.1-0.2-0.1-0.3-0.2-0.5c0,0,0-0.1,0-0.1c0,0,0,0,0,0c-0.3-1.2-0.6-2.2-1.6-3.4c0,0,0,0,0,0
		c0.5-0.1,0.9-0.2,1.4-0.3c0.2-0.1,0.5-0.1,0.7-0.2c3.1-0.9,6.2-2.2,6.7-2.9c0,0,0,0,0,0c0-0.1,0.1-0.2,0.1-0.3
		c0.1-0.4-0.2-0.8-0.7-0.7c-2.1,0.4-7.4,1.8-11.3,1.6h0c-0.1-0.1-0.3-0.2-0.4-0.3c0,0,0,0,0,0c0,0,0,0,0,0c0.7-0.8,2.1-3.2,1-6.1
		c-0.1-0.2-0.4-0.2-0.5,0c-0.6,1.8-2.5,3.7-4.5,4.1c0,0,0,0,0,0c0,0,0,0,0,0c-2.2-0.7-4.9-1.2-8.1-1.2c-3.1,0-5.7,0.4-7.8,1.1
		c-0.1,0-0.2,0.1-0.3,0.1c0,0,0,0,0,0c-1.9-0.5-3.7-2.3-4.3-4.1c-0.1-0.2-0.4-0.2-0.5,0c-1,2.8,0.4,5.1,1,6c0,0,0,0,0,0
		c-0.2,0.1-0.3,0.2-0.5,0.4c0,0,0,0,0,0c0,0,0,0,0,0c0,0,0,0,0,0c-0.1,0-0.1,0.1-0.2,0.1c0,0,0,0,0,0c0.1-0.1,0.1-0.1,0.2-0.2
		c-3.9,0.2-9.3-1.2-11.5-1.7c-0.4-0.1-0.8,0.3-0.7,0.7c0.1,0.2,0.1,0.3,0.1,0.4c0,0.1,0.1,0.2,0.2,0.3c0,0,0,0,0,0
		c0.5,1.1,1.2,2.6,2.5,4.3c0,0,0,0,0,0c-1.5,0.4-2.9,2.5-3.5,3.4C9.6,45.6,9.7,46,10,46.1l3.6,2c0.3,0.1,0.7,0,0.8-0.3
		c0.4-0.8,1-2.3,1.1-3.7c0,0,0,0,0,0c0.6,0.5,1.2,1,1.8,1.4l0,0.1c0,0,0-0.1,0-0.1l0,0c0,0,0.1,0.1,0.1,0.1v0c0,0.1,0,0.1-0.1,0.2
		c-0.6,2.1-0.8,4.3-0.8,6.4c0.1,10.4,10.1,14.6,18.6,14.6c1.8,0,3.7-0.2,5.5-0.6c2.1-0.5,4.2-1.2,6-2.2c0,0,0,0,0,0c0,0,0,0,0,0
		c2.6-1.5,4.6-3.7,5.7-6.7h0c0,0,0,0,0,0c0.5-1.5,0.8-3.1,0.8-5c0-1-0.1-2.1-0.1-3C52.9,48,52.7,47,52.4,46c0-0.1,0-0.2-0.1-0.2
		c0,0,0,0,0,0c0.7-0.4,1.3-0.9,1.8-1.4c0.1,1.3,0.7,2.7,1.1,3.4c0.1,0.3,0.5,0.4,0.8,0.3l3.6-2C60,46,60,45.6,59.9,45.3z M11,37.8
		c1.4,0.9,5.3,2.3,8.5,3c0,0,0,0,0,0C16.3,40,12.3,38.7,11,37.8z M20.8,46.8l0.8-0.4c0.7-0.4,1.3-1.1,1.5-1.9l0.1-0.4
		c0.2-1,1.4-1.5,2.3-0.9c0.8,0.6,1.8,0.9,2.7,0.9h0.1c0.3,0,0.5,0.1,0.7,0.2C29,44.1,28.7,44,28.5,44h-0.1c-1,0-1.9-0.3-2.7-0.9
		c-0.9-0.6-2.1-0.1-2.3,0.9l-0.1,0.4c-0.2,0.8-0.7,1.5-1.5,1.9L20.8,46.8c-0.9,0.6-0.8,1.9,0,2.4C20,48.7,19.9,47.4,20.8,46.8z
		 M23.3,51.4L23,50.7c-0.1-0.4-0.4-0.7-0.7-0.9c0.4,0.2,0.6,0.6,0.7,0.9L23.3,51.4c0.1,0.4,0.3,0.7,0.6,0.9
		C23.6,52.1,23.4,51.8,23.3,51.4z M28.6,55.6c0-1.9,3-3.4,6.7-3.4c2.3,0,4.4,0.6,5.6,1.5c-1.2-0.9-3.3-1.5-5.6-1.5
		C31.6,52.2,28.6,53.7,28.6,55.6c0,0.7,0.4,1.4,1.1,1.9C29,56.9,28.6,56.3,28.6,55.6z"/>
	<polygon class="st0" points="31.3,24 29,1.8 40.5,1.8 38.2,24 	"/>
	<polygon class="st1" points="36.9,22.5 38.8,3.2 30.7,3.2 32.6,22.5 	"/>
	<polygon class="st0" points="6,23.2 10.8,17.5 20.3,27.2 17.1,31 	"/>
	<polygon class="st1" points="18.3,27.3 10.8,19.7 8.1,22.9 16.9,29 	"/>
	<polygon class="st0" points="51.1,27.5 58.2,17.7 64,23.1 54.8,30.9 	"/>
	<polygon class="st1" points="54.9,28.9 61.8,23 58.4,19.9 53.1,27.3 	"/>
	<polygon class="st0" points="43.3,20.2 49.5,4.3 57.3,8.2 48.3,22.7 	"/>
	<polygon class="st1" points="55.2,8.8 50.3,6.3 45.2,19.4 47.7,20.7 	"/>
	<polygon class="st0" points="12.5,8 20.3,3.9 27.2,20.4 22.2,23.1 	"/>
	<polygon class="st1" points="25.3,19.8 19.6,6 14.6,8.6 22.7,21.1 	"/>
	<g>
		<path class="st2" d="M22.5,38c-0.1,0.1-0.1,0.1-0.2,0.2C22.3,38.1,22.4,38,22.5,38C22.5,38,22.5,38,22.5,38z"/>
		<path class="st3" d="M17.3,45.7c0-0.1,0.1-0.1,0.1-0.2l0,0c0,0,0,0,0-0.1"/>
		<path class="st4" d="M52.1,44.9c-0.1-0.2-0.1-0.3-0.2-0.5c0,0,0-0.1,0-0.1C52,44.4,52,44.7,52.1,44.9z"/>
		<path class="st4" d="M52.4,45.7C52.4,45.7,52.4,45.7,52.4,45.7c-0.1-0.2-0.1-0.4-0.2-0.6C52.3,45.4,52.3,45.5,52.4,45.7z"/>
		<path class="st5" d="M19.4,40.8c-0.2,0.2-0.3,0.4-0.5,0.7c0,0.1-0.1,0.1-0.1,0.2c-0.1,0.2-0.2,0.3-0.3,0.5
			c-0.1,0.1-0.1,0.2-0.1,0.3c0,0,0,0.1,0,0.1c-0.1,0.1-0.1,0.3-0.2,0.4c0,0.1-0.1,0.2-0.1,0.4c-0.1,0.3-0.2,0.6-0.3,1c0,0,0,0,0,0
			c-0.1,0.3-0.2,0.5-0.3,0.8c-0.1,0.2-0.1,0.4-0.2,0.6c0,0-0.1,0-0.1-0.1c-0.7-0.5-1.3-0.9-1.8-1.4c-0.9-0.8-1.6-1.5-2.2-2.3
			c-1.3-1.6-2.1-3.2-2.5-4.3C11.8,38.5,16,40,19.4,40.8z"/>
		<path class="st3" d="M52.4,45.9C52.4,45.9,52.3,45.9,52.4,45.9"/>
		<g>
			<ellipse class="st6" cx="35.3" cy="55.6" rx="6.7" ry="3.4"/>
			<g>
				<line class="st7" x1="33.7" y1="54.2" x2="33.7" y2="57.2"/>
				<line class="st7" x1="37" y1="54.2" x2="37" y2="57.2"/>
			</g>
		</g>
		<path class="st8" d="M31.1,46.4c-0.6,1.1-0.7,2.2-0.3,3.2l0.4,1c0.4,1.1-0.4,2.3-1.5,2.4l-2.3,0.2h-0.1l-1.4,0.8
			c-1.2,0.7-2.8,0-3.2-1.3l-0.4-1c-0.2-0.7-0.8-1.3-1.5-1.5L19.8,50c-1.6-0.4-1.9-2.6-0.5-3.5l1.1-0.6c1-0.6,1.7-1.5,2-2.6l0.2-0.6
			c0.3-1.4,1.9-2,3.1-1.2c1.1,0.8,2.4,1.2,3.8,1.2h0.2c1.5,0.1,2.4,1.6,1.8,3L31.1,46.4z"/>
		<path class="st9" d="M32.2,62.2c0,0,1,1.5,3.3,1.5c2.3,0,3.3-1.5,3.3-1.5"/>
		<path class="st10" d="M26.7,35.7c-1.4,0.5-2.6,1.1-3.7,1.8c0,0-0.1,0.1-0.1,0.1c-0.6-0.9-2-3.2-1-6c0.1-0.2,0.4-0.2,0.5,0
			C23,33.4,24.8,35.2,26.7,35.7z"/>
		<path class="st10" d="M46.9,37.7c-1.2-0.8-2.4-1.5-3.9-2c2-0.4,3.9-2.3,4.5-4.1c0.1-0.2,0.4-0.2,0.5,0
			C49,34.5,47.5,36.8,46.9,37.7z"/>
		<path class="st10" d="M14.5,42c-1.8-1-4,2.1-4.8,3.3C9.6,45.6,9.7,46,10,46.1l3.6,2c0.3,0.1,0.7,0,0.8-0.3
			C15.1,46.4,16.4,42.9,14.5,42z"/>
		<path class="st4" d="M58.6,36.3c-2.1,0.4-7.4,1.8-11.3,1.6h0c-0.1-0.1-0.3-0.2-0.4-0.3c0,0,0,0,0,0c-1.2-0.8-2.4-1.5-3.9-2
			c0,0,0,0,0,0c-2.2-0.7-4.9-1.2-8.1-1.2c-3.1,0-5.7,0.4-7.8,1.1c-0.1,0-0.2,0.1-0.3,0.1c-1.4,0.5-2.6,1.1-3.7,1.8
			c0,0-0.1,0.1-0.1,0.1c-0.2,0.1-0.3,0.2-0.5,0.4c0,0,0,0,0,0c-0.1,0.1-0.1,0.1-0.2,0.2c0.1-0.1,0.1-0.1,0.2-0.2
			c-3.9,0.2-9.3-1.2-11.5-1.7c-0.4-0.1-0.8,0.3-0.7,0.7c0.1,0.2,0.1,0.3,0.1,0.4c0,0.1,0.1,0.2,0.2,0.3c1.1,0.9,5.3,2.4,8.7,3.2
			c-0.2,0.2-0.3,0.4-0.5,0.7c0,0.1-0.1,0.1-0.1,0.2c-0.1,0.2-0.2,0.3-0.3,0.5c-0.1,0.1-0.1,0.2-0.1,0.3c0,0,0,0.1,0,0.1
			c-0.1,0.1-0.1,0.3-0.2,0.4c0,0.1-0.1,0.2-0.1,0.4c-0.1,0.3-0.2,0.6-0.3,1c0,0,0,0,0,0c-0.1,0.3-0.2,0.5-0.3,0.8
			c-0.1,0.2-0.1,0.4-0.2,0.6c0,0.1,0,0.1-0.1,0.2c-0.6,2.1-0.8,4.3-0.8,6.4c0.1,10.4,10.1,14.6,18.6,14.6c1.8,0,3.7-0.2,5.5-0.6
			c2.1-0.5,4.2-1.2,6-2.2c2.6-1.5,4.6-3.7,5.7-6.7c0.5-1.5,0.8-3.1,0.8-5c0-1-0.1-2.1-0.1-3C52.9,48,52.7,47,52.4,46
			c0-0.1,0-0.2-0.1-0.2c0,0,0,0,0,0c-0.1-0.2-0.1-0.4-0.2-0.6c0-0.1-0.1-0.2-0.1-0.3c0,0,0,0,0,0c-0.1-0.2-0.1-0.3-0.2-0.5
			c0,0,0-0.1,0-0.1c0,0,0,0,0,0c-0.3-1.2-0.6-2.2-1.6-3.4c0,0,0,0,0,0c0.5-0.1,0.9-0.2,1.4-0.3c0.2-0.1,0.5-0.1,0.7-0.2
			c3.1-0.9,6.2-2.2,6.7-2.9c0,0,0,0,0,0c0-0.1,0.1-0.2,0.1-0.3C59.5,36.6,59.1,36.2,58.6,36.3z M27,52.5L27,52.5l-1.3,0.7
			c-1,0.6-2.4,0-2.8-1.1l-0.3-0.9c-0.2-0.6-0.7-1.1-1.3-1.3l-0.8-0.3c-1.4-0.3-1.6-2.2-0.4-3l0.9-0.5c0.9-0.5,1.5-1.3,1.7-2.2
			l0.2-0.5c0.3-1.2,1.6-1.7,2.7-1c0.9,0.7,2.1,1,3.2,1H29c1.3,0.1,2.1,1.4,1.6,2.6l-0.3,0.7c-0.5,0.9-0.6,1.9-0.3,2.8l0.3,0.9
			c0.3,0.9-0.3,2-1.3,2.1L27,52.5z M35.3,59c-3.7,0-6.7-1.5-6.7-3.4c0-1.9,3-3.4,6.7-3.4c3.7,0,6.7,1.5,6.7,3.4
			C42.1,57.5,39.1,59,35.3,59z"/>
		<path class="st4" d="M59.2,37.3C59.2,37.3,59.2,37.4,59.2,37.3c-0.3,0.8-3.6,2-6.7,2.9C55.5,39.3,58.7,38,59.2,37.3z"/>
		<path class="st5" d="M59.2,37.2c-0.4,1.1-1.2,2.9-2.7,4.7c-0.7,0.8-1.4,1.6-2.4,2.4c-0.5,0.5-1.2,0.9-1.8,1.4c0,0,0,0,0,0
			c-0.1-0.2-0.1-0.4-0.2-0.6c0-0.1-0.1-0.2-0.1-0.3c0,0,0,0,0,0c-0.1-0.2-0.1-0.3-0.2-0.5c0,0,0-0.1,0-0.1c0,0,0,0,0,0
			c-0.3-1.2-0.6-2.2-1.6-3.4c0.5-0.1,0.9-0.2,1.4-0.4c0.2-0.1,0.5-0.1,0.7-0.2C55.5,39.3,58.7,38,59.2,37.2
			C59.2,37.3,59.2,37.3,59.2,37.2C59.2,37.3,59.2,37.3,59.2,37.2z"/>
		<path class="st10" d="M55.1,42c1.8-1,4,2.1,4.8,3.3c0.1,0.3,0.1,0.7-0.2,0.8l-3.6,2c-0.3,0.1-0.7,0-0.8-0.3
			C54.6,46.4,53.2,42.9,55.1,42z"/>
		<path class="st8" d="M52.3,57.2c-1.1,3-3.1,5.2-5.7,6.7c-0.3-0.3-0.5-0.7-0.5-1.1c0,0,0-0.1,0-0.1l0.1-0.6c0.1-0.9,0-1.6-0.5-2.2
			l-0.5-0.6c-0.5-0.6-0.2-1.6,0.5-1.9l1.5-0.6l0.1,0l0.8-0.8c0.6-0.7,1.9-0.6,2.4,0.2l0.5,0.6c0.1,0.1,0.1,0.2,0.2,0.3
			C51.4,57,51.9,57.2,52.3,57.2L52.3,57.2z"/>
		<path class="st11" d="M32.4,62.3c0,0,1,1.4,3.1,1.4s3.1-1.4,3.1-1.4"/>
		<path class="st12" d="M24,48.4c0,0,1.8-1.8,3.7,0"/>
		<path class="st13" d="M42.5,48.4c0,0,1.8-1.8,3.7,0"/>
	</g>
	<polygon class="st1" points="36.9,22.5 32.6,22.5 30.7,3.2 38.8,3.2 	"/>
	<polygon class="st1" points="18.3,27.3 16.9,29 8.1,22.9 10.8,19.7 	"/>
	<polygon class="st1" points="47.7,20.7 45.2,19.4 50.3,6.3 55.2,8.8 	"/>
	<polygon class="st1" points="25.3,19.8 22.7,21.1 14.6,8.6 19.6,6 	"/>
</g>
</svg>
