<?xml version="1.0" encoding="utf-8"?>
<!-- Generator: Adobe Illustrator 27.5.0, SVG Export Plug-In . SVG Version: 6.00 Build 0)  -->
<svg version="1.1" id="Layer_1" xmlns="http://www.w3.org/2000/svg" xmlns:xlink="http://www.w3.org/1999/xlink" x="0px" y="0px"
	 viewBox="0 0 146.3 112.1" style="enable-background:new 0 0 146.3 112.1;" xml:space="preserve">
<style type="text/css">
	.st0{fill:#FFE6CA;}
	.st1{fill:#F9D2AC;}
	.st2{fill:#A5574A;}
	.st3{fill:#FCBF51;}
	.st4{fill:#606060;}
	.st5{fill:#F9D7A0;}
	.st6{fill:#87544D;}
	.st7{fill:#E2C08F;}
	.st8{fill:#E2C09F;}
	.st9{fill:#3F2D37;}
</style>
<path class="st0" d="M123.2,64.6c0,11.6-4.7,20.7-12.2,27.5c-0.2,0.2-0.4,0.4-0.5,0.5c-0.1-0.1-0.1-0.1-0.1-0.2
	c-32.2,16.7-59.8,8.6-75.5,0.5c-1.9-1-3.6-1.9-5.2-2.9C23,83.2,18.9,74.2,18.9,63.3c0-4.1,0.3-8.1,1-12.1c0.2-1.4,0.5-2.8,0.8-4.2
	c0.2-0.8,0.4-1.6,0.6-2.3c0.1-0.4,0.2-0.8,0.3-1.2c0.1-0.2,0.1-0.4,0.2-0.6c0-0.1,0.1-0.2,0.1-0.3c2.8-8.9,8.9-17.6,16.9-23.5
	c0.1-0.1,0.1-0.1,0.2-0.1c0.3-0.2,0.6-0.4,0.9-0.6c0.3-0.2,0.6-0.4,0.9-0.6c0.1-0.1,0.2-0.2,0.4-0.2c0.1-0.1,0.2-0.1,0.4-0.2
	c2-1.1,7.4-3.3,7.4-3.3c-0.1,0-0.1-0.1-0.1-0.1c1.6-0.6,3.3-1.1,3.3-1.1c5.8-1.7,12.6-2.7,20.3-2.7c6.5,0,12.2,0.7,17.2,2
	c0.1,0,0.1,0.1,0.2,0.1c2.2,0.5,4.1,1.2,6.1,2c0.2,0.1,0.5,0.2,0.8,0.3c2.2,0.9,4.1,2,6,3.1c9.2,5.8,14.7,14.4,17.7,24.2
	c0.2,0.7,0.4,1.4,0.6,2c0.3,1.3,0.6,2.5,0.9,3.8c0,0.1,0.1,0.2,0.1,0.3c0.2,1,0.4,2,0.5,2.9C122.9,55.4,123.2,60,123.2,64.6
	L123.2,64.6z"/>
<path class="st0" d="M38.7,19.1c-8,6-14.1,14.7-16.9,23.5C24.8,33.3,30.2,24.9,38.7,19.1z"/>
<path class="st0" d="M48.9,14.1c0,0-5.3,2.2-7.4,3.3c1.6-1,3.3-1.8,5-2.5c0.5-0.2,1.4-0.5,2.2-0.8C48.8,14,48.8,14.1,48.9,14.1
	L48.9,14.1z"/>
<path class="st1" d="M48.9,14.1c0,0-5.3,2.2-7.4,3.3c-0.1,0.1-0.2,0.1-0.4,0.2c-0.1,0.1-0.2,0.1-0.4,0.2c-0.3,0.2-0.6,0.4-0.9,0.6
	c-0.3,0.2-0.6,0.4-0.9,0.6c-0.1,0.1-0.1,0.1-0.2,0.1c-8.6,5.8-14,14.1-16.9,23.5c-0.1,0.1-0.1,0.2-0.1,0.3c-0.1,0.2-0.1,0.4-0.2,0.6
	c-0.1,0.4-0.2,0.8-0.3,1.2c-0.2,0.8-0.4,1.5-0.6,2.3c-0.3,1.4-0.6,2.8-0.8,4.2C13.3,40.1,9.3,19.7,11.4,9.4c0.4-1.8,1.9-3.1,3.8-3.1
	C22.8,6.1,40.7,8.1,48.9,14.1C48.8,14,48.8,14.1,48.9,14.1L48.9,14.1z"/>
<path class="st1" d="M122.2,51c-0.2-1-0.3-2-0.5-2.9c0-0.1-0.1-0.2-0.1-0.3c-0.2-1.3-0.5-2.6-0.9-3.8c-2.8-10.7-8.4-20.1-18.2-26.2
	c-1.9-1.1-2.8-2.2-6.7-3.5c8.3-6.7,22.8-8.3,30.6-8c2,0.1,3.7,1.6,4.1,3.5C132.5,20,128.6,39.8,122.2,51L122.2,51z"/>
<path class="st2" d="M42.3,16.7c-0.9,0.5-1.7,1.1-2.6,1.7c-0.2,0.2-0.5,0.4-0.8,0.5c-0.1,0.1-0.1,0.1-0.2,0.1
	c-8,6-14.1,14.7-16.9,23.5c-0.1,0.1-0.1,0.2-0.1,0.3c-0.1,0.2-0.1,0.4-0.2,0.6c-0.1,0.4-0.2,0.8-0.3,1.2c-4-11.7-4.9-22.4-5-28
	c-0.1-2.3,1.8-4.1,4.1-4.1C25.3,12.8,35.5,12.5,42.3,16.7L42.3,16.7z"/>
<path class="st2" d="M125.8,17.4c-0.3,6-1.4,15.8-5,26.4c-0.2-0.7-0.4-1.3-0.6-2c-2.8-9.3-7.9-17.4-16.1-23.2
	c-0.5-0.4-1-0.7-1.6-1.1c2.1-4,11.2-5.4,17.4-5.9C123.2,11.5,125.9,14.1,125.8,17.4z"/>
<path class="st3" d="M55.3,48.7c4.6,4.7-3.6,15.6-13.7,15.6s-6.8-10.5-10.7-17.2C26.4,39.2,31.4,33,41.6,33S49.9,43.1,55.3,48.7
	L55.3,48.7z"/>
<path class="st4" d="M120.2,41.9c-0.1,0.1-0.1,0.2-0.2,0.2c-10.2,10.2-15.6,31.3-19.5,17c-4.1-14.9-28.7-10.4-23.5-19.5
	C84,27,95.2,32.8,95.2,17.4c0-1.4,0.2-2.4,0.6-3.1c0.2,0.1,0.5,0.2,0.8,0.3c2.2,0.9,4.1,2,6,3.1C111.7,23.4,117.2,32.1,120.2,41.9
	L120.2,41.9z"/>
<path class="st5" d="M110.4,92.5C78.2,109.2,50.6,101,34.9,93c8-0.5,21.7-1.1,32.9-9.2c8.3-5.9,19.5,18.3,32.6,7.9
	C105.1,87.9,108.3,89.2,110.4,92.5L110.4,92.5z"/>
<path class="st6" d="M39.8,18.4c-0.3,0.2-0.6,0.4-0.9,0.6c-0.1,0.1-0.1,0.1-0.2,0.1c-8,6-14.1,14.7-16.9,23.5
	C22.1,23.4,31.7,18.8,39.8,18.4C39.8,18.4,39.8,18.4,39.8,18.4z"/>
<path class="st6" d="M120.2,41.9c-2.8-9.3-7.9-17.4-16.1-23.2C109.9,19.4,120.5,23.1,120.2,41.9z"/>
<path class="st7" d="M110.5,92.6c-10,8.9-24.7,13.4-39.4,13.4s-28.1-4.5-38.1-12.9c0.6-0.1,1.3-0.1,1.9-0.1
	c15.7,8.1,43.3,16.2,75.5-0.5C110.4,92.5,110.5,92.6,110.5,92.6L110.5,92.6z"/>
<path class="st8" d="M34.9,93c-0.7,0.1-1.3,0.1-1.9,0.1c-1.1-1-2.2-1.9-3.2-3C31.3,91.1,33,92,34.9,93L34.9,93z"/>
<path class="st8" d="M111,92.1c-0.2,0.2-0.4,0.4-0.5,0.5c-0.1-0.1-0.1-0.1-0.1-0.2C110.6,92.3,110.8,92.2,111,92.1L111,92.1z"/>
<path class="st0" d="M115.6,63.4c0,0-1.5,0.6-2.1,1c0.5-0.2,0.9-0.5,1.4-0.7C115.1,63.6,115.4,63.5,115.6,63.4L115.6,63.4
	L115.6,63.4z"/>
<circle class="st9" cx="49.5" cy="51.2" r="5.2"/>
<circle class="st9" cx="95.1" cy="51.2" r="5.2"/>
<path class="st9" d="M92,71.6c-2.6,3.1-7.3,3.7-11,2.7c-4.8-1.3-7.7-5.1-7.7-10.1c0-2.1-3.2-2.1-3.2,0C70,69,67.4,73,62.8,74.3
	c-4,1.1-8.5,0.2-11.4-2.7c-1.5-1.4-3.8,0.8-2.3,2.3c3.8,3.8,9.8,5,14.9,3.5c5.9-1.8,9.3-7,9.3-13.1h-3.2c0.1,6.2,3.8,11.4,9.8,13.1
	c4.9,1.4,11.1,0.6,14.4-3.5C95.6,72.3,93.3,70,92,71.6L92,71.6L92,71.6z"/>
<path class="st9" d="M73.2,65.1l2.2-2.8c0.7-0.9,0.2-2-1.4-2h-4.8c-1.6,0-2,1.1-1.4,2l2.2,2.8C70.7,66,72.5,66,73.2,65.1L73.2,65.1z
	"/>
<path class="st9" d="M29.1,57.5C22.6,56,16.2,54.5,9.7,53c-0.9-0.2-1.8-0.4-2.8-0.7c-2-0.5-2.9,2.6-0.8,3.1
	c6.5,1.5,12.9,3.1,19.4,4.6c0.9,0.2,1.8,0.4,2.8,0.7C30.2,61.1,31.1,58,29.1,57.5C29.1,57.5,29.1,57.5,29.1,57.5z"/>
<path class="st9" d="M28.2,70.3c-5.3,2.3-10.6,4.7-15.9,7c-0.7,0.3-1.5,0.7-2.2,1c-0.8,0.4-1,1.6-0.6,2.2c0.5,0.8,1.4,1,2.2,0.6
	c5.3-2.3,10.6-4.7,15.9-7c0.7-0.3,1.5-0.7,2.2-1c0.8-0.4,1-1.6,0.6-2.2C29.9,70,29,69.9,28.2,70.3L28.2,70.3z"/>
<path class="st9" d="M25.1,63.6c-4.1,0.5-8.1,1-12.2,1.6c-0.6,0.1-1.1,0.1-1.7,0.2c-0.9,0.1-1.6,0.7-1.6,1.6c0,0.8,0.8,1.7,1.6,1.6
	c4.1-0.5,8.1-1,12.2-1.6c0.6-0.1,1.1-0.1,1.7-0.2c0.9-0.1,1.6-0.7,1.6-1.6C26.8,64.5,26,63.5,25.1,63.6
	C25.1,63.6,25.1,63.6,25.1,63.6z"/>
<path class="st9" d="M118.1,59.3c6.5-1.5,12.9-3.1,19.4-4.6c0.9-0.2,1.8-0.4,2.8-0.7c2-0.5,1.2-3.6-0.8-3.1
	c-6.5,1.5-12.9,3.1-19.4,4.6c-0.9,0.2-1.8,0.4-2.8,0.7C115.2,56.7,116,59.8,118.1,59.3C118.1,59.3,118.1,59.3,118.1,59.3z"/>
<path class="st9" d="M116.5,71.8c5.3,2.3,10.6,4.7,15.9,7c0.7,0.3,1.5,0.7,2.2,1c0.8,0.4,1.7,0.2,2.2-0.6c0.4-0.7,0.2-1.9-0.6-2.2
	c-5.3-2.3-10.6-4.7-15.9-7c-0.7-0.3-1.5-0.7-2.2-1c-0.8-0.4-1.7-0.2-2.2,0.6C115.5,70.3,115.7,71.5,116.5,71.8L116.5,71.8
	L116.5,71.8z"/>
<path class="st9" d="M121.2,65.6c4.1,0.5,8.1,1,12.2,1.6c0.6,0.1,1.1,0.1,1.7,0.2c0.9,0.1,1.6-0.8,1.6-1.6c0-1-0.8-1.5-1.6-1.6
	c-4.1-0.5-8.1-1-12.2-1.6c-0.6-0.1-1.1-0.1-1.7-0.2c-0.9-0.1-1.6,0.8-1.6,1.6C119.6,65,120.4,65.5,121.2,65.6L121.2,65.6L121.2,65.6
	z"/>
</svg>
