<?xml version="1.0" encoding="utf-8"?>
<!-- Generator: Adobe Illustrator 27.4.0, SVG Export Plug-In . SVG Version: 6.00 Build 0)  -->
<svg version="1.1" xmlns="http://www.w3.org/2000/svg" xmlns:xlink="http://www.w3.org/1999/xlink" x="0px" y="0px"
	 viewBox="0 0 1060 250" style="enable-background:new 0 0 1060 250;" xml:space="preserve">
<style type="text/css">
	.st0{clip-path:url(#SVGID_00000136408346420894020370000008633649071806289811_);fill:#FFE6CA;}
	.st1{clip-path:url(#SVGID_00000136408346420894020370000008633649071806289811_);fill:#F9D2AC;}
	.st2{clip-path:url(#SVGID_00000136408346420894020370000008633649071806289811_);fill:#A5574A;}
	.st3{clip-path:url(#SVGID_00000136408346420894020370000008633649071806289811_);fill:#FCBF51;}
	.st4{clip-path:url(#SVGID_00000136408346420894020370000008633649071806289811_);fill:#606060;}
	.st5{clip-path:url(#SVGID_00000136408346420894020370000008633649071806289811_);fill:#F9D7A0;}
	.st6{clip-path:url(#SVGID_00000136408346420894020370000008633649071806289811_);fill:#87544D;}
	.st7{clip-path:url(#SVGID_00000136408346420894020370000008633649071806289811_);fill:#E2C08F;}
	.st8{clip-path:url(#SVGID_00000136408346420894020370000008633649071806289811_);fill:#E2C09F;}
	.st9{clip-path:url(#SVGID_00000136408346420894020370000008633649071806289811_);fill:#3F2D37;}
	.st10{clip-path:url(#SVGID_00000136408346420894020370000008633649071806289811_);}
	.st11{fill:#3F2D37;}
	.st12{fill:#FFE6CA;}
	.st13{fill:#F9D2AC;}
	.st14{fill:#A5574A;}
	.st15{fill:#FCBF51;}
	.st16{fill:#606060;}
	.st17{fill:#F9D7A0;}
	.st18{fill:#87544D;}
	.st19{fill:#E2C08F;}
	.st20{fill:#E2C09F;}
</style>
<g id="Layer_1">
</g>
<g id="face">
	<g>
		<defs>
			<rect id="SVGID_1_" x="0" y="1" width="1061" height="249"/>
		</defs>
		<clipPath id="SVGID_00000091700859041136043270000008852687173622464404_">
			<use xlink:href="#SVGID_1_"  style="overflow:visible;"/>
		</clipPath>
		<path style="clip-path:url(#SVGID_00000091700859041136043270000008852687173622464404_);fill:#FFE6CA;" d="M614.4,140.8
			c0,19.3-7.9,34.6-20.3,45.9c-0.3,0.3-0.6,0.6-0.9,0.8c-0.1-0.1-0.1-0.2-0.2-0.3c-53.8,27.9-99.8,14.3-126,0.9
			c-3.2-1.6-6-3.2-8.6-4.8c-11.2-11.5-18.1-26.5-18.1-44.6c0-6.8,0.5-13.6,1.6-20.2c0.4-2.4,0.8-4.7,1.4-7c0.3-1.3,0.6-2.6,1-3.9
			c0.2-0.7,0.3-1.3,0.5-2c0.1-0.4,0.2-0.7,0.3-1c0-0.2,0.1-0.3,0.2-0.5c4.7-14.8,14.9-29.3,28.2-39.3c0.1-0.1,0.2-0.2,0.3-0.2
			c0.5-0.3,1-0.7,1.5-1c0.5-0.3,1-0.7,1.5-1c0.2-0.2,0.4-0.3,0.6-0.4c0.2-0.1,0.4-0.2,0.6-0.3c3.4-1.8,12.3-5.5,12.3-5.5
			c-0.1,0-0.1-0.1-0.2-0.1c2.7-1,5.5-1.9,5.5-1.9c9.7-2.9,21-4.5,33.9-4.5c10.8,0,20.3,1.2,28.7,3.3c0.1,0,0.2,0.1,0.3,0.1
			c3.6,0.9,6.9,2,10.1,3.3c0.4,0.2,0.8,0.3,1.3,0.5c3.6,1.5,6.9,3.3,10,5.2c15.3,9.6,24.5,24,29.5,40.4c0.3,1.1,0.7,2.3,1,3.4
			c0.5,2.1,1,4.2,1.5,6.4c0,0.2,0.1,0.4,0.1,0.5c0.3,1.6,0.6,3.3,0.9,4.9C613.9,125.5,614.4,133.2,614.4,140.8z"/>
		<path style="clip-path:url(#SVGID_00000091700859041136043270000008852687173622464404_);fill:#FFE6CA;" d="M473.5,64.9
			c-13.3,10-23.5,24.5-28.2,39.3C450.3,88.5,459.3,74.6,473.5,64.9z"/>
		<path style="clip-path:url(#SVGID_00000091700859041136043270000008852687173622464404_);fill:#FFE6CA;" d="M490.4,56.5
			c0,0-8.9,3.7-12.3,5.5c2.7-1.6,5.5-3,8.4-4.2c0.9-0.4,2.3-0.9,3.7-1.4C490.3,56.4,490.3,56.5,490.4,56.5z"/>
		<path style="clip-path:url(#SVGID_00000091700859041136043270000008852687173622464404_);fill:#F9D2AC;" d="M490.4,56.5
			c0,0-8.9,3.7-12.3,5.5c-0.2,0.1-0.4,0.2-0.6,0.3c-0.2,0.1-0.4,0.2-0.6,0.4c-0.5,0.3-1,0.6-1.5,1c-0.5,0.3-1,0.6-1.5,1
			c-0.1,0.1-0.2,0.1-0.3,0.2c-14.3,9.7-23.3,23.6-28.2,39.3c-0.1,0.2-0.1,0.3-0.2,0.5c-0.1,0.3-0.2,0.7-0.3,1
			c-0.2,0.7-0.4,1.3-0.5,2c-0.4,1.3-0.7,2.5-1,3.9c-0.5,2.3-1,4.7-1.4,7c-10.9-18.7-17.6-52.7-14.1-70c0.6-3,3.2-5.2,6.3-5.2
			c12.7-0.2,42.6,3.2,56.1,13C490.3,56.4,490.3,56.5,490.4,56.5z"/>
		<path style="clip-path:url(#SVGID_00000091700859041136043270000008852687173622464404_);fill:#F9D2AC;" d="M612.8,118.1
			c-0.3-1.7-0.5-3.3-0.9-4.9c0-0.2-0.1-0.4-0.1-0.5c-0.4-2.2-0.9-4.3-1.5-6.4c-4.7-17.8-14.1-33.6-30.4-43.8
			c-3.1-1.9-4.6-3.7-11.2-5.9c13.8-11.2,38.1-13.9,51.1-13.4c3.4,0.2,6.1,2.6,6.8,5.9C629.9,66.3,623.4,99.4,612.8,118.1z"/>
		<path style="clip-path:url(#SVGID_00000091700859041136043270000008852687173622464404_);fill:#A5574A;" d="M479.5,60.9
			c-1.5,0.9-2.9,1.8-4.3,2.9c-0.4,0.3-0.9,0.6-1.3,0.9c-0.1,0.1-0.2,0.1-0.3,0.2c-13.3,10-23.5,24.5-28.2,39.3
			c-0.1,0.2-0.1,0.3-0.2,0.5c-0.1,0.3-0.2,0.7-0.3,1c-0.2,0.7-0.4,1.3-0.5,2c-6.6-19.6-8.1-37.4-8.3-46.7c-0.1-3.8,3-6.9,6.8-6.8
			C451,54.3,468,53.8,479.5,60.9z"/>
		<path style="clip-path:url(#SVGID_00000091700859041136043270000008852687173622464404_);fill:#A5574A;" d="M618.7,62.1
			c-0.5,10-2.3,26.4-8.4,44.1c-0.3-1.1-0.6-2.2-1-3.4c-4.7-15.5-13.1-29.1-26.8-38.7c-0.8-0.6-1.7-1.2-2.7-1.8
			c3.5-6.6,18.7-9,29.1-9.8C614.4,52.2,619,56.6,618.7,62.1z"/>
		<path style="clip-path:url(#SVGID_00000091700859041136043270000008852687173622464404_);fill:#FCBF51;" d="M501.1,114.2
			c7.6,7.8-6,26.1-22.9,26.1s-11.3-17.6-17.8-28.7c-7.6-13.1,0.9-23.5,17.8-23.5S492.1,105,501.1,114.2z"/>
		<path style="clip-path:url(#SVGID_00000091700859041136043270000008852687173622464404_);fill:#606060;" d="M609.4,102.9
			c-0.1,0.2-0.2,0.3-0.4,0.4c-17,17-26.1,52.2-32.6,28.3c-6.8-24.9-47.9-17.4-39.2-32.6c11.9-20.9,30.5-11.2,30.5-37
			c0-2.3,0.3-4,1-5.2c0.4,0.2,0.8,0.3,1.3,0.5c3.6,1.5,6.9,3.3,10,5.2C595.2,72,604.4,86.5,609.4,102.9z"/>
		<path style="clip-path:url(#SVGID_00000091700859041136043270000008852687173622464404_);fill:#F9D7A0;" d="M593.1,187.3
			c-53.8,27.9-99.8,14.3-126,0.9c13.3-0.8,36.2-1.9,54.9-15.3c13.8-9.9,32.6,30.5,54.4,13.1C584.2,179.7,589.5,181.9,593.1,187.3z"
			/>
		<path style="clip-path:url(#SVGID_00000091700859041136043270000008852687173622464404_);fill:#87544D;" d="M475.3,63.7
			c-0.5,0.3-1,0.6-1.5,1c-0.1,0.1-0.2,0.1-0.3,0.2c-13.3,10-23.5,24.5-28.2,39.3c0.5-32.1,16.5-39.9,29.9-40.5
			C475.2,63.7,475.3,63.7,475.3,63.7z"/>
		<path style="clip-path:url(#SVGID_00000091700859041136043270000008852687173622464404_);fill:#87544D;" d="M609.4,102.9
			c-4.7-15.5-13.1-29.1-26.8-38.7C592.3,65.3,609.9,71.5,609.4,102.9z"/>
		<path style="clip-path:url(#SVGID_00000091700859041136043270000008852687173622464404_);fill:#E2C08F;" d="M593.2,187.6
			c-16.7,14.8-41.3,22.3-65.8,22.3c-23.5,0-46.9-7.5-63.6-21.5c1-0.1,2.1-0.2,3.2-0.2c26.2,13.5,72.2,27,126-0.9
			C593.1,187.4,593.2,187.5,593.2,187.6z"/>
		<path style="clip-path:url(#SVGID_00000091700859041136043270000008852687173622464404_);fill:#E2C09F;" d="M467.1,188.2
			c-1.2,0.1-2.2,0.1-3.2,0.2c-1.9-1.6-3.7-3.2-5.3-5C461.1,185,463.9,186.6,467.1,188.2z"/>
		<path style="clip-path:url(#SVGID_00000091700859041136043270000008852687173622464404_);fill:#E2C09F;" d="M594.1,186.7
			c-0.3,0.3-0.6,0.6-0.9,0.8c-0.1-0.1-0.1-0.2-0.2-0.3C593.4,187.1,593.8,186.9,594.1,186.7z"/>
		<path style="clip-path:url(#SVGID_00000091700859041136043270000008852687173622464404_);fill:#FFE6CA;" d="M601.8,138.8
			c0,0-2.5,1-3.5,1.6c0.8-0.4,1.5-0.8,2.4-1.2C601,139.1,601.4,138.9,601.8,138.8C601.8,138.8,601.8,138.8,601.8,138.8z"/>
		<path style="clip-path:url(#SVGID_00000091700859041136043270000008852687173622464404_);fill:#FFE6CA;" d="M760.6,223.9
			c1.9,8.2,0.1,15.4-4.1,21.5c-0.1,0.2-0.2,0.3-0.3,0.4c0,0-0.1-0.1-0.1-0.1c-20,17.1-40.8,15.9-53.2,12.8c-1.5-0.4-2.9-0.8-4.1-1.2
			c-5.9-3.7-10.3-9.4-12.1-17.1c-0.7-2.9-1.1-5.8-1.3-8.7c-0.1-1-0.1-2.1-0.1-3.1c0-0.6,0-1.2,0-1.7c0-0.3,0-0.6,0-0.9
			c0-0.2,0-0.3,0-0.5c0-0.1,0-0.1,0-0.2c0.5-6.7,3.4-13.9,8.1-19.4c0,0,0.1-0.1,0.1-0.1c0.2-0.2,0.4-0.4,0.5-0.5
			c0.2-0.2,0.4-0.4,0.6-0.6c0.1-0.1,0.1-0.2,0.2-0.2c0.1-0.1,0.1-0.1,0.2-0.2c1.3-1.1,4.7-3.5,4.7-3.5c0,0-0.1,0-0.1,0
			c1-0.7,2.1-1.3,2.1-1.3c3.8-2.2,8.4-4,13.9-5.3c4.6-1.1,8.7-1.5,12.5-1.4c0,0,0.1,0,0.1,0c1.6,0,3.1,0.2,4.6,0.4
			c0.2,0,0.4,0.1,0.6,0.1c1.7,0.3,3.2,0.7,4.7,1.2c7.4,2.6,12.7,7.8,16.5,14.2c0.2,0.4,0.5,0.9,0.7,1.3c0.4,0.8,0.9,1.7,1.3,2.5
			c0,0.1,0.1,0.2,0.1,0.2c0.3,0.7,0.6,1.3,0.9,2C758.8,217.5,759.8,220.7,760.6,223.9z"/>
		<path style="clip-path:url(#SVGID_00000091700859041136043270000008852687173622464404_);fill:#FFE6CA;" d="M693.4,205.7
			c-4.7,5.5-7.5,12.7-8.1,19.4C685.9,218,688.3,211.2,693.4,205.7z"/>
		<path style="clip-path:url(#SVGID_00000091700859041136043270000008852687173622464404_);fill:#FFE6CA;" d="M699.7,200.5
			c0,0-3.4,2.4-4.7,3.5c1-0.9,2-1.8,3.2-2.6C698.6,201.1,699.1,200.8,699.7,200.5C699.7,200.5,699.7,200.5,699.7,200.5z"/>
		<path style="clip-path:url(#SVGID_00000091700859041136043270000008852687173622464404_);fill:#F9D2AC;" d="M699.7,200.5
			c0,0-3.4,2.4-4.7,3.5c-0.1,0.1-0.2,0.1-0.2,0.2c-0.1,0.1-0.2,0.1-0.2,0.2c-0.2,0.2-0.4,0.4-0.6,0.6c-0.2,0.2-0.4,0.4-0.5,0.5
			c0,0-0.1,0.1-0.1,0.1c-5.1,5.5-7.5,12.3-8.1,19.4c0,0.1,0,0.1,0,0.2c0,0.2,0,0.3,0,0.5c0,0.3,0,0.6,0,0.9c0,0.6,0,1.1,0,1.7
			c0,1,0,2.1,0.1,3.1c-6.5-6.8-12.7-20.6-12.9-28.2c0-1.3,0.8-2.5,2.1-2.8C680,199.2,693,197.6,699.7,200.5
			C699.7,200.5,699.7,200.5,699.7,200.5z"/>
		<path style="clip-path:url(#SVGID_00000091700859041136043270000008852687173622464404_);fill:#F9D2AC;" d="M757.6,214.5
			c-0.3-0.7-0.6-1.3-0.9-2c0-0.1-0.1-0.2-0.1-0.2c-0.4-0.9-0.8-1.7-1.3-2.5c-3.8-7.1-9.3-12.8-17.2-15.5c-1.5-0.5-2.3-1.1-5.3-1.4
			c4.7-6.1,14.8-9.7,20.3-10.7c1.4-0.3,2.9,0.5,3.4,1.8C759.8,190.8,760.3,205.5,757.6,214.5z"/>
		<path style="clip-path:url(#SVGID_00000091700859041136043270000008852687173622464404_);fill:#A5574A;" d="M695.6,203.4
			c-0.5,0.5-1.1,1.1-1.5,1.6c-0.2,0.2-0.3,0.3-0.5,0.5c0,0-0.1,0.1-0.1,0.1c-4.7,5.5-7.5,12.7-8.1,19.4c0,0.1,0,0.1,0,0.2
			c0,0.2,0,0.3,0,0.5c0,0.3,0,0.6,0,0.9c-4.7-7.6-7.1-15.1-8.1-19c-0.4-1.6,0.6-3.2,2.2-3.6C682.9,203.5,690,201.6,695.6,203.4z"/>
		<path style="clip-path:url(#SVGID_00000091700859041136043270000008852687173622464404_);fill:#A5574A;" d="M754.6,190.2
			c0.8,4.3,1.6,11.4,0.8,19.5c-0.2-0.4-0.5-0.9-0.7-1.3c-3.5-6.1-8.4-11-15.2-13.7c-0.4-0.2-0.9-0.3-1.3-0.5c0.8-3.2,7-5.7,11.3-7
			C751.8,186.4,754.2,187.8,754.6,190.2z"/>
		<path style="clip-path:url(#SVGID_00000091700859041136043270000008852687173622464404_);fill:#FCBF51;" d="M710,223.8
			c4,2.6,0,11.7-7.1,13.3c-7.1,1.7-6.5-6.3-10.4-10.4c-4.5-4.8-1.9-10,5.2-11.7C704.8,213.4,705.3,220.8,710,223.8z"/>
		<path style="clip-path:url(#SVGID_00000091700859041136043270000008852687173622464404_);fill:#606060;" d="M754.7,208.4
			c0,0.1-0.1,0.2-0.1,0.2c-5.5,8.9-5.9,24.7-11,15.2c-5.3-9.9-22-2.6-19.8-9.9c3-10,11.8-7.7,9.2-18.7c-0.2-1-0.2-1.7-0.1-2.3
			c0.2,0,0.4,0.1,0.6,0.1c1.7,0.3,3.2,0.7,4.7,1.2C745.6,196.7,750.9,201.9,754.7,208.4z"/>
		<path style="clip-path:url(#SVGID_00000091700859041136043270000008852687173622464404_);fill:#F9D7A0;" d="M756.1,245.7
			c-20,17.1-40.8,15.9-53.2,12.8c5.5-1.7,15.1-4.4,21.7-11.9c4.9-5.5,16.8,9.7,24.3,0.2C751.6,243.4,754.1,243.8,756.1,245.7z"/>
		<path style="clip-path:url(#SVGID_00000091700859041136043270000008852687173622464404_);fill:#87544D;" d="M694.1,205
			c-0.2,0.2-0.4,0.4-0.5,0.5c0,0-0.1,0.1-0.1,0.1c-4.7,5.5-7.5,12.7-8.1,19.4C682.4,211.5,688.4,206.6,694.1,205
			C694,205,694,205,694.1,205z"/>
		<path style="clip-path:url(#SVGID_00000091700859041136043270000008852687173622464404_);fill:#87544D;" d="M754.7,208.4
			c-3.5-6.1-8.4-11-15.2-13.7C743.7,194.1,751.8,195,754.7,208.4z"/>
		<path style="clip-path:url(#SVGID_00000091700859041136043270000008852687173622464404_);fill:#E2C08F;" d="M756.2,245.8
			c-5.6,7.9-15.3,13.5-25.7,16c-9.9,2.3-20.6,1.5-29-2.8c0.4-0.1,0.9-0.3,1.4-0.4C715.3,261.6,736.1,262.8,756.2,245.8
			C756.1,245.8,756.2,245.8,756.2,245.8z"/>
		<path style="clip-path:url(#SVGID_00000091700859041136043270000008852687173622464404_);fill:#E2C09F;" d="M702.9,258.5
			c-0.5,0.1-0.9,0.3-1.4,0.4c-0.9-0.5-1.9-1-2.7-1.6C700,257.8,701.4,258.2,702.9,258.5z"/>
		<path style="clip-path:url(#SVGID_00000091700859041136043270000008852687173622464404_);fill:#E2C09F;" d="M756.5,245.4
			c-0.1,0.2-0.2,0.3-0.3,0.4c0,0-0.1-0.1-0.1-0.1C756.2,245.6,756.4,245.5,756.5,245.4z"/>
		<path style="clip-path:url(#SVGID_00000091700859041136043270000008852687173622464404_);fill:#FFE6CA;" d="M769.9,223.5
			c0,0-1.4,1-2,1.5c0.4-0.4,0.8-0.8,1.3-1.1C769.4,223.8,769.6,223.6,769.9,223.5C769.9,223.5,769.9,223.5,769.9,223.5z"/>
		
			<circle style="clip-path:url(#SVGID_00000091700859041136043270000008852687173622464404_);fill:#3F2D37;" cx="491.5" cy="118.5" r="8.7"/>
		
			<circle style="clip-path:url(#SVGID_00000091700859041136043270000008852687173622464404_);fill:#3F2D37;" cx="567.6" cy="118.5" r="8.7"/>
		<g style="clip-path:url(#SVGID_00000091700859041136043270000008852687173622464404_);">
			<path class="st11" d="M562.3,152.5c-4.3,5.2-12.1,6.2-18.3,4.5c-8-2.1-12.8-8.5-12.9-16.8c0-3.5-5.4-3.5-5.4,0
				c-0.1,7.9-4.3,14.6-12.1,16.8c-6.6,1.8-14.2,0.3-19.1-4.5c-2.5-2.4-6.4,1.4-3.8,3.8c6.4,6.3,16.4,8.3,24.9,5.8
				c9.9-3,15.5-11.7,15.6-21.9c-1.8,0-3.6,0-5.4,0c0.1,10.4,6.4,19,16.4,21.9c8.1,2.3,18.5,1,24.1-5.8
				C568.4,153.7,564.6,149.8,562.3,152.5L562.3,152.5z"/>
		</g>
		<path style="clip-path:url(#SVGID_00000091700859041136043270000008852687173622464404_);fill:#3F2D37;" d="M531,141.7l3.6-4.6
			c1.2-1.5,0.4-3.4-2.3-3.4h-8c-2.6,0-3.4,1.9-2.3,3.4l3.6,4.6C526.9,143.2,529.8,143.2,531,141.7z"/>
		<g style="clip-path:url(#SVGID_00000091700859041136043270000008852687173622464404_);">
			<path class="st11" d="M457.4,129c-10.8-2.5-21.6-5.1-32.4-7.6c-1.5-0.4-3-0.7-4.6-1.1c-3.4-0.8-4.9,4.4-1.4,5.2
				c10.8,2.5,21.6,5.1,32.4,7.6c1.5,0.4,3,0.7,4.6,1.1C459.3,135,460.8,129.8,457.4,129L457.4,129z"/>
		</g>
		<g style="clip-path:url(#SVGID_00000091700859041136043270000008852687173622464404_);">
			<path class="st11" d="M455.9,150.3c-8.9,3.9-17.7,7.8-26.6,11.7c-1.2,0.5-2.5,1.1-3.7,1.6c-1.3,0.6-1.7,2.6-1,3.7
				c0.8,1.4,2.4,1.6,3.7,1c8.9-3.9,17.7-7.8,26.6-11.7c1.2-0.5,2.5-1.1,3.7-1.6c1.3-0.6,1.7-2.6,1-3.7
				C458.8,149.9,457.2,149.7,455.9,150.3L455.9,150.3z"/>
		</g>
		<g style="clip-path:url(#SVGID_00000091700859041136043270000008852687173622464404_);">
			<path class="st11" d="M450.8,139.2c-6.8,0.9-13.6,1.7-20.4,2.6c-1,0.1-1.9,0.2-2.9,0.4c-1.5,0.2-2.7,1.1-2.7,2.7
				c0,1.3,1.3,2.9,2.7,2.7c6.8-0.9,13.6-1.7,20.4-2.6c1-0.1,1.9-0.2,2.9-0.4c1.5-0.2,2.7-1.1,2.7-2.7
				C453.5,140.6,452.2,139,450.8,139.2L450.8,139.2z"/>
		</g>
		<g style="clip-path:url(#SVGID_00000091700859041136043270000008852687173622464404_);">
			<path class="st11" d="M605.9,132c10.8-2.5,21.6-5.1,32.4-7.6c1.5-0.4,3-0.7,4.6-1.1c3.4-0.8,2-6-1.4-5.2
				c-10.8,2.5-21.6,5.1-32.4,7.6c-1.5,0.4-3,0.7-4.6,1.1C601.1,127.6,602.5,132.8,605.9,132L605.9,132z"/>
		</g>
		<g style="clip-path:url(#SVGID_00000091700859041136043270000008852687173622464404_);">
			<path class="st11" d="M603.3,152.8c8.9,3.9,17.7,7.8,26.6,11.7c1.2,0.5,2.5,1.1,3.7,1.6c1.3,0.6,2.9,0.4,3.7-1
				c0.7-1.2,0.4-3.1-1-3.7c-8.9-3.9-17.7-7.8-26.6-11.7c-1.2-0.5-2.5-1.1-3.7-1.6c-1.3-0.6-2.9-0.4-3.7,1
				C601.6,150.3,601.9,152.3,603.3,152.8L603.3,152.8z"/>
		</g>
		<g style="clip-path:url(#SVGID_00000091700859041136043270000008852687173622464404_);">
			<path class="st11" d="M611.1,142.5c6.8,0.9,13.6,1.7,20.4,2.6c1,0.1,1.9,0.2,2.9,0.4c1.5,0.2,2.7-1.4,2.7-2.7
				c0-1.6-1.3-2.5-2.7-2.7c-6.8-0.9-13.6-1.7-20.4-2.6c-1-0.1-1.9-0.2-2.9-0.4c-1.5-0.2-2.7,1.4-2.7,2.7
				C608.4,141.4,609.7,142.3,611.1,142.5L611.1,142.5z"/>
		</g>
		<g style="clip-path:url(#SVGID_00000091700859041136043270000008852687173622464404_);">
			<path class="st12" d="M299.2,257.8c-11.3-2-19.5-8.2-24.8-16.6c-0.1-0.2-0.3-0.4-0.4-0.6c0.1,0,0.1,0,0.2-0.1
				c-10.7-34.4,1.9-59.9,12.5-73.8c1.3-1.7,2.5-3.2,3.7-4.5c7.9-5.4,17.4-7.9,28-6c4,0.7,7.9,1.7,11.7,3c1.3,0.5,2.7,1,4,1.5
				c0.7,0.3,1.5,0.6,2.2,1c0.4,0.2,0.7,0.3,1.1,0.5c0.2,0.1,0.4,0.2,0.6,0.3c0.1,0,0.2,0.1,0.3,0.1c8.2,4.3,15.6,11.7,20.1,20.6
				c0,0.1,0.1,0.1,0.1,0.2c0.2,0.3,0.3,0.6,0.4,1c0.1,0.3,0.3,0.7,0.4,1c0.1,0.1,0.1,0.3,0.2,0.4c0,0.1,0.1,0.3,0.1,0.4
				c0.7,2.2,2,7.8,2,7.8c0,0,0.1-0.1,0.1-0.1c0.3,1.7,0.5,3.4,0.5,3.4c0.7,6,0.5,12.7-0.9,20.3c-1.1,6.3-2.8,11.8-4.9,16.5
				c0,0.1-0.1,0.1-0.1,0.2c-0.9,2-1.9,3.8-3,5.5c-0.1,0.2-0.3,0.5-0.4,0.7c-1.3,1.9-2.6,3.7-4.1,5.3c-7.2,8-16.6,11.8-26.7,13.1
				c-0.7,0.1-1.4,0.1-2.1,0.2c-1.3,0.1-2.6,0.2-3.9,0.2c-0.1,0-0.2,0-0.3,0c-1,0-2,0-3,0C308.2,259.1,303.7,258.6,299.2,257.8z"/>
			<path class="st12" d="M358.2,183.2c-4.5-8.8-11.9-16.3-20.1-20.6C346.8,167.1,354,173.8,358.2,183.2z"/>
			<path class="st12" d="M361.4,193.9c0,0-1.2-5.6-2-7.8c0.6,1.7,1.2,3.5,1.6,5.4c0.1,0.6,0.3,1.4,0.4,2.3
				C361.5,193.8,361.4,193.9,361.4,193.9z"/>
			<path class="st13" d="M361.4,193.9c0,0-1.2-5.6-2-7.8c-0.1-0.1-0.1-0.3-0.1-0.4c-0.1-0.1-0.1-0.3-0.2-0.4c-0.1-0.3-0.3-0.7-0.4-1
				c-0.1-0.3-0.3-0.6-0.4-1c0-0.1-0.1-0.1-0.1-0.2c-4.2-9.4-11.4-16.1-20.1-20.6c-0.1-0.1-0.2-0.1-0.3-0.1c-0.2-0.1-0.4-0.2-0.6-0.3
				c-0.4-0.2-0.7-0.4-1.1-0.5c-0.7-0.3-1.4-0.7-2.2-1c-1.3-0.6-2.6-1.1-4-1.5c12.1-4.5,32.7-4.8,42.4-1c1.7,0.7,2.7,2.4,2.4,4.2
				c-1.2,7.5-6.3,24.6-13.4,31.5C361.5,193.8,361.4,193.9,361.4,193.9z"/>
			<path class="st13" d="M312.7,259.2c1,0,2,0,3,0c0.1,0,0.2,0,0.3,0c1.3,0,2.6-0.1,3.9-0.2c10.9-0.9,21.1-4.8,28.8-13.3
				c1.5-1.6,2.7-2.3,4.6-5.9c5.1,9.2,4.2,23.8,2.5,31.3c-0.4,1.9-2.2,3.3-4.1,3.4C341.3,274.6,322.5,267.3,312.7,259.2z"/>
			<path class="st14" d="M360,187.1c-0.4-1-0.8-1.9-1.2-2.8c-0.1-0.3-0.3-0.6-0.4-0.9c0-0.1-0.1-0.1-0.1-0.2
				c-4.5-8.8-11.9-16.3-20.1-20.6c-0.1-0.1-0.2-0.1-0.3-0.1c-0.2-0.1-0.4-0.2-0.6-0.3c-0.4-0.2-0.7-0.4-1.1-0.5
				c12.1-1.8,22.8-0.8,28.2,0c2.2,0.3,3.7,2.5,3.3,4.7C366.7,171.1,365.3,181.1,360,187.1z"/>
			<path class="st14" d="M344.8,268.4c-5.8-1.3-15.2-4.1-25-9.5c0.7-0.1,1.4-0.1,2.1-0.2c9.5-1.2,18.4-4.6,25.4-11.7
				c0.4-0.4,0.9-0.9,1.3-1.4c3.5,2.7,3.3,11.9,2.7,18C351.1,267,348,269.2,344.8,268.4z"/>
			<path class="st15" d="M326.5,194.2c-5.4,3.7-14.7-6.2-12.9-16.1c1.7-9.9,11.5-4.8,18.7-7.5c8.4-3.1,13.7,3,11.9,12.9
				C342.4,193.4,332.8,189.9,326.5,194.2z"/>
			<path class="st16" d="M322,258.7c-0.1-0.1-0.2-0.2-0.2-0.3c-8.2-11.7-27.9-20.7-13.2-22c15.3-1.4,15.1-26.2,23.2-19.5
				c11,9.1,3.4,19,18.5,21.7c1.3,0.2,2.3,0.6,3,1.1c-0.1,0.2-0.3,0.5-0.4,0.7c-1.3,1.9-2.6,3.7-4.1,5.3
				C341.5,253.6,332.1,257.5,322,258.7z"/>
			<path class="st17" d="M274.2,240.5c-10.7-34.4,1.9-59.9,12.5-73.8c-0.9,7.9-2.6,21.4,3.3,33.7c4.4,9.1-21.2,16-13.3,30.5
				C279.6,236.1,277.7,238.9,274.2,240.5z"/>
			<path class="st18" d="M358.7,184.3c-0.1-0.3-0.3-0.6-0.4-1c0-0.1-0.1-0.1-0.1-0.2c-4.5-8.8-11.9-16.3-20.1-20.6
				C356.9,166.2,359.8,176.4,358.7,184.3C358.8,184.3,358.7,184.3,358.7,184.3z"/>
			<path class="st18" d="M322,258.7c9.5-1.2,18.4-4.6,25.4-11.7C345.7,252.6,340.2,262.3,322,258.7z"/>
			<path class="st19" d="M274,240.5c-6.9-11.3-8.8-26.5-6.3-40.9c2.4-13.7,9.2-26.7,19.2-35c-0.1,0.6-0.1,1.2-0.2,1.9
				c-10.6,14-23.3,39.5-12.5,73.8C274.2,240.5,274.1,240.5,274,240.5z"/>
			<path class="st20" d="M286.7,166.6c0.1-0.7,0.2-1.3,0.2-1.9c1.1-0.9,2.3-1.8,3.5-2.6C289.3,163.5,288,165,286.7,166.6z"/>
			<path class="st20" d="M274.4,241.2c-0.1-0.2-0.3-0.4-0.4-0.6c0.1,0,0.1,0,0.2-0.1C274.3,240.7,274.4,240.9,274.4,241.2z"/>
			<path class="st12" d="M294.7,269.8c0,0-0.5-2.3-0.8-3.3c0.3,0.7,0.5,1.5,0.7,2.3C294.7,269,294.7,269.4,294.7,269.8
				C294.8,269.7,294.8,269.7,294.7,269.8z"/>
			<circle class="st11" cx="325" cy="188.1" r="5.2"/>
			<circle class="st11" cx="317.1" cy="232.7" r="5.2"/>
			<g>
				<path class="st11" d="M297.8,226.1c-2.6-3.1-2.4-7.7-0.8-11.2c2.1-4.4,6.3-6.6,11.1-5.8c2.1,0.3,2.6-2.8,0.6-3.2
					c-4.6-0.9-8.1-4-8.6-8.8c-0.4-4,1.3-8.3,4.6-10.7c1.7-1.2-0.2-3.9-1.9-2.6c-4.3,3.1-6.6,8.7-6,14c0.7,6.1,5.3,10.3,11.2,11.4
					c0.2-1.1,0.4-2.1,0.6-3.2c-6.1-1-11.8,1.8-14.5,7.4c-2.2,4.5-2.5,10.7,0.9,14.7C296.5,229.5,299.1,227.7,297.8,226.1
					L297.8,226.1z"/>
			</g>
			<path class="st11" d="M307.3,208.9l2.3,2.6c0.8,0.8,1.9,0.6,2.2-1l0.8-4.7c0.3-1.5-0.7-2.2-1.7-1.7l-3,1.6
				C306.9,206.3,306.6,208,307.3,208.9z"/>
			<g>
				<path class="st11" d="M322.4,167.1c2.6-6.1,5.2-12.1,7.8-18.2c0.4-0.9,0.7-1.7,1.1-2.6c0.8-1.9-2.1-3.3-2.9-1.4
					c-2.6,6.1-5.2,12.1-7.8,18.2c-0.4,0.9-0.7,1.7-1.1,2.6C318.7,167.6,321.6,169,322.4,167.1L322.4,167.1z"/>
			</g>
			<g>
				<path class="st11" d="M310.1,164c-1.4-5.6-2.7-11.2-4.1-16.8c-0.2-0.8-0.4-1.6-0.6-2.4c-0.2-0.8-1.3-1.2-2.1-1
					c-0.9,0.3-1.2,1.2-1,2.1c1.4,5.6,2.7,11.2,4.1,16.8c0.2,0.8,0.4,1.6,0.6,2.4c0.2,0.8,1.3,1.2,2.1,1
					C310,165.8,310.3,164.9,310.1,164L310.1,164z"/>
			</g>
			<g>
				<path class="st11" d="M317.1,162.2c0.2-4.1,0.4-8.1,0.6-12.2c0-0.6,0.1-1.2,0.1-1.7c0-0.9-0.4-1.7-1.3-1.9
					c-0.8-0.1-1.8,0.4-1.9,1.3c-0.2,4.1-0.4,8.1-0.6,12.2c0,0.6-0.1,1.2-0.1,1.7c0,0.9,0.4,1.7,1.3,1.9
					C316,163.6,317.1,163,317.1,162.2L317.1,162.2z"/>
			</g>
			<g>
				<path class="st11" d="M305.2,253.7c0.4,6.6,0.7,13.2,1.1,19.8c0.1,0.9,0.1,1.9,0.2,2.8c0.1,2.1,3.3,1.8,3.2-0.3
					c-0.4-6.6-0.7-13.2-1.1-19.8c-0.1-0.9-0.1-1.9-0.2-2.8C308.3,251.4,305.1,251.7,305.2,253.7L305.2,253.7z"/>
			</g>
			<g>
				<path class="st11" d="M293.3,250c-3.2,4.8-6.4,9.6-9.6,14.4c-0.4,0.7-0.9,1.3-1.3,2c-0.5,0.7-0.5,1.7,0.2,2.3
					c0.6,0.5,1.8,0.5,2.3-0.2c3.2-4.8,6.4-9.6,9.6-14.4c0.4-0.7,0.9-1.3,1.3-2c0.5-0.7,0.5-1.7-0.2-2.3
					C295,249.3,293.8,249.3,293.3,250L293.3,250z"/>
			</g>
			<g>
				<path class="st11" d="M298.6,255.7c-1.2,3.9-2.4,7.8-3.6,11.7c-0.2,0.6-0.3,1.1-0.5,1.7c-0.3,0.8,0.5,1.7,1.3,1.9
					c1,0.2,1.6-0.5,1.9-1.3c1.2-3.9,2.4-7.8,3.6-11.7c0.2-0.6,0.3-1.1,0.5-1.7c0.3-0.8-0.5-1.7-1.3-1.9
					C299.5,254.2,298.9,254.8,298.6,255.7L298.6,255.7z"/>
			</g>
		</g>
		<g style="clip-path:url(#SVGID_00000091700859041136043270000008852687173622464404_);">
			<path class="st12" d="M119.4,53.6c3.2,8.8,2.2,17.1-1.6,24.3c-0.1,0.2-0.2,0.4-0.3,0.5c0,0-0.1-0.1-0.1-0.1
				C97.5,100,74.3,101.5,60.1,99.7c-1.7-0.2-3.3-0.5-4.7-0.7c-7-3.4-12.7-9.1-15.7-17.3c-1.1-3.1-2-6.3-2.6-9.5
				c-0.2-1.1-0.4-2.3-0.5-3.4c-0.1-0.6-0.1-1.3-0.2-1.9c0-0.3-0.1-0.7-0.1-1c0-0.2,0-0.4,0-0.5c0-0.1,0-0.2,0-0.2
				c-0.3-7.5,1.9-15.9,6.3-22.6c0-0.1,0.1-0.1,0.1-0.2c0.2-0.2,0.3-0.5,0.5-0.7c0.2-0.2,0.3-0.5,0.5-0.7c0.1-0.1,0.1-0.2,0.2-0.3
				c0.1-0.1,0.1-0.2,0.2-0.3c1.3-1.4,4.7-4.6,4.7-4.6c0,0-0.1,0-0.1,0c1.1-0.9,2.2-1.8,2.2-1.8c4-2.9,8.8-5.5,14.7-7.7
				c4.9-1.8,9.5-2.8,13.6-3.3c0.1,0,0.1,0,0.2,0c1.8-0.2,3.5-0.2,5.1-0.2c0.2,0,0.4,0,0.7,0c1.9,0.1,3.7,0.3,5.4,0.7
				c8.6,1.8,15.1,6.9,20.2,13.5c0.3,0.5,0.7,0.9,1,1.4c0.6,0.9,1.2,1.7,1.7,2.7c0,0.1,0.1,0.2,0.1,0.2c0.4,0.7,0.8,1.4,1.2,2.1
				C116.7,46.7,118.2,50.1,119.4,53.6z"/>
			<path class="st12" d="M42.6,42.4c-4.4,6.8-6.7,15.1-6.3,22.6C35.9,57,37.7,49.2,42.6,42.4z"/>
			<path class="st12" d="M48.9,35.8c0,0-3.4,3.1-4.7,4.6c1-1.2,2-2.3,3.1-3.3c0.4-0.3,0.9-0.8,1.4-1.2
				C48.8,35.8,48.8,35.8,48.9,35.8z"/>
			<path class="st13" d="M48.9,35.8c0,0-3.4,3.1-4.7,4.6c-0.1,0.1-0.2,0.2-0.2,0.3c-0.1,0.1-0.1,0.2-0.2,0.3
				c-0.2,0.2-0.4,0.5-0.5,0.7c-0.2,0.2-0.3,0.4-0.5,0.7c0,0-0.1,0.1-0.1,0.2C37.7,49.2,35.9,57,36.2,65c0,0.1,0,0.2,0,0.2
				c0,0.2,0,0.3,0,0.5c0,0.3,0,0.7,0.1,1c0,0.6,0.1,1.3,0.2,1.9c0.1,1.2,0.3,2.3,0.5,3.4C29,65.4,20.3,51,19,42.5
				c-0.2-1.5,0.6-2.9,2-3.4c5.8-2.2,20-5.6,27.7-3.4C48.8,35.8,48.8,35.8,48.9,35.8z"/>
			<path class="st13" d="M114.9,43.5c-0.4-0.7-0.8-1.4-1.2-2.1c0-0.1-0.1-0.2-0.1-0.2c-0.6-0.9-1.1-1.8-1.7-2.7
				c-5.1-7.3-12-13-21.2-14.9c-1.7-0.4-2.7-0.9-6.1-0.8c4.4-7.4,15.1-12.7,21.1-14.6c1.6-0.5,3.2,0.2,4.1,1.6
				C114.1,17,116.7,33.2,114.9,43.5z"/>
			<path class="st14" d="M44.6,39.6c-0.5,0.7-1,1.3-1.5,2c-0.2,0.2-0.3,0.4-0.4,0.6c0,0-0.1,0.1-0.1,0.2c-4.4,6.8-6.7,15.1-6.3,22.6
				c0,0.1,0,0.2,0,0.2c0,0.2,0,0.3,0,0.5c0,0.3,0,0.7,0.1,1C30.1,59,26.5,51,24.8,46.9c-0.7-1.7,0.2-3.6,2-4.2
				C30.6,41.3,38.2,38.3,44.6,39.6z"/>
			<path class="st14" d="M108.3,17c1.4,4.6,3.3,12.4,3.5,21.5c-0.3-0.5-0.7-0.9-1-1.4C106.1,30.9,100,26,92.2,24
				c-0.5-0.1-1-0.3-1.5-0.4c0.5-3.6,7-7.2,11.6-9.3C104.7,13.2,107.6,14.5,108.3,17z"/>
			<path class="st15" d="M63.3,60.3c4.8,2.3,1.6,12.9-6.1,15.7s-8.1-6.1-12.9-10.1c-5.7-4.7-3.5-10.9,4.2-13.7S57.7,57.6,63.3,60.3z
				"/>
			<path class="st16" d="M110.8,37.1c0,0.1-0.1,0.2-0.1,0.3c-4.9,10.6-3.2,28.2-10.2,18.3c-7.2-10.2-24.7,0-23.3-8.4
				c2-11.5,12-10.2,7.7-21.9c-0.4-1-0.5-1.9-0.4-2.6c0.2,0,0.4,0,0.7,0c1.9,0.1,3.7,0.3,5.4,0.7C99.2,25.4,105.8,30.5,110.8,37.1z"
				/>
			<path class="st17" d="M117.4,78.4C97.5,100,74.3,101.5,60.1,99.7c5.9-2.6,16.2-6.9,22.5-16.1c4.7-6.8,19.9,8.5,27-3.1
				C112.1,76.4,114.9,76.5,117.4,78.4z"/>
			<path class="st18" d="M43.2,41.6c-0.2,0.2-0.3,0.4-0.5,0.7c0,0-0.1,0.1-0.1,0.2c-4.4,6.8-6.7,15.1-6.3,22.6
				C31.1,50.3,37.1,44.1,43.2,41.6C43.1,41.6,43.2,41.6,43.2,41.6z"/>
			<path class="st18" d="M110.8,37.1C106.1,30.9,100,26,92.2,24C96.8,22.8,105.9,22.8,110.8,37.1z"/>
			<path class="st19" d="M117.6,78.5c-5.2,9.5-15.1,17.1-26.3,21.1c-10.7,3.9-22.6,4.4-32.6,0.7c0.4-0.2,0.9-0.4,1.4-0.6
				c14.2,1.8,37.4,0.3,57.3-21.3C117.5,78.4,117.5,78.4,117.6,78.5z"/>
			<path class="st20" d="M60.1,99.7c-0.5,0.2-1,0.4-1.4,0.6c-1.1-0.4-2.2-0.9-3.3-1.4C56.8,99.2,58.4,99.5,60.1,99.7z"/>
			<path class="st20" d="M117.8,77.9c-0.1,0.2-0.2,0.4-0.3,0.5c0,0-0.1-0.1-0.1-0.1C117.6,78.2,117.7,78.1,117.8,77.9z"/>
			<path class="st12" d="M129.7,51.9c0,0-1.4,1.3-2,1.9c0.4-0.5,0.8-0.9,1.3-1.4C129.2,52.2,129.5,52.1,129.7,51.9
				C129.7,51.9,129.7,51.9,129.7,51.9z"/>
			<circle class="st11" cx="59.7" cy="63.9" r="4.2"/>
			<circle class="st11" cx="94.4" cy="51.2" r="4.2"/>
			<g>
				<path class="st11" d="M97.6,67.6c-1.1,3.1-4.5,4.8-7.6,5.1c-4,0.4-7.3-1.8-8.7-5.5c-0.6-1.6-3-0.7-2.5,0.9
					c1.3,3.6,0.5,7.4-2.7,9.7c-2.7,1.9-6.4,2.5-9.5,1.1c-1.6-0.7-2.7,1.7-1.1,2.4c4,1.8,8.9,1.1,12.3-1.5c4-3,5.1-7.9,3.5-12.6
					c-0.8,0.3-1.7,0.6-2.5,0.9c1.8,4.7,6.1,7.6,11.1,7.2c4.1-0.3,8.6-2.6,10-6.7C100.6,67.1,98.2,66,97.6,67.6L97.6,67.6z"/>
			</g>
			<path class="st11" d="M81.5,67.9l0.9-2.7c0.3-0.9-0.4-1.6-1.6-1.2l-3.6,1.3c-1.2,0.4-1.3,1.4-0.5,1.9l2.4,1.5
				C79.9,69.2,81.3,68.8,81.5,67.9z"/>
			<g>
				<path class="st11" d="M45.9,74.3c-5.4,0.6-10.7,1.3-16.1,1.9c-0.8,0.1-1.5,0.2-2.3,0.3c-1.7,0.2-1.5,2.8,0.2,2.6
					c5.4-0.6,10.7-1.3,16.1-1.9c0.8-0.1,1.5-0.2,2.3-0.3C47.8,76.7,47.5,74.1,45.9,74.3L45.9,74.3z"/>
			</g>
			<g>
				<path class="st11" d="M48.7,84.3c-3.4,3.2-6.8,6.5-10.2,9.7c-0.5,0.5-1,0.9-1.4,1.4c-0.5,0.5-0.3,1.4,0.2,1.9
					c0.6,0.5,1.3,0.3,1.9-0.2c3.4-3.2,6.8-6.5,10.2-9.7c0.5-0.5,1-0.9,1.4-1.4c0.5-0.5,0.3-1.4-0.2-1.9C50,83.6,49.2,83.8,48.7,84.3
					L48.7,84.3z"/>
			</g>
			<g>
				<path class="st11" d="M44.5,80.1c-3,1.5-5.9,3-8.9,4.6c-0.4,0.2-0.8,0.4-1.3,0.6c-0.6,0.3-1.1,1-0.8,1.7
					c0.2,0.6,1.1,1.1,1.7,0.8c3-1.5,5.9-3,8.9-4.6c0.4-0.2,0.8-0.4,1.3-0.6c0.6-0.3,1.1-1,0.8-1.7C46,80.3,45.2,79.7,44.5,80.1
					L44.5,80.1z"/>
			</g>
			<g>
				<path class="st11" d="M114.1,51c4.5-3,9-5.9,13.5-8.9c0.6-0.4,1.3-0.8,1.9-1.2c1.4-0.9-0.1-3.1-1.5-2.2c-4.5,3-9,5.9-13.5,8.9
					c-0.6,0.4-1.3,0.8-1.9,1.2C111.2,49.8,112.7,51.9,114.1,51L114.1,51z"/>
			</g>
			<g>
				<path class="st11" d="M116.4,60.9c4.7,0.3,9.4,0.6,14.1,0.9c0.7,0,1.3,0.1,2,0.1c0.7,0,1.4-0.3,1.5-1.1c0.1-0.6-0.3-1.5-1.1-1.5
					c-4.7-0.3-9.4-0.6-14.1-0.9c-0.7,0-1.3-0.1-2-0.1c-0.7,0-1.4,0.3-1.5,1.1C115.2,60,115.6,60.9,116.4,60.9L116.4,60.9z"/>
			</g>
			<g>
				<path class="st11" d="M118.2,54.9c3.2-0.7,6.5-1.5,9.7-2.2c0.5-0.1,0.9-0.2,1.4-0.3c0.7-0.2,1-1.1,0.8-1.7
					c-0.3-0.7-1-0.9-1.7-0.8c-3.2,0.7-6.5,1.5-9.7,2.2c-0.5,0.1-0.9,0.2-1.4,0.3c-0.7,0.2-1,1.1-0.8,1.7
					C116.8,54.9,117.5,55.1,118.2,54.9L118.2,54.9z"/>
			</g>
		</g>
		<g style="clip-path:url(#SVGID_00000091700859041136043270000008852687173622464404_);">
			<path class="st12" d="M145.4,150.8c-2.2-7-1-13.5,2.2-19c0.1-0.1,0.2-0.3,0.2-0.4c0,0,0.1,0.1,0.1,0.1
				c16.5-16.2,34.7-16.4,45.8-14.4c1.3,0.2,2.5,0.5,3.7,0.8c5.4,2.9,9.6,7.6,11.6,14.2c0.8,2.5,1.3,5,1.7,7.5
				c0.1,0.9,0.2,1.8,0.3,2.7c0,0.5,0.1,1,0.1,1.5c0,0.3,0,0.5,0,0.8c0,0.1,0,0.3,0,0.4c0,0.1,0,0.1,0,0.2c0,5.9-2.1,12.3-5.9,17.5
				c0,0-0.1,0.1-0.1,0.1c-0.1,0.2-0.3,0.3-0.4,0.5c-0.1,0.2-0.3,0.3-0.4,0.5c-0.1,0.1-0.1,0.1-0.2,0.2c-0.1,0.1-0.1,0.1-0.2,0.2
				c-1,1.1-3.9,3.4-3.9,3.4c0,0,0.1,0,0.1,0c-0.9,0.7-1.8,1.3-1.8,1.3c-3.2,2.2-7.1,4-11.8,5.4c-3.9,1.2-7.5,1.9-10.8,2
				c0,0-0.1,0-0.1,0c-1.4,0.1-2.7,0-4-0.1c-0.2,0-0.3,0-0.5,0c-1.5-0.2-2.9-0.4-4.2-0.8c-6.6-1.8-11.6-6-15.3-11.4
				c-0.2-0.4-0.5-0.8-0.7-1.1c-0.4-0.7-0.9-1.4-1.3-2.1c0-0.1-0.1-0.1-0.1-0.2c-0.3-0.6-0.6-1.1-0.9-1.7
				C147.3,156.3,146.3,153.5,145.4,150.8z"/>
			<path class="st12" d="M205.2,162.6c3.7-5.1,5.8-11.6,5.9-17.5C211,151.4,209.3,157.4,205.2,162.6z"/>
			<path class="st12" d="M200,167.5c0,0,2.8-2.3,3.9-3.4c-0.8,0.9-1.7,1.7-2.6,2.5C201,166.9,200.5,167.2,200,167.5
				C200.1,167.6,200,167.5,200,167.5z"/>
			<path class="st13" d="M200,167.5c0,0,2.8-2.3,3.9-3.4c0.1-0.1,0.1-0.1,0.2-0.2c0.1-0.1,0.1-0.1,0.2-0.2c0.2-0.2,0.3-0.3,0.4-0.5
				c0.1-0.2,0.3-0.3,0.4-0.5c0,0,0.1-0.1,0.1-0.1c4.1-5.2,5.8-11.2,5.9-17.5c0-0.1,0-0.1,0-0.2c0-0.1,0-0.3,0-0.4c0-0.3,0-0.5,0-0.8
				c0-0.5,0-1-0.1-1.5c-0.1-0.9-0.2-1.8-0.3-2.7c6.1,5.6,12.3,17.2,13,23.9c0.1,1.2-0.6,2.2-1.7,2.6
				C217.3,167.5,206.1,169.6,200,167.5C200.1,167.6,200,167.5,200,167.5z"/>
			<path class="st13" d="M148.6,158.8c0.3,0.6,0.6,1.1,0.9,1.7c0,0.1,0.1,0.1,0.1,0.2c0.4,0.7,0.8,1.4,1.3,2.1
				c3.7,6,8.9,10.6,16,12.5c1.3,0.4,2.1,0.8,4.7,0.9c-3.8,5.6-12.3,9.4-17.1,10.6c-1.2,0.3-2.5-0.3-3.1-1.4
				C148.1,179.6,146.8,166.8,148.6,158.8z"/>
			<path class="st14" d="M203.5,164.7c0.4-0.5,0.9-1,1.3-1.5c0.1-0.2,0.2-0.3,0.4-0.5c0,0,0.1-0.1,0.1-0.1
				c3.7-5.1,5.8-11.6,5.9-17.5c0-0.1,0-0.1,0-0.2c0-0.1,0-0.3,0-0.4c0-0.3,0-0.5,0-0.8c4.6,6.4,7.1,12.7,8.3,16.1
				c0.5,1.4-0.3,2.8-1.7,3.2C214.6,163.9,208.5,166,203.5,164.7z"/>
			<path class="st14" d="M152.7,179.9c-0.9-3.7-2.1-9.9-1.9-17c0.2,0.4,0.5,0.7,0.7,1.1c3.4,5.1,8,9.1,14.1,11.1
				c0.4,0.1,0.8,0.2,1.2,0.3c-0.5,2.8-5.8,5.4-9.5,6.8C155.4,183,153.2,181.9,152.7,179.9z"/>
			<path class="st15" d="M189.7,147.7c-3.7-2-0.7-10.2,5.4-12.1c6.1-1.9,6.1,5.1,9.7,8.5c4.2,3.9,2.3,8.7-3.9,10.6
				C194.8,156.6,193.9,150.1,189.7,147.7z"/>
			<path class="st16" d="M151.5,164c0-0.1,0.1-0.1,0.1-0.2c4.3-8.1,3.6-21.9,8.7-14c5.3,8.3,19.4,1,17.9,7.5
				c-2,8.9-9.8,7.5-6.9,16.9c0.3,0.8,0.3,1.5,0.2,2c-0.2,0-0.3,0-0.5,0c-1.5-0.2-2.9-0.4-4.2-0.8C160.1,173.6,155.2,169.4,151.5,164
				z"/>
			<path class="st17" d="M148,131.4c16.5-16.2,34.7-16.4,45.8-14.4c-4.7,1.8-13,4.7-18.3,11.7c-3.9,5.1-15.3-7.4-21.3,1.3
				C152.1,133.2,149.9,133,148,131.4z"/>
			<path class="st18" d="M204.7,163.2c0.1-0.2,0.3-0.3,0.4-0.5c0,0,0.1-0.1,0.1-0.1c3.7-5.1,5.8-11.6,5.9-17.5
				C214.5,156.9,209.5,161.5,204.7,163.2C204.7,163.2,204.7,163.2,204.7,163.2z"/>
			<path class="st18" d="M151.5,164c3.4,5.1,8,9.1,14.1,11.1C162,175.8,154.8,175.5,151.5,164z"/>
			<path class="st19" d="M147.9,131.4c4.4-7.2,12.5-12.8,21.5-15.5c8.5-2.6,17.9-2.5,25.5,0.7c-0.4,0.1-0.7,0.3-1.2,0.4
				C182.7,115,164.4,115.3,147.9,131.4C147.9,131.4,147.9,131.4,147.9,131.4z"/>
			<path class="st20" d="M193.7,117c0.4-0.2,0.8-0.3,1.2-0.4c0.9,0.4,1.7,0.8,2.5,1.2C196.3,117.5,195.1,117.2,193.7,117z"/>
			<path class="st20" d="M147.7,131.8c0.1-0.1,0.2-0.3,0.2-0.4c0,0,0.1,0.1,0.1,0.1C147.9,131.6,147.8,131.7,147.7,131.8z"/>
			<path class="st12" d="M137.3,151.7c0,0,1.2-1,1.6-1.4c-0.3,0.4-0.7,0.7-1.1,1C137.7,151.4,137.5,151.6,137.3,151.7
				C137.3,151.7,137.3,151.7,137.3,151.7z"/>
			<circle class="st11" cx="192.7" cy="145.1" r="3.3"/>
			<circle class="st11" cx="164.9" cy="153.6" r="3.3"/>
			<g>
				<path class="st11" d="M163.1,140.7c1-2.4,3.7-3.6,6.2-3.7c3.1-0.1,5.6,1.7,6.6,4.6c0.4,1.3,2.4,0.7,2-0.6
					c-0.9-2.9-0.1-5.8,2.5-7.5c2.2-1.4,5.1-1.7,7.5-0.5c1.2,0.6,2.2-1.2,1-1.8c-3-1.6-6.9-1.2-9.7,0.7c-3.3,2.2-4.3,6-3.2,9.7
					c0.7-0.2,1.3-0.4,2-0.6c-1.2-3.8-4.4-6.2-8.4-6.1c-3.2,0.1-6.8,1.7-8.1,4.8C160.7,140.9,162.6,141.9,163.1,140.7L163.1,140.7z"
					/>
			</g>
			<path class="st11" d="M175.7,141.1l-0.8,2.1c-0.3,0.7,0.2,1.3,1.2,1l2.9-0.9c1-0.3,1-1.1,0.4-1.5l-1.8-1.3
				C177,140.1,175.9,140.4,175.7,141.1z"/>
			<g>
				<path class="st11" d="M203.9,137.5c4.2-0.3,8.4-0.6,12.7-0.9c0.6,0,1.2-0.1,1.8-0.1c1.3-0.1,1.3-2.2-0.1-2.1
					c-4.2,0.3-8.4,0.6-12.7,0.9c-0.6,0-1.2,0.1-1.8,0.1C202.5,135.5,202.6,137.6,203.9,137.5L203.9,137.5z"/>
			</g>
			<g>
				<path class="st11" d="M202.1,129.5c2.8-2.4,5.6-4.8,8.4-7.2c0.4-0.3,0.8-0.7,1.2-1c0.4-0.4,0.3-1.1-0.1-1.5
					c-0.5-0.4-1-0.3-1.5,0.1c-2.8,2.4-5.6,4.8-8.4,7.2c-0.4,0.3-0.8,0.7-1.2,1c-0.4,0.4-0.3,1.1,0.1,1.5
					C201,130,201.6,129.9,202.1,129.5L202.1,129.5z"/>
			</g>
			<g>
				<path class="st11" d="M205.2,133c2.4-1.1,4.7-2.2,7.1-3.2c0.3-0.2,0.7-0.3,1-0.5c0.5-0.2,0.9-0.7,0.7-1.3
					c-0.1-0.5-0.8-0.9-1.3-0.7c-2.4,1.1-4.7,2.2-7.1,3.2c-0.3,0.2-0.7,0.3-1,0.5c-0.5,0.2-0.9,0.7-0.7,1.3
					C204,132.8,204.6,133.2,205.2,133L205.2,133z"/>
			</g>
			<g>
				<path class="st11" d="M149.5,153c-3.6,2.1-7.3,4.3-10.9,6.4c-0.5,0.3-1,0.6-1.5,0.9c-1.1,0.7,0,2.4,1.1,1.7
					c3.6-2.1,7.3-4.3,10.9-6.4c0.5-0.3,1-0.6,1.5-0.9C151.8,154.1,150.6,152.3,149.5,153L149.5,153z"/>
			</g>
			<g>
				<path class="st11" d="M148.1,145.1c-3.7-0.4-7.3-0.8-11-1.3c-0.5-0.1-1-0.1-1.5-0.2c-0.6-0.1-1.1,0.2-1.2,0.8
					c-0.1,0.5,0.2,1.2,0.8,1.2c3.7,0.4,7.3,0.8,11,1.3c0.5,0.1,1,0.1,1.5,0.2c0.6,0.1,1.1-0.2,1.2-0.8
					C149,145.9,148.7,145.2,148.1,145.1L148.1,145.1z"/>
			</g>
			<g>
				<path class="st11" d="M146.4,149.8c-2.6,0.4-5.1,0.9-7.7,1.3c-0.4,0.1-0.7,0.1-1.1,0.2c-0.6,0.1-0.8,0.8-0.7,1.3
					c0.2,0.6,0.7,0.8,1.3,0.7c2.6-0.4,5.1-0.9,7.7-1.3c0.4-0.1,0.7-0.1,1.1-0.2c0.6-0.1,0.8-0.8,0.7-1.3
					C147.5,149.9,147,149.7,146.4,149.8L146.4,149.8z"/>
			</g>
		</g>
		<g style="clip-path:url(#SVGID_00000091700859041136043270000008852687173622464404_);">
			<path class="st12" d="M329.2,0.7c9.5,4.3,15.3,11.6,18.1,20.2c0.1,0.2,0.1,0.4,0.2,0.6c-0.1,0-0.1,0-0.2,0
				c1.8,32.7-15.1,52.3-27.6,62.3c-1.5,1.2-2.9,2.2-4.3,3.2c-8.1,3-17.1,3.1-26-1c-3.4-1.5-6.6-3.3-9.6-5.3
				c-1.1-0.7-2.1-1.5-3.2-2.2c-0.6-0.4-1.1-0.9-1.7-1.3c-0.3-0.2-0.6-0.5-0.9-0.7c-0.2-0.1-0.3-0.3-0.4-0.4
				c-0.1-0.1-0.1-0.1-0.2-0.2c-6.2-5.6-11.1-13.9-13.1-22.6c0-0.1,0-0.1,0-0.2c-0.1-0.3-0.1-0.6-0.1-0.9c0-0.3-0.1-0.6-0.1-1
				c0-0.1,0-0.3-0.1-0.4c0-0.1,0-0.2,0-0.4c-0.1-2.1,0-7.3,0-7.3c0,0-0.1,0-0.1,0.1c0.1-1.5,0.3-3.1,0.3-3.1
				c0.7-5.4,2.4-11.3,5.3-17.7c2.4-5.3,5.1-9.8,8-13.4c0,0,0.1-0.1,0.1-0.1c1.2-1.6,2.5-2.9,3.9-4.2c0.2-0.2,0.4-0.3,0.5-0.5
				c1.5-1.4,3.1-2.7,4.8-3.8c8.1-5.4,17.3-6.7,26.5-5.5c0.6,0.1,1.3,0.2,1.9,0.3c1.1,0.2,2.3,0.4,3.5,0.7c0.1,0,0.2,0.1,0.3,0.1
				c0.9,0.2,1.8,0.4,2.6,0.7C321.6-2.4,325.5-1,329.2,0.7z"/>
			<path class="st12" d="M260.5,53.3c2,8.8,6.9,17.1,13.1,22.6C267,70,262.1,62.5,260.5,53.3z"/>
			<path class="st12" d="M260.1,43.1c0,0-0.2,5.2,0,7.3c-0.2-1.7-0.2-3.3-0.2-5.1c0-0.6,0.1-1.3,0.1-2.1
				C260.1,43.1,260.1,43.1,260.1,43.1z"/>
			<path class="st13" d="M260.1,43.1c0,0-0.2,5.2,0,7.3c0,0.1,0,0.3,0,0.4c0,0.1,0,0.3,0.1,0.4c0,0.3,0.1,0.6,0.1,1
				c0,0.3,0.1,0.6,0.1,0.9c0,0.1,0,0.1,0,0.2c1.6,9.2,6.5,16.7,13.1,22.6c0.1,0.1,0.1,0.1,0.2,0.2c0.1,0.1,0.3,0.3,0.4,0.4
				c0.3,0.2,0.6,0.5,0.9,0.7c0.5,0.5,1.1,0.9,1.7,1.3c1,0.8,2.1,1.5,3.2,2.2c-11.6,1.2-29.9-3-37.6-8.6c-1.3-1-1.9-2.7-1.2-4.3
				c2.7-6.3,11.1-20.3,18.9-24.7C260.1,43.1,260.1,43.1,260.1,43.1z"/>
			<path class="st13" d="M317.7-3.5c-0.9-0.2-1.8-0.5-2.6-0.7c-0.1,0-0.2-0.1-0.3-0.1c-1.2-0.3-2.3-0.5-3.5-0.7
				c-9.8-1.6-19.7-0.5-28.4,5.2c-1.6,1.1-2.9,1.5-5.4,4.2c-2.5-9.3,1.6-21.9,4.8-28.1c0.8-1.6,2.6-2.4,4.4-2
				C296-23.5,310.9-12.9,317.7-3.5z"/>
			<path class="st14" d="M259.9,49.4c0.1,0.9,0.3,1.8,0.5,2.8c0,0.3,0.1,0.6,0.2,0.9c0,0.1,0,0.1,0,0.2c2,8.8,6.9,17.1,13.1,22.6
				c0.1,0.1,0.1,0.1,0.2,0.2c0.1,0.1,0.3,0.3,0.4,0.4c0.3,0.2,0.6,0.5,0.9,0.7c-11.1-1.1-20.2-4.4-24.9-6.3c-1.9-0.8-2.7-3-1.9-4.8
				C250.3,62,253.8,53.5,259.9,49.4z"/>
			<path class="st14" d="M291.4-18.9c4.8,2.5,12.5,7,19.9,14c-0.6-0.1-1.2-0.2-1.9-0.3c-8.7-1.1-17.3,0-25,4.6
				c-0.5,0.3-1,0.6-1.5,0.9c-2.5-3.2-0.3-11.2,1.6-16.5C285.6-19,288.8-20.2,291.4-18.9z"/>
			<path class="st15" d="M290.9,50.6c5.6-2,11.5,8.8,7.8,17.1s-11.2,1.7-18.1,2.4c-8.1,0.9-11.4-5.7-7.6-14
				C276.7,47.8,284.4,53,290.9,50.6z"/>
			<path class="st16" d="M309.4-5.2c0.1,0.1,0.1,0.2,0.1,0.3c4.6,12.1,19.9,24.5,6.7,22.4c-13.8-2.2-19.2,19.7-24.8,12
				C283.8,19,292.7,12,280,6.2c-1.1-0.5-1.9-1.1-2.4-1.7c0.2-0.2,0.4-0.3,0.5-0.5c1.5-1.4,3.1-2.7,4.8-3.8
				C291.1-5.1,300.2-6.4,309.4-5.2z"/>
			<path class="st17" d="M347.4,21.6c1.8,32.7-15.1,52.3-27.6,62.3c2.5-6.7,7.1-18.2,4.7-30.4c-1.8-9,22.3-9.3,18.5-23.9
				C341.7,24.3,343.9,22.2,347.4,21.6z"/>
			<path class="st18" d="M260.3,52.1c0,0.3,0.1,0.6,0.1,0.9c0,0.1,0,0.1,0,0.2c2,8.8,6.9,17.1,13.1,22.6
				C257.9,68.5,257.6,58.9,260.3,52.1C260.3,52.2,260.3,52.1,260.3,52.1z"/>
			<path class="st18" d="M309.4-5.2c-8.7-1.1-17.3,0-25,4.6C287.1-5.1,294.1-12.4,309.4-5.2z"/>
			<path class="st19" d="M347.6,21.6c3.5,11.5,1.8,25.3-3.6,37.4c-5.2,11.6-14.1,21.4-24.7,26.5c0.2-0.5,0.4-1.1,0.6-1.6
				c12.5-9.9,29.3-29.6,27.6-62.3C347.5,21.6,347.5,21.6,347.6,21.6z"/>
			<path class="st20" d="M319.8,83.9c-0.2,0.6-0.4,1.1-0.6,1.6c-1.2,0.6-2.4,1.1-3.6,1.5C316.9,86.1,318.3,85.1,319.8,83.9z"/>
			<path class="st20" d="M347.4,20.9c0.1,0.2,0.1,0.4,0.2,0.6c-0.1,0-0.1,0-0.2,0C347.4,21.4,347.4,21.2,347.4,20.9z"/>
			<path class="st12" d="M335.9-8.8c0,0-0.1,2.2,0,3.1c-0.1-0.7-0.1-1.4-0.1-2.1C335.8-8.1,335.8-8.5,335.9-8.8
				C335.8-8.8,335.9-8.8,335.9-8.8z"/>
			<circle class="st11" cx="290.9" cy="56.3" r="4.7"/>
			<circle class="st11" cx="307.9" cy="18.8" r="4.7"/>
			<g>
				<path class="st11" d="M323.4,29c1.6,3.3,0.4,7.3-1.8,10c-2.8,3.5-7.1,4.4-11.1,2.6c-1.7-0.8-2.9,1.9-1.2,2.7
					c3.9,1.8,6.2,5.4,5.6,9.7c-0.6,3.6-3,7.1-6.5,8.4c-1.8,0.7-0.7,3.4,1,2.8c4.5-1.8,7.8-6.2,8.4-11c0.7-5.6-2.3-10.2-7.3-12.6
					c-0.4,0.9-0.8,1.8-1.2,2.7c5.2,2.2,10.8,1.1,14.4-3.2c2.9-3.5,4.6-8.9,2.5-13.2C325.3,26.3,322.6,27.3,323.4,29L323.4,29z"/>
			</g>
			<path class="st11" d="M311.1,42l-1.5-2.8c-0.5-0.9-1.6-0.9-2.2,0.4l-1.8,3.9c-0.6,1.3,0.2,2.1,1.2,1.9l3-0.7
				C311,44.4,311.6,42.9,311.1,42z"/>
			<g>
				<path class="st11" d="M288.5,75.5c-3.7,4.8-7.3,9.5-11,14.3c-0.5,0.7-1,1.3-1.5,2c-1.2,1.5,1.1,3.4,2.3,1.9
					c3.7-4.8,7.3-9.5,11-14.3c0.5-0.7,1-1.3,1.5-2C291.9,75.8,289.6,74,288.5,75.5L288.5,75.5z"/>
			</g>
			<g>
				<path class="st11" d="M298.7,80.9c-0.1,5.2-0.1,10.5-0.2,15.7c0,0.7,0,1.5,0,2.2c0,0.8,0.9,1.4,1.6,1.3c0.9-0.1,1.3-0.8,1.3-1.6
					c0.1-5.2,0.1-10.5,0.2-15.7c0-0.7,0-1.5,0-2.2c0-0.8-0.9-1.4-1.6-1.3C299.1,79.4,298.7,80.1,298.7,80.9L298.7,80.9z"/>
			</g>
			<g>
				<path class="st11" d="M292.1,81c-1.1,3.5-2.2,7.1-3.2,10.6c-0.2,0.5-0.3,1-0.5,1.5c-0.2,0.8-0.1,1.6,0.7,1.9
					c0.7,0.3,1.7,0,1.9-0.7c1.1-3.5,2.2-7.1,3.2-10.6c0.2-0.5,0.3-1,0.5-1.5c0.2-0.8,0.1-1.6-0.7-1.9C293.4,80,292.3,80.2,292.1,81
					L292.1,81z"/>
			</g>
			<g>
				<path class="st11" d="M323,3c1.2-5.9,2.3-11.8,3.5-17.7c0.2-0.8,0.3-1.7,0.5-2.5c0.4-1.9-2.5-2.3-2.9-0.5
					c-1.2,5.9-2.3,11.8-3.5,17.7c-0.2,0.8-0.3,1.7-0.5,2.5C319.8,4.4,322.7,4.8,323,3L323,3z"/>
			</g>
			<g>
				<path class="st11" d="M332.7,8.9c3.9-3.5,7.8-7,11.7-10.5c0.5-0.5,1.1-1,1.6-1.5c0.6-0.5,0.8-1.4,0.3-2.1
					c-0.4-0.6-1.5-0.9-2.1-0.3c-3.9,3.5-7.8,7-11.7,10.5c-0.5,0.5-1.1,1-1.6,1.5c-0.6,0.5-0.8,1.4-0.3,2.1
					C331.1,9.2,332.1,9.4,332.7,8.9L332.7,8.9z"/>
			</g>
			<g>
				<path class="st11" d="M329.3,2.7c1.9-3.2,3.9-6.3,5.8-9.5c0.3-0.4,0.6-0.9,0.8-1.3c0.4-0.7-0.1-1.6-0.7-1.9
					c-0.8-0.4-1.5,0.1-1.9,0.7c-1.9,3.2-3.9,6.3-5.8,9.5c-0.3,0.4-0.6,0.9-0.8,1.3c-0.4,0.7,0.1,1.6,0.7,1.9
					C328.2,3.8,328.9,3.4,329.3,2.7L329.3,2.7z"/>
			</g>
		</g>
		<g style="clip-path:url(#SVGID_00000091700859041136043270000008852687173622464404_);">
			<path class="st12" d="M1033.3,62.7c-5.1,12.6-14.3,20.7-25.4,24.8c-0.3,0.1-0.5,0.2-0.8,0.3c0-0.1,0-0.1,0-0.2
				c-42.6,4.1-69.2-16.8-82.9-32.6c-1.6-1.9-3.1-3.7-4.4-5.4c-4.3-10.5-5-22.1-0.2-34c1.8-4.5,3.9-8.8,6.4-12.9
				c0.9-1.5,1.8-2.9,2.7-4.3c0.5-0.8,1.1-1.5,1.7-2.3c0.3-0.4,0.6-0.8,0.9-1.2c0.2-0.2,0.3-0.4,0.5-0.6c0.1-0.1,0.1-0.2,0.2-0.3
				c7-8.5,17.5-15.3,28.9-18.4c0.1,0,0.2,0,0.3-0.1c0.4-0.1,0.8-0.2,1.2-0.2c0.4-0.1,0.8-0.2,1.3-0.2c0.2,0,0.3-0.1,0.5-0.1
				c0.1,0,0.3,0,0.5-0.1c2.7-0.3,9.5-0.4,9.5-0.4c0,0-0.1-0.1-0.1-0.1c2,0.1,4.1,0.2,4.1,0.2c7.2,0.6,14.9,2.6,23.4,5.9
				c7.1,2.8,13,6.1,18,9.7c0.1,0,0.1,0.1,0.2,0.1c2.1,1.5,4,3.2,5.7,4.8c0.2,0.2,0.5,0.5,0.7,0.7c2,1.9,3.7,4,5.2,6
				c7.5,10.3,9.7,22.2,8.7,34.3c-0.1,0.8-0.2,1.7-0.3,2.5c-0.2,1.5-0.4,3-0.7,4.6c0,0.1-0.1,0.3-0.1,0.4c-0.2,1.2-0.5,2.3-0.7,3.5
				C1037,52.5,1035.3,57.6,1033.3,62.7z"/>
			<path class="st12" d="M960.8-24.2c-11.4,3-21.9,9.9-28.9,18.4C939.3-14.8,948.8-21.6,960.8-24.2z"/>
			<path class="st12" d="M974-25.3c0,0-6.8,0.1-9.5,0.4c2.2-0.3,4.4-0.5,6.7-0.6c0.7,0,1.7,0,2.8,0C974-25.4,974-25.3,974-25.3z"/>
			<path class="st13" d="M974-25.3c0,0-6.8,0.1-9.5,0.4c-0.2,0-0.3,0-0.5,0.1c-0.2,0-0.3,0-0.5,0.1c-0.4,0.1-0.8,0.1-1.3,0.2
				c-0.4,0.1-0.8,0.1-1.2,0.2c-0.1,0-0.2,0-0.3,0.1c-11.9,2.6-21.5,9.4-28.9,18.4c-0.1,0.1-0.2,0.2-0.2,0.3
				c-0.2,0.2-0.3,0.4-0.5,0.6c-0.3,0.4-0.6,0.8-0.9,1.2c-0.6,0.7-1.1,1.5-1.7,2.3c-1,1.4-1.9,2.8-2.7,4.3
				c-2.2-15.2,2.3-39.2,9.2-49.6c1.2-1.8,3.5-2.6,5.5-1.8c8.4,3.2,27.1,13.3,33.4,23.3C974-25.4,974-25.3,974-25.3z"/>
			<path class="st13" d="M1038.2,47.3c0.3-1.2,0.5-2.3,0.7-3.5c0-0.1,0.1-0.3,0.1-0.4c0.3-1.5,0.5-3,0.7-4.6
				c1.6-12.9-0.4-25.7-8.4-36.8c-1.5-2.1-2.1-3.7-5.8-6.8c12-3.7,28.7,0.9,37.1,4.7c2.2,1,3.3,3.3,2.9,5.6
				C1063,17.8,1050.1,37.9,1038.2,47.3z"/>
			<path class="st14" d="M965.7-25.3c-1.2,0.2-2.4,0.4-3.6,0.7c-0.4,0.1-0.7,0.2-1.1,0.3c-0.1,0-0.2,0-0.3,0.1
				c-11.4,3-21.9,9.9-28.9,18.4c-0.1,0.1-0.2,0.2-0.2,0.3c-0.2,0.2-0.3,0.4-0.5,0.6c-0.3,0.4-0.6,0.8-0.9,1.2
				c0.8-14.6,4.6-26.7,6.8-32.8c0.9-2.5,3.8-3.7,6.2-2.7C948.8-37,960-32.9,965.7-25.3z"/>
			<path class="st14" d="M1056.8,12.2c-3,6.4-8.5,16.7-17.1,26.7c0.1-0.8,0.2-1.6,0.3-2.5c1-11.4-0.9-22.6-7.4-32.4
				c-0.4-0.6-0.8-1.2-1.3-1.9c4-3.4,14.6-1,21.7,1.2C1056.6,4.5,1058.4,8.6,1056.8,12.2z"/>
			<path class="st15" d="M965.9,15.4c3,7.2-10.8,15.5-21.9,11.1c-11.1-4.4-2.8-14.5-4.2-23.5c-1.6-10.6,6.8-15.2,17.9-10.7
				S962.4,7,965.9,15.4z"/>
			<path class="st16" d="M1039.9,36.4c-0.1,0.1-0.2,0.1-0.4,0.2c-15.6,6.7-30.9,27.4-28.9,10c2.1-18.2-26.8-24-17.1-31.7
				c13.3-10.6,22.9,0.7,29.7-16.3c0.6-1.5,1.3-2.5,2-3.2c0.2,0.2,0.5,0.5,0.7,0.7c2,1.9,3.7,4,5.2,6
				C1038.7,12.5,1040.9,24.3,1039.9,36.4z"/>
			<path class="st17" d="M1007,87.6c-42.6,4.1-69.2-16.8-82.9-32.6c8.9,3,24.2,8.3,40,4.4c11.7-2.8,13.4,28.6,32.3,22.9
				C1003.2,80.3,1006.1,83.1,1007,87.6z"/>
			<path class="st18" d="M962.2-24.5c-0.4,0.1-0.8,0.1-1.2,0.2c-0.1,0-0.2,0-0.3,0.1c-11.4,3-21.9,9.9-28.9,18.4
				c8.8-21,21.3-21.9,30.2-18.7C962.2-24.5,962.2-24.5,962.2-24.5z"/>
			<path class="st18" d="M1039.9,36.4c1-11.4-0.9-22.6-7.4-32.4C1038.6,7.3,1048.5,16,1039.9,36.4z"/>
			<path class="st19" d="M1007.1,87.8c-14.9,5.3-33,3.8-49.1-2.6c-15.4-6.2-28.8-17.3-36.1-30.8c0.7,0.2,1.4,0.4,2.2,0.7
				c13.7,15.7,40.3,36.7,82.9,32.6C1007,87.6,1007,87.7,1007.1,87.8z"/>
			<path class="st20" d="M924.1,55c-0.8-0.3-1.5-0.5-2.2-0.7c-0.8-1.5-1.6-3.1-2.2-4.7C921,51.3,922.5,53.1,924.1,55z"/>
			<path class="st20" d="M1007.9,87.5c-0.3,0.1-0.5,0.2-0.8,0.3c0-0.1,0-0.1,0-0.2C1007.3,87.5,1007.6,87.5,1007.9,87.5z"/>
			<path class="st12" d="M1046.1,70.8c0,0-2.8,0-4,0.2c0.9-0.1,1.8-0.2,2.8-0.2C1045.2,70.7,1045.6,70.7,1046.1,70.8
				C1046.1,70.8,1046.1,70.8,1046.1,70.8z"/>
			<circle class="st11" cx="958.4" cy="15.7" r="6.2"/>
			<circle class="st11" cx="1008.4" cy="35.7" r="6.2"/>
			<g>
				<path class="st11" d="M996,56.7c-4.2,2.3-9.6,0.9-13.2-1.8c-4.7-3.5-6.2-9-4.1-14.4c0.9-2.3-2.6-3.7-3.6-1.4
					c-2.1,5.2-6.6,8.5-12.4,7.8c-4.8-0.5-9.4-3.6-11.4-8c-1-2.3-4.5-0.8-3.5,1.5c2.6,5.8,8.6,9.8,14.8,10.4
					c7.3,0.7,13.3-3.6,16-10.2c-1.2-0.5-2.4-1-3.6-1.4c-2.6,6.9-0.8,14.1,5,18.7c4.7,3.6,11.9,5.5,17.3,2.5
					C999.7,59,998.2,55.5,996,56.7L996,56.7z"/>
			</g>
			<path class="st11" d="M978.3,41.3l3.6-2.1c1.2-0.7,1.1-2.1-0.6-2.8l-5.2-2.1c-1.7-0.7-2.7,0.3-2.4,1.6l1.1,3.9
				C975.2,41.2,977.1,42,978.3,41.3z"/>
			<g>
				<path class="st11" d="M933.3,13.6c-6.4-4.5-12.9-9-19.3-13.5c-0.9-0.6-1.8-1.3-2.7-1.9c-2-1.4-4.4,1.6-2.3,3.1
					c6.4,4.5,12.9,9,19.3,13.5c0.9,0.6,1.8,1.3,2.7,1.9C933,18.1,935.3,15,933.3,13.6L933.3,13.6z"/>
			</g>
			<g>
				<path class="st11" d="M926.7,27.2c-6.8,0.2-13.7,0.4-20.5,0.7c-1,0-1.9,0.1-2.9,0.1c-1,0-1.8,1.2-1.6,2.2
					c0.2,1.1,1.1,1.7,2.2,1.6c6.8-0.2,13.7-0.4,20.5-0.7c1,0,1.9-0.1,2.9-0.1c1,0,1.8-1.2,1.6-2.2C928.7,27.7,927.8,27.2,926.7,27.2
					L926.7,27.2z"/>
			</g>
			<g>
				<path class="st11" d="M926.3,18.6c-4.7-1.2-9.4-2.4-14.1-3.6c-0.7-0.2-1.3-0.3-2-0.5c-1-0.3-2.1,0-2.5,1.1
					c-0.3,0.9,0.1,2.2,1.1,2.5c4.7,1.2,9.4,2.4,14.1,3.6c0.7,0.2,1.3,0.3,2,0.5c1,0.3,2.1,0,2.5-1.1
					C927.7,20.2,927.3,18.9,926.3,18.6L926.3,18.6z"/>
			</g>
			<g>
				<path class="st11" d="M1030,54.7c7.8,1.2,15.5,2.3,23.3,3.5c1.1,0.2,2.2,0.3,3.3,0.5c2.4,0.4,2.9-3.5,0.4-3.8
					c-7.8-1.2-15.5-2.3-23.3-3.5c-1.1-0.2-2.2-0.3-3.3-0.5C1028,50.5,1027.6,54.3,1030,54.7L1030,54.7z"/>
			</g>
			<g>
				<path class="st11" d="M1022.8,67.6c4.8,4.9,9.6,9.8,14.4,14.6c0.7,0.7,1.4,1.4,2,2.1c0.7,0.7,1.8,1,2.7,0.3
					c0.7-0.6,1.1-2,0.3-2.7c-4.8-4.9-9.6-9.8-14.4-14.6c-0.7-0.7-1.4-1.4-2-2.1c-0.7-0.7-1.8-1-2.7-0.3
					C1022.4,65.5,1022,66.9,1022.8,67.6L1022.8,67.6z"/>
			</g>
			<g>
				<path class="st11" d="M1030.7,62.9c4.2,2.4,8.5,4.7,12.7,7.1c0.6,0.3,1.2,0.7,1.8,1c0.9,0.5,2.1-0.2,2.5-1.1
					c0.4-1.1-0.2-2-1.1-2.5c-4.2-2.4-8.5-4.7-12.7-7.1c-0.6-0.3-1.2-0.7-1.8-1c-0.9-0.5-2.1,0.2-2.5,1.1
					C1029.2,61.5,1029.7,62.4,1030.7,62.9L1030.7,62.9z"/>
			</g>
		</g>
		<g style="clip-path:url(#SVGID_00000091700859041136043270000008852687173622464404_);">
			<path class="st12" d="M1070.2,215.2c3.1,9.2,1.8,17.8-2.3,25.2c-0.1,0.2-0.2,0.4-0.3,0.5c0,0-0.1-0.1-0.1-0.1
				c-21.2,21.9-45.3,22.8-60,20.6c-1.8-0.3-3.4-0.6-4.9-0.9c-7.2-3.7-12.9-9.7-15.8-18.4c-1.1-3.3-1.9-6.6-2.5-9.9
				c-0.2-1.2-0.4-2.4-0.5-3.6c-0.1-0.7-0.1-1.3-0.1-2c0-0.3,0-0.7-0.1-1c0-0.2,0-0.4,0-0.6c0-0.1,0-0.2,0-0.2
				c-0.1-7.8,2.4-16.4,7.2-23.3c0-0.1,0.1-0.1,0.1-0.2c0.2-0.2,0.4-0.5,0.5-0.7c0.2-0.2,0.4-0.5,0.6-0.7c0.1-0.1,0.2-0.2,0.2-0.3
				c0.1-0.1,0.2-0.2,0.2-0.3c1.3-1.4,5-4.6,5-4.6c0,0-0.1,0-0.1,0c1.1-0.9,2.3-1.8,2.3-1.8c4.2-3,9.3-5.5,15.5-7.6
				c5.2-1.7,9.9-2.7,14.2-3c0.1,0,0.1,0,0.2,0c1.9-0.1,3.6-0.1,5.3,0c0.2,0,0.5,0,0.7,0c2,0.2,3.8,0.5,5.6,0.9
				c8.8,2.1,15.5,7.6,20.5,14.6c0.3,0.5,0.7,1,1,1.5c0.6,0.9,1.2,1.8,1.7,2.8c0,0.1,0.1,0.2,0.1,0.2c0.4,0.7,0.8,1.5,1.2,2.2
				C1067.5,208,1068.9,211.6,1070.2,215.2z"/>
			<path class="st12" d="M990.7,201.5c-4.8,6.9-7.3,15.5-7.2,23.3C983.4,216.6,985.4,208.5,990.7,201.5z"/>
			<path class="st12" d="M997.4,194.8c0,0-3.6,3.2-5,4.6c1-1.2,2.1-2.3,3.4-3.4c0.4-0.3,0.9-0.8,1.5-1.3
				C997.3,194.8,997.4,194.8,997.4,194.8z"/>
			<path class="st13" d="M997.4,194.8c0,0-3.6,3.2-5,4.6c-0.1,0.1-0.2,0.2-0.2,0.3c-0.1,0.1-0.2,0.2-0.2,0.3
				c-0.2,0.2-0.4,0.5-0.6,0.7c-0.2,0.2-0.4,0.4-0.5,0.7c0,0-0.1,0.1-0.1,0.2c-5.3,6.9-7.3,15-7.2,23.3c0,0.1,0,0.2,0,0.2
				c0,0.2,0,0.4,0,0.6c0,0.4,0,0.7,0.1,1c0,0.7,0.1,1.3,0.1,2c0.1,1.2,0.3,2.4,0.5,3.6c-8.2-7.2-16.9-22.4-17.9-31.2
				c-0.2-1.5,0.7-3,2.2-3.5c6.1-2.1,20.9-5.3,28.9-2.8C997.3,194.8,997.4,194.8,997.4,194.8z"/>
			<path class="st13" d="M1065.7,204.7c-0.4-0.7-0.8-1.5-1.2-2.2c0-0.1-0.1-0.2-0.1-0.2c-0.6-1-1.1-1.9-1.7-2.8
				c-5.1-7.8-12.1-13.8-21.6-16.1c-1.8-0.4-2.8-1-6.3-1c4.8-7.6,16-12.8,22.3-14.6c1.6-0.5,3.3,0.3,4.2,1.7
				C1065.6,177.1,1067.8,194,1065.7,204.7z"/>
			<path class="st14" d="M992.9,198.7c-0.6,0.7-1.1,1.4-1.6,2.1c-0.2,0.2-0.3,0.4-0.5,0.7c0,0-0.1,0.1-0.1,0.2
				c-4.8,6.9-7.3,15.5-7.2,23.3c0,0.1,0,0.2,0,0.2c0,0.2,0,0.4,0,0.6c0,0.4,0,0.7,0.1,1c-6.3-8.3-9.8-16.6-11.5-21
				c-0.7-1.8,0.3-3.8,2.1-4.3C978.3,200.1,986.3,197.2,992.9,198.7z"/>
			<path class="st14" d="M1059.6,177c1.4,4.9,3.1,13,3,22.4c-0.3-0.5-0.7-1-1-1.5c-4.7-6.6-10.9-11.8-19-14.2
				c-0.5-0.2-1-0.3-1.6-0.4c0.6-3.7,7.5-7.3,12.3-9.3C1056,172.9,1058.9,174.3,1059.6,177z"/>
			<path class="st15" d="M1011.8,220.7c4.9,2.5,1.3,13.4-6.8,16.1c-8.1,2.7-8.2-6.6-13.1-10.9c-5.7-5-3.3-11.4,4.8-14.1
				C1004.7,209.2,1006,217.7,1011.8,220.7z"/>
			<path class="st16" d="M1061.7,197.9c0,0.1-0.1,0.2-0.1,0.3c-5.4,10.8-4.1,29.1-11.1,18.7c-7.2-10.8-25.7-0.6-23.9-9.3
				c2.4-11.9,12.8-10.2,8.6-22.5c-0.4-1.1-0.5-2-0.4-2.7c0.2,0,0.5,0,0.7,0c2,0.2,3.8,0.5,5.6,0.9
				C1050,185.5,1056.6,190.9,1061.7,197.9z"/>
			<path class="st17" d="M1067.4,240.9c-21.2,21.9-45.3,22.8-60,20.6c6.2-2.5,17-6.7,23.8-16.1c5-6.9,20.5,9.3,28.1-2.5
				C1062,238.7,1064.8,238.9,1067.4,240.9z"/>
			<path class="st18" d="M991.4,200.7c-0.2,0.2-0.4,0.4-0.5,0.7c0,0-0.1,0.1-0.1,0.2c-4.8,6.9-7.3,15.5-7.2,23.3
				C978.6,209.4,985,203.1,991.4,200.7C991.3,200.7,991.4,200.7,991.4,200.7z"/>
			<path class="st18" d="M1061.7,197.9c-4.7-6.6-10.9-11.8-19-14.2C1047.5,182.7,1056.9,182.9,1061.7,197.9z"/>
			<path class="st19" d="M1067.5,241c-5.6,9.7-16.1,17.3-27.9,21.2c-11.2,3.8-23.6,3.9-33.8-0.1c0.5-0.2,1-0.4,1.5-0.6
				c14.7,2.2,38.8,1.3,60-20.6C1067.5,240.9,1067.5,240.9,1067.5,241z"/>
			<path class="st20" d="M1007.4,261.5c-0.5,0.2-1,0.4-1.5,0.6c-1.1-0.5-2.3-1-3.3-1.5C1004,260.9,1005.6,261.2,1007.4,261.5z"/>
			<path class="st20" d="M1067.8,240.4c-0.1,0.2-0.2,0.4-0.3,0.5c0,0-0.1-0.1-0.1-0.1C1067.5,240.7,1067.7,240.6,1067.8,240.4z"/>
			<path class="st12" d="M1080.9,213.7c0,0-1.5,1.3-2.1,1.9c0.4-0.5,0.9-1,1.4-1.4C1080.4,214.1,1080.6,213.9,1080.9,213.7
				C1080.9,213.7,1080.9,213.7,1080.9,213.7z"/>
			<circle class="st11" cx="1007.9" cy="224.3" r="4.4"/>
			<circle class="st11" cx="1044.3" cy="212.1" r="4.4"/>
			<g>
				<path class="st11" d="M1047.2,229.2c-1.2,3.2-4.8,4.9-8,5.1c-4.1,0.3-7.5-2-8.9-5.9c-0.6-1.7-3.1-0.8-2.6,0.9
					c1.2,3.8,0.3,7.7-3.1,9.9c-2.9,1.9-6.7,2.4-9.9,0.9c-1.6-0.8-2.8,1.7-1.2,2.5c4.1,2,9.2,1.4,12.8-1.2c4.3-3,5.5-8.1,4-12.9
					c-0.9,0.3-1.7,0.6-2.6,0.9c1.7,5,6.1,8,11.4,7.8c4.2-0.2,9-2.5,10.6-6.6C1050.2,228.8,1047.8,227.5,1047.2,229.2L1047.2,229.2z"
					/>
			</g>
			<path class="st11" d="M1030.5,229l1-2.8c0.3-0.9-0.4-1.7-1.6-1.3l-3.8,1.3c-1.2,0.4-1.3,1.4-0.5,2l2.4,1.6
				C1028.7,230.4,1030.1,229.9,1030.5,229z"/>
			<g>
				<path class="st11" d="M993.3,234.7c-5.6,0.5-11.1,1-16.7,1.5c-0.8,0.1-1.6,0.1-2.3,0.2c-1.8,0.2-1.6,2.9,0.1,2.7
					c5.6-0.5,11.1-1,16.7-1.5c0.8-0.1,1.6-0.1,2.3-0.2C995.2,237.3,995,234.6,993.3,234.7L993.3,234.7z"/>
			</g>
			<g>
				<path class="st11" d="M996,245.2c-3.6,3.3-7.2,6.6-10.8,9.8c-0.5,0.5-1,0.9-1.5,1.4c-0.5,0.5-0.4,1.5,0.1,1.9
					c0.6,0.5,1.4,0.4,1.9-0.1c3.6-3.3,7.2-6.6,10.8-9.8c0.5-0.5,1-0.9,1.5-1.4c0.5-0.5,0.4-1.5-0.1-1.9
					C997.3,244.5,996.5,244.7,996,245.2L996,245.2z"/>
			</g>
			<g>
				<path class="st11" d="M991.7,240.7c-3.1,1.5-6.2,3-9.3,4.5c-0.4,0.2-0.9,0.4-1.3,0.6c-0.7,0.3-1.1,1-0.9,1.7
					c0.2,0.6,1.1,1.2,1.7,0.9c3.1-1.5,6.2-3,9.3-4.5c0.4-0.2,0.9-0.4,1.3-0.6c0.7-0.3,1.1-1,0.9-1.7
					C993.3,240.9,992.4,240.4,991.7,240.7L991.7,240.7z"/>
			</g>
			<g>
				<path class="st11" d="M1064.7,212.4c4.8-2.9,9.5-5.9,14.3-8.8c0.7-0.4,1.3-0.8,2-1.2c1.5-0.9,0-3.2-1.5-2.3
					c-4.8,2.9-9.5,5.9-14.3,8.8c-0.7,0.4-1.3,0.8-2,1.2C1061.7,211.1,1063.2,213.3,1064.7,212.4L1064.7,212.4z"/>
			</g>
			<g>
				<path class="st11" d="M1066.8,222.8c4.9,0.4,9.7,0.9,14.6,1.3c0.7,0.1,1.4,0.1,2.1,0.2c0.7,0.1,1.5-0.3,1.6-1.1
					c0.1-0.7-0.3-1.6-1.1-1.6c-4.9-0.4-9.7-0.9-14.6-1.3c-0.7-0.1-1.4-0.1-2.1-0.2c-0.7-0.1-1.5,0.3-1.6,1.1
					C1065.6,221.8,1066,222.7,1066.8,222.8L1066.8,222.8z"/>
			</g>
			<g>
				<path class="st11" d="M1068.9,216.6c3.4-0.7,6.8-1.3,10.1-2c0.5-0.1,1-0.2,1.4-0.3c0.7-0.1,1.1-1.1,0.9-1.7
					c-0.3-0.8-1-1-1.7-0.9c-3.4,0.7-6.8,1.3-10.1,2c-0.5,0.1-1,0.2-1.4,0.3c-0.7,0.1-1.1,1.1-0.9,1.7
					C1067.4,216.5,1068.1,216.7,1068.9,216.6L1068.9,216.6z"/>
			</g>
		</g>
		<g style="clip-path:url(#SVGID_00000091700859041136043270000008852687173622464404_);">
			<path class="st12" d="M849.4,121.7c5.9-9.5,14.5-14.7,24.1-16.4c0.2-0.1,0.5-0.1,0.7-0.1c0,0.1,0,0.1,0,0.2
				c35.1,2.8,53.6,23.6,62.4,38.3c1.1,1.8,2,3.4,2.8,5c2,9.1,0.8,18.6-4.7,27.6c-2.1,3.4-4.4,6.6-7,9.5c-0.9,1.1-1.9,2.1-2.8,3
				c-0.6,0.6-1.1,1.1-1.7,1.6c-0.3,0.3-0.6,0.5-0.9,0.8c-0.2,0.1-0.3,0.3-0.5,0.4c-0.1,0.1-0.1,0.1-0.2,0.2
				c-6.8,5.9-16.4,9.9-26,10.7c-0.1,0-0.2,0-0.2,0c-0.3,0-0.7,0-1,0c-0.3,0-0.7,0-1,0c-0.2,0-0.3,0-0.4,0c-0.1,0-0.3,0-0.4,0
				c-2.3-0.1-7.8-1.1-7.8-1.1c0,0,0,0.1,0.1,0.1c-1.6-0.3-3.3-0.8-3.3-0.8c-5.7-1.5-11.7-4.2-18.1-8.2c-5.3-3.3-9.7-6.8-13.1-10.5
				c0,0-0.1-0.1-0.1-0.1c-1.5-1.5-2.8-3.1-3.9-4.7c-0.2-0.2-0.3-0.4-0.5-0.7c-1.3-1.9-2.4-3.7-3.3-5.6c-4.6-9.4-4.7-19.4-2.1-29
				c0.2-0.7,0.4-1.3,0.6-2c0.4-1.2,0.8-2.4,1.2-3.6c0-0.1,0.1-0.2,0.1-0.3c0.3-0.9,0.7-1.8,1.1-2.7
				C844.9,129.4,847,125.5,849.4,121.7z"/>
			<path class="st12" d="M895.6,202.4c9.7-0.8,19.2-4.9,26-10.7C914.3,197.9,905.6,202,895.6,202.4z"/>
			<path class="st12" d="M884.7,201.4c0,0,5.5,0.9,7.8,1.1c-1.8,0-3.6-0.2-5.5-0.5c-0.6-0.1-1.4-0.3-2.2-0.4
				C884.7,201.5,884.7,201.4,884.7,201.4z"/>
			<path class="st13" d="M884.7,201.4c0,0,5.5,0.9,7.8,1.1c0.1,0,0.3,0,0.4,0c0.1,0,0.3,0,0.4,0c0.4,0,0.7,0,1,0c0.3,0,0.7,0,1,0
				c0.1,0,0.1,0,0.2,0c10.1-0.4,18.8-4.5,26-10.7c0.1-0.1,0.1-0.1,0.2-0.2c0.2-0.1,0.3-0.3,0.5-0.4c0.3-0.3,0.6-0.5,0.9-0.8
				c0.6-0.5,1.1-1,1.7-1.6c1-1,1.9-2,2.8-3c-0.4,12.6-7.5,31.4-14.6,38.9c-1.2,1.3-3.2,1.6-4.7,0.7c-6.3-3.8-20-14.7-23.7-23.7
				C884.7,201.5,884.7,201.4,884.7,201.4z"/>
			<path class="st13" d="M843.2,133.4c-0.4,0.9-0.7,1.8-1.1,2.7c0,0.1-0.1,0.2-0.1,0.3c-0.4,1.2-0.8,2.4-1.2,3.6
				c-3.1,10.3-3.4,20.9,1.5,31c0.9,1.9,1.1,3.3,3.7,6.4c-10.3,1.3-23.1-4.8-29.3-9.1c-1.6-1.1-2.2-3.2-1.5-5
				C818.8,153.7,832.2,139.3,843.2,133.4z"/>
			<path class="st14" d="M891.4,202.6c1,0,2,0,3-0.1c0.3,0,0.6,0,0.9-0.1c0.1,0,0.1,0,0.2,0c9.7-0.8,19.2-4.9,26-10.7
				c0.1-0.1,0.1-0.1,0.2-0.2c0.2-0.1,0.3-0.3,0.5-0.4c0.3-0.3,0.6-0.5,0.9-0.8c-2.7,11.7-7.5,21-10.3,25.6c-1.1,1.9-3.6,2.5-5.4,1.3
				C903.5,214.6,894.9,209.6,891.4,202.6z"/>
			<path class="st14" d="M823.1,159.2c3.3-4.8,9.3-12.3,17.7-19.2c-0.2,0.7-0.4,1.3-0.6,2c-2.4,9.1-2.5,18.4,1.3,27.3
				c0.2,0.6,0.5,1.1,0.8,1.7c-3.8,2.2-12-1.3-17.4-4.1C822.1,165.4,821.3,161.8,823.1,159.2z"/>
			<path class="st15" d="M897.1,169.7c-1.4-6.2,11-11,19.3-5.8c8.3,5.2,0.2,12.2,0,19.7c-0.2,8.8-7.7,11.3-16,6.1
				C892.1,184.4,898.7,176.9,897.1,169.7z"/>
			<path class="st16" d="M840.2,142c0.1,0,0.2-0.1,0.3-0.1c13.6-3.2,28.9-17.8,24.8-3.9c-4.3,14.4,18.3,23.3,9.3,28.1
				c-12.3,6.6-18.5-3.9-26.4,8.9c-0.7,1.1-1.4,1.9-2.1,2.3c-0.2-0.2-0.3-0.4-0.5-0.7c-1.3-1.9-2.4-3.7-3.3-5.6
				C837.7,161.5,837.6,151.6,840.2,142z"/>
			<path class="st17" d="M874.2,105.3c35.1,2.8,53.6,23.6,62.4,38.3c-6.8-3.7-18.4-10.2-31.8-9.3c-9.9,0.6-6.7-25.1-22.8-23.2
				C876.3,111.8,874.3,109.1,874.2,105.3z"/>
			<path class="st18" d="M894.3,202.5c0.3,0,0.7,0,1,0c0.1,0,0.1,0,0.2,0c9.7-0.8,19.2-4.9,26-10.7
				C911.5,207.4,901.2,206.3,894.3,202.5C894.4,202.5,894.4,202.5,894.3,202.5z"/>
			<path class="st18" d="M840.2,142c-2.4,9.1-2.5,18.4,1.3,27.3C837.1,165.8,830.3,157.3,840.2,142z"/>
			<path class="st19" d="M874.2,105.1c12.8-2.1,27.2,1.7,39.4,9.2c11.6,7.2,20.8,18.1,24.8,30.1c-0.5-0.3-1.1-0.6-1.7-0.9
				c-8.8-14.7-27.3-35.5-62.4-38.3C874.2,105.2,874.2,105.2,874.2,105.1z"/>
			<path class="st20" d="M936.7,143.6c0.6,0.3,1.1,0.6,1.7,0.9c0.4,1.4,0.8,2.7,1.1,4.1C938.6,147,937.7,145.3,936.7,143.6z"/>
			<path class="st20" d="M873.5,105.3c0.2-0.1,0.5-0.1,0.7-0.1c0,0.1,0,0.1,0,0.2C874,105.3,873.7,105.3,873.5,105.3z"/>
			<path class="st12" d="M840.1,113.3c0,0,2.3,0.4,3.3,0.4c-0.8,0-1.5-0.1-2.3-0.2C840.9,113.5,840.5,113.4,840.1,113.3
				C840.2,113.3,840.2,113.3,840.1,113.3z"/>
			<circle class="st11" cx="903.2" cy="170.5" r="5.1"/>
			<circle class="st11" cx="865.6" cy="147.1" r="5.1"/>
			<g>
				<path class="st11" d="M878.7,131.9c3.7-1.2,7.9,0.7,10.4,3.4c3.3,3.5,3.7,8.2,1.2,12.2c-1.1,1.7,1.6,3.4,2.7,1.7
					c2.5-3.9,6.6-5.9,11.1-4.5c3.8,1.1,7.1,4.2,8.1,8.1c0.5,2,3.6,1.3,3.1-0.7c-1.3-5.1-5.5-9.2-10.5-10.5c-5.8-1.6-11.2,1-14.4,6
					c0.9,0.6,1.8,1.1,2.7,1.7c3.1-5.2,2.7-11.3-1.4-15.8c-3.3-3.6-8.8-6.2-13.7-4.5C876,129.5,876.7,132.6,878.7,131.9L878.7,131.9z
					"/>
			</g>
			<path class="st11" d="M890.8,146.9l-3.2,1.2c-1,0.4-1.2,1.6,0.1,2.4l3.9,2.4c1.3,0.8,2.3,0.1,2.1-1l-0.4-3.4
				C893.3,147.4,891.9,146.5,890.8,146.9z"/>
			<g>
				<path class="st11" d="M923.2,175.8c4.6,4.6,9.1,9.2,13.7,13.7c0.6,0.6,1.3,1.3,1.9,1.9c1.4,1.4,3.8-0.7,2.3-2.1
					c-4.6-4.6-9.1-9.2-13.7-13.7c-0.6-0.6-1.3-1.3-1.9-1.9C924.1,172.2,921.8,174.3,923.2,175.8L923.2,175.8z"/>
			</g>
			<g>
				<path class="st11" d="M930.5,165.7c5.6,0.8,11.1,1.6,16.7,2.4c0.8,0.1,1.6,0.2,2.4,0.3c0.8,0.1,1.6-0.8,1.6-1.5
					c0-0.9-0.7-1.5-1.5-1.6c-5.6-0.8-11.1-1.6-16.7-2.4c-0.8-0.1-1.6-0.2-2.4-0.3c-0.8-0.1-1.6,0.8-1.6,1.5
					C929,165,929.7,165.6,930.5,165.7L930.5,165.7z"/>
			</g>
			<g>
				<path class="st11" d="M929.7,172.8c3.6,1.7,7.2,3.3,10.9,5c0.5,0.2,1,0.5,1.5,0.7c0.8,0.4,1.7,0.3,2.2-0.5
					c0.4-0.7,0.3-1.8-0.5-2.2c-3.6-1.7-7.2-3.3-10.9-5c-0.5-0.2-1-0.5-1.5-0.7c-0.8-0.4-1.7-0.3-2.2,0.5
					C928.7,171.2,928.9,172.4,929.7,172.8L929.7,172.8z"/>
			</g>
			<g>
				<path class="st11" d="M850.9,128.6c-6.1-2.1-12.2-4.1-18.4-6.2c-0.9-0.3-1.7-0.6-2.6-0.9c-1.9-0.7-2.8,2.4-0.9,3
					c6.1,2.1,12.2,4.1,18.4,6.2c0.9,0.3,1.7,0.6,2.6,0.9C851.9,132.3,852.8,129.3,850.9,128.6L850.9,128.6z"/>
			</g>
			<g>
				<path class="st11" d="M858.6,119.2c-3.2-4.6-6.4-9.3-9.6-13.9c-0.4-0.7-0.9-1.3-1.3-2c-0.5-0.7-1.3-1.1-2.1-0.7
					c-0.7,0.4-1.1,1.4-0.7,2.1c3.2,4.6,6.4,9.3,9.6,13.9c0.4,0.7,0.9,1.3,1.3,2c0.5,0.7,1.3,1.1,2.1,0.7
					C858.6,121,859.1,119.9,858.6,119.2L858.6,119.2z"/>
			</g>
			<g>
				<path class="st11" d="M851.5,121.9c-3.1-2.5-6.2-5-9.3-7.5c-0.4-0.4-0.9-0.7-1.3-1.1c-0.7-0.5-1.8-0.2-2.2,0.5
					c-0.5,0.8-0.2,1.6,0.5,2.2c3.1,2.5,6.2,5,9.3,7.5c0.4,0.4,0.9,0.7,1.3,1.1c0.7,0.5,1.8,0.2,2.2-0.5
					C852.5,123.3,852.2,122.4,851.5,121.9L851.5,121.9z"/>
			</g>
		</g>
		<g style="clip-path:url(#SVGID_00000091700859041136043270000008852687173622464404_);">
			<path class="st12" d="M787.3,3.7c11,1.8,19.1,7.8,24.4,16c0.1,0.2,0.3,0.4,0.4,0.6c-0.1,0-0.1,0-0.2,0.1
				c10.9,33.5-1.2,58.6-11.4,72.3c-1.2,1.7-2.4,3.1-3.5,4.5c-7.6,5.3-16.9,7.9-27.3,6.2c-3.9-0.6-7.8-1.6-11.5-2.8
				c-1.3-0.4-2.6-0.9-3.9-1.5c-0.7-0.3-1.4-0.6-2.1-0.9c-0.4-0.2-0.7-0.3-1.1-0.5c-0.2-0.1-0.4-0.2-0.6-0.3c-0.1,0-0.2-0.1-0.2-0.1
				c-8-4.1-15.4-11.3-19.9-19.9c0-0.1-0.1-0.1-0.1-0.2c-0.2-0.3-0.3-0.6-0.4-0.9c-0.1-0.3-0.3-0.6-0.4-1c-0.1-0.1-0.1-0.3-0.2-0.4
				c0-0.1-0.1-0.2-0.1-0.4c-0.7-2.1-2-7.6-2-7.6c0,0-0.1,0.1-0.1,0.1c-0.3-1.6-0.6-3.3-0.6-3.3c-0.8-5.9-0.6-12.4,0.6-19.8
				c1-6.2,2.6-11.5,4.6-16.1c0-0.1,0.1-0.1,0.1-0.2c0.9-2,1.8-3.8,2.9-5.5c0.1-0.2,0.3-0.5,0.4-0.7c1.2-1.9,2.5-3.6,3.9-5.2
				c7-7.9,16.1-11.8,26-13.1c0.7-0.1,1.4-0.2,2-0.2c1.2-0.1,2.5-0.2,3.8-0.2c0.1,0,0.2,0,0.3,0c1,0,1.9,0,2.9,0
				C778.5,2.6,782.9,3,787.3,3.7z"/>
			<path class="st12" d="M730.4,77.3c4.5,8.6,11.9,15.8,19.9,19.9C741.8,92.9,734.7,86.5,730.4,77.3z"/>
			<path class="st12" d="M727.2,66.9c0,0,1.3,5.4,2,7.6c-0.6-1.7-1.2-3.4-1.6-5.2c-0.1-0.6-0.3-1.4-0.5-2.2
				C727.2,67,727.2,66.9,727.2,66.9z"/>
			<path class="st13" d="M727.2,66.9c0,0,1.3,5.4,2,7.6c0.1,0.1,0.1,0.3,0.1,0.4c0.1,0.1,0.1,0.3,0.2,0.4c0.1,0.3,0.3,0.6,0.4,1
				c0.1,0.3,0.3,0.6,0.4,0.9c0,0.1,0.1,0.1,0.1,0.2c4.2,9.1,11.4,15.6,19.9,19.9c0.1,0.1,0.2,0.1,0.2,0.1c0.2,0.1,0.4,0.2,0.6,0.3
				c0.4,0.2,0.7,0.4,1.1,0.5c0.7,0.3,1.4,0.6,2.1,0.9c1.3,0.5,2.6,1,3.9,1.5c-11.8,4.5-31.9,5.1-41.5,1.4c-1.7-0.6-2.7-2.3-2.4-4.1
				c1.1-7.3,5.9-24.1,12.8-30.9C727.2,67,727.2,66.9,727.2,66.9z"/>
			<path class="st13" d="M774.1,2.5c-1,0-1.9,0-2.9,0c-0.1,0-0.2,0-0.3,0c-1.3,0-2.5,0.1-3.8,0.2c-10.7,1-20.6,4.9-28,13.3
				c-1.4,1.6-2.6,2.3-4.5,5.8c-5.1-9-4.4-23.2-2.8-30.6c0.4-1.9,2.1-3.3,4-3.3C746-12.2,764.4-5.4,774.1,2.5z"/>
			<path class="st14" d="M728.7,73.5c0.4,0.9,0.8,1.8,1.2,2.8c0.1,0.3,0.3,0.6,0.4,0.8c0,0.1,0.1,0.1,0.1,0.2
				c4.5,8.6,11.9,15.8,19.9,19.9c0.1,0.1,0.2,0.1,0.2,0.1c0.2,0.1,0.4,0.2,0.6,0.3c0.4,0.2,0.7,0.4,1.1,0.5
				c-11.8,1.9-22.2,1.1-27.6,0.3c-2.2-0.3-3.7-2.4-3.3-4.5C722.2,89.3,723.6,79.5,728.7,73.5z"/>
			<path class="st14" d="M742.6-6.2c5.7,1.2,14.9,3.8,24.5,9c-0.7,0.1-1.3,0.1-2,0.2c-9.3,1.2-18,4.7-24.7,11.7
				c-0.4,0.4-0.9,0.9-1.3,1.4c-3.5-2.6-3.4-11.6-2.9-17.6C736.5-4.7,739.5-6.9,742.6-6.2z"/>
			<path class="st15" d="M761.3,66.2c5.2-3.6,14.4,5.9,12.8,15.6S763,86.7,756,89.3c-8.2,3.1-13.4-2.8-11.8-12.5
				S755.2,70.5,761.3,66.2z"/>
			<path class="st16" d="M765.1,3c0.1,0.1,0.2,0.2,0.2,0.3c8.1,11.4,27.5,19.9,13.1,21.4c-14.9,1.5-14.5,25.8-22.4,19.4
				c-10.8-8.8-3.5-18.5-18.3-21c-1.3-0.2-2.3-0.6-2.9-1.1c0.1-0.2,0.3-0.5,0.4-0.7c1.2-1.9,2.5-3.6,3.9-5.2
				C746,8.2,755.2,4.4,765.1,3z"/>
			<path class="st17" d="M812,20.4c10.9,33.5-1.2,58.6-11.4,72.3c0.8-7.7,2.3-20.9-3.6-32.9c-4.4-8.9,20.6-15.8,12.6-30
				C806.8,24.8,808.5,21.9,812,20.4z"/>
			<path class="st18" d="M729.9,76.2c0.1,0.3,0.3,0.6,0.4,0.9c0,0.1,0.1,0.1,0.1,0.2c4.5,8.6,11.9,15.8,19.9,19.9
				C731.9,93.9,729,84,729.9,76.2C729.9,76.3,729.9,76.2,729.9,76.2z"/>
			<path class="st18" d="M765.1,3c-9.3,1.2-18,4.7-24.7,11.7C741.9,9.3,747.1-0.2,765.1,3z"/>
			<path class="st19" d="M812.1,20.3c6.9,11,8.9,25.8,6.6,39.9c-2.2,13.5-8.7,26.2-18.4,34.4c0-0.6,0.1-1.2,0.2-1.9
				C810.7,79,822.8,53.9,812,20.4C812,20.4,812.1,20.3,812.1,20.3z"/>
			<path class="st20" d="M800.5,92.7c-0.1,0.7-0.1,1.3-0.2,1.9c-1.1,0.9-2.2,1.8-3.4,2.6C798.1,95.9,799.3,94.4,800.5,92.7z"/>
			<path class="st20" d="M811.7,19.7c0.1,0.2,0.3,0.4,0.4,0.6c-0.1,0-0.1,0-0.2,0.1C811.9,20.2,811.8,19.9,811.7,19.7z"/>
			<path class="st12" d="M791.6-8c0,0,0.5,2.3,0.8,3.2c-0.3-0.7-0.5-1.4-0.7-2.2C791.7-7.3,791.6-7.6,791.6-8
				C791.5-8,791.5-8,791.6-8z"/>
			<circle class="st11" cx="762.9" cy="72.1" r="5.1"/>
			<circle class="st11" cx="770.1" cy="28.5" r="5.1"/>
			<g>
				<path class="st11" d="M789.1,34.7c2.6,3,2.4,7.5,0.9,10.9c-2,4.4-6.1,6.6-10.8,5.8c-2-0.3-2.5,2.8-0.5,3.1
					c4.5,0.8,8,3.8,8.5,8.5c0.4,3.9-1.2,8.2-4.4,10.5c-1.6,1.2,0.2,3.8,1.8,2.6c4.2-3.1,6.3-8.6,5.7-13.7c-0.8-6-5.3-10-11.1-11
					c-0.2,1-0.3,2.1-0.5,3.1c6,0.9,11.5-1.9,14.1-7.4c2.1-4.4,2.3-10.5-1-14.4C790.3,31.3,787.8,33.2,789.1,34.7L789.1,34.7z"/>
			</g>
			<path class="st11" d="M779.9,51.7l-2.3-2.5c-0.7-0.8-1.9-0.5-2.1,1l-0.8,4.6c-0.2,1.5,0.8,2.1,1.7,1.6l3-1.6
				C780.4,54.2,780.7,52.5,779.9,51.7z"/>
			<g>
				<path class="st11" d="M765.6,92.7c-2.5,6-5,11.9-7.4,17.9c-0.3,0.8-0.7,1.7-1,2.5c-0.8,1.9,2.1,3.2,2.9,1.3
					c2.5-6,5-11.9,7.4-17.9c0.3-0.8,0.7-1.7,1-2.5C769.3,92.1,766.4,90.8,765.6,92.7L765.6,92.7z"/>
			</g>
			<g>
				<path class="st11" d="M777.8,95.6c1.4,5.5,2.8,10.9,4.2,16.4c0.2,0.8,0.4,1.5,0.6,2.3c0.2,0.8,1.3,1.2,2,0.9
					c0.9-0.3,1.1-1.2,0.9-2c-1.4-5.5-2.8-10.9-4.2-16.4c-0.2-0.8-0.4-1.5-0.6-2.3c-0.2-0.8-1.3-1.2-2-0.9
					C777.8,93.9,777.5,94.7,777.8,95.6L777.8,95.6z"/>
			</g>
			<g>
				<path class="st11" d="M770.9,97.4c-0.1,4-0.3,8-0.4,11.9c0,0.6,0,1.1-0.1,1.7c0,0.9,0.4,1.7,1.3,1.8c0.8,0.1,1.8-0.4,1.8-1.3
					c0.1-4,0.3-8,0.4-11.9c0-0.6,0-1.1,0.1-1.7c0-0.9-0.4-1.7-1.3-1.8C772,96,770.9,96.6,770.9,97.4L770.9,97.4z"/>
			</g>
			<g>
				<path class="st11" d="M781.5,7.8c-0.4-6.4-0.9-12.9-1.3-19.3c-0.1-0.9-0.1-1.8-0.2-2.7c-0.1-2-3.3-1.7-3.1,0.3
					c0.4,6.4,0.9,12.9,1.3,19.3c0.1,0.9,0.1,1.8,0.2,2.7C778.5,10.1,781.6,9.8,781.5,7.8L781.5,7.8z"/>
			</g>
			<g>
				<path class="st11" d="M793.2,11.3c3.1-4.7,6.1-9.4,9.2-14.2c0.4-0.7,0.9-1.3,1.3-2c0.5-0.7,0.5-1.6-0.2-2.2
					c-0.6-0.5-1.8-0.5-2.2,0.2c-3.1,4.7-6.1,9.4-9.2,14.2c-0.4,0.7-0.9,1.3-1.3,2c-0.5,0.7-0.5,1.6,0.2,2.2
					C791.5,12,792.7,12,793.2,11.3L793.2,11.3z"/>
			</g>
			<g>
				<path class="st11" d="M788,5.8c1.1-3.8,2.3-7.6,3.4-11.4c0.2-0.5,0.3-1.1,0.5-1.6c0.2-0.8-0.5-1.7-1.3-1.8
					c-0.9-0.2-1.6,0.5-1.8,1.3c-1.1,3.8-2.3,7.6-3.4,11.4c-0.2,0.5-0.3,1.1-0.5,1.6c-0.2,0.8,0.5,1.7,1.3,1.8
					C787.1,7.2,787.7,6.6,788,5.8L788,5.8z"/>
			</g>
		</g>
		<g style="clip-path:url(#SVGID_00000091700859041136043270000008852687173622464404_);">
			<path class="st12" d="M54.8,256.1c-4.8,7.6-11.7,11.8-19.4,13.1c-0.2,0-0.4,0.1-0.6,0.1c0-0.1,0-0.1,0-0.1
				c-28.2-2.3-43-19-50.1-30.9c-0.8-1.4-1.6-2.8-2.2-4c-1.6-7.3-0.6-15,3.9-22.1c1.7-2.7,3.6-5.3,5.6-7.6c0.7-0.8,1.5-1.7,2.3-2.4
				c0.4-0.4,0.9-0.9,1.4-1.3c0.2-0.2,0.5-0.4,0.7-0.7c0.1-0.1,0.3-0.2,0.4-0.3c0.1,0,0.1-0.1,0.2-0.1c5.5-4.7,13.2-7.9,20.9-8.6
				c0.1,0,0.1,0,0.2,0c0.3,0,0.5,0,0.8,0c0.3,0,0.6,0,0.8,0c0.1,0,0.2,0,0.3,0c0.1,0,0.2,0,0.3,0c1.8,0.1,6.2,0.9,6.2,0.9
				c0,0,0-0.1,0-0.1c1.3,0.3,2.6,0.6,2.6,0.6c4.6,1.3,9.4,3.4,14.5,6.6c4.3,2.7,7.8,5.5,10.5,8.4c0,0,0.1,0.1,0.1,0.1
				c1.2,1.2,2.2,2.5,3.2,3.8c0.1,0.2,0.2,0.3,0.4,0.5c1,1.5,1.9,3,2.7,4.5c3.7,7.6,3.7,15.6,1.6,23.3c-0.2,0.5-0.3,1.1-0.5,1.6
				c-0.3,1-0.6,1.9-1,2.9c0,0.1-0.1,0.2-0.1,0.2c-0.3,0.7-0.6,1.5-0.9,2.2C58.4,249.9,56.7,253,54.8,256.1z"/>
			<path class="st12" d="M17.9,191.1c-7.8,0.6-15.4,3.9-20.9,8.6C2.8,194.7,9.8,191.4,17.9,191.1z"/>
			<path class="st12" d="M26.6,192c0,0-4.4-0.7-6.2-0.9c1.4,0,2.9,0.2,4.4,0.4c0.5,0.1,1.1,0.2,1.8,0.4
				C26.6,191.9,26.6,191.9,26.6,192z"/>
			<path class="st13" d="M26.6,192c0,0-4.4-0.7-6.2-0.9c-0.1,0-0.2,0-0.3,0c-0.1,0-0.2,0-0.3,0c-0.3,0-0.6,0-0.8,0
				c-0.3,0-0.5,0-0.8,0c-0.1,0-0.1,0-0.2,0c-8.1,0.3-15.1,3.6-20.9,8.6c-0.1,0-0.1,0.1-0.2,0.1c-0.1,0.1-0.3,0.2-0.4,0.3
				c-0.2,0.2-0.5,0.4-0.7,0.7c-0.5,0.4-0.9,0.8-1.4,1.3c-0.8,0.8-1.5,1.6-2.3,2.4c0.3-10.1,6.1-25.2,11.8-31.2c1-1,2.5-1.3,3.8-0.5
				c5.1,3.1,16.1,11.8,19,19C26.6,191.9,26.6,191.9,26.6,192z"/>
			<path class="st13" d="M59.8,246.7c0.3-0.7,0.6-1.4,0.9-2.2c0-0.1,0.1-0.2,0.1-0.2c0.4-1,0.7-1.9,1-2.9c2.5-8.2,2.7-16.8-1.2-24.9
				c-0.7-1.5-0.9-2.6-3-5.1c8.2-1,18.5,3.9,23.5,7.4c1.3,0.9,1.8,2.5,1.2,4C79.5,230.4,68.7,241.9,59.8,246.7z"/>
			<path class="st14" d="M21.3,191c-0.8,0-1.6,0-2.4,0.1c-0.2,0-0.5,0-0.7,0c-0.1,0-0.1,0-0.2,0c-7.8,0.6-15.4,3.9-20.9,8.6
				c-0.1,0-0.1,0.1-0.2,0.1c-0.1,0.1-0.3,0.2-0.4,0.3c-0.2,0.2-0.5,0.4-0.7,0.7C-2,191.4,1.8,184,4,180.3c0.9-1.5,2.9-2,4.4-1
				C11.6,181.4,18.4,185.4,21.3,191z"/>
			<path class="st14" d="M76,226c-2.7,3.8-7.5,9.9-14.3,15.4c0.2-0.5,0.3-1,0.5-1.6c2-7.3,2-14.8-1-22c-0.2-0.5-0.4-0.9-0.6-1.4
				c3-1.8,9.6,1.1,13.9,3.3C76.8,221,77.5,223.9,76,226z"/>
			<path class="st15" d="M16.6,217.5c1.1,5-8.9,8.8-15.5,4.7s-0.1-9.8,0.1-15.8c0.2-7.1,6.2-9.1,12.9-4.9S15.3,211.6,16.6,217.5z"/>
			<path class="st16" d="M62.2,239.8c-0.1,0-0.2,0.1-0.3,0.1c-10.9,2.5-23.3,14.2-19.9,3.1c3.5-11.6-14.6-18.7-7.4-22.6
				c9.9-5.3,14.8,3.1,21.2-7.1c0.6-0.9,1.1-1.5,1.7-1.8c0.1,0.2,0.2,0.3,0.4,0.5c1,1.5,1.9,3,2.7,4.5
				C64.3,224.1,64.3,232.1,62.2,239.8z"/>
			<path class="st17" d="M34.9,269.2c-28.2-2.3-43-19-50.1-30.9c5.5,3,14.8,8.2,25.5,7.6c7.9-0.5,5.4,20.1,18.3,18.6
				C33.2,264,34.8,266.2,34.9,269.2z"/>
			<path class="st18" d="M18.9,191.1c-0.3,0-0.5,0-0.8,0c-0.1,0-0.1,0-0.2,0c-7.8,0.6-15.4,3.9-20.9,8.6
				C5.2,187.1,13.4,188,18.9,191.1C18.9,191.1,18.9,191.1,18.9,191.1z"/>
			<path class="st18" d="M62.2,239.8c2-7.3,2-14.8-1-22C64.8,220.7,70.2,227.5,62.2,239.8z"/>
			<path class="st19" d="M34.9,269.3c-10.3,1.7-21.9-1.4-31.6-7.5c-9.3-5.8-16.7-14.6-19.8-24.3c0.4,0.2,0.9,0.5,1.3,0.7
				c7,11.8,21.9,28.6,50.1,30.9C34.9,269.2,34.9,269.3,34.9,269.3z"/>
			<path class="st20" d="M-15.2,238.3c-0.5-0.3-0.9-0.5-1.3-0.7c-0.3-1.1-0.7-2.2-0.9-3.3C-16.8,235.5-16.1,236.9-15.2,238.3z"/>
			<path class="st20" d="M35.4,269.2c-0.2,0-0.4,0.1-0.6,0.1c0-0.1,0-0.1,0-0.1C35.1,269.2,35.2,269.2,35.4,269.2z"/>
			<path class="st12" d="M62.2,262.9c0,0-1.8-0.3-2.6-0.4c0.6,0,1.2,0.1,1.8,0.2C61.7,262.7,61.9,262.8,62.2,262.9
				C62.2,262.8,62.2,262.8,62.2,262.9z"/>
			<circle class="st11" cx="11.7" cy="216.8" r="4.1"/>
			<circle class="st11" cx="41.9" cy="235.7" r="4.1"/>
			<g>
				<path class="st11" d="M31.3,247.8c-3,1-6.3-0.5-8.4-2.7c-2.6-2.8-3-6.6-1-9.8c0.8-1.4-1.3-2.7-2.2-1.3c-2,3.1-5.3,4.7-8.9,3.6
					c-3-0.9-5.7-3.4-6.4-6.5c-0.4-1.6-2.9-1-2.5,0.6c1,4.1,4.4,7.4,8.4,8.5c4.7,1.3,9-0.8,11.6-4.8c-0.7-0.4-1.4-0.9-2.2-1.3
					c-2.5,4.2-2.2,9.1,1.1,12.7c2.6,2.9,7.1,5,11,3.7C33.4,249.8,32.9,247.3,31.3,247.8L31.3,247.8z"/>
			</g>
			<path class="st11" d="M21.6,235.8l2.5-0.9c0.8-0.3,1-1.2-0.1-1.9l-3.1-2c-1-0.6-1.8-0.1-1.7,0.8l0.3,2.7
				C19.6,235.3,20.8,236.1,21.6,235.8z"/>
			<g>
				<path class="st11" d="M-4.4,212.5c-3.6-3.7-7.3-7.4-10.9-11.1c-0.5-0.5-1-1-1.5-1.6c-1.1-1.2-3,0.6-1.9,1.7
					c3.6,3.7,7.3,7.4,10.9,11.1c0.5,0.5,1,1,1.5,1.6C-5.1,215.4-3.2,213.6-4.4,212.5L-4.4,212.5z"/>
			</g>
			<g>
				<path class="st11" d="M-10.2,220.6c-4.5-0.7-8.9-1.3-13.4-2c-0.6-0.1-1.3-0.2-1.9-0.3c-0.7-0.1-1.3,0.6-1.3,1.2
					c0,0.8,0.5,1.2,1.2,1.3c4.5,0.7,8.9,1.3,13.4,2c0.6,0.1,1.3,0.2,1.9,0.3c0.7,0.1,1.3-0.6,1.3-1.2C-9,221.1-9.6,220.7-10.2,220.6
					L-10.2,220.6z"/>
			</g>
			<g>
				<path class="st11" d="M-9.5,214.9c-2.9-1.3-5.8-2.7-8.7-4c-0.4-0.2-0.8-0.4-1.2-0.6c-0.6-0.3-1.4-0.2-1.8,0.4
					c-0.3,0.5-0.2,1.5,0.4,1.8c2.9,1.3,5.8,2.7,8.7,4c0.4,0.2,0.8,0.4,1.2,0.6c0.6,0.3,1.4,0.2,1.8-0.4
					C-8.8,216.1-8.9,215.2-9.5,214.9L-9.5,214.9z"/>
			</g>
			<g>
				<path class="st11" d="M53.7,250.5c4.9,1.7,9.8,3.3,14.7,5c0.7,0.2,1.4,0.5,2.1,0.7c1.5,0.5,2.3-1.9,0.7-2.4
					c-4.9-1.7-9.8-3.3-14.7-5c-0.7-0.2-1.4-0.5-2.1-0.7C52.9,247.5,52.1,250,53.7,250.5L53.7,250.5z"/>
			</g>
			<g>
				<path class="st11" d="M47.4,258.1c2.5,3.7,5.1,7.5,7.6,11.2c0.4,0.5,0.7,1.1,1.1,1.6c0.4,0.6,1.1,0.9,1.7,0.5
					c0.6-0.3,0.9-1.1,0.5-1.7c-2.5-3.7-5.1-7.5-7.6-11.2c-0.4-0.5-0.7-1.1-1.1-1.6c-0.4-0.6-1.1-0.9-1.7-0.5
					C47.4,256.6,47.1,257.5,47.4,258.1L47.4,258.1z"/>
			</g>
			<g>
				<path class="st11" d="M53.1,255.9c2.5,2,4.9,4.1,7.4,6.1c0.4,0.3,0.7,0.6,1.1,0.9c0.5,0.4,1.4,0.1,1.8-0.4
					c0.4-0.6,0.1-1.3-0.4-1.8c-2.5-2-4.9-4.1-7.4-6.1c-0.4-0.3-0.7-0.6-1.1-0.9c-0.5-0.4-1.4-0.1-1.8,0.4
					C52.3,254.8,52.6,255.5,53.1,255.9L53.1,255.9z"/>
			</g>
		</g>
		
			<circle style="clip-path:url(#SVGID_00000091700859041136043270000008852687173622464404_);fill:#3F2D37;" cx="706.3" cy="226.6" r="3.8"/>
		
			<circle style="clip-path:url(#SVGID_00000091700859041136043270000008852687173622464404_);fill:#3F2D37;" cx="738.6" cy="219.1" r="3.8"/>
		<g style="clip-path:url(#SVGID_00000091700859041136043270000008852687173622464404_);">
			<path class="st11" d="M739.7,234c-1.3,2.6-4.5,3.8-7.3,3.7c-3.6-0.1-6.3-2.3-7.1-5.8c-0.4-1.5-2.6-1-2.3,0.5
				c0.7,3.4-0.4,6.6-3.5,8.3c-2.6,1.4-6,1.5-8.5,0c-1.3-0.8-2.6,1.2-1.2,2c3.3,2,7.8,1.9,11.1,0c3.9-2.2,5.4-6.5,4.5-10.8
				c-0.8,0.2-1.5,0.4-2.3,0.5c1.1,4.4,4.6,7.4,9.1,7.6c3.6,0.2,7.9-1.4,9.6-4.8C742.4,233.9,740.3,232.7,739.7,234L739.7,234z"/>
		</g>
		<path style="clip-path:url(#SVGID_00000091700859041136043270000008852687173622464404_);fill:#3F2D37;" d="M725.3,232.5l1.1-2.3
			c0.3-0.8-0.2-1.5-1.3-1.2l-3.4,0.8c-1.1,0.3-1.3,1.1-0.6,1.7l2,1.6C723.7,233.6,725,233.3,725.3,232.5z"/>
		<g style="clip-path:url(#SVGID_00000091700859041136043270000008852687173622464404_);">
			<path class="st11" d="M692.9,234.4c-4.8,0-9.7,0-14.5,0c-0.7,0-1.4,0-2,0c-1.5,0-1.6,2.4-0.1,2.4c4.8,0,9.7,0,14.5,0
				c0.7,0,1.4,0,2,0C694.3,236.8,694.4,234.4,692.9,234.4L692.9,234.4z"/>
		</g>
		<g style="clip-path:url(#SVGID_00000091700859041136043270000008852687173622464404_);">
			<path class="st11" d="M694.4,243.6c-3.4,2.5-6.7,5-10.1,7.6c-0.5,0.4-0.9,0.7-1.4,1.1c-0.5,0.4-0.4,1.2,0,1.7
				c0.5,0.5,1.2,0.4,1.7,0c3.4-2.5,6.7-5,10.1-7.6c0.5-0.4,0.9-0.7,1.4-1.1c0.5-0.4,0.4-1.2,0-1.7
				C695.6,243.2,694.9,243.2,694.4,243.6L694.4,243.6z"/>
		</g>
		<g style="clip-path:url(#SVGID_00000091700859041136043270000008852687173622464404_);">
			<path class="st11" d="M691.1,239.4c-2.8,1-5.6,2.1-8.4,3.1c-0.4,0.1-0.8,0.3-1.2,0.4c-0.6,0.2-1,0.7-0.9,1.4
				c0.1,0.6,0.8,1.1,1.4,0.9c2.8-1,5.6-2.1,8.4-3.1c0.4-0.1,0.8-0.3,1.2-0.4c0.6-0.2,1-0.7,0.9-1.4
				C692.4,239.7,691.7,239.2,691.1,239.4L691.1,239.4z"/>
		</g>
		<g style="clip-path:url(#SVGID_00000091700859041136043270000008852687173622464404_);">
			<path class="st11" d="M756.1,221c4.3-2.1,8.6-4.3,13-6.4c0.6-0.3,1.2-0.6,1.8-0.9c1.4-0.7,0.2-2.8-1.1-2.1
				c-4.3,2.1-8.6,4.3-13,6.4c-0.6,0.3-1.2,0.6-1.8,0.9C753.6,219.6,754.7,221.7,756.1,221L756.1,221z"/>
		</g>
		<g style="clip-path:url(#SVGID_00000091700859041136043270000008852687173622464404_);">
			<path class="st11" d="M757,230.1c4.1,0.8,8.3,1.5,12.4,2.3c0.6,0.1,1.2,0.2,1.7,0.3c0.6,0.1,1.3-0.1,1.5-0.8
				c0.2-0.6-0.1-1.4-0.8-1.5c-4.1-0.8-8.3-1.5-12.4-2.3c-0.6-0.1-1.2-0.2-1.7-0.3c-0.6-0.1-1.3,0.1-1.5,0.8
				C756.1,229.2,756.4,230,757,230.1L757,230.1z"/>
		</g>
		<g style="clip-path:url(#SVGID_00000091700859041136043270000008852687173622464404_);">
			<path class="st11" d="M759.3,225c3-0.3,5.9-0.6,8.9-0.9c0.4,0,0.8-0.1,1.3-0.1c0.6-0.1,1-0.9,0.9-1.4c-0.2-0.7-0.8-0.9-1.4-0.9
				c-3,0.3-5.9,0.6-8.9,0.9c-0.4,0-0.8,0.1-1.3,0.1c-0.6,0.1-1,0.9-0.9,1.4C758.1,224.8,758.7,225,759.3,225L759.3,225z"/>
		</g>
	</g>
</g>
</svg>
