<?xml version="1.0" encoding="utf-8"?>
<!-- Generator: Adobe Illustrator 27.2.0, SVG Export Plug-In . SVG Version: 6.00 Build 0)  -->
<svg version="1.1" id="Layer_1" xmlns="http://www.w3.org/2000/svg" xmlns:xlink="http://www.w3.org/1999/xlink" x="0px" y="0px"
	 viewBox="0 0 1100 250" style="enable-background:new 0 0 1100 250;" xml:space="preserve">
<style type="text/css">
	.st0{clip-path:url(#SVGID_00000096740099539414364530000004400531879487369660_);fill:#D4F4D9;}
	.st1{clip-path:url(#SVGID_00000096740099539414364530000004400531879487369660_);fill:#48605E;}
	.st2{clip-path:url(#SVGID_00000096740099539414364530000004400531879487369660_);fill:#8E3E1E;}
	.st3{clip-path:url(#SVGID_00000096740099539414364530000004400531879487369660_);fill:#F97D7D;}
	.st4{clip-path:url(#SVGID_00000096740099539414364530000004400531879487369660_);fill:#773118;}
	.st5{clip-path:url(#SVGID_00000096740099539414364530000004400531879487369660_);fill:#6D2912;}
	.st6{clip-path:url(#SVGID_00000096740099539414364530000004400531879487369660_);fill:#7F422D;}
	.st7{clip-path:url(#SVGID_00000096740099539414364530000004400531879487369660_);fill:#E85B5B;}
	.st8{clip-path:url(#SVGID_00000096740099539414364530000004400531879487369660_);fill:#6D3526;}
	.st9{clip-path:url(#SVGID_00000096740099539414364530000004400531879487369660_);fill:#874439;}
	.st10{clip-path:url(#SVGID_00000096740099539414364530000004400531879487369660_);fill:#FF6C6C;}
	.st11{clip-path:url(#SVGID_00000096740099539414364530000004400531879487369660_);fill:#753832;}
	.st12{clip-path:url(#SVGID_00000096740099539414364530000004400531879487369660_);fill:#FFC6B7;}
	.st13{clip-path:url(#SVGID_00000096740099539414364530000004400531879487369660_);fill:#7C351C;}
	.st14{clip-path:url(#SVGID_00000096740099539414364530000004400531879487369660_);fill:#A8552D;}
	.st15{clip-path:url(#SVGID_00000096740099539414364530000004400531879487369660_);fill:#FFA6A6;}
	.st16{clip-path:url(#SVGID_00000096740099539414364530000004400531879487369660_);}
	.st17{fill:#FFC6B7;}
	.st18{fill:#FF8585;}
	.st19{fill:#FF9999;}
	.st20{fill:#FF8D8D;}
	.st21{fill:#FC8686;}
	.st22{fill:#FC9A9A;}
	.st23{fill:#FCA9A9;}
	.st24{clip-path:url(#SVGID_00000096740099539414364530000004400531879487369660_);fill:#FDFFFD;}
	.st25{clip-path:url(#SVGID_00000096740099539414364530000004400531879487369660_);fill:#9DED8A;}
</style>
<g>
	<defs>
		<rect id="SVGID_1_" y="0" width="1100" height="250"/>
	</defs>
	<clipPath id="SVGID_00000124160431233156319790000016852973172344190897_">
		<use xlink:href="#SVGID_1_"  style="overflow:visible;"/>
	</clipPath>
	
		<rect y="0" style="clip-path:url(#SVGID_00000124160431233156319790000016852973172344190897_);fill:#D4F4D9;" width="1101" height="250"/>
	<path style="clip-path:url(#SVGID_00000124160431233156319790000016852973172344190897_);fill:#48605E;" d="M1100,14v236H0V14
		c151.51,118.72,342.48,138.72,550,138.72S948.49,132.72,1100,14z"/>
	<path style="clip-path:url(#SVGID_00000124160431233156319790000016852973172344190897_);fill:#8E3E1E;" d="M341.6,193.08v17.06
		c0,5.4-4.38,9.77-9.77,9.77h-18.8c-2.46,0-4.46,1.99-4.46,4.46v31.15h-42.83v-36.83c0-2.46-1.99-4.46-4.46-4.46h-24.1
		c-2.76,0-4.99-2.23-4.99-4.99v-21.33h12.39v10.12c0,2.11,1.71,3.82,3.82,3.82h12.89c2.46,0,4.46-1.99,4.46-4.46v-35.02
		c0-11.83,9.59-21.42,21.42-21.42h0c11.83,0,21.42,9.59,21.42,21.42v35.54c0,2.46,1.99,4.46,4.46,4.46h6.06
		c2.74,0,4.96-2.22,4.96-4.96v-4.33H341.6z"/>
	<path style="clip-path:url(#SVGID_00000124160431233156319790000016852973172344190897_);fill:#F97D7D;" d="M350.64,168.31H223.67
		c-4.69,0-8.5-3.81-8.5-8.5v-6.21c0-39.76,32.23-71.99,71.99-71.99h0c39.76,0,71.99,32.23,71.99,71.99v6.21
		C359.14,164.5,355.34,168.31,350.64,168.31z"/>
	<path style="clip-path:url(#SVGID_00000124160431233156319790000016852973172344190897_);fill:#F97D7D;" d="M256.11,192.23h-35.27
		v-2.33c0-6.9,5.59-12.5,12.5-12.5h10.28c6.9,0,12.5,5.59,12.5,12.5V192.23z"/>
	<path style="clip-path:url(#SVGID_00000124160431233156319790000016852973172344190897_);fill:#F97D7D;" d="M353.15,193.59h-38.06
		v-3.5c0-6.9,5.59-12.5,12.5-12.5h13.07c6.9,0,12.5,5.59,12.5,12.5V193.59z"/>
	<path style="clip-path:url(#SVGID_00000124160431233156319790000016852973172344190897_);fill:#773118;" d="M275.29,204L275.29,204
		c-1.85,0-3.35-1.5-3.35-3.35v-20.73c0-1.85,1.5-3.35,3.35-3.35l0,0c1.85,0,3.35,1.5,3.35,3.35v20.73
		C278.64,202.5,277.14,204,275.29,204z"/>
	<path style="clip-path:url(#SVGID_00000124160431233156319790000016852973172344190897_);fill:#773118;" d="M275.29,235L275.29,235
		c-1.85,0-3.35-1.5-3.35-3.35v-20.73c0-1.85,1.5-3.35,3.35-3.35l0,0c1.85,0,3.35,1.5,3.35,3.35v20.73
		C278.64,233.5,277.14,235,275.29,235z"/>
	<path style="clip-path:url(#SVGID_00000124160431233156319790000016852973172344190897_);fill:#6D2912;" d="M299.54,250.88
		L299.54,250.88c-1.85,0-3.35-1.5-3.35-3.35v-13.93c0-1.85,1.5-3.35,3.35-3.35l0,0c1.85,0,3.35,1.5,3.35,3.35v13.93
		C302.89,249.37,301.39,250.88,299.54,250.88z"/>
	<path style="clip-path:url(#SVGID_00000124160431233156319790000016852973172344190897_);fill:#773118;" d="M299.28,196L299.28,196
		c-2,0-3.61-1.62-3.61-3.61v-11.18c0-2,1.62-3.61,3.61-3.61l0,0c2,0,3.61,1.62,3.61,3.61v11.18C302.89,194.38,301.28,196,299.28,196
		z"/>
	<path style="clip-path:url(#SVGID_00000124160431233156319790000016852973172344190897_);fill:#773118;" d="M299.28,229L299.28,229
		c-2,0-3.61-1.62-3.61-3.61v-23.18c0-2,1.62-3.61,3.61-3.61l0,0c2,0,3.61,1.62,3.61,3.61v23.18C302.89,227.38,301.28,229,299.28,229
		z"/>
	<path style="clip-path:url(#SVGID_00000124160431233156319790000016852973172344190897_);fill:#6D2912;" d="M275.8,247.78
		L275.8,247.78c-2.42,0-4.39-1.96-4.39-4.39v-15.48c0-2.42,1.96-4.39,4.39-4.39h0c2.42,0,4.39,1.96,4.39,4.39v15.48
		C280.19,245.82,278.23,247.78,275.8,247.78z"/>
	<path style="clip-path:url(#SVGID_00000124160431233156319790000016852973172344190897_);fill:#773118;" d="M287.16,251.39
		L287.16,251.39c-1.28,0-2.32-1.04-2.32-2.32v-52.64c0-1.28,1.04-2.32,2.32-2.32l0,0c1.28,0,2.32,1.04,2.32,2.32v52.64
		C289.48,250.35,288.44,251.39,287.16,251.39z"/>
	<path style="clip-path:url(#SVGID_00000124160431233156319790000016852973172344190897_);fill:#7F422D;" d="M844.6,186.08v17.06
		c0,5.4-4.38,9.77-9.77,9.77h-18.8c-2.46,0-4.46,1.99-4.46,4.46v31.15h-42.83v-36.83c0-2.46-1.99-4.46-4.46-4.46h-24.1
		c-2.76,0-4.99-2.23-4.99-4.99v-21.33h12.39v10.12c0,2.11,1.71,3.82,3.82,3.82h12.89c2.46,0,4.46-1.99,4.46-4.46v-35.02
		c0-11.83,9.59-21.42,21.42-21.42h0c11.83,0,21.42,9.59,21.42,21.42v35.54c0,2.46,1.99,4.46,4.46,4.46h6.06
		c2.74,0,4.96-2.22,4.96-4.96v-4.33H844.6z"/>
	<path style="clip-path:url(#SVGID_00000124160431233156319790000016852973172344190897_);fill:#E85B5B;" d="M853.64,161.31H726.67
		c-4.69,0-8.5-3.81-8.5-8.5v-6.21c0-39.76,32.23-71.99,71.99-71.99h0c39.76,0,71.99,32.23,71.99,71.99v6.21
		C862.14,157.5,858.34,161.31,853.64,161.31z"/>
	<path style="clip-path:url(#SVGID_00000124160431233156319790000016852973172344190897_);fill:#E85B5B;" d="M759.11,185.23h-35.27
		v-2.33c0-6.9,5.59-12.5,12.5-12.5h10.28c6.9,0,12.5,5.59,12.5,12.5V185.23z"/>
	<path style="clip-path:url(#SVGID_00000124160431233156319790000016852973172344190897_);fill:#E85B5B;" d="M856.15,186.59h-38.06
		v-3.5c0-6.9,5.59-12.5,12.5-12.5h13.07c6.9,0,12.5,5.59,12.5,12.5V186.59z"/>
	<path style="clip-path:url(#SVGID_00000124160431233156319790000016852973172344190897_);fill:#6D2912;" d="M802.54,243.88
		L802.54,243.88c-1.85,0-3.35-1.5-3.35-3.35v-13.93c0-1.85,1.5-3.35,3.35-3.35l0,0c1.85,0,3.35,1.5,3.35,3.35v13.93
		C805.89,242.37,804.39,243.88,802.54,243.88z"/>
	<path style="clip-path:url(#SVGID_00000124160431233156319790000016852973172344190897_);fill:#6D3526;" d="M802.28,215.98
		L802.28,215.98c-2,0-3.61-1.62-3.61-3.61v-37.16c0-2,1.62-3.61,3.61-3.61h0c1.99,0,3.61,1.62,3.61,3.61v37.16
		C805.89,214.36,804.28,215.98,802.28,215.98z"/>
	<path style="clip-path:url(#SVGID_00000124160431233156319790000016852973172344190897_);fill:#6D3526;" d="M779.28,195L779.28,195
		c-2,0-3.61-1.62-3.61-3.61v-16.18c0-2,1.62-3.61,3.61-3.61h0c1.99,0,3.61,1.62,3.61,3.61v16.18
		C782.89,193.38,781.28,195,779.28,195z"/>
	<path style="clip-path:url(#SVGID_00000124160431233156319790000016852973172344190897_);fill:#6D3526;" d="M779.28,227L779.28,227
		c-1.99,0-3.61-1.62-3.61-3.61v-20.18c0-2,1.62-3.61,3.61-3.61l0,0c2,0,3.61,1.62,3.61,3.61v20.18
		C782.89,225.38,781.28,227,779.28,227z"/>
	<path style="clip-path:url(#SVGID_00000124160431233156319790000016852973172344190897_);fill:#6D3526;" d="M790.16,246.39
		L790.16,246.39c-1.28,0-2.32-1.04-2.32-2.32v-52.64c0-1.28,1.04-2.32,2.32-2.32l0,0c1.28,0,2.32,1.04,2.32,2.32v52.64
		C792.48,245.35,791.44,246.39,790.16,246.39z"/>
	<path style="clip-path:url(#SVGID_00000124160431233156319790000016852973172344190897_);fill:#6D3526;" d="M926.16,237.39
		L926.16,237.39c-1.28,0-2.32-1.04-2.32-2.32v-52.64c0-1.28,1.04-2.32,2.32-2.32l0,0c1.28,0,2.32,1.04,2.32,2.32v52.64
		C928.48,236.35,927.44,237.39,926.16,237.39z"/>
	<path style="clip-path:url(#SVGID_00000124160431233156319790000016852973172344190897_);fill:#6D3526;" d="M790.16,187L790.16,187
		c-1.28,0-2.32-1.04-2.32-2.32v-11.36c0-1.28,1.04-2.32,2.32-2.32l0,0c1.28,0,2.32,1.04,2.32,2.32v11.36
		C792.48,185.96,791.44,187,790.16,187z"/>
	<path style="clip-path:url(#SVGID_00000124160431233156319790000016852973172344190897_);fill:#874439;" d="M723.38,184.19v18.4
		c0,5.82-4.64,10.54-10.37,10.54h-19.95c-2.61,0-4.73,2.15-4.73,4.8v33.59h-45.47v-39.71c0-2.65-2.12-4.8-4.73-4.8h-25.58
		c-2.93,0-5.3-2.41-5.3-5.38v-23h13.15v10.91c0,2.27,1.81,4.11,4.05,4.11h13.68c2.61,0,4.73-2.15,4.73-4.8v-37.76
		c0-12.75,10.18-23.09,22.73-23.09h0c12.56,0,22.73,10.34,22.73,23.09v38.32c0,2.65,2.12,4.8,4.73,4.8h6.44
		c2.91,0,5.27-2.4,5.27-5.35v-4.66H723.38z"/>
	<path style="clip-path:url(#SVGID_00000124160431233156319790000016852973172344190897_);fill:#FF6C6C;" d="M733.5,157.48H597.67
		c-4.69,0-8.5-3.81-8.5-8.5v-12.99c0-39.76,32.23-71.99,71.99-71.99h8.86C709.77,64,742,96.23,742,135.99v12.99
		C742,153.68,738.19,157.48,733.5,157.48z"/>
	<path style="clip-path:url(#SVGID_00000124160431233156319790000016852973172344190897_);fill:#FF6C6C;" d="M632.63,183.28h-37.44
		v-3.49c0-6.9,5.59-12.5,12.5-12.5h12.45c6.9,0,12.5,5.59,12.5,12.5V183.28z"/>
	<path style="clip-path:url(#SVGID_00000124160431233156319790000016852973172344190897_);fill:#FF6C6C;" d="M735.63,184.75h-40.4
		v-4.75c0-6.9,5.59-12.5,12.5-12.5h15.41c6.9,0,12.5,5.59,12.5,12.5V184.75z"/>
	<path style="clip-path:url(#SVGID_00000124160431233156319790000016852973172344190897_);fill:#753832;" d="M653.19,207.56h-0.41
		c-1.85,0-3.35-1.5-3.35-3.35v-34.47c0-1.85,1.5-3.35,3.35-3.35h0.41c1.85,0,3.35,1.5,3.35,3.35v34.47
		C656.55,206.06,655.04,207.56,653.19,207.56z"/>
	<path style="clip-path:url(#SVGID_00000124160431233156319790000016852973172344190897_);fill:#753832;" d="M653.19,251.56h-0.41
		c-1.85,0-3.35-1.5-3.35-3.35v-31.85c0-1.85,1.5-3.35,3.35-3.35h0.41c1.85,0,3.35,1.5,3.35,3.35v31.85
		C656.55,250.06,655.04,251.56,653.19,251.56z"/>
	<path style="clip-path:url(#SVGID_00000124160431233156319790000016852973172344190897_);fill:#753832;" d="M677.68,238.35h-0.44
		c-2,0-3.61-1.62-3.61-3.61v-27.13c0-2,1.62-3.61,3.61-3.61h0.44c1.99,0,3.61,1.62,3.61,3.61v27.13
		C681.29,236.73,679.67,238.35,677.68,238.35z"/>
	<path style="clip-path:url(#SVGID_00000124160431233156319790000016852973172344190897_);fill:#753832;" d="M677.68,197h-0.44
		c-2,0-3.61-1.62-3.61-3.61v-6.78c0-2,1.62-3.61,3.61-3.61h0.44c1.99,0,3.61,1.62,3.61,3.61v6.78
		C681.29,195.38,679.67,197,677.68,197z"/>
	<path style="clip-path:url(#SVGID_00000124160431233156319790000016852973172344190897_);fill:#753832;" d="M664.73,230.07h-0.29
		c-1.28,0-2.32-1.04-2.32-2.32v-30.42c0-1.28,1.04-2.32,2.32-2.32h0.29c1.28,0,2.32,1.04,2.32,2.32v30.42
		C667.05,229.03,666.01,230.07,664.73,230.07z"/>
	<path style="clip-path:url(#SVGID_00000124160431233156319790000016852973172344190897_);fill:#753832;" d="M664.73,189.07h-0.29
		c-1.28,0-2.32-1.04-2.32-2.32v-11.42c0-1.28,1.04-2.32,2.32-2.32h0.29c1.28,0,2.32,1.04,2.32,2.32v11.42
		C667.05,188.03,666.01,189.07,664.73,189.07z"/>
	<path style="clip-path:url(#SVGID_00000124160431233156319790000016852973172344190897_);fill:#7F422D;" d="M579.06,186.99v17.91
		c0,5.66-3.98,10.26-8.88,10.26h-17.08c-2.24,0-4.05,2.09-4.05,4.68v32.69h-38.92v-38.65c0-2.58-1.81-4.68-4.05-4.68h-21.9
		c-2.5,0-4.54-2.35-4.54-5.24v-22.38h11.25v10.62c0,2.21,1.55,4,3.47,4h11.71c2.24,0,4.05-2.09,4.05-4.68v-36.76
		c0-12.41,8.71-22.48,19.46-22.48h0c10.75,0,19.46,10.06,19.46,22.48v37.3c0,2.58,1.81,4.68,4.05,4.68h5.51
		c2.49,0,4.51-2.33,4.51-5.21v-4.54H579.06z"/>
	<path style="clip-path:url(#SVGID_00000124160431233156319790000016852973172344190897_);fill:#E85B5B;" d="M587.28,160.99H471.89
		c-4.27,0-7.72-3.46-7.72-7.72v-17.85c0-36.13,29.29-65.42,65.42-65.42h0C565.71,70,595,99.29,595,135.42v17.85
		C595,157.53,591.54,160.99,587.28,160.99z"/>
	<path style="clip-path:url(#SVGID_00000124160431233156319790000016852973172344190897_);fill:#E85B5B;" d="M501.38,186.1h-32.05
		v-3.06c0-6.9,5.59-12.5,12.5-12.5h7.06c6.9,0,12.5,5.59,12.5,12.5V186.1z"/>
	<path style="clip-path:url(#SVGID_00000124160431233156319790000016852973172344190897_);fill:#E85B5B;" d="M589.55,187.53h-34.59
		v-4.29c0-6.9,5.59-12.5,12.5-12.5h9.6c6.9,0,12.5,5.59,12.5,12.5V187.53z"/>
	<path style="clip-path:url(#SVGID_00000124160431233156319790000016852973172344190897_);fill:#6D3526;" d="M530.95,209.73h-2.15
		c-1.68,0-3.05-1.36-3.05-3.05V172.7c0-1.68,1.36-3.05,3.05-3.05h2.15c1.68,0,3.05,1.36,3.05,3.05v33.98
		C534,208.37,532.64,209.73,530.95,209.73z"/>
	<path style="clip-path:url(#SVGID_00000124160431233156319790000016852973172344190897_);fill:#6D3526;" d="M530.95,245.73h-2.15
		c-1.68,0-3.05-1.36-3.05-3.05v-25.64c0-1.68,1.36-3.05,3.05-3.05h2.15c1.68,0,3.05,1.36,3.05,3.05v25.64
		C534,244.37,532.64,245.73,530.95,245.73z"/>
	<path style="clip-path:url(#SVGID_00000124160431233156319790000016852973172344190897_);fill:#6D2912;" d="M540.84,247.65
		L540.84,247.65c-1.68,0-3.05-1.36-3.05-3.05v-15.57c0-1.68,1.36-3.05,3.05-3.05l0,0c1.68,0,3.05,1.36,3.05,3.05v15.57
		C543.89,246.28,542.52,247.65,540.84,247.65z"/>
	<path style="clip-path:url(#SVGID_00000124160431233156319790000016852973172344190897_);fill:#6D3526;" d="M542.58,252.19
		L542.58,252.19c-1.17,0-2.11-0.94-2.11-2.11v-55.9c0-1.17,0.94-2.11,2.11-2.11l0,0c1.17,0,2.11,0.94,2.11,2.11v55.9
		C544.69,251.24,543.75,252.19,542.58,252.19z"/>
	<path style="clip-path:url(#SVGID_00000124160431233156319790000016852973172344190897_);fill:#6D3526;" d="M542.58,189L542.58,189
		c-1.17,0-2.11-0.94-2.11-2.11v-20.78c0-1.17,0.94-2.11,2.11-2.11l0,0c1.17,0,2.11,0.94,2.11,2.11v20.78
		C544.69,188.06,543.75,189,542.58,189z"/>
	<path style="clip-path:url(#SVGID_00000124160431233156319790000016852973172344190897_);fill:#6D3526;" d="M516.98,194.82
		L516.98,194.82c-1.17,0-2.11-0.94-2.11-2.11v-20.78c0-1.17,0.94-2.11,2.11-2.11l0,0c1.17,0,2.11,0.94,2.11,2.11v20.78
		C519.09,193.88,518.14,194.82,516.98,194.82z"/>
	<path style="clip-path:url(#SVGID_00000124160431233156319790000016852973172344190897_);fill:#6D3526;" d="M516.98,228L516.98,228
		c-1.17,0-2.11-0.94-2.11-2.11v-25.96c0-1.17,0.94-2.11,2.11-2.11l0,0c1.17,0,2.11,0.94,2.11,2.11v25.96
		C519.09,227.06,518.14,228,516.98,228z"/>
	<path style="clip-path:url(#SVGID_00000124160431233156319790000016852973172344190897_);fill:#874439;" d="M464.76,198.76v14.96
		c0,4.73-3.84,8.57-8.57,8.57H439.7c-2.16,0-3.91,1.75-3.91,3.91v27.32h-37.56v-32.3c0-2.16-1.75-3.91-3.91-3.91h-21.13
		c-2.42,0-4.38-1.96-4.38-4.38v-18.7h10.86v8.87c0,1.85,1.5,3.35,3.35,3.35h11.3c2.16,0,3.91-1.75,3.91-3.91v-30.72
		c0-10.37,8.41-18.78,18.78-18.78h0c10.37,0,18.78,8.41,18.78,18.78V203c0,2.16,1.75,3.91,3.91,3.91h5.32c2.4,0,4.35-1.95,4.35-4.35
		v-3.79H464.76z"/>
	<path style="clip-path:url(#SVGID_00000124160431233156319790000016852973172344190897_);fill:#FF6C6C;" d="M472.69,177.03H361.33
		c-4.12,0-7.45-3.34-7.45-7.45v-5.44c0-34.87,28.27-63.14,63.14-63.14h0c34.87,0,63.14,28.27,63.14,63.14v5.44
		C480.14,173.7,476.81,177.03,472.69,177.03z"/>
	<path style="clip-path:url(#SVGID_00000124160431233156319790000016852973172344190897_);fill:#FF6C6C;" d="M389.78,198.02h-30.93
		v-0.51c0-6.9,5.59-12.5,12.5-12.5h5.94c6.9,0,12.5,5.59,12.5,12.5V198.02z"/>
	<path style="clip-path:url(#SVGID_00000124160431233156319790000016852973172344190897_);fill:#FF6C6C;" d="M474.88,199.21H441.5
		v-1.53c0-6.9,5.59-12.5,12.5-12.5h8.39c6.9,0,12.5,5.59,12.5,12.5V199.21z"/>
	<path style="clip-path:url(#SVGID_00000124160431233156319790000016852973172344190897_);fill:#753832;" d="M406.6,215.77
		L406.6,215.77c-1.62,0-2.94-1.32-2.94-2.94v-27.61c0-1.62,1.32-2.94,2.94-2.94l0,0c1.62,0,2.94,1.32,2.94,2.94v27.61
		C409.54,214.45,408.22,215.77,406.6,215.77z"/>
	<path style="clip-path:url(#SVGID_00000124160431233156319790000016852973172344190897_);fill:#753832;" d="M406.6,244.98
		L406.6,244.98c-1.62,0-2.94-1.32-2.94-2.94v-21.1c0-1.62,1.32-2.94,2.94-2.94l0,0c1.62,0,2.94,1.32,2.94,2.94v21.1
		C409.54,243.66,408.22,244.98,406.6,244.98z"/>
	<path style="clip-path:url(#SVGID_00000124160431233156319790000016852973172344190897_);fill:#6D2912;" d="M427.87,249.45
		L427.87,249.45c-1.62,0-2.94-1.32-2.94-2.94v-12.22c0-1.62,1.32-2.94,2.94-2.94l0,0c1.62,0,2.94,1.32,2.94,2.94v12.22
		C430.81,248.13,429.5,249.45,427.87,249.45z"/>
	<path style="clip-path:url(#SVGID_00000124160431233156319790000016852973172344190897_);fill:#753832;" d="M427.64,228L427.64,228
		c-1.75,0-3.17-1.42-3.17-3.17v-27.48c0-1.75,1.42-3.17,3.17-3.17l0,0c1.75,0,3.17,1.42,3.17,3.17v27.48
		C430.81,226.58,429.39,228,427.64,228z"/>
	<path style="clip-path:url(#SVGID_00000124160431233156319790000016852973172344190897_);fill:#6D2912;" d="M407.05,246.73
		L407.05,246.73c-2.12,0-3.85-1.72-3.85-3.85v-13.58c0-2.12,1.72-3.85,3.85-3.85l0,0c2.12,0,3.85,1.72,3.85,3.85v13.58
		C410.9,245.01,409.18,246.73,407.05,246.73z"/>
	<path style="clip-path:url(#SVGID_00000124160431233156319790000016852973172344190897_);fill:#753832;" d="M417.01,249.9
		L417.01,249.9c-1.12,0-2.04-0.91-2.04-2.04V201.7c0-1.12,0.91-2.04,2.04-2.04l0,0c1.12,0,2.04,0.91,2.04,2.04v46.16
		C419.05,248.99,418.13,249.9,417.01,249.9z"/>
	<path style="clip-path:url(#SVGID_00000124160431233156319790000016852973172344190897_);fill:#753832;" d="M417.01,196L417.01,196
		c-1.12,0-2.04-0.91-2.04-2.04v-9.93c0-1.12,0.91-2.04,2.04-2.04l0,0c1.12,0,2.04,0.91,2.04,2.04v9.93
		C419.05,195.09,418.13,196,417.01,196z"/>
	<path style="clip-path:url(#SVGID_00000124160431233156319790000016852973172344190897_);fill:#7F422D;" d="M220.71,173.73v19.72
		c0,6.24-5.06,11.3-11.3,11.3h-21.73c-2.84,0-5.15,2.31-5.15,5.15v36.01h-49.51v-42.57c0-2.84-2.31-5.15-5.15-5.15h-27.86
		c-3.19,0-5.77-2.58-5.77-5.77v-24.65h14.32v11.7c0,2.44,1.97,4.41,4.41,4.41h14.9c2.84,0,5.15-2.31,5.15-5.15v-40.48
		c0-13.67,11.08-24.76,24.76-24.76h0c13.67,0,24.76,11.08,24.76,24.76v41.08c0,2.84,2.31,5.15,5.15,5.15h7.01
		c3.17,0,5.74-2.57,5.74-5.74v-5H220.71z"/>
	<path style="clip-path:url(#SVGID_00000124160431233156319790000016852973172344190897_);fill:#E85B5B;" d="M232.39,145.09H83.16
		c-4.75,0-8.6-3.85-8.6-8.6v-18.76c0-40.24,32.62-72.85,72.85-72.85h20.72c40.24,0,72.85,32.62,72.85,72.85v18.76
		C240.99,141.24,237.14,145.09,232.39,145.09z"/>
	<path style="clip-path:url(#SVGID_00000124160431233156319790000016852973172344190897_);fill:#E85B5B;" d="M121.89,172.75H81.12
		v-4.64c0-6.9,5.59-12.5,12.5-12.5h15.78c6.9,0,12.5,5.59,12.5,12.5V172.75z"/>
	<path style="clip-path:url(#SVGID_00000124160431233156319790000016852973172344190897_);fill:#E85B5B;" d="M234.06,174.32h-44v-6
		c0-6.9,5.59-12.5,12.5-12.5h19.01c6.9,0,12.5,5.59,12.5,12.5V174.32z"/>
	<path style="clip-path:url(#SVGID_00000124160431233156319790000016852973172344190897_);fill:#FFC6B7;" d="M100.12,168.36H88.83
		c-1.3,0-2.35-1.05-2.35-2.35v-0.67c0-1.3,1.05-2.35,2.35-2.35h11.29c1.3,0,2.35,1.05,2.35,2.35v0.67
		C102.48,167.3,101.42,168.36,100.12,168.36z"/>
	<path style="clip-path:url(#SVGID_00000124160431233156319790000016852973172344190897_);fill:#6D3526;" d="M144.53,181h-0.97
		c-1.87,0-3.39-1.52-3.39-3.39v-19.57c0-1.87,1.52-3.39,3.39-3.39h0.97c1.87,0,3.39,1.52,3.39,3.39v19.57
		C147.93,179.48,146.41,181,144.53,181z"/>
	<path style="clip-path:url(#SVGID_00000124160431233156319790000016852973172344190897_);fill:#6D2912;" d="M172.57,240.54h-0.97
		c-1.87,0-3.39-1.52-3.39-3.39v-17.07c0-1.87,1.52-3.39,3.39-3.39h0.97c1.87,0,3.39,1.52,3.39,3.39v17.07
		C175.97,239.02,174.45,240.54,172.57,240.54z"/>
	<path style="clip-path:url(#SVGID_00000124160431233156319790000016852973172344190897_);fill:#6D3526;" d="M172.31,190h-1.04
		c-2.02,0-3.66-1.64-3.66-3.66v-26.86c0-2.02,1.64-3.66,3.66-3.66h1.04c2.02,0,3.66,1.64,3.66,3.66v26.86
		C175.97,188.36,174.33,190,172.31,190z"/>
	<path style="clip-path:url(#SVGID_00000124160431233156319790000016852973172344190897_);fill:#6D3526;" d="M172.31,227.42h-1.04
		c-2.02,0-3.66-1.64-3.66-3.66V196.9c0-2.02,1.64-3.66,3.66-3.66h1.04c2.02,0,3.66,1.64,3.66,3.66v26.86
		C175.97,225.78,174.33,227.42,172.31,227.42z"/>
	<path style="clip-path:url(#SVGID_00000124160431233156319790000016852973172344190897_);fill:#6D3526;" d="M145.28,236.96h-1.26
		c-2.45,0-4.44-1.99-4.44-4.44v-40.08c0-2.45,1.99-4.44,4.44-4.44h1.26c2.45,0,4.44,1.99,4.44,4.44v40.08
		C149.72,234.97,147.73,236.96,145.28,236.96z"/>
	<path style="clip-path:url(#SVGID_00000124160431233156319790000016852973172344190897_);fill:#6D3526;" d="M158.11,241.13h-0.67
		c-1.3,0-2.35-1.05-2.35-2.35v-61.52c0-1.3,1.05-2.35,2.35-2.35h0.67c1.3,0,2.35,1.05,2.35,2.35v61.52
		C160.46,240.08,159.4,241.13,158.11,241.13z"/>
	<path style="clip-path:url(#SVGID_00000124160431233156319790000016852973172344190897_);fill:#6D3526;" d="M158.11,170h-0.67
		c-1.3,0-2.35-1.05-2.35-2.35v-17.3c0-1.3,1.05-2.35,2.35-2.35h0.67c1.3,0,2.35,1.05,2.35,2.35v17.3
		C160.46,168.95,159.4,170,158.11,170z"/>
	<path style="clip-path:url(#SVGID_00000124160431233156319790000016852973172344190897_);fill:#8E3E1E;" d="M990.71,171.73v19.72
		c0,6.24-5.06,11.3-11.3,11.3h-21.73c-2.84,0-5.15,2.31-5.15,5.15v36.01h-49.51v-42.57c0-2.84-2.31-5.15-5.15-5.15h-27.86
		c-3.19,0-5.77-2.58-5.77-5.77v-24.65h14.32v11.7c0,2.44,1.97,4.41,4.41,4.41h14.9c2.84,0,5.15-2.31,5.15-5.15v-40.48
		c0-13.67,11.08-24.76,24.76-24.76l0,0c13.67,0,24.76,11.08,24.76,24.76v41.08c0,2.84,2.31,5.15,5.15,5.15h7.01
		c3.17,0,5.74-2.57,5.74-5.74v-5H990.71z"/>
	<path style="clip-path:url(#SVGID_00000124160431233156319790000016852973172344190897_);fill:#F97D7D;" d="M1002.39,143.09H853.16
		c-4.75,0-8.6-3.85-8.6-8.6v-18.76c0-40.24,32.62-72.85,72.85-72.85h20.72c40.24,0,72.85,32.62,72.85,72.85v18.76
		C1010.99,139.24,1007.14,143.09,1002.39,143.09z"/>
	<path style="clip-path:url(#SVGID_00000124160431233156319790000016852973172344190897_);fill:#F97D7D;" d="M891.89,170.75h-40.77
		v-4.64c0-6.9,5.59-12.5,12.5-12.5h15.78c6.9,0,12.5,5.59,12.5,12.5V170.75z"/>
	<path style="clip-path:url(#SVGID_00000124160431233156319790000016852973172344190897_);fill:#F97D7D;" d="M1004.06,172.32h-44v-6
		c0-6.9,5.59-12.5,12.5-12.5h19.01c6.9,0,12.5,5.59,12.5,12.5V172.32z"/>
	<path style="clip-path:url(#SVGID_00000124160431233156319790000016852973172344190897_);fill:#7C351C;" d="M916.53,222.78h-0.97
		c-1.87,0-3.39-1.52-3.39-3.39v-37.35c0-1.87,1.52-3.39,3.39-3.39h0.97c1.87,0,3.39,1.52,3.39,3.39v37.35
		C919.93,221.26,918.41,222.78,916.53,222.78z"/>
	<path style="clip-path:url(#SVGID_00000124160431233156319790000016852973172344190897_);fill:#7C351C;" d="M916.53,169h-0.97
		c-1.87,0-3.39-1.52-3.39-3.39v-16.21c0-1.87,1.52-3.39,3.39-3.39h0.97c1.87,0,3.39,1.52,3.39,3.39v16.21
		C919.93,167.48,918.41,169,916.53,169z"/>
	<path style="clip-path:url(#SVGID_00000124160431233156319790000016852973172344190897_);fill:#8E3E1E;" d="M942.57,238.54h-0.97
		c-1.87,0-3.39-1.52-3.39-3.39v-17.07c0-1.87,1.52-3.39,3.39-3.39h0.97c1.87,0,3.39,1.52,3.39,3.39v17.07
		C945.97,237.02,944.45,238.54,942.57,238.54z"/>
	<path style="clip-path:url(#SVGID_00000124160431233156319790000016852973172344190897_);fill:#7C351C;" d="M942.31,183h-1.04
		c-2.02,0-3.66-1.64-3.66-3.66v-21.86c0-2.02,1.64-3.66,3.66-3.66h1.04c2.02,0,3.66,1.64,3.66,3.66v21.86
		C945.97,181.36,944.33,183,942.31,183z"/>
	<path style="clip-path:url(#SVGID_00000124160431233156319790000016852973172344190897_);fill:#7C351C;" d="M942.31,222h-1.04
		c-2.02,0-3.66-1.64-3.66-3.66v-21.86c0-2.02,1.64-3.66,3.66-3.66h1.04c2.02,0,3.66,1.64,3.66,3.66v21.86
		C945.97,220.36,944.33,222,942.31,222z"/>
	<path style="clip-path:url(#SVGID_00000124160431233156319790000016852973172344190897_);fill:#F97D7D;" d="M105,149.81H16V131.5
		c0-6.9,5.59-12.5,12.5-12.5H92.5c6.9,0,12.5,5.59,12.5,12.5V149.81z"/>
	<path style="clip-path:url(#SVGID_00000124160431233156319790000016852973172344190897_);fill:#A8552D;" d="M105,145v42.77
		c0,5.1-4.13,9.23-9.23,9.23h-34.3C54.59,197,49,202.59,49,209.48V251h-67V101h67v56.52c0,6.89,5.59,12.48,12.48,12.48h7.3
		c5.1,0,9.23-4.13,9.23-9.23V145H105z"/>
	<path style="clip-path:url(#SVGID_00000124160431233156319790000016852973172344190897_);fill:#FFA6A6;" d="M115.93,122.5H-40.32
		c-7.28,0-13.18-5.9-13.18-13.18V82.8c0-50.43,40.88-91.3,91.3-91.3h0c50.43,0,91.3,40.88,91.3,91.3v26.52
		C129.11,116.6,123.21,122.5,115.93,122.5z"/>
	<path style="clip-path:url(#SVGID_00000124160431233156319790000016852973172344190897_);fill:#FFA6A6;" d="M127,163H58v-16.5
		c0-6.9,5.59-12.5,12.5-12.5h44.01c6.9,0,12.5,5.59,12.5,12.5V163z"/>
	<path style="clip-path:url(#SVGID_00000124160431233156319790000016852973172344190897_);fill:#8E3E1E;" d="M14.42,194h-3.85
		C9.15,194,8,192.85,8,191.42v-53.85c0-1.42,1.15-2.58,2.58-2.58h3.85c1.42,0,2.58,1.15,2.58,2.58v53.85
		C17,192.85,15.85,194,14.42,194z"/>
	<path style="clip-path:url(#SVGID_00000124160431233156319790000016852973172344190897_);fill:#8E3E1E;" d="M33.42,241h-3.85
		c-1.42,0-2.58-1.15-2.58-2.58v-53.85c0-1.42,1.15-2.58,2.58-2.58h3.85c1.42,0,2.58,1.15,2.58,2.58v53.85
		C36,239.85,34.85,241,33.42,241z"/>
	<path style="clip-path:url(#SVGID_00000124160431233156319790000016852973172344190897_);fill:#8E3E1E;" d="M33,177L33,177
		c-3.31,0-6-2.69-6-6v-37c0-3.31,2.69-6,6-6h0c3.31,0,6,2.69,6,6v37C39,174.31,36.31,177,33,177z"/>
	<path style="clip-path:url(#SVGID_00000124160431233156319790000016852973172344190897_);fill:#8E3E1E;" d="M16,255L16,255
		c-3.31,0-6-2.69-6-6v-37c0-3.31,2.69-6,6-6h0c3.31,0,6,2.69,6,6v37C22,252.31,19.31,255,16,255z"/>
	<path style="clip-path:url(#SVGID_00000124160431233156319790000016852973172344190897_);fill:#E85B5B;" d="M995.22,148.6h89
		v-18.31c0-6.9-5.59-12.5-12.5-12.5h-64.01c-6.9,0-12.5,5.59-12.5,12.5V148.6z"/>
	<path style="clip-path:url(#SVGID_00000124160431233156319790000016852973172344190897_);fill:#A8552D;" d="M995.22,143.79v42.77
		c0,5.1,4.13,9.23,9.23,9.23h34.3c6.89,0,12.48,5.59,12.48,12.48v41.52h67v-150h-67v56.52c0,6.89-5.59,12.48-12.48,12.48h-7.3
		c-5.1,0-9.23-4.13-9.23-9.23v-15.77H995.22z"/>
	<path style="clip-path:url(#SVGID_00000124160431233156319790000016852973172344190897_);fill:#FFA6A6;" d="M984.29,121.29h156.25
		c7.28,0,13.18-5.9,13.18-13.18V81.6c0-50.43-40.88-91.3-91.3-91.3h0c-50.43,0-91.3,40.88-91.3,91.3v26.52
		C971.11,115.39,977.01,121.29,984.29,121.29z"/>
	<path style="clip-path:url(#SVGID_00000124160431233156319790000016852973172344190897_);fill:#FFA6A6;" d="M973.22,161.79h69
		v-16.5c0-6.9-5.59-12.5-12.5-12.5h-44.01c-6.9,0-12.5,5.59-12.5,12.5V161.79z"/>
	<path style="clip-path:url(#SVGID_00000124160431233156319790000016852973172344190897_);fill:#8E3E1E;" d="M1085.79,192.79h3.85
		c1.42,0,2.58-1.15,2.58-2.58v-53.85c0-1.42-1.15-2.58-2.58-2.58h-3.85c-1.42,0-2.58,1.15-2.58,2.58v53.85
		C1083.22,191.64,1084.37,192.79,1085.79,192.79z"/>
	<path style="clip-path:url(#SVGID_00000124160431233156319790000016852973172344190897_);fill:#8E3E1E;" d="M1066.79,239.79h3.85
		c1.42,0,2.58-1.15,2.58-2.58v-53.85c0-1.42-1.15-2.58-2.58-2.58h-3.85c-1.42,0-2.58,1.15-2.58,2.58v53.85
		C1064.22,238.64,1065.37,239.79,1066.79,239.79z"/>
	<path style="clip-path:url(#SVGID_00000124160431233156319790000016852973172344190897_);fill:#8E3E1E;" d="M1067.22,175.79
		L1067.22,175.79c3.31,0,6-2.69,6-6v-37c0-3.31-2.69-6-6-6l0,0c-3.31,0-6,2.69-6,6v37C1061.22,173.11,1063.9,175.79,1067.22,175.79z
		"/>
	<path style="clip-path:url(#SVGID_00000124160431233156319790000016852973172344190897_);fill:#8E3E1E;" d="M1084.22,253.79
		L1084.22,253.79c3.31,0,6-2.69,6-6v-37c0-3.31-2.69-6-6-6l0,0c-3.31,0-6,2.69-6,6v37C1078.22,251.11,1080.9,253.79,1084.22,253.79z
		"/>
	<g style="clip-path:url(#SVGID_00000124160431233156319790000016852973172344190897_);">
		<path class="st17" d="M99.08,91.17c-3.85-4.38-3.6-5.83-2.58-9.82c0.76-2.96,2.36-4.46,4.19-4.77l1.05,3.74l2.72-2.78
			c1.45,1.15,2.14,3.24,1.38,6.19C104.81,87.73,104.56,89.17,99.08,91.17z"/>
		<path class="st17" d="M96.18,96.8c-0.26,5.83-1.44,6.7-4.95,8.87c-2.6,1.61-4.79,1.57-6.32,0.53l1.84-3.42l-3.88,0.12
			c-0.25-1.84,0.7-3.82,3.3-5.42C89.66,95.3,90.84,94.43,96.18,96.8z"/>
		<path class="st17" d="M94.85,93.57c-5.73,1.12-6.85,0.18-9.78-2.72c-2.17-2.14-2.66-4.29-2.01-6.02l3.76,0.98l-1.03-3.75
			c1.73-0.68,3.88-0.22,6.05,1.93C94.77,86.88,95.89,87.82,94.85,93.57z"/>
		<path class="st17" d="M102.25,95.46c4.49,3.73,5.92,3.45,9.89,2.32c2.93-0.84,4.39-2.48,4.65-4.32l-3.77-0.95l2.7-2.79
			c-1.19-1.42-3.29-2.05-6.23-1.22C105.53,89.64,104.09,89.92,102.25,95.46z"/>
		<path class="st17" d="M99.41,97.63c-2.57,5.24-1.95,6.57,0.08,10.15c1.5,2.65,3.45,3.68,5.29,3.5l0.03-3.89l3.35,1.97
			c1.1-1.49,1.22-3.69-0.29-6.34C105.84,99.44,105.23,98.12,99.41,97.63z"/>
	</g>
	<g style="clip-path:url(#SVGID_00000124160431233156319790000016852973172344190897_);">
		<path class="st18" d="M154.68,118.65c-0.06-3.41,0.6-3.96,2.56-5.36c1.46-1.03,2.74-1.09,3.67-0.54l-0.95,2.06l2.26-0.21
			c0.21,1.06-0.27,2.25-1.73,3.29C158.53,119.28,157.88,119.83,154.68,118.65z"/>
		<path class="st18" d="M151.25,120.06c-2.32,2.5-3.18,2.44-5.56,2.08c-1.76-0.27-2.73-1.11-3.02-2.16l2.11-0.83l-1.78-1.42
			c0.58-0.91,1.76-1.44,3.52-1.17C148.92,116.93,149.77,116.99,151.25,120.06z"/>
		<path class="st18" d="M151.88,118.12c-2.98-1.67-3.12-2.51-3.33-4.91c-0.16-1.78,0.44-2.92,1.38-3.44l1.31,1.86l0.96-2.06
			c1.03,0.35,1.81,1.37,1.97,3.15C154.38,115.11,154.52,115.95,151.88,118.12z"/>
		<path class="st18" d="M154.47,121.76c0.59,3.36,1.34,3.78,3.53,4.77c1.62,0.74,2.9,0.55,3.71-0.16l-1.32-1.85l2.26-0.22
			c0.01-1.08-0.69-2.16-2.32-2.9C158.13,120.41,157.38,119.99,154.47,121.76z"/>
		<path class="st18" d="M152.38,121.65c-3.13,1.36-3.35,2.19-3.8,4.56c-0.33,1.75,0.14,2.95,1.03,3.56l1.48-1.72l0.75,2.15
			c1.06-0.25,1.94-1.18,2.27-2.94C154.56,124.9,154.79,124.07,152.38,121.65z"/>
	</g>
	<g style="clip-path:url(#SVGID_00000124160431233156319790000016852973172344190897_);">
		<path class="st18" d="M172.42,79.69c-6.7,0.51-7.86-0.72-10.83-4.42c-2.2-2.74-2.47-5.26-1.49-7.16l4.17,1.63l-0.68-4.42
			c2.07-0.54,4.46,0.27,6.66,3.01C173.22,72.04,174.38,73.27,172.42,79.69z"/>
		<path class="st18" d="M175.26,86.63c5.76,3.45,6,5.13,6.28,9.86c0.21,3.51-1.02,5.72-2.92,6.7l-2.46-3.74l-2,4
			c-2-0.75-3.48-2.8-3.69-6.31C170.18,92.42,169.95,90.75,175.26,86.63z"/>
		<path class="st18" d="M171.37,83.92c-1.92,6.44-3.48,7.08-8,8.53c-3.35,1.07-5.79,0.43-7.22-1.17l3.01-3.31l-4.37-0.95
			c0.23-2.12,1.85-4.07,5.19-5.14C164.5,80.44,166.06,79.8,171.37,83.92z"/>
		<path class="st18" d="M177.29,79.1c6.71-0.41,7.69-1.79,10.12-5.86c1.8-3.02,1.72-5.55,0.49-7.29L184,68.13l0.06-4.47
			c-2.12-0.25-4.38,0.88-6.18,3.9C175.45,71.63,174.47,73,177.29,79.1z"/>
		<path class="st18" d="M178.59,83.86c3.04,5.99,4.69,6.34,9.4,6.96c3.48,0.45,5.77-0.62,6.89-2.44l-3.55-2.72l4.13-1.72
			c-0.61-2.05-2.55-3.67-6.03-4.12C184.72,79.2,183.07,78.85,178.59,83.86z"/>
	</g>
	<g style="clip-path:url(#SVGID_00000124160431233156319790000016852973172344190897_);">
		<path class="st19" d="M279.91,141.8c-3.57-3.72-3.4-5-2.66-8.57c0.55-2.64,1.91-4.02,3.51-4.37l1.07,3.26l2.29-2.56
			c1.33,0.96,2.01,2.78,1.46,5.41C284.84,138.55,284.67,139.83,279.91,141.8z"/>
		<path class="st19" d="M277.18,146.87c0.76,5.1-0.11,6.05-2.78,8.53c-1.98,1.83-3.89,2.18-5.39,1.54l1.01-3.28l-3.35,0.76
			c-0.53-1.55-0.04-3.43,1.94-5.26C271.28,146.68,272.16,145.72,277.18,146.87z"/>
		<path class="st19" d="M276.89,143.24c-4.75,2-5.89,1.39-8.95-0.58c-2.27-1.46-3.08-3.22-2.83-4.84l3.43,0.17l-1.57-3.05
			c1.37-0.9,3.31-0.89,5.58,0.57C275.61,137.48,276.75,138.09,276.89,143.24z"/>
		<path class="st19" d="M282.64,144.4c3.51,3.77,4.8,3.68,8.4,3.14c2.66-0.4,4.13-1.68,4.56-3.26l-3.2-1.25l2.68-2.14
			c-0.88-1.38-2.66-2.17-5.32-1.76C286.16,139.67,284.87,139.76,282.64,144.4z"/>
		<path class="st19" d="M280.45,147.49c-2.07,4.72-1.47,5.87,0.46,8.96c1.43,2.28,3.18,3.12,4.8,2.89l-0.12-3.43l3.03,1.61
			c0.91-1.36,0.93-3.3-0.5-5.58C286.2,148.85,285.6,147.7,280.45,147.49z"/>
	</g>
	<g style="clip-path:url(#SVGID_00000124160431233156319790000016852973172344190897_);">
		<path class="st19" d="M318.27,119.07c-0.53-3.7,0.11-4.39,2.05-6.18c1.44-1.32,2.83-1.56,3.92-1.09l-0.75,2.38l2.43-0.54
			c0.38,1.13,0.01,2.49-1.43,3.81C322.55,119.23,321.91,119.92,318.27,119.07z"/>
		<path class="st19" d="M314.52,120.91c-1.7,3.33-2.62,3.52-5.24,3.85c-1.94,0.25-3.21-0.36-3.83-1.37l1.98-1.51l-2.3-0.96
			c0.34-1.14,1.42-2.04,3.36-2.28C311.12,118.3,312.04,118.11,314.52,120.91z"/>
		<path class="st19" d="M315.88,118.64c-3.65-0.82-4.06-1.67-5.03-4.12c-0.72-1.82-0.45-3.2,0.38-4.05l1.95,1.55l0.36-2.46
			c1.19,0.05,2.33,0.87,3.05,2.69C317.56,114.7,317.97,115.55,315.88,118.64z"/>
		<path class="st19" d="M318.78,121.75c0.48,3.71,1.28,4.2,3.63,5.4c1.74,0.89,3.14,0.75,4.07,0l-1.36-2.09l2.49-0.13
			c0.06-1.19-0.65-2.4-2.39-3.29C322.86,120.45,322.06,119.96,318.78,121.75z"/>
		<path class="st19" d="M316.18,122.65c-3.21,1.91-3.35,2.84-3.51,5.48c-0.12,1.95,0.56,3.18,1.61,3.73l1.38-2.07l1.11,2.23
			c1.11-0.41,1.94-1.55,2.07-3.5C319,125.88,319.13,124.95,316.18,122.65z"/>
	</g>
	<g style="clip-path:url(#SVGID_00000124160431233156319790000016852973172344190897_);">
		<path class="st20" d="M394.57,154.14c0.87-4.22,1.83-4.71,4.63-5.88c2.08-0.87,3.67-0.59,4.67,0.35l-1.74,2.28l2.84,0.36
			c-0.03,1.37-0.95,2.7-3.03,3.57C399.14,155.99,398.18,156.49,394.57,154.14z"/>
		<path class="st20" d="M389.79,154.67c-3.14,2.94-4.21,2.79-7.18,2.13c-2.2-0.49-3.34-1.64-3.61-2.98l2.73-0.86l-2.11-1.94
			c0.82-1.1,2.34-1.65,4.53-1.16C387.13,150.53,388.2,150.68,389.79,154.67z"/>
		<path class="st20" d="M392.15,152.75c-3.63-2.32-3.75-3.39-3.84-6.43c-0.07-2.25,0.76-3.64,1.99-4.24l1.51,2.44l1.35-2.53
			c1.27,0.52,2.18,1.85,2.25,4.1C395.5,149.14,395.62,150.22,392.15,152.75z"/>
		<path class="st20" d="M394.07,157.25c-0.93,4.2-0.26,5.05,1.82,7.26c1.54,1.64,3.11,2.04,4.4,1.59l-0.65-2.79l2.74,0.83
			c0.53-1.26,0.23-2.85-1.31-4.49C399,157.43,398.32,156.59,394.07,157.25z"/>
		<path class="st20" d="M390.91,157.21c-4.23,0.82-4.73,1.77-5.94,4.56c-0.89,2.07-0.64,3.66,0.29,4.67l2.3-1.71l0.33,2.85
			c1.37-0.01,2.71-0.92,3.6-2.99C392.7,161.81,393.21,160.85,390.91,157.21z"/>
	</g>
	<g style="clip-path:url(#SVGID_00000124160431233156319790000016852973172344190897_);">
		<path class="st20" d="M439.27,144.1c6.67-1.9,8.09-0.89,11.86,2.24c2.79,2.32,3.58,4.81,2.98,6.93l-4.55-0.79l1.59,4.33
			c-1.98,0.97-4.57,0.64-7.35-1.68C440.03,152.01,438.61,151.01,439.27,144.1z"/>
		<path class="st20" d="M434.96,137.67c-6.54-2.31-7.12-3.95-8.38-8.68c-0.93-3.5-0.14-5.99,1.57-7.37l3.26,3.27l1.2-4.46
			c2.18,0.35,4.1,2.11,5.03,5.62C438.91,130.78,439.49,132.42,434.96,137.67z"/>
		<path class="st20" d="M439.46,139.61c0.61-6.91,2.06-7.88,6.33-10.27c3.16-1.77,5.77-1.62,7.53-0.31l-2.36,3.97l4.62,0.06
			c0.2,2.19-1.03,4.5-4.19,6.27C447.11,141.72,445.67,142.69,439.46,139.61z"/>
		<path class="st20" d="M434.46,145.71c-6.7,1.8-7.4,3.39-9.02,8.01c-1.2,3.42-0.6,5.96,1,7.47l3.5-3.01l0.86,4.54
			c2.2-0.18,4.25-1.79,5.45-5.21C437.86,152.88,438.57,151.29,434.46,145.71z"/>
		<path class="st20" d="M432.16,141.16c-4.31-5.43-6.05-5.45-10.94-5.1c-3.62,0.26-5.71,1.82-6.46,3.89l4.15,2.02l-3.82,2.59
			c1.04,1.94,3.33,3.19,6.95,2.93C426.93,147.14,428.67,147.15,432.16,141.16z"/>
	</g>
	<g style="clip-path:url(#SVGID_00000124160431233156319790000016852973172344190897_);">
		<path class="st21" d="M510.41,104.91c3.08,5.3,2.53,6.74,0.66,10.65c-1.38,2.89-3.34,4.11-5.29,4.06l-0.32-4.07l-3.37,2.31
			c-1.26-1.48-1.55-3.77-0.16-6.67C503.8,107.29,504.35,105.85,510.41,104.91z"/>
		<path class="st21" d="M514.98,99.82c0.55-6.11,1.83-6.96,5.62-9.07c2.8-1.56,5.1-1.42,6.66-0.26L525.17,94l4.08,0.06
			c0.17,1.94-0.92,3.97-3.72,5.53C521.75,101.71,520.47,102.56,514.98,99.82z"/>
		<path class="st21" d="M514.3,104.1c6.05-0.98,7.2,0.05,10.18,3.19c2.21,2.32,2.65,4.59,1.9,6.39l-3.92-1.16l0.95,3.97
			c-1.84,0.65-4.08,0.1-6.28-2.23C514.16,111.12,513.01,110.09,514.3,104.1z"/>
		<path class="st21" d="M507.99,101.14c-3-5.35-4.51-5.61-8.83-5.99c-3.19-0.28-5.24,0.78-6.19,2.48l3.34,2.35l-3.7,1.72
			c0.63,1.84,2.46,3.25,5.65,3.54C502.58,105.62,504.1,105.88,507.99,101.14z"/>
		<path class="st21" d="M511.38,98.18c3.72-4.88,3.35-6.37,1.99-10.48c-1.01-3.04-2.8-4.5-4.74-4.69l-0.82,4l-3.05-2.71
			c-1.44,1.31-2.01,3.55-1,6.59C505.12,95,505.49,96.5,511.38,98.18z"/>
	</g>
	<g style="clip-path:url(#SVGID_00000124160431233156319790000016852973172344190897_);">
		<path class="st22" d="M681.6,101.4c-3.22,6.55-5.01,6.95-10.11,7.68c-3.78,0.54-6.28-0.59-7.51-2.56l3.82-3l-4.51-1.81
			c0.63-2.23,2.71-4.02,6.49-4.56C674.88,96.42,676.67,96.02,681.6,101.4z"/>
		<path class="st22" d="M689.66,102.56c6.41-3.49,8.1-2.78,12.69-0.43c3.4,1.74,4.78,4.11,4.66,6.43l-4.85,0.24l2.64,4.08
			c-1.81,1.45-4.54,1.71-7.93-0.03C692.26,110.51,690.57,109.8,689.66,102.56z"/>
		<path class="st22" d="M684.97,104.71c4.97,5.34,4.71,7.16,3.57,12.18c-0.84,3.72-2.8,5.65-5.07,6.1l-1.44-4.64l-3.3,3.57
			c-1.86-1.39-2.79-3.97-1.95-7.69C677.93,109.21,678.19,107.39,684.97,104.71z"/>
		<path class="st22" d="M683.73,96.51c3.32-6.5,2.57-8.17,0.1-12.7c-1.83-3.35-4.24-4.67-6.55-4.48l-0.11,4.86l-4.15-2.53
			c-1.41,1.84-1.59,4.58,0.23,7.93C675.73,94.11,676.47,95.79,683.73,96.51z"/>
		<path class="st22" d="M688.9,97.92c7.28,0.46,8.52-0.89,11.69-4.96c2.35-3.01,2.6-5.74,1.51-7.79L697.6,87l0.67-4.81
			c-2.25-0.56-4.84,0.36-7.18,3.37C687.92,89.62,686.68,90.97,688.9,97.92z"/>
	</g>
	<g style="clip-path:url(#SVGID_00000124160431233156319790000016852973172344190897_);">
		<path class="st22" d="M806.89,132.04c-1.78,5.68-3.17,6.23-7.19,7.46c-2.98,0.91-5.14,0.3-6.38-1.13l2.71-2.9l-3.86-0.9
			c0.23-1.88,1.69-3.58,4.67-4.49C800.85,128.87,802.24,128.32,806.89,132.04z"/>
		<path class="st22" d="M813.53,131.98c4.74-3.61,6.19-3.25,10.18-1.93c2.95,0.98,4.37,2.72,4.55,4.6l-3.88,0.8l2.63,2.96
			c-1.27,1.4-3.45,1.95-6.4,0.97C816.62,138.06,815.17,137.7,813.53,131.98z"/>
		<path class="st22" d="M810.02,134.29c4.67,3.69,4.69,5.19,4.4,9.38c-0.22,3.11-1.55,4.91-3.33,5.55l-1.74-3.56l-2.22,3.29
			c-1.67-0.89-2.74-2.86-2.53-5.96C804.9,138.8,804.88,137.3,810.02,134.29z"/>
		<path class="st22" d="M808,127.83c1.86-5.65,1.05-6.91-1.5-10.25c-1.89-2.47-4-3.24-5.84-2.8l0.51,3.93l-3.66-1.52
			c-0.9,1.66-0.72,3.89,1.18,6.37C801.24,126.9,802.05,128.15,808,127.83z"/>
		<path class="st22" d="M812.34,128.33c5.93-0.54,6.76-1.78,8.81-5.45c1.52-2.72,1.38-4.96,0.25-6.47l-3.4,2.03l-0.06-3.96
			c-1.88-0.17-3.86,0.89-5.38,3.61C810.52,121.75,809.69,123,812.34,128.33z"/>
	</g>
	<g style="clip-path:url(#SVGID_00000124160431233156319790000016852973172344190897_);">
		<path class="st23" d="M937.88,114.79c-2.86,4.25-4.14,4.36-7.76,4.39c-2.68,0.02-4.31-1.01-4.98-2.49l2.94-1.73l-2.97-1.68
			c0.65-1.49,2.27-2.54,4.95-2.56C933.68,110.7,934.96,110.59,937.88,114.79z"/>
		<path class="st23" d="M943.38,116.37c4.79-1.82,5.9-1.17,8.87,0.9c2.2,1.53,2.94,3.31,2.63,4.91l-3.4-0.29l1.45,3.09
			c-1.39,0.84-3.32,0.76-5.52-0.77C944.44,122.14,943.33,121.49,943.38,116.37z"/>
		<path class="st23" d="M939.92,117.42c2.95,4.19,2.6,5.43,1.33,8.81c-0.94,2.51-2.48,3.67-4.1,3.77l-0.56-3.36l-2.63,2.17
			c-1.16-1.14-1.56-3.03-0.62-5.54C934.59,119.88,934.94,118.64,939.92,117.42z"/>
		<path class="st23" d="M939.83,111.6c2.92-4.21,2.56-5.44,1.27-8.82c-0.96-2.5-2.5-3.65-4.13-3.74l-0.54,3.37l-2.65-2.15
			c-1.15,1.15-1.54,3.04-0.59,5.54C934.49,109.17,934.85,110.41,939.83,111.6z"/>
		<path class="st23" d="M943.29,113.07c5.02,1.01,6.01,0.19,8.6-2.34c1.92-1.87,2.35-3.75,1.79-5.28l-3.31,0.84l0.92-3.28
			c-1.51-0.6-3.4-0.21-5.32,1.66C943.39,107.2,942.4,108.02,943.29,113.07z"/>
	</g>
	<g style="clip-path:url(#SVGID_00000124160431233156319790000016852973172344190897_);">
		<path class="st23" d="M885.76,90.7c-7.62,4-9.6,3.14-14.97,0.29c-3.97-2.11-5.56-4.93-5.37-7.66l5.72-0.2l-3.04-4.86
			c2.15-1.68,5.38-1.94,9.35,0.17C882.83,81.29,884.81,82.15,885.76,90.7z"/>
		<path class="st23" d="M892.63,97.41c8.53,1.14,9.65,2.99,12.38,8.41c2.02,4.02,1.69,7.24-0.04,9.35l-4.79-3.14l-0.33,5.72
			c-2.73,0.13-5.51-1.52-7.54-5.54C889.58,106.78,888.46,104.94,892.63,97.41z"/>
		<path class="st23" d="M886.68,96.2c1.01,8.54-0.5,10.09-5.08,14.08c-3.39,2.96-6.59,3.44-9.07,2.29l1.86-5.42l-5.62,1.1
			c-0.8-2.61,0.11-5.72,3.5-8.68C876.84,95.58,878.35,94.03,886.68,96.2z"/>
		<path class="st23" d="M891.2,87.53c7.68-3.88,8.13-5.99,8.92-12.02c0.59-4.46-0.78-7.39-3.11-8.82l-3.49,4.54l-2.19-5.29
			c-2.62,0.78-4.71,3.25-5.29,7.71C885.24,79.68,884.79,81.79,891.2,87.53z"/>
		<path class="st23" d="M895.14,92.46c6.61,5.5,8.73,5.08,14.58,3.41c4.33-1.23,6.47-3.66,6.86-6.36l-5.56-1.39L915,84
			c-1.75-2.1-4.86-3.02-9.18-1.79C899.97,83.88,897.86,84.3,895.14,92.46z"/>
	</g>
	<g style="clip-path:url(#SVGID_00000124160431233156319790000016852973172344190897_);">
		<path class="st17" d="M1069.17,22.36c-5.68,1.31-6.83,0.41-9.86-2.39c-2.24-2.07-2.8-4.19-2.21-5.95l3.79,0.85l-1.16-3.71
			c1.7-0.73,3.86-0.35,6.1,1.72C1068.86,15.69,1070.02,16.59,1069.17,22.36z"/>
		<path class="st17" d="M1072.51,27.95c5.39,2.21,5.81,3.62,6.67,7.65c0.64,2.98-0.14,5.04-1.63,6.13l-2.6-2.88l-1.2,3.69
			c-1.81-0.39-3.35-1.95-3.99-4.93C1068.91,33.57,1068.49,32.17,1072.51,27.95z"/>
		<path class="st17" d="M1068.82,26.13c-0.81,5.78-2.06,6.53-5.75,8.36c-2.73,1.36-4.91,1.12-6.34-0.06l2.15-3.23l-3.87-0.24
			c-0.08-1.85,1.05-3.73,3.79-5.09C1062.48,24.03,1063.73,23.28,1068.82,26.13z"/>
		<path class="st17" d="M1073.28,21.22c5.7-1.22,6.36-2.53,7.92-6.35c1.15-2.82,0.76-4.98-0.52-6.32l-3.07,2.38l-0.53-3.85
			c-1.85,0.06-3.64,1.32-4.8,4.15C1070.72,15.05,1070.06,16.36,1073.28,21.22z"/>
		<path class="st17" d="M1075.01,25.13c3.39,4.74,4.85,4.83,8.97,4.74c3.05-0.06,4.87-1.28,5.59-2.99l-3.4-1.87l3.32-2.01
			c-0.79-1.68-2.66-2.82-5.71-2.75C1079.66,20.34,1078.2,20.25,1075.01,25.13z"/>
	</g>
	<g style="clip-path:url(#SVGID_00000124160431233156319790000016852973172344190897_);">
		<path class="st17" d="M1011.34,74.48c-10.56-3-11.64-5.54-14.09-12.9c-1.82-5.44-0.81-9.45,1.77-11.8l5.47,4.85l1.46-7.16
			c3.47,0.34,6.68,2.94,8.5,8.38C1016.9,63.2,1017.98,65.74,1011.34,74.48z"/>
		<path class="st17" d="M1011.78,86.72c6.88,8.55,6.3,11.24,4.05,18.66c-1.66,5.49-4.8,8.18-8.26,8.62l-1.66-7.12l-5.33,5
			c-2.64-2.28-3.76-6.26-2.09-11.75C1000.73,92.71,1001.32,90.02,1011.78,86.72z"/>
		<path class="st17" d="M1007.35,80.37c-6.58,8.79-9.33,8.89-17.08,8.56c-5.73-0.25-9.12-2.62-10.4-5.86l6.48-3.38l-6.17-3.92
			c1.56-3.12,5.13-5.19,10.86-4.95C998.8,71.15,1001.56,71.04,1007.35,80.37z"/>
		<path class="st17" d="M1019.15,76.33c10.51,3.16,12.79,1.61,18.82-3.26c4.46-3.61,5.78-7.52,4.88-10.89l-7.22,1.13l2.63-6.82
			c-3.11-1.59-7.21-1.13-11.68,2.48C1020.55,63.83,1018.27,65.39,1019.15,76.33z"/>
		<path class="st17" d="M1018.46,84.35c1.28,10.9,3.61,12.37,10.47,15.97c5.08,2.66,9.2,2.31,11.93,0.15l-3.91-6.17l7.3-0.3
			c0.22-3.48-1.83-7.07-6.91-9.73C1030.48,80.67,1028.15,79.2,1018.46,84.35z"/>
	</g>
	<g style="clip-path:url(#SVGID_00000124160431233156319790000016852973172344190897_);">
		<path class="st17" d="M1078.34,84.69c-0.18-4.95,0.75-5.76,3.56-7.84c2.08-1.54,3.94-1.66,5.31-0.89l-1.32,3.02l3.27-0.37
			c0.34,1.54-0.33,3.27-2.41,4.81C1083.95,85.5,1083.01,86.32,1078.34,84.69z"/>
		<path class="st17" d="M1073.15,86.59c-2.71,4.14-3.94,4.27-7.44,4.34c-2.59,0.05-4.18-0.92-4.85-2.34l2.82-1.71l-2.89-1.59
			c0.61-1.45,2.16-2.48,4.75-2.54C1069.04,82.68,1070.28,82.56,1073.15,86.59z"/>
		<path class="st17" d="M1075.26,83.8c-4.69-1.59-5.11-2.76-6.05-6.13c-0.69-2.49-0.15-4.27,1.06-5.28l2.35,2.31l0.82-3.19
			c1.56,0.23,2.94,1.48,3.64,3.97C1078.02,78.85,1078.45,80.02,1075.26,83.8z"/>
		<path class="st17" d="M1078.64,88.3c0.11,4.95,1.09,5.71,4.02,7.61c2.17,1.41,4.03,1.43,5.35,0.57l-1.49-2.94l3.29,0.18
			c0.25-1.55-0.52-3.25-2.69-4.66C1084.19,87.15,1083.21,86.4,1078.64,88.3z"/>
		<path class="st17" d="M1075.1,89.12c-4.5,2.07-4.8,3.27-5.39,6.72c-0.43,2.55,0.29,4.27,1.6,5.14l2.1-2.54l1.15,3.09
			c1.52-0.39,2.77-1.77,3.21-4.32C1078.35,93.76,1078.66,92.55,1075.1,89.12z"/>
	</g>
	<g style="clip-path:url(#SVGID_00000124160431233156319790000016852973172344190897_);">
		<path class="st22" d="M768.71,108.31c-2.91-0.15-3.34-0.74-4.41-2.5c-0.79-1.3-0.77-2.4-0.25-3.16l1.7,0.93l-0.05-1.94
			c0.92-0.12,1.9,0.36,2.7,1.66C769.47,105.06,769.9,105.66,768.71,108.31z"/>
		<path class="st22" d="M769.55,111.46c2.29,1.8,2.3,2.54,2.16,4.59c-0.1,1.52-0.76,2.4-1.63,2.72l-0.85-1.74l-1.08,1.61
			c-0.82-0.43-1.35-1.4-1.24-2.92C767.04,113.67,767.03,112.93,769.55,111.46z"/>
		<path class="st22" d="M768.02,110.08c-1.18,2.67-1.89,2.86-3.91,3.23c-1.5,0.28-2.52-0.14-3.04-0.9l1.48-1.26l-1.83-0.65
			c0.22-0.9,1.02-1.65,2.52-1.93C765.26,108.2,765.97,108.01,768.02,110.08z"/>
		<path class="st22" d="M770.84,108.33c2.91,0.19,3.41-0.35,4.68-1.97c0.94-1.2,1.05-2.29,0.61-3.11l-1.8,0.72l0.27-1.92
			c-0.9-0.23-1.93,0.14-2.88,1.34C770.46,105.01,769.96,105.55,770.84,108.33z"/>
		<path class="st22" d="M771.13,110.45c0.98,2.75,1.67,2.99,3.66,3.51c1.47,0.39,2.52,0.05,3.1-0.67l-1.38-1.37l1.87-0.51
			c-0.15-0.91-0.89-1.72-2.37-2.11C774.03,108.78,773.34,108.54,771.13,110.45z"/>
	</g>
	<g style="clip-path:url(#SVGID_00000124160431233156319790000016852973172344190897_);">
		<path class="st22" d="M643.64,127.67c-4.9,1.92-6.05,1.26-9.11-0.83c-2.27-1.55-3.05-3.37-2.75-5.02l3.49,0.26l-1.52-3.16
			c1.42-0.88,3.4-0.82,5.67,0.73C642.49,121.76,643.64,122.41,643.64,127.67z"/>
		<path class="st22" d="M647.36,132.21c5.11,1.27,5.66,2.46,6.96,5.94c0.96,2.58,0.54,4.51-0.65,5.68l-2.7-2.23l-0.58,3.45
			c-1.67-0.11-3.25-1.3-4.21-3.87C644.89,137.71,644.33,136.51,647.36,132.21z"/>
		<path class="st22" d="M643.83,131.08c0.04,5.26-0.98,6.1-4.03,8.22c-2.26,1.57-4.24,1.65-5.67,0.78l1.49-3.17l-3.49,0.29
			c-0.31-1.64,0.45-3.47,2.71-5.04C637.89,130.04,638.91,129.2,643.83,131.08z"/>
		<path class="st22" d="M647.16,126.11c4.93-1.84,5.34-3.1,6.23-6.7c0.66-2.67,0.02-4.55-1.3-5.57l-2.42,2.53l-0.98-3.36
			c-1.64,0.3-3.08,1.66-3.74,4.33C644.07,120.94,643.65,122.19,647.16,126.11z"/>
		<path class="st22" d="M649.22,129.38c3.65,3.79,4.97,3.67,8.63,3.05c2.71-0.46,4.18-1.79,4.6-3.41l-3.28-1.22l2.7-2.23
			c-0.93-1.39-2.75-2.16-5.46-1.71C652.74,124.48,651.42,124.6,649.22,129.38z"/>
	</g>
	<g style="clip-path:url(#SVGID_00000124160431233156319790000016852973172344190897_);">
		<path class="st21" d="M557.77,116.99c-0.55,4.11-1.44,4.64-4.06,5.96c-1.94,0.97-3.49,0.81-4.5-0.02l1.52-2.3l-2.75-0.16
			c-0.06-1.31,0.74-2.65,2.67-3.63C553.26,115.52,554.15,114.98,557.77,116.99z"/>
		<path class="st21" d="M562.32,116.17c2.82-3.03,3.86-2.96,6.75-2.52c2.14,0.32,3.31,1.35,3.66,2.62l-2.57,1.01l2.15,1.72
			c-0.71,1.11-2.13,1.74-4.28,1.42C565.15,119.97,564.12,119.9,562.32,116.17z"/>
		<path class="st21" d="M560.19,118.17c3.64,1.98,3.82,3.01,4.12,5.92c0.22,2.15-0.49,3.55-1.63,4.2l-1.61-2.24l-1.13,2.51
			c-1.25-0.41-2.22-1.64-2.43-3.79C557.2,121.86,557.02,120.83,560.19,118.17z"/>
		<path class="st21" d="M558.04,113.98c0.61-4.1-0.09-4.86-2.23-6.85c-1.59-1.47-3.12-1.75-4.33-1.23l0.81,2.64l-2.69-0.61
			c-0.42,1.25-0.03,2.75,1.56,4.23C553.3,114.13,554,114.89,558.04,113.98z"/>
		<path class="st21" d="M561.08,113.8c4-1.06,4.43-2.01,5.4-4.77c0.72-2.04,0.37-3.56-0.59-4.47l-2.1,1.79l-0.51-2.71
			c-1.31,0.11-2.54,1.06-3.26,3.11C559.05,109.51,558.63,110.46,561.08,113.8z"/>
	</g>
	<g style="clip-path:url(#SVGID_00000124160431233156319790000016852973172344190897_);">
		<path class="st21" d="M530.11,142.04c2.27,3.91,1.86,4.97,0.48,7.84c-1.02,2.13-2.46,3.03-3.9,2.99l-0.23-3l-2.48,1.7
			c-0.93-1.09-1.14-2.78-0.12-4.91C525.24,143.79,525.65,142.73,530.11,142.04z"/>
		<path class="st21" d="M533.48,138.29c0.41-4.5,1.35-5.13,4.14-6.68c2.06-1.15,3.76-1.05,4.91-0.19l-1.54,2.58l3.01,0.04
			c0.13,1.43-0.68,2.93-2.74,4.08C538.46,139.67,537.52,140.31,533.48,138.29z"/>
		<path class="st21" d="M532.97,141.44c4.46-0.72,5.3,0.04,7.5,2.35c1.63,1.71,1.95,3.38,1.4,4.71l-2.88-0.85l0.7,2.92
			c-1.35,0.48-3,0.07-4.63-1.64C532.87,146.61,532.02,145.85,532.97,141.44z"/>
		<path class="st21" d="M528.33,139.26c-2.21-3.94-3.33-4.13-6.5-4.41c-2.35-0.21-3.86,0.58-4.56,1.83l2.46,1.73l-2.73,1.27
			c0.47,1.36,1.81,2.4,4.16,2.6C524.34,142.56,525.46,142.75,528.33,139.26z"/>
		<path class="st21" d="M530.83,137.08c2.74-3.59,2.47-4.69,1.46-7.72c-0.74-2.24-2.06-3.31-3.49-3.45l-0.61,2.95l-2.25-2
			c-1.06,0.97-1.48,2.61-0.73,4.86C526.22,134.74,526.49,135.84,530.83,137.08z"/>
	</g>
	<g style="clip-path:url(#SVGID_00000124160431233156319790000016852973172344190897_);">
		<path class="st18" d="M208.54,118.17c-3.6-3.23-3.54-4.45-3.09-7.84c0.33-2.51,1.51-3.9,2.99-4.34l1.23,2.98l1.97-2.55
			c1.31,0.81,2.08,2.46,1.74,4.97C212.93,114.78,212.87,116,208.54,118.17z"/>
		<path class="st18" d="M206.35,123.11c1.07,4.72,0.32,5.68-2.01,8.18c-1.72,1.85-3.49,2.31-4.94,1.81l0.72-3.14l-3.08,0.95
			c-0.6-1.41-0.28-3.21,1.45-5.06C200.81,123.35,201.56,122.39,206.35,123.11z"/>
		<path class="st18" d="M205.82,119.73c-4.31,2.21-5.42,1.72-8.42,0.08c-2.22-1.21-3.11-2.8-2.98-4.34l3.22-0.08l-1.68-2.75
			c1.22-0.94,3.04-1.06,5.26,0.14C204.22,114.43,205.33,114.92,205.82,119.73z"/>
		<path class="st18" d="M211.28,120.42c3.55,3.29,4.76,3.11,8.09,2.35c2.47-0.56,3.75-1.86,4.04-3.37l-3.08-0.95l2.36-2.19
			c-0.92-1.23-2.64-1.84-5.11-1.28C214.25,115.74,213.05,115.91,211.28,120.42z"/>
		<path class="st18" d="M209.45,123.47c-1.61,4.57-0.97,5.6,1.06,8.36c1.5,2.04,3.2,2.7,4.7,2.37l-0.35-3.2l2.95,1.3
			c0.76-1.34,0.64-3.15-0.86-5.19C214.93,124.33,214.29,123.3,209.45,123.47z"/>
	</g>
	<g style="clip-path:url(#SVGID_00000124160431233156319790000016852973172344190897_);">
		<path class="st17" d="M52.05,73.18c-3.81,2.52-4.9,2.17-7.89,0.96c-2.21-0.9-3.2-2.31-3.25-3.76l3.01-0.41l-1.86-2.4
			c1.05-1,2.74-1.31,4.95-0.41C50,68.36,51.09,68.71,52.05,73.18z"/>
		<path class="st17" d="M56.11,76.02c4.49,0.83,5.04,1.83,6.35,4.78c0.97,2.18,0.71,3.88-0.26,4.96l-2.46-1.79L59.42,87
			c-1.45,0-2.88-0.95-3.85-3.14C54.26,80.92,53.71,79.91,56.11,76.02z"/>
		<path class="st17" d="M53.46,76.71c0.26,4.56-0.59,5.33-3.15,7.3c-1.89,1.46-3.61,1.61-4.88,0.91l1.16-2.81l-3.02,0.4
			c-0.34-1.41,0.24-3.03,2.14-4.48C48.27,76.06,49.12,75.29,53.46,76.71z"/>
		<path class="st17" d="M55.72,71.17c3.37-3.08,3.3-4.23,2.85-7.42c-0.34-2.36-1.46-3.67-2.85-4.07l-1.14,2.82l-1.88-2.39
			c-1.23,0.77-1.94,2.34-1.61,4.7C51.55,68.01,51.62,69.15,55.72,71.17z"/>
		<path class="st17" d="M57.1,73.6c3.79,2.55,4.89,2.21,7.88,1.02c2.22-0.88,3.22-2.28,3.28-3.73l-3.01-0.44l1.88-2.39
			c-1.04-1.01-2.73-1.34-4.95-0.45C59.19,68.81,58.1,69.15,57.1,73.6z"/>
	</g>
	<path style="clip-path:url(#SVGID_00000124160431233156319790000016852973172344190897_);fill:#FDFFFD;" d="M376,86.5v1
		c0,2.49,2.01,4.5,4.5,4.5h7c2.49,0,4.5,2.01,4.5,4.5v0c0,2.49-2.01,4.5-4.5,4.5h-43c-2.49,0-4.5-2.01-4.5-4.5v0
		c0-2.49,2.01-4.5,4.5-4.5h6c2.49,0,4.5-2.01,4.5-4.5v-1c0-2.49-2.01-4.5-4.5-4.5h-26c-2.49,0-4.5-2.01-4.5-4.5v0
		c0-2.49,2.01-4.5,4.5-4.5h3c2.49,0,4.5-2.01,4.5-4.5v-2c0-2.49-2.01-4.5-4.5-4.5h-6c-2.49,0-4.5-2.01-4.5-4.5v0
		c0-2.49,2.01-4.5,4.5-4.5h43c2.49,0,4.5,2.01,4.5,4.5v0c0,2.49-2.01,4.5-4.5,4.5h-11c-2.49,0-4.5,2.01-4.5,4.5v2
		c0,2.49,2.01,4.5,4.5,4.5h42c2.49,0,4.5,2.01,4.5,4.5v0c0,2.49-2.01,4.5-4.5,4.5h-15C378.01,82,376,84.01,376,86.5z"/>
	<path style="clip-path:url(#SVGID_00000124160431233156319790000016852973172344190897_);fill:#FDFFFD;" d="M366.39,31.92v0.69
		c0,1.71-1.38,3.09-3.09,3.09h-4.81c-1.71,0-3.09,1.38-3.09,3.09v0c0,1.71,1.38,3.09,3.09,3.09h29.53c1.71,0,3.09-1.38,3.09-3.09v0
		c0-1.71-1.38-3.09-3.09-3.09h-4.12c-1.71,0-3.09-1.38-3.09-3.09v-0.69c0-1.71,1.38-3.09,3.09-3.09h17.86
		c1.71,0,3.09-1.38,3.09-3.09v0c0-1.71-1.38-3.09-3.09-3.09h-2.06c-1.71,0-3.09-1.38-3.09-3.09v-1.37c0-1.71,1.38-3.09,3.09-3.09
		h4.12c1.71,0,3.09-1.38,3.09-3.09v0c0-1.71-1.38-3.09-3.09-3.09h-29.53c-1.71,0-3.09,1.38-3.09,3.09v0c0,1.71,1.38,3.09,3.09,3.09
		h7.55c1.71,0,3.09,1.38,3.09,3.09v1.37c0,1.71-1.38,3.09-3.09,3.09H353c-1.71,0-3.09,1.38-3.09,3.09v0c0,1.71,1.38,3.09,3.09,3.09
		h10.3C365.01,28.83,366.39,30.21,366.39,31.92z"/>
	<path style="clip-path:url(#SVGID_00000124160431233156319790000016852973172344190897_);fill:#FDFFFD;" d="M733,47.5v1
		c0,2.49-2.01,4.5-4.5,4.5h-7c-2.49,0-4.5,2.01-4.5,4.5v0c0,2.49,2.01,4.5,4.5,4.5h43c2.49,0,4.5-2.01,4.5-4.5v0
		c0-2.49-2.01-4.5-4.5-4.5h-6c-2.49,0-4.5-2.01-4.5-4.5v-1c0-2.49,2.01-4.5,4.5-4.5h26c2.49,0,4.5-2.01,4.5-4.5v0
		c0-2.49-2.01-4.5-4.5-4.5h-3c-2.49,0-4.5-2.01-4.5-4.5v-2c0-2.49,2.01-4.5,4.5-4.5h6c2.49,0,4.5-2.01,4.5-4.5v0
		c0-2.49-2.01-4.5-4.5-4.5h-43c-2.49,0-4.5,2.01-4.5,4.5v0c0,2.49,2.01,4.5,4.5,4.5h11c2.49,0,4.5,2.01,4.5,4.5v2
		c0,2.49-2.01,4.5-4.5,4.5h-42c-2.49,0-4.5,2.01-4.5,4.5v0c0,2.49,2.01,4.5,4.5,4.5h15C730.99,43,733,45.01,733,47.5z"/>
	<path style="clip-path:url(#SVGID_00000124160431233156319790000016852973172344190897_);fill:#FDFFFD;" d="M151.65,26.24v0.6
		c0,1.5,1.22,2.72,2.72,2.72h4.23c1.5,0,2.72,1.22,2.72,2.72v0c0,1.5-1.22,2.72-2.72,2.72h-25.98c-1.5,0-2.72-1.22-2.72-2.72v0
		c0-1.5,1.22-2.72,2.72-2.72h3.62c1.5,0,2.72-1.22,2.72-2.72v-0.6c0-1.5-1.22-2.72-2.72-2.72h-15.71c-1.5,0-2.72-1.22-2.72-2.72v0
		c0-1.5,1.22-2.72,2.72-2.72h1.81c1.5,0,2.72-1.22,2.72-2.72v-1.21c0-1.5-1.22-2.72-2.72-2.72h-3.63c-1.5,0-2.72-1.22-2.72-2.72v0
		c0-1.5,1.22-2.72,2.72-2.72h25.98c1.5,0,2.72,1.22,2.72,2.72v0c0,1.5-1.22,2.72-2.72,2.72h-6.65c-1.5,0-2.72,1.22-2.72,2.72v1.21
		c0,1.5,1.22,2.72,2.72,2.72h25.38c1.5,0,2.72,1.22,2.72,2.72v0c0,1.5-1.22,2.72-2.72,2.72h-9.06
		C152.86,23.52,151.65,24.74,151.65,26.24z"/>
	<path style="clip-path:url(#SVGID_00000124160431233156319790000016852973172344190897_);fill:#7C351C;" d="M928.16,172L928.16,172
		c-1.28,0-2.32-1.04-2.32-2.32v-11.36c0-1.28,1.04-2.32,2.32-2.32l0,0c1.28,0,2.32,1.04,2.32,2.32v11.36
		C930.48,170.96,929.44,172,928.16,172z"/>
	<path style="clip-path:url(#SVGID_00000124160431233156319790000016852973172344190897_);fill:#7C351C;" d="M928.16,218L928.16,218
		c-1.28,0-2.32-1.04-2.32-2.32v-34.36c0-1.28,1.04-2.32,2.32-2.32l0,0c1.28,0,2.32,1.04,2.32,2.32v34.36
		C930.48,216.96,929.44,218,928.16,218z"/>
	<path style="clip-path:url(#SVGID_00000124160431233156319790000016852973172344190897_);fill:#9DED8A;" d="M1100,194.2V250H0
		v-55.8C151.51,222.27,342.48,227,550,227S948.49,222.27,1100,194.2z"/>
	<path style="clip-path:url(#SVGID_00000124160431233156319790000016852973172344190897_);fill:#FDFFFD;" d="M295.92,34.85v3.04
		c0,2.27-1.84,4.11-4.11,4.11h-64.39c-2.27,0-4.11-1.84-4.11-4.11v-3.04c0-2.27,1.84-4.11,4.11-4.11h6.93
		c2.27,0,4.11-1.84,4.11-4.11v-2.27c0-2.27-1.84-4.11-4.11-4.11h-16.24c-2.27,0-4.11-1.84-4.11-4.11v-3.04
		c0-2.27,1.84-4.11,4.11-4.11h64.39c2.27,0,4.11,1.84,4.11,4.11v3.04c0,2.27-1.84,4.11-4.11,4.11h-26.34
		c-2.27,0-4.11,1.84-4.11,4.11v2.27c0,2.27,1.84,4.11,4.11,4.11h35.66C294.08,30.74,295.92,32.58,295.92,34.85z"/>
	<path style="clip-path:url(#SVGID_00000124160431233156319790000016852973172344190897_);fill:#FDFFFD;" d="M617.64,48.81v2
		c0,3.31-2.69,6-6,6h-132c-3.31,0-6-2.69-6-6v-2c0-3.31,2.69-6,6-6h34c3.31,0,6-2.69,6-6v0c0-3.31-2.69-6-6-6h-65
		c-3.31,0-6-2.69-6-6v0c0-3.31,2.69-6,6-6h103c3.31,0,6,2.69,6,6v0c0,3.31-2.69,6-6,6h-3c-3.31,0-6,2.69-6,6v0c0,3.31,2.69,6,6,6h63
		C614.95,42.81,617.64,45.5,617.64,48.81z"/>
	<path style="clip-path:url(#SVGID_00000124160431233156319790000016852973172344190897_);fill:#FDFFFD;" d="M835,27.16v1.21
		c0,2.01,1.63,3.63,3.63,3.63h79.89c2.01,0,3.63-1.63,3.63-3.63v-1.21c0-2.01-1.63-3.63-3.63-3.63h-20.58
		c-2.01,0-3.63-1.63-3.63-3.63v0c0-2.01,1.63-3.63,3.63-3.63h39.34c2.01,0,3.63-1.63,3.63-3.63v0c0-2.01-1.63-3.63-3.63-3.63h-62.34
		c-2.01,0-3.63,1.63-3.63,3.63v0c0,2.01,1.63,3.63,3.63,3.63h1.82c2.01,0,3.63,1.63,3.63,3.63v0c0,2.01-1.63,3.63-3.63,3.63h-38.13
		C836.63,23.53,835,25.15,835,27.16z"/>
	<path style="clip-path:url(#SVGID_00000124160431233156319790000016852973172344190897_);fill:#FDFFFD;" d="M645.5,56h-15
		c-3.59,0-6.5-2.91-6.5-6.5v0c0-3.59,2.91-6.5,6.5-6.5h15c3.59,0,6.5,2.91,6.5,6.5v0C652,53.09,649.09,56,645.5,56z"/>
	<path style="clip-path:url(#SVGID_00000124160431233156319790000016852973172344190897_);fill:#FDFFFD;" d="M586.5,31h-15
		c-3.59,0-6.5-2.91-6.5-6.5v0c0-3.59,2.91-6.5,6.5-6.5h15c3.59,0,6.5,2.91,6.5,6.5v0C593,28.09,590.09,31,586.5,31z"/>
	<path style="clip-path:url(#SVGID_00000124160431233156319790000016852973172344190897_);fill:#FDFFFD;" d="M795.5,62h-17
		c-2.49,0-4.5-2.01-4.5-4.5v0c0-2.49,2.01-4.5,4.5-4.5h17c2.49,0,4.5,2.01,4.5,4.5v0C800,59.99,797.99,62,795.5,62z"/>
	<path style="clip-path:url(#SVGID_00000124160431233156319790000016852973172344190897_);fill:#FDFFFD;" d="M947.5,32h-17
		c-2.49,0-4.5-2.01-4.5-4.5v0c0-2.49,2.01-4.5,4.5-4.5h17c2.49,0,4.5,2.01,4.5,4.5v0C952,29.99,949.99,32,947.5,32z"/>
	<path style="clip-path:url(#SVGID_00000124160431233156319790000016852973172344190897_);fill:#FDFFFD;" d="M862.5,16h-14
		c-1.93,0-3.5-1.57-3.5-3.5v0c0-1.93,1.57-3.5,3.5-3.5h14c1.93,0,3.5,1.57,3.5,3.5v0C866,14.43,864.43,16,862.5,16z"/>
	<path style="clip-path:url(#SVGID_00000124160431233156319790000016852973172344190897_);fill:#FDFFFD;" d="M701.5,43h-13
		c-2.49,0-4.5-2.01-4.5-4.5v0c0-2.49,2.01-4.5,4.5-4.5h13c2.49,0,4.5,2.01,4.5,4.5v0C706,40.99,703.99,43,701.5,43z"/>
	<path style="clip-path:url(#SVGID_00000124160431233156319790000016852973172344190897_);fill:#FDFFFD;" d="M304,20h-6
		c-2.76,0-5-2.24-5-5v-1c0-2.76,2.24-5,5-5h6c2.76,0,5,2.24,5,5v1C309,17.76,306.76,20,304,20z"/>
	<path style="clip-path:url(#SVGID_00000124160431233156319790000016852973172344190897_);fill:#FDFFFD;" d="M416,83h-6
		c-2.76,0-5-2.24-5-5v-1c0-2.76,2.24-5,5-5h6c2.76,0,5,2.24,5,5v1C421,80.76,418.76,83,416,83z"/>
	<path style="clip-path:url(#SVGID_00000124160431233156319790000016852973172344190897_);fill:#FDFFFD;" d="M420,15h-7
		c-1.66,0-3-1.34-3-3v0c0-1.66,1.34-3,3-3h7c1.66,0,3,1.34,3,3v0C423,13.66,421.66,15,420,15z"/>
	<path style="clip-path:url(#SVGID_00000124160431233156319790000016852973172344190897_);fill:#FDFFFD;" d="M350,42h-7
		c-1.66,0-3-1.34-3-3v0c0-1.66,1.34-3,3-3h7c1.66,0,3,1.34,3,3v0C353,40.66,351.66,42,350,42z"/>
	<path style="clip-path:url(#SVGID_00000124160431233156319790000016852973172344190897_);fill:#FDFFFD;" d="M216,42h-6
		c-2.76,0-5-2.24-5-5v-1c0-2.76,2.24-5,5-5h6c2.76,0,5,2.24,5,5v1C221,39.76,218.76,42,216,42z"/>
</g>
</svg>
