<?xml version="1.0" encoding="utf-8"?>
<!-- Generator: Adobe Illustrator 27.2.0, SVG Export Plug-In . SVG Version: 6.00 Build 0)  -->
<svg version="1.1" id="Layer_1" xmlns="http://www.w3.org/2000/svg" xmlns:xlink="http://www.w3.org/1999/xlink" x="0px" y="0px"
	 viewBox="0 0 233 234" style="enable-background:new 0 0 233 234;" xml:space="preserve">
<style type="text/css">
	.st0{clip-path:url(#SVGID_00000067931647492440637310000001036687566005864097_);fill:#D4F4D9;}
	.st1{clip-path:url(#SVGID_00000067931647492440637310000001036687566005864097_);fill:#6D2912;}
	.st2{clip-path:url(#SVGID_00000067931647492440637310000001036687566005864097_);fill:#FDFFFD;}
	.st3{clip-path:url(#SVGID_00000067931647492440637310000001036687566005864097_);fill:none;}
	.st4{clip-path:url(#SVGID_00000067931647492440637310000001036687566005864097_);}
	.st5{fill:#7F422D;}
	.st6{fill:#E85B5B;}
	.st7{fill:#6D3526;}
	.st8{fill:#FC8686;}
	.st9{clip-path:url(#SVGID_00000067931647492440637310000001036687566005864097_);fill:#9DED8A;}
</style>
<g>
	<defs>
		<ellipse id="SVGID_1_" cx="116.19" cy="117.26" rx="110.47" ry="110"/>
	</defs>
	<clipPath id="SVGID_00000121261625852502564670000017782033590436644244_">
		<use xlink:href="#SVGID_1_"  style="overflow:visible;"/>
	</clipPath>
	
		<rect x="-456.15" y="-16.74" style="clip-path:url(#SVGID_00000121261625852502564670000017782033590436644244_);fill:#D4F4D9;" width="1101" height="250"/>
	<path style="clip-path:url(#SVGID_00000121261625852502564670000017782033590436644244_);fill:#6D2912;" d="M130.69,230.9
		L130.69,230.9c-1.68,0-3.05-1.36-3.05-3.05v-15.57c0-1.68,1.36-3.05,3.05-3.05h0c1.68,0,3.05,1.36,3.05,3.05v15.57
		C133.74,229.54,132.37,230.9,130.69,230.9z"/>
	<path style="clip-path:url(#SVGID_00000121261625852502564670000017782033590436644244_);fill:#FDFFFD;" d="M-34.15,69.76v1
		c0,2.49,2.01,4.5,4.5,4.5h7c2.49,0,4.5,2.01,4.5,4.5v0c0,2.49-2.01,4.5-4.5,4.5h-43c-2.49,0-4.5-2.01-4.5-4.5v0
		c0-2.49,2.01-4.5,4.5-4.5h6c2.49,0,4.5-2.01,4.5-4.5v-1c0-2.49-2.01-4.5-4.5-4.5h-26c-2.49,0-4.5-2.01-4.5-4.5v0
		c0-2.49,2.01-4.5,4.5-4.5h3c2.49,0,4.5-2.01,4.5-4.5v-2c0-2.49-2.01-4.5-4.5-4.5h-6c-2.49,0-4.5-2.01-4.5-4.5v0
		c0-2.49,2.01-4.5,4.5-4.5h43c2.49,0,4.5,2.01,4.5,4.5v0c0,2.49-2.01,4.5-4.5,4.5h-11c-2.49,0-4.5,2.01-4.5,4.5v2
		c0,2.49,2.01,4.5,4.5,4.5h42c2.49,0,4.5,2.01,4.5,4.5v0c0,2.49-2.01,4.5-4.5,4.5h-15C-32.13,65.26-34.15,67.27-34.15,69.76z"/>
	<path style="clip-path:url(#SVGID_00000121261625852502564670000017782033590436644244_);fill:#FDFFFD;" d="M-43.76,15.17v0.69
		c0,1.71-1.38,3.09-3.09,3.09h-4.81c-1.71,0-3.09,1.38-3.09,3.09v0c0,1.71,1.38,3.09,3.09,3.09h29.53c1.71,0,3.09-1.38,3.09-3.09v0
		c0-1.71-1.38-3.09-3.09-3.09h-4.12c-1.71,0-3.09-1.38-3.09-3.09v-0.69c0-1.71,1.38-3.09,3.09-3.09h17.86
		c1.71,0,3.09-1.38,3.09-3.09v0c0-1.71-1.38-3.09-3.09-3.09h-2.06c-1.71,0-3.09-1.38-3.09-3.09V1.44c0-1.71,1.38-3.09,3.09-3.09
		h4.12c1.71,0,3.09-1.38,3.09-3.09v0c0-1.71-1.38-3.09-3.09-3.09h-29.53c-1.71,0-3.09,1.38-3.09,3.09v0c0,1.71,1.38,3.09,3.09,3.09
		h7.55c1.71,0,3.09,1.38,3.09,3.09v1.37c0,1.71-1.38,3.09-3.09,3.09h-28.84c-1.71,0-3.09,1.38-3.09,3.09v0
		c0,1.71,1.38,3.09,3.09,3.09h10.3C-45.14,12.08-43.76,13.46-43.76,15.17z"/>
	<path style="clip-path:url(#SVGID_00000121261625852502564670000017782033590436644244_);fill:#FDFFFD;" d="M40.24,72.17v0.69
		c0,1.71-1.38,3.09-3.09,3.09h-4.81c-1.71,0-3.09,1.38-3.09,3.09v0c0,1.71,1.38,3.09,3.09,3.09h29.53c1.71,0,3.09-1.38,3.09-3.09v0
		c0-1.71-1.38-3.09-3.09-3.09h-4.12c-1.71,0-3.09-1.38-3.09-3.09v-0.69c0-1.71,1.38-3.09,3.09-3.09h17.86
		c1.71,0,3.09-1.38,3.09-3.09v0c0-1.71-1.38-3.09-3.09-3.09h-2.06c-1.71,0-3.09-1.38-3.09-3.09v-1.37c0-1.71,1.38-3.09,3.09-3.09
		h4.12c1.71,0,3.09-1.38,3.09-3.09v0c0-1.71-1.38-3.09-3.09-3.09H48.14c-1.71,0-3.09,1.38-3.09,3.09v0c0,1.71,1.38,3.09,3.09,3.09
		h7.55c1.71,0,3.09,1.38,3.09,3.09v1.37c0,1.71-1.38,3.09-3.09,3.09H26.85c-1.71,0-3.09,1.38-3.09,3.09v0
		c0,1.71,1.38,3.09,3.09,3.09h10.3C38.86,69.08,40.24,70.46,40.24,72.17z"/>
	<path style="clip-path:url(#SVGID_00000121261625852502564670000017782033590436644244_);fill:#FDFFFD;" d="M206.85,20.26v2
		c0,3.31-2.69,6-6,6h-132c-3.31,0-6-2.69-6-6v-2c0-3.31,2.69-6,6-6h34c3.31,0,6-2.69,6-6v0c0-3.31-2.69-6-6-6h-65
		c-3.31,0-6-2.69-6-6v0c0-3.31,2.69-6,6-6h103c3.31,0,6,2.69,6,6v0c0,3.31-2.69,6-6,6h-3c-3.31,0-6,2.69-6,6v0c0,3.31,2.69,6,6,6h63
		C204.17,14.26,206.85,16.94,206.85,20.26z"/>
	<path style="clip-path:url(#SVGID_00000121261625852502564670000017782033590436644244_);fill:#FDFFFD;" d="M188.35,62.26h-15
		c-3.59,0-6.5-2.91-6.5-6.5v0c0-3.59,2.91-6.5,6.5-6.5h15c3.59,0,6.5,2.91,6.5,6.5v0C194.85,59.35,191.94,62.26,188.35,62.26z"/>
	<path style="clip-path:url(#SVGID_00000121261625852502564670000017782033590436644244_);fill:#FDFFFD;" d="M179.35,2.26h-15
		c-3.59,0-6.5-2.91-6.5-6.5v0c0-3.59,2.91-6.5,6.5-6.5h15c3.59,0,6.5,2.91,6.5,6.5v0C185.85-0.65,182.94,2.26,179.35,2.26z"/>
	<path style="clip-path:url(#SVGID_00000121261625852502564670000017782033590436644244_);fill:#FDFFFD;" d="M5.85,66.26h-6
		c-2.76,0-5-2.24-5-5v-1c0-2.76,2.24-5,5-5h6c2.76,0,5,2.24,5,5v1C10.85,64.02,8.61,66.26,5.85,66.26z"/>
	<path style="clip-path:url(#SVGID_00000121261625852502564670000017782033590436644244_);fill:#FDFFFD;" d="M9.85-1.74h-7
		c-1.66,0-3-1.34-3-3v0c0-1.66,1.34-3,3-3h7c1.66,0,3,1.34,3,3v0C12.85-3.09,11.51-1.74,9.85-1.74z"/>
	<path style="clip-path:url(#SVGID_00000121261625852502564670000017782033590436644244_);fill:#6D2912;" d="M17.72,232.7
		L17.72,232.7c-1.62,0-2.94-1.32-2.94-2.94v-12.22c0-1.62,1.32-2.94,2.94-2.94h0c1.62,0,2.94,1.32,2.94,2.94v12.22
		C20.67,231.39,19.35,232.7,17.72,232.7z"/>
	<path style="clip-path:url(#SVGID_00000121261625852502564670000017782033590436644244_);fill:#6D2912;" d="M-3.1,229.99
		L-3.1,229.99c-2.12,0-3.85-1.72-3.85-3.85v-13.58c0-2.12,1.72-3.85,3.85-3.85h0c2.12,0,3.85,1.72,3.85,3.85v13.58
		C0.75,228.26-0.97,229.99-3.1,229.99z"/>
	
		<rect x="-410.15" y="-16.74" style="clip-path:url(#SVGID_00000121261625852502564670000017782033590436644244_);fill:none;" width="1100" height="250"/>
	<g style="clip-path:url(#SVGID_00000121261625852502564670000017782033590436644244_);">
		<path class="st5" d="M172.11,157.75v21.05c0,6.66-4.67,12.06-10.44,12.06H141.6c-2.63,0-4.76,2.46-4.76,5.5v38.43H91.1v-45.43
			c0-3.04-2.13-5.5-4.76-5.5H60.6c-2.94,0-5.33-2.76-5.33-6.16v-26.31H68.5v12.48c0,2.6,1.82,4.71,4.07,4.71h13.76
			c2.63,0,4.76-2.46,4.76-5.5v-43.2c0-14.59,10.24-26.42,22.87-26.42h0c12.63,0,22.87,11.83,22.87,26.42v43.84
			c0,3.04,2.13,5.5,4.76,5.5h6.48c2.93,0,5.3-2.74,5.3-6.12v-5.34H172.11z"/>
		<path class="st6" d="M183.13,127.2H44.81c-4.27,0-7.72-3.46-7.72-7.72v-33.8c0-36.13,29.29-65.42,65.42-65.42h22.94
			c36.13,0,65.42,29.29,65.42,65.42v33.8C190.85,123.74,187.4,127.2,183.13,127.2z"/>
		<path class="st6" d="M80.81,156.71H43.15v-5.79c0-6.9,5.59-12.5,12.5-12.5h12.68c6.9,0,12.5,5.59,12.5,12.5V156.71z"/>
		<path class="st6" d="M184.45,158.39H143.8v-7.24c0-6.9,5.59-12.5,12.5-12.5h15.66c6.9,0,12.5,5.59,12.5,12.5V158.39z"/>
		<path class="st7" d="M116.11,184.49h-3.6c-1.68,0-3.05-1.36-3.05-3.05v-41.01c0-1.68,1.36-3.05,3.05-3.05h3.6
			c1.68,0,3.05,1.36,3.05,3.05v41.01C119.16,183.12,117.79,184.49,116.11,184.49z"/>
		<path class="st7" d="M116.11,226.8h-3.6c-1.68,0-3.05-1.36-3.05-3.05v-31.2c0-1.68,1.36-3.05,3.05-3.05h3.6
			c1.68,0,3.05,1.36,3.05,3.05v31.2C119.16,225.43,117.79,226.8,116.11,226.8z"/>
		<path class="st7" d="M129.62,234.38h-0.74c-1.17,0-2.11-0.94-2.11-2.11v-66.44c0-1.17,0.94-2.11,2.11-2.11h0.74
			c1.17,0,2.11,0.94,2.11,2.11v66.44C131.73,233.44,130.78,234.38,129.62,234.38z"/>
		<path class="st7" d="M129.62,160.12h-0.74c-1.17,0-2.11-0.94-2.11-2.11v-25.16c0-1.17,0.94-2.11,2.11-2.11h0.74
			c1.17,0,2.11,0.94,2.11,2.11v25.16C131.73,159.17,130.78,160.12,129.62,160.12z"/>
		<path class="st7" d="M99.52,166.96h-0.74c-1.17,0-2.11-0.94-2.11-2.11v-25.16c0-1.17,0.94-2.11,2.11-2.11h0.74
			c1.17,0,2.11,0.94,2.11,2.11v25.16C101.63,166.01,100.69,166.96,99.52,166.96z"/>
		<path class="st7" d="M99.52,205.96h-0.74c-1.17,0-2.11-0.94-2.11-2.11V172.6c0-1.17,0.94-2.11,2.11-2.11h0.74
			c1.17,0,2.11,0.94,2.11,2.11v31.25C101.63,205.01,100.69,205.96,99.52,205.96z"/>
		<path class="st8" d="M91.43,61.29c3.62,6.23,2.97,7.92,0.77,12.52c-1.63,3.4-3.93,4.83-6.22,4.77l-0.37-4.78l-3.96,2.71
			c-1.48-1.74-1.82-4.44-0.19-7.83C83.66,64.08,84.31,62.39,91.43,61.29z"/>
		<path class="st8" d="M96.81,55.31c0.65-7.18,2.16-8.18,6.6-10.66c3.29-1.84,6-1.67,7.83-0.3l-2.46,4.12l4.8,0.07
			c0.21,2.28-1.08,4.67-4.37,6.51C104.76,57.52,103.26,58.53,96.81,55.31z"/>
		<path class="st8" d="M96,60.33c7.11-1.15,8.46,0.06,11.97,3.75c2.59,2.73,3.11,5.4,2.24,7.51l-4.6-1.36l1.12,4.67
			c-2.16,0.76-4.79,0.11-7.39-2.62C95.84,68.59,94.49,67.38,96,60.33z"/>
		<path class="st8" d="M88.59,56.85c-3.52-6.29-5.31-6.59-10.38-7.04c-3.75-0.33-6.16,0.92-7.27,2.92l3.93,2.76l-4.35,2.02
			c0.74,2.17,2.89,3.82,6.64,4.16C82.23,62.12,84.01,62.42,88.59,56.85z"/>
		<path class="st8" d="M92.58,53.38c4.37-5.73,3.94-7.49,2.34-12.32c-1.19-3.58-3.29-5.29-5.57-5.51l-0.97,4.7l-3.59-3.19
			c-1.69,1.54-2.36,4.17-1.17,7.75C85.22,49.64,85.65,51.4,92.58,53.38z"/>
		<path class="st8" d="M147.1,75.49c-0.65,4.82-1.7,5.46-4.77,7c-2.27,1.14-4.1,0.95-5.29-0.03l1.78-2.71l-3.24-0.19
			c-0.07-1.55,0.87-3.12,3.14-4.26C141.79,73.76,142.84,73.13,147.1,75.49z"/>
		<path class="st8" d="M152.44,74.52c3.32-3.56,4.54-3.48,7.94-2.96c2.52,0.38,3.9,1.59,4.31,3.08l-3.02,1.18l2.53,2.02
			c-0.83,1.3-2.51,2.05-5.03,1.66C155.78,78.99,154.56,78.91,152.44,74.52z"/>
		<path class="st8" d="M149.94,76.87c4.27,2.33,4.49,3.53,4.84,6.95c0.25,2.53-0.57,4.17-1.92,4.94l-1.89-2.63l-1.33,2.96
			c-1.47-0.48-2.6-1.92-2.86-4.46C146.43,81.21,146.21,80,149.94,76.87z"/>
		<path class="st8" d="M147.41,71.94c0.72-4.81-0.11-5.72-2.63-8.05c-1.87-1.73-3.67-2.06-5.09-1.45l0.96,3.1l-3.16-0.72
			c-0.5,1.46-0.04,3.24,1.83,4.97C141.84,72.12,142.67,73.02,147.41,71.94z"/>
		<path class="st8" d="M150.98,71.74c4.7-1.25,5.2-2.37,6.35-5.61c0.85-2.4,0.43-4.19-0.69-5.25l-2.46,2.11l-0.59-3.19
			c-1.54,0.12-2.99,1.25-3.83,3.65C148.6,66.7,148.1,67.81,150.98,71.74z"/>
		<path class="st8" d="M114.58,104.92c2.66,4.59,2.19,5.84,0.57,9.22c-1.2,2.5-2.89,3.56-4.58,3.51l-0.27-3.52l-2.91,2
			c-1.09-1.28-1.34-3.27-0.14-5.77C108.86,106.98,109.34,105.73,114.58,104.92z"/>
		<path class="st8" d="M118.55,100.52c0.48-5.29,1.59-6.03,4.86-7.85c2.42-1.35,4.42-1.23,5.77-0.22l-1.81,3.03l3.53,0.05
			c0.15,1.68-0.8,3.44-3.22,4.79C124.4,102.15,123.29,102.89,118.55,100.52z"/>
		<path class="st8" d="M117.95,104.22c5.24-0.85,6.23,0.04,8.81,2.76c1.91,2.01,2.29,3.97,1.65,5.53l-3.39-1l0.83,3.44
			c-1.59,0.56-3.53,0.08-5.44-1.93C117.83,110.3,116.84,109.41,117.95,104.22z"/>
		<path class="st8" d="M112.49,101.66c-2.59-4.63-3.91-4.85-7.64-5.19c-2.76-0.25-4.54,0.68-5.36,2.15l2.89,2.03l-3.2,1.49
			c0.55,1.6,2.13,2.82,4.89,3.06C107.81,105.53,109.12,105.76,112.49,101.66z"/>
		<path class="st8" d="M115.43,99.1c3.22-4.22,2.9-5.52,1.72-9.07c-0.87-2.63-2.42-3.89-4.1-4.06l-0.71,3.46l-2.64-2.35
			c-1.25,1.14-1.74,3.07-0.86,5.71C110.01,96.34,110.33,97.64,115.43,99.1z"/>
	</g>
	<path style="clip-path:url(#SVGID_00000121261625852502564670000017782033590436644244_);fill:#9DED8A;" d="M689.85,33.26v200
		h-1100v-200c151.51,100.61,379,164,526,164S551.83,124.91,689.85,33.26z"/>
	
		<circle style="clip-path:url(#SVGID_00000121261625852502564670000017782033590436644244_);fill:none;" cx="124.65" cy="111.99" r="116.27"/>
</g>
</svg>
