<?xml version="1.0" encoding="utf-8"?>
<!-- Generator: Adobe Illustrator 27.5.0, SVG Export Plug-In . SVG Version: 6.00 Build 0)  -->
<svg version="1.1" id="Layer_1" xmlns="http://www.w3.org/2000/svg" xmlns:xlink="http://www.w3.org/1999/xlink" x="0px" y="0px"
	 viewBox="0 0 177 195" style="enable-background:new 0 0 177 195;" xml:space="preserve">
<style type="text/css">
	.st0{fill:#EDDDD1;}
	.st1{fill:#FFF7F0;}
	.st2{fill:#EA847A;}
	.st3{fill:#231F20;}
	.st4{fill:#FFD1CF;}
	.st5{fill:#E5A5A5;}
	.st6{fill:#CC736E;}
	.st7{fill:#FCEDED;}
	.st8{fill:#FF9C97;}
</style>
<g>
	<path class="st0" d="M143.3,142.6c-0.1-0.2-0.2-0.4-0.3-0.6C143.1,142.2,143.2,142.4,143.3,142.6z"/>
	<path class="st0" d="M143.9,144.3c-0.2-0.6-0.4-1.1-0.6-1.7C143.5,143.2,143.7,143.7,143.9,144.3z"/>
	<path class="st0" d="M143,142c-0.2-0.5-0.4-1-0.7-1.5c0.1,0.1,0.1,0.3,0.2,0.4c0.1,0.2,0.2,0.4,0.3,0.7
		C142.9,141.7,143,141.8,143,142z"/>
	<path class="st0" d="M148,147.4c0.1,0,0.3-0.1,0.4-0.1c-0.4,0.1-0.7,0.1-1.1,0.2C147.6,147.5,147.8,147.5,148,147.4z"/>
	<path class="st0" d="M148.8,140.6c0.2,0.4,0.3,0.9,0.5,1.4c-1.4-0.2-4.3-0.9-6.9-1.4l0,0v-0.1c-0.3-0.6-0.6-1.1-0.9-1.6
		c-0.1-0.2-0.3-0.5-0.4-0.7c-0.1-0.2-0.2-0.3-0.3-0.4c-0.2-0.3-0.4-0.6-0.6-0.8c-0.1-0.2-0.2-0.3-0.4-0.4c-0.1-0.2-0.3-0.3-0.4-0.5
		c-0.1-0.1-0.2-0.2-0.2-0.3c-0.1-0.1-0.1-0.2-0.2-0.2c-0.2-0.2-0.3-0.3-0.5-0.5l0,0l0,0c-0.1-0.1-0.3-0.3-0.4-0.4
		c-0.1-0.1-0.2-0.2-0.3-0.3c-0.1-0.1-0.2-0.2-0.3-0.3l-0.1-0.1c-0.1-0.1-0.2-0.2-0.3-0.2c-0.4-0.3-0.9-0.6-1.3-0.9
		c-0.2-0.1-0.3-0.2-0.5-0.3c-0.2-0.1-0.4-0.2-0.6-0.4c-0.1,0-0.2-0.1-0.2-0.1c-0.1,0-0.2-0.1-0.2-0.1c-0.2-0.1-0.5-0.2-0.8-0.4
		c-0.1-0.1-0.3-0.1-0.4-0.2c-0.4-0.2-0.8-0.3-1.2-0.4c-0.1,0-0.3-0.1-0.4-0.1s-0.3-0.1-0.4-0.1H131h-0.1c-0.1,0-0.2,0-0.2-0.1
		c0,0-0.1,0-0.2,0c-0.8-0.2-1.5-0.2-2.3-0.3c-0.2,0-0.4,0-0.6,0c-2.4,0-4.8,0.6-7,1.8l-2.5,1.3l-1.9-2.1c-3.2-3.6-7.4-5.7-11.8-5.8
		c-0.2,0-0.4,0-0.6,0c-3,0-6,1-8.6,2.7l-2.9,1.9l-2-2.8c-2-2.8-5.2-4.4-8.7-4.5c-0.2,0-0.3,0-0.5,0c-2.7,0-5.3,1-7.3,2.8l-2.3,2
		l-2.4-2c-1.9-1.6-4.3-2.6-6.9-2.6c-0.2,0-0.3,0-0.5,0c-6.1,0-11.1,4.9-11.1,10.8c0,0.1,0,0.2,0,0.3l0.2,4.5l-4.5-0.9
		c-0.8-0.1-1.5-0.2-2.3-0.3c-0.2,0-0.4,0-0.6,0c-3.8,0-7.4,1.6-10.1,4.3c-0.2,0.2-0.4,0.4-0.5,0.6c-0.1,0.1-0.3,0.3-0.4,0.5
		c-0.2,0.2-0.4,0.5-0.5,0.7c0,0.1-0.1,0.1-0.1,0.2c-0.1,0.1-0.2,0.3-0.3,0.4c-0.1,0.1-0.2,0.3-0.3,0.4c-0.1,0.1-0.2,0.3-0.3,0.4
		c-0.2,0.3-0.3,0.6-0.4,0.9c-0.1,0.2-0.2,0.4-0.3,0.6c-0.1,0.3-0.2,0.5-0.3,0.8c0,0,0,0,0,0.1c-0.1,0.3-0.2,0.6-0.3,0.9
		c-0.1,0.3-0.1,0.5-0.2,0.8s-0.1,0.6-0.2,0.9c-0.1,0.6-0.1,1.2-0.1,1.9c0,4.8,2.5,9.2,6.5,11.9L36,164c0,0,0,0,0.1,0l0.9,1l-0.3,1.2
		c0,0.1,0,0.1,0,0.2v0.7c0,0.1,0,0.3,0,0.4c0,5.8,4.8,10.5,10.7,10.7c0.2,0,0.3,0,0.5,0c1.3,0,2.7-0.3,3.9-0.7l0.6-0.2
		c0.1,0,0.2-0.1,0.2-0.1l0,0l1.9-0.7l1.1,1.9c0,0,0,0.1,0.1,0.1L56,179c1.8,2.9,4.8,4.7,8.2,4.8c0.1,0,0.3,0,0.4,0
		c2.5,0,4.8-1,6.7-2.6l0.4-0.4c0,0,0,0,0.1-0.1l1.5-1.3l1.8,1.1l0.5,0.3c2.2,1.3,4.8,2.1,7.5,2.2c0.2,0,0.4,0,0.7,0
		c2.3,0,4.5-0.5,6.5-1.5l0.4-0.2l1.6-0.7l1.3,1h0.1l0.4,0.3c1.9,1.5,4.1,2.3,6.5,2.3c0.2,0,0.3,0,0.5,0c1.8,0,3.4-0.4,5-1.2l0.3-0.2
		l0,0l1.2-0.6l1.1,0.5h0.1l0.2,0.3c1.7,0.7,3.5,1.1,5.4,1.2c0.2,0,0.4,0,0.6,0c2.5,0,5-0.7,7.2-1.9l0.4-0.2l0,0l1.4-0.8l1.3,0.8h0.1
		l0.5,0.3c0.5,0.3,1.1,0.6,1.7,0.8c1.2,0.5,2.4,0.7,3.6,0.7c0.2,0,0.4,0,0.5,0c0.3,0,0.5,0,0.8,0c0.1,0,0.3,0,0.4,0
		c0.2,0,0.4,0,0.5-0.1c0.1,0,0.2,0,0.3,0s0.2,0,0.3-0.1c0.3-0.1,0.5-0.1,0.8-0.2c0.1,0,0.1,0,0.2-0.1c0,0,0,0,0.1,0s0.2-0.1,0.3-0.1
		s0.3-0.1,0.4-0.1c0.3-0.1,0.7-0.3,1-0.5c0.3,0.2,0.7,0.4,1.1,0.5c0.2,0.1,0.4,0.2,0.6,0.3s0.4,0.2,0.6,0.2c0.2,0.1,0.3,0.1,0.5,0.2
		s0.4,0.1,0.6,0.2c0.4,0.1,0.8,0.2,1.2,0.3c-2.2,1.4-4.9,2.2-7.8,2.2c-2.5,0-5-0.6-7.1-1.7c-0.6-0.3-1.2-0.3-1.8,0
		c-2.5,1.2-5.2,1.8-8,1.9c-2.3,0-4.5-0.4-6.6-1.2c-0.5-0.2-1.1-0.2-1.6,0c-1.8,0.8-3.7,1.2-5.8,1.2c-3.1,0-6-0.9-8.4-2.5
		c-0.5-0.4-1.2-0.4-1.8-0.2c-2.2,0.9-4.5,1.3-7,1.4c-3.2,0-6.2-0.7-8.8-2c-0.7-0.4-1.5-0.3-2.2,0.2c-2.2,1.7-5,2.7-8.1,2.7
		c-4.5,0-8.4-2.1-11-5.4c-0.5-0.7-1.4-1-2.2-0.8c-1.2,0.3-2.5,0.5-3.8,0.5c-8.1,0.1-14.8-6.3-14.8-14.3c0-0.3,0-0.6,0-0.9
		c-4.8-3.2-8-8.6-8.1-14.9c0-2.3,0.4-4.6,1.2-6.6c2.6-6.7,9-11.4,16.6-11.5c1.2,0,2.5,0.1,3.6,0.3v-0.4c0-2.5,0.6-4.8,1.7-6.8
		c2.5-4.5,7.3-7.6,12.9-7.7c0.9,0,1.8,0.1,2.8,0.2c2.6,0.5,5,1.6,7,3.3c2.6-2.2,6-3.6,9.7-3.6c5,0,9.4,2.4,12.1,6
		c2.2-1.5,4.7-2.5,7.3-3c1.1-0.2,2.2-0.3,3.3-0.3c4.2,0,8.1,1.3,11.4,3.7c1.4,1,2.6,2.1,3.7,3.4c1.3-0.7,2.6-1.2,4-1.5
		c1.5-0.4,3.1-0.6,4.7-0.6c4.8,0,9.3,1.8,12.9,4.8c0.1,0.1,0.2,0.2,0.3,0.3c2.5,2.2,4.5,5,6,8.2C148.3,139.5,148.5,140,148.8,140.6
		C148.7,140.6,148.7,140.6,148.8,140.6z"/>
	<path class="st0" d="M152.6,147.1c-0.6,0-1.3,0-1.9,0C151.3,147,151.9,147,152.6,147.1z"/>
	<path class="st0" d="M152.9,147.1c-0.1,0-0.2,0-0.2,0l0,0c0,0,0,0-0.1,0C152.7,147.1,152.8,147.1,152.9,147.1L152.9,147.1z"/>
	<path class="st1" d="M156.4,156.3c0-3.5-1.4-6.7-3.5-9.2c-0.1,0-0.2,0-0.2,0l0,0c0,0,0,0-0.1,0c0.1,0,0.2,0,0.3,0
		c-0.8-1-1.8-1.8-2.9-2.6c-0.2-0.9-0.4-1.8-0.7-2.6c-1.4-0.2-4.3-0.9-6.9-1.4l0,0c-2-0.4-3.8-0.8-4.9-0.9
		c-29.1-3.2-65.9-7.1-101.1,2.5c-1.9,0.5-3.6,1-5.2,1.4l0,0c-0.1,0.1-0.2,0.3-0.3,0.4c-0.1,0.1-0.2,0.3-0.3,0.4
		c-0.1,0.1-0.2,0.3-0.3,0.4c-0.2,0.3-0.3,0.6-0.4,0.9c-0.1,0.2-0.2,0.4-0.3,0.6c-0.1,0.3-0.2,0.5-0.3,0.8c0,0,0,0,0,0.1
		c-0.1,0.3-0.2,0.6-0.3,0.9c-0.1,0.3-0.2,0.7-0.2,1c0,0.1,0,0.2-0.1,0.3c0,0.1,0,0.3-0.1,0.4c-0.1,0.6-0.1,1.2-0.1,1.9
		c0,4.8,2.5,9.2,6.5,11.9l0.4,0.2c0,0,0,0,0.1,0l1.3,0.9l-0.1,1.4c0,0.1,0,0.1,0,0.2v0.7c0,0.1,0,0.3,0,0.4
		c0,5.8,4.8,10.5,10.7,10.7c0.2,0,0.3,0,0.5,0c1.3,0,2.7-0.3,3.9-0.7l0.6-0.2c0.1,0,0.2-0.1,0.2-0.1l0,0l1.9-0.7l1.1,1.9
		c0,0,0,0.1,0.1,0.1l0.3,0.5c1.8,2.9,4.8,4.7,8.2,4.8c0.1,0,0.3,0,0.4,0c2.5,0,4.8-1,6.7-2.6l0.4-0.4c0,0,0,0,0.1-0.1l1.5-1.3
		l1.8,1.1l0.5,0.3c2.2,1.3,4.8,2.1,7.5,2.2c0.2,0,0.4,0,0.7,0c2.3,0,4.5-0.5,6.5-1.5l0.4-0.2l1.6-0.7l1.3,1h0.1l0.4,0.3
		c1.9,1.5,4.1,2.3,6.5,2.3c0.2,0,0.3,0,0.5,0c1.8,0,3.4-0.4,5-1.2l0.3-0.2l0,0l1.2-0.6l1.1,0.5h0.1l0.2,0.5c1.7,0.7,3.5,1.1,5.4,1.2
		c0.2,0,0.4,0,0.6,0c2.5,0,5-0.7,7.2-1.9l0.4-0.2l0,0l1.4-0.8l1.3,0.8h0.1l0.5,0.3c0.5,0.3,1.1,0.6,1.7,0.9c1.2,0.5,2.4,0.7,3.6,0.7
		c0.2,0,0.4,0,0.5,0c0.5,0,1,0,1.5-0.1c0.1,0,0.2,0,0.3,0s0.2,0,0.3,0s0.2,0,0.3-0.1c0.3-0.1,0.5-0.1,0.8-0.2c0.1,0,0.2,0,0.2-0.1
		c0,0,0,0,0.1,0s0.2-0.1,0.3-0.1s0.3-0.1,0.4-0.1c0.3-0.1,0.7-0.3,1-0.5c0.3,0.2,0.7,0.4,1.1,0.5c0.2,0.1,0.4,0.2,0.6,0.3
		s0.4,0.2,0.6,0.2c0.2,0.1,0.3,0.1,0.5,0.2c0.2,0.1,0.4,0.1,0.6,0.2c0.4,0.1,0.8,0.2,1.2,0.3c4.1-2.6,6.9-7.1,6.8-12.3
		c0-1-0.1-2-0.3-2.9C153.2,166.9,156.5,162,156.4,156.3z M143,142c0.1,0.2,0.2,0.4,0.3,0.6C143.2,142.4,143.1,142.2,143,142z
		 M152.6,147.1c-0.6,0-1.3,0-1.9,0C151.3,147,151.9,147,152.6,147.1z"/>
	<path class="st1" d="M28.8,148.9c0.1-0.6,0.2-1.2,0.4-1.7c-0.1,0.3-0.2,0.6-0.3,0.9C28.9,148.4,28.9,148.6,28.8,148.9z"/>
	<path class="st1" d="M28.8,149.1c0-0.1,0-0.1,0-0.2c-0.1,0.3-0.1,0.6-0.2,0.9c0-0.1,0-0.3,0.1-0.4
		C28.8,149.3,28.8,149.2,28.8,149.1z"/>
	<path class="st1" d="M35.5,163.9l1.3,0.9l-0.1,1.4C36.7,165.2,36.2,164.4,35.5,163.9l-0.5-0.3L35.5,163.9
		C35.4,163.9,35.4,163.9,35.5,163.9z"/>
	<path class="st1" d="M54.5,176.4l1.1,1.9c-0.7-1-1.9-1.5-3.1-1.1l0,0L54.5,176.4z"/>
	<path class="st1" d="M73.4,179.4l1.8,1.1c-1-0.6-2.3-0.5-3.2,0.3L73.4,179.4z"/>
	<path class="st1" d="M92.3,180.5l1.3,1c-0.8-0.6-1.9-0.7-2.8-0.3L92.3,180.5z"/>
	<path class="st1" d="M93.7,181.6l0.4,0.3L93.7,181.6C93.6,181.6,93.6,181.6,93.7,181.6C93.6,181.6,93.6,181.6,93.7,181.6z"/>
	<path class="st1" d="M107.5,182.3l1.1,0.5c-0.7-0.3-1.5-0.2-2.2,0.1L107.5,182.3z"/>
	<path class="st1" d="M122.7,182L122.7,182L122.7,182l-0.4,0.2L122.7,182z"/>
	<path class="st1" d="M124.1,181.2l1.3,0.8c-0.8-0.5-1.8-0.5-2.7,0L124.1,181.2z"/>
	<path class="st1" d="M131.9,184c0.3,0,0.5,0,0.8,0C132.5,184,132.2,184,131.9,184z"/>
	<path class="st1" d="M133.1,183.9c0.2,0,0.4,0,0.5-0.1c-0.1,0-0.2,0-0.3,0C133.3,183.9,133.2,183.9,133.1,183.9z"/>
	<path class="st1" d="M132.7,184c0.1,0,0.3,0,0.4,0C133,184,132.9,184,132.7,184z"/>
	<path class="st1" d="M137.1,182.8c0.3,0.2,0.7,0.4,1.1,0.5c-0.7-0.3-1.4-0.3-2.1,0c-0.2,0.1-0.5,0.2-0.8,0.3c0,0,0,0,0.1,0
		s0.2-0.1,0.3-0.1s0.3-0.1,0.4-0.1C136.4,183.1,136.8,182.9,137.1,182.8z"/>
	<path class="st1" d="M137.5,139.5c-29.1-3.2-65.9-7.1-101.1,2.5c-1.9,0.5-3.6,1-5.2,1.4c0-0.1,0.1-0.1,0.1-0.2
		c0.2-0.2,0.3-0.5,0.5-0.7c0.1-0.2,0.3-0.3,0.4-0.5c0.2-0.2,0.4-0.4,0.5-0.6c2.7-2.7,6.3-4.3,10.1-4.3c0.2,0,0.4,0,0.6,0
		c0.8,0,1.5,0.1,2.3,0.3l4.5,0.9l-0.2-4.4c0-0.1,0-0.2,0-0.3c0-5.9,4.9-10.8,11.1-10.8c0.2,0,0.3,0,0.5,0c2.6,0.1,4.9,1,6.9,2.6
		l2.4,2l2.3-2c2-1.8,4.6-2.8,7.3-2.8c0.2,0,0.3,0,0.5,0c3.5,0.1,6.7,1.8,8.7,4.5l2,2.8l2.9-1.9c2.6-1.8,5.6-2.7,8.6-2.7
		c0.2,0,0.4,0,0.6,0c4.4,0.1,8.5,2.2,11.8,5.8l1.9,2.1l2.5-1.3c2.2-1.2,4.6-1.8,7-1.8c0.2,0,0.4,0,0.6,0c0.8,0,1.5,0.1,2.3,0.3
		c0.1,0,0.3,0,0.4,0.1c0,0,0,0,0.1,0c0.2,0,0.4,0.1,0.6,0.2c0.2,0,0.3,0.1,0.4,0.1c0.6,0.2,1.1,0.4,1.7,0.6c0.3,0.1,0.5,0.2,0.8,0.4
		c0.1,0,0.2,0.1,0.2,0.1c0.1,0,0.2,0.1,0.2,0.1c0.2,0.1,0.4,0.2,0.6,0.4c0.2,0.1,0.3,0.2,0.5,0.3c0.5,0.3,0.9,0.6,1.3,0.9
		c0.1,0.1,0.2,0.2,0.3,0.2l0.1,0.1c0.1,0.1,0.2,0.2,0.3,0.3c0.1,0.1,0.2,0.2,0.3,0.3c0.2,0.1,0.3,0.3,0.4,0.4l0,0
		c0.2,0.2,0.3,0.3,0.5,0.5s0.3,0.3,0.5,0.5s0.3,0.3,0.4,0.5l0.1,0.1c0.1,0.1,0.2,0.2,0.2,0.3c0.2,0.3,0.4,0.5,0.6,0.8
		c0.1,0.1,0.2,0.3,0.3,0.4c0.2,0.2,0.3,0.4,0.4,0.7c0.1,0.1,0.1,0.2,0.1,0.2c0.2,0.3,0.3,0.6,0.5,0.9c0.1,0.2,0.2,0.3,0.3,0.5v0.1
		C140.4,140,138.5,139.7,137.5,139.5z"/>
	<path class="st1" d="M143.3,142.6c-0.1-0.2-0.2-0.4-0.3-0.6C143.1,142.2,143.2,142.4,143.3,142.6z"/>
	<path class="st1" d="M143.9,144.3c-0.2-0.6-0.4-1.1-0.6-1.7C143.5,143.2,143.7,143.7,143.9,144.3z"/>
	<path class="st1" d="M142.8,141.6c0.1,0.1,0.1,0.3,0.2,0.4c-0.2-0.5-0.4-1-0.7-1.5c0.1,0.1,0.1,0.3,0.2,0.4
		C142.7,141.1,142.8,141.4,142.8,141.6z"/>
	<path class="st1" d="M148,147.4c0.1,0,0.3-0.1,0.4-0.1c-0.4,0.1-0.7,0.1-1.1,0.2C147.6,147.5,147.8,147.5,148,147.4z"/>
	<path class="st1" d="M152.6,147.1c-0.6,0-1.3,0-1.9,0C151.3,147,151.9,147,152.6,147.1z"/>
	<path class="st1" d="M152.9,147.1c-0.1,0-0.2,0-0.2,0l0,0c0,0,0,0-0.1,0C152.7,147.1,152.8,147.1,152.9,147.1L152.9,147.1z"/>
	<path class="st0" d="M149.4,142c-0.1,0-0.1,0-0.2,0c-1.4-0.2-4.3-0.9-6.9-1.4l0,0c-2-0.4-3.8-0.8-4.9-0.9
		c-29.1-3.2-65.9-7.1-101.1,2.5c-1.9,0.5-3.6,1-5.2,1.4l0,0c-1,0.3-2,0.5-2.9,0.7c2.6-6.7,9-11.4,16.6-11.5c1.2,0,2.5,0.1,3.6,0.3
		v-0.4c0-2.5,0.6-4.8,1.7-6.8c5.8-2.8,11.4-5.4,15.7-7.4c2.6,0.5,5,1.6,7,3.3c2.6-2.2,6-3.6,9.7-3.6c5,0,9.4,2.4,12.1,6
		c2.2-1.5,4.7-2.5,7.3-3c4.6,1.1,9.6,2.2,14.6,3.4c2.5,0.6,5.1,1.2,7.7,1.8c5.9,1.4,11.8,2.8,17.5,4.2c0.1,0.1,0.2,0.2,0.3,0.3
		c2.2,2.1,5,6.6,6.7,9.8l0,0C149,141.1,149.2,141.5,149.4,142z"/>
</g>
<path class="st1" d="M45.6,143.8C45.6,143.8,45.7,143.8,45.6,143.8C45.7,143.8,45.7,143.8,45.6,143.8L45.6,143.8L45.6,143.8z"/>
<g>
	<g>
		<path class="st2" d="M173.5,128.5c0,2.1-0.6,3.9-1.8,5.3c-0.7,0.9-1.7,1.7-2.9,2.3c-1.6,0.8-3.5,1.5-5.7,1.9c-5,1-11.5,1-18.9,0.6
			c-0.5-0.9-1-1.8-1.5-2.8c-1.9-3.2-4.2-6.2-6.7-9c-2-0.4-4.1-0.7-6.2-1c2.9,2.8,5.6,5.8,7.8,9.1c0.7,1.1,1.4,2.2,2.1,3.3
			c-7.4-0.5-15.4-1.4-23.6-2.2c-2.4-4.1-5.3-7.9-8.2-11.5c-1.6,0-3.1,0-4.7,0c3,3.5,5.8,7.2,8.2,11c-7.2-0.6-14.4-1.2-21.2-1.2
			c-2-3-4.2-5.9-6.7-8.6c-1.7,0.1-3.3,0.3-5,0.5c2.4,2.6,4.7,5.3,6.8,8.2c-0.3,0-0.7,0-1,0c-5.7,0.1-11.7,0.6-17.5,1.2
			c-1.7-2.5-3.5-4.9-5.6-7.1c-1.6,0.2-3.1,0.5-4.6,0.7c2.1,2.1,4.1,4.3,5.9,6.8c-5.3,0.6-10.6,1.2-15.7,1.7c-2-2.1-4.4-3.9-6.9-5.4
			c-2.8,0.6-5.4,1.2-8,1.8c0.1,0,0.3,0.1,0.4,0.2c0.3,0.1,0.7,0.3,1,0.4l0,0l0,0h0.1c0.1,0.1,0.3,0.1,0.4,0.2c0.7,0.3,1.3,0.6,2,1
			c1.3,0.7,2.6,1.4,3.8,2.3c0.1,0.1,0.3,0.2,0.5,0.3c-10.3,1-19.4,1.5-26,0.3c-6.5-1.2-10.6-4.2-10.6-10.3c0-1.3,0.2-2.6,0.5-3.8
			c0.4-1.6,1-3.2,1.9-4.7c1.3-2.3,3.1-4.5,5.4-6.6c3.3-3,7.5-5.8,12.6-8.3c1,0.8,1.9,1.7,3,2.4c1.4-0.5,2.9-1,4.4-1.4
			c-0.7-0.5-1.4-1-2.1-1.6c-0.5-0.4-1-0.8-1.5-1.2c5.2-2.3,11.1-4.2,17.6-5.8c1.3,1.2,2.6,2.3,3.9,3.5c1.6-0.4,3.2-0.8,4.8-1.2
			c-1.3-1.1-2.6-2.2-3.9-3.4c6.8-1.5,14.1-2.6,21.7-3.2c0.5,0.5,0.9,0.9,1.4,1.4c0.2,0.2,0.5,0.5,0.7,0.7c1.5-0.3,3-0.6,4.5-0.9
			c-0.1-0.1-0.2-0.2-0.2-0.2c-0.5-0.4-0.9-0.9-1.4-1.3c3.8-0.2,7.7-0.3,11.7-0.3h0.1c1.4,0,2.9,0,4.3,0s2.8,0.1,4.1,0.1
			c9.4,0.4,18.3,1.4,26.5,3c1.5,0.3,3,0.6,4.5,0.9C155,102.6,173.5,114.7,173.5,128.5z"/>
		<path class="st3" d="M45.7,143.8L45.7,143.8C45.6,143.8,45.6,143.8,45.7,143.8C45.6,143.8,45.6,143.8,45.7,143.8
			C45.6,143.8,45.7,143.8,45.7,143.8z"/>
		<path class="st4" d="M171.7,133.8c-0.7,0.9-1.7,1.7-2.9,2.3c-7.4-9.5-18.7-14.5-28.5-21.1c-5-3.4-9.7-7.3-13.2-12.4
			c-1.5-2.2-2.8-4.6-3.7-7c1.5,0.3,3,0.6,4.5,0.9c1.1,2.3,2.5,4.5,4.1,6.4c7.7,9.1,19.2,13.7,28.8,20.7
			C164.9,126.6,168.7,129.9,171.7,133.8z"/>
		<path class="st4" d="M40.1,132.4c-2.8,0.6-5.4,1.2-8,1.8c-5.2-1.9-10.6-3-15.9-4.5c-4.3-1.2-8.5-2.7-12.2-5c0.4-1.6,1-3.2,1.9-4.7
			l0.1,0.1c1.1,0.8,2.4,1.4,3.6,2c0.3,0.1,0.6,0.3,0.9,0.4c0,0,0.1,0,0.1,0.1l0,0l0,0l0,0c0,0,0,0,0.1,0l0,0c0.1,0,0.1,0,0.2,0.1
			c0.6,0.3,1.3,0.5,1.9,0.7c2.6,0.9,5.3,1.6,7.9,2.3c5.7,1.4,11.5,2.8,16.8,5.4C38.5,131.6,39.3,132,40.1,132.4z"/>
		<path class="st4" d="M61.4,128.5c-1.6,0.2-3.1,0.5-4.6,0.7c-5.4-5.3-11.7-9.6-18.1-13.7c-3.9-2.5-8.1-5.1-11.9-8.1
			c1.4-0.5,2.9-1,4.4-1.4c4,2.9,8.4,5.6,12.5,8.3c5.5,3.6,10.8,7.4,15.5,12C60,127.1,60.7,127.8,61.4,128.5z"/>
		<path class="st4" d="M108,124.6c-1.6,0-3.1,0-4.7,0c-5-5.8-10.5-11.2-15.9-16.5c-4.5-4.3-9-8.5-13.5-12.9c1.5-0.3,3-0.6,4.5-0.9
			c9.9,9.6,20.3,18.8,29.1,29.5C107.6,124.1,107.8,124.4,108,124.6z"/>
		<path class="st4" d="M83.6,125.8c-1.7,0.1-3.3,0.3-5,0.5c-4.5-4.7-9.5-9-14.5-13.1c-5-4.1-10.2-8-15.1-12.2
			c1.6-0.4,3.2-0.8,4.8-1.2c0.3,0.2,0.6,0.5,0.8,0.7c9.8,8.1,20.2,15.6,28.7,25.2C83.5,125.7,83.6,125.8,83.6,125.8z"/>
		<path class="st4" d="M136.1,126.9c-2-0.4-4.1-0.7-6.2-1c-1.9-1.8-3.9-3.5-6-5.1c-4.7-3.6-9.8-6.8-14.7-10.2
			c-4.5-3.1-8.9-6.5-12.3-10.8c-1.8-2.3-3.2-4.7-4.2-7.3c1.4,0,2.8,0.1,4.1,0.1c1.2,2.5,2.8,4.8,4.7,6.8c3.8,4,8,6.9,12.6,9.9
			c5.2,3.5,10.4,6.9,15.2,11C131.8,122.4,134,124.6,136.1,126.9z"/>
	</g>
	<path class="st5" d="M47,137.8c-2.3,0.2-4.5,0.5-6.7,0.7l0,0c-0.2-0.1-0.3-0.2-0.5-0.3c-1.2-0.9-2.5-1.6-3.8-2.3
		c-0.7-0.3-1.3-0.6-2-1c-0.1,0-0.3-0.1-0.4-0.2h-0.1l0,0l0,0c-0.3-0.1-0.7-0.3-1-0.4c-0.2-0.1-0.3-0.1-0.4-0.2
		c2.5-0.6,5.2-1.2,8-1.8C42.6,133.9,44.9,135.7,47,137.8z"/>
	<path class="st6" d="M39.8,138.2c0.1,0.1,0.3,0.2,0.5,0.3c-10.3,1-19.4,1.5-26,0.3c4.9-1.5,11-3.1,17.8-4.7c0.1,0,0.3,0.1,0.4,0.2
		c0.3,0.1,0.7,0.3,1,0.4l0,0l0,0h0.1c0.1,0.1,0.3,0.1,0.4,0.2c0.7,0.3,1.3,0.6,2,1C37.4,136.6,38.6,137.3,39.8,138.2z"/>
	<path class="st5" d="M67,135.7c-1.4,0.1-2.8,0.3-4.3,0.4c-1.8-2.4-3.8-4.7-5.9-6.8c1.5-0.2,3.1-0.5,4.6-0.7
		C63.4,130.8,65.3,133.1,67,135.7z"/>
	<path class="st6" d="M56.8,129.3c2.2,2.1,4.2,4.3,6,6.8c-5.3,0.6-10.6,1.2-15.7,1.8c-2.1-2.1-4.4-3.9-6.9-5.4
		C45.3,131.3,50.9,130.3,56.8,129.3z"/>
	<path class="st5" d="M90.3,134.5c-1.6,0-3.2,0-4.8,0c-2.1-2.9-4.4-5.6-6.8-8.2c1.7-0.2,3.3-0.3,5-0.5
		C86.1,128.5,88.3,131.4,90.3,134.5z"/>
	<path class="st6" d="M78.7,126.3c2.4,2.6,4.7,5.3,6.8,8.2c-0.3,0-0.7,0-1,0c-5.7,0.1-11.7,0.6-17.5,1.2c-1.7-2.5-3.5-4.9-5.6-7.1
		C67,127.7,72.8,126.9,78.7,126.3z"/>
	<path class="st5" d="M116.2,136.1c-1.6-0.1-3.1-0.3-4.7-0.4c-2.5-3.9-5.2-7.5-8.2-11c1.6,0,3.2,0,4.7,0
		C111,128.2,113.8,132.1,116.2,136.1z"/>
	<path class="st6" d="M103.3,124.7c3,3.5,5.8,7.2,8.2,11c-7.2-0.6-14.4-1.2-21.2-1.2c-2-3-4.2-5.9-6.7-8.6
		C90.2,125.2,96.8,124.8,103.3,124.7z"/>
	<path class="st5" d="M144.3,138.7c-1.4-0.1-2.9-0.2-4.5-0.3c-0.7-1.1-1.3-2.2-2.1-3.3c-2.3-3.3-4.9-6.4-7.8-9.1
		c2.1,0.3,4.2,0.6,6.2,1c2.5,2.8,4.8,5.8,6.7,9C143.3,136.8,143.8,137.7,144.3,138.7z"/>
	<path class="st6" d="M137.8,135c0.7,1.1,1.4,2.2,2.1,3.3c-7.4-0.5-15.4-1.4-23.6-2.2c-2.4-4.1-5.3-7.9-8.2-11.5
		c7.6,0,15,0.4,21.9,1.3C132.8,128.7,135.5,131.7,137.8,135z"/>
	<path class="st6" d="M163.2,138c-5,1-11.5,1-18.9,0.6c-0.5-0.9-1-1.8-1.5-2.8c-1.9-3.2-4.2-6.2-6.7-9
		C147,128.9,156.5,132.5,163.2,138z"/>
	<path class="st7" d="M31.2,106.1c-1.5,0.5-3,0.9-4.4,1.4c-1-0.8-2-1.6-3-2.4c1.2-0.6,2.5-1.2,3.8-1.8c0.5,0.4,1,0.8,1.5,1.2
		C29.8,105.1,30.5,105.6,31.2,106.1z"/>
	<path class="st8" d="M23.9,105.1c1,0.8,1.9,1.7,3,2.4c-5.5,1.8-10.7,3.8-15.5,5.9C14.6,110.4,18.8,107.6,23.9,105.1z"/>
	<path class="st7" d="M54,99.8c-1.6,0.4-3.2,0.8-4.8,1.2c-1.3-1.1-2.6-2.3-3.9-3.5c1.6-0.4,3.2-0.8,4.8-1.1
		C51.3,97.5,52.7,98.7,54,99.8z"/>
	<path class="st8" d="M45.2,97.5c1.3,1.2,2.6,2.3,3.9,3.5c-6.1,1.6-12.1,3.3-17.9,5.1c-0.7-0.5-1.4-1-2.1-1.6
		c-0.5-0.4-1-0.8-1.5-1.2C32.9,101.1,38.8,99.1,45.2,97.5z"/>
	<path class="st7" d="M78.4,94.4c-1.5,0.3-3,0.6-4.5,0.9c-0.2-0.2-0.5-0.5-0.7-0.7c-0.5-0.5-1-1-1.4-1.4c1.6-0.1,3.3-0.3,5-0.4
		c0.5,0.5,0.9,0.9,1.4,1.3C78.2,94.2,78.3,94.3,78.4,94.4z"/>
	<path class="st8" d="M73.2,94.6c0.2,0.2,0.5,0.5,0.7,0.7c-6.5,1.3-13.2,2.8-19.9,4.5c-1.3-1.1-2.6-2.2-3.9-3.4
		c6.8-1.5,14.1-2.6,21.7-3.2C72.3,93.7,72.7,94.1,73.2,94.6z"/>
	<path class="st8" d="M88.4,92.5c-3.2,0.6-6.6,1.2-10,1.9c-0.1-0.1-0.2-0.2-0.2-0.2c-0.5-0.4-0.9-0.9-1.4-1.3
		C80.6,92.6,84.5,92.5,88.4,92.5z"/>
</g>
<ellipse transform="matrix(0.9996 -2.789412e-02 2.789412e-02 0.9996 -4.4122 1.7076)" class="st1" cx="59" cy="159" rx="2" ry="4"/>
<ellipse transform="matrix(0.5 -0.866 0.866 0.5 -99.1046 153.357)" class="st0" cx="83.3" cy="162.5" rx="2.5" ry="1.2"/>
<ellipse transform="matrix(0.9989 -4.766846e-02 4.766846e-02 0.9989 -8.2192 5.5524)" class="st0" cx="112.3" cy="175.1" rx="1.9" ry="1.1"/>
<ellipse transform="matrix(0.9989 -4.766846e-02 4.766846e-02 0.9989 -8.2419 4.599)" class="st0" cx="92.3" cy="175.1" rx="1.9" ry="1.1"/>
<ellipse transform="matrix(0.9626 -0.271 0.271 0.9626 -37.9973 44.0178)" class="st0" cx="140.4" cy="159.6" rx="1.3" ry="2.4"/>
<ellipse transform="matrix(0.614 -0.7893 0.7893 0.614 -102.3542 110.6945)" class="st0" cx="62" cy="160" rx="2" ry="4"/>
<ellipse transform="matrix(0.9124 -0.4092 0.4092 0.9124 -64.6499 33.4798)" class="st0" cx="45.9" cy="167.8" rx="1.2" ry="2.4"/>
<ellipse transform="matrix(0.6628 -0.7488 0.7488 0.6628 -84.6527 160.9968)" class="st0" cx="136.4" cy="174.5" rx="2.6" ry="1.3"/>
<ellipse transform="matrix(0.9699 -0.2434 0.2434 0.9699 -36.9362 34.4894)" class="st0" cx="121.1" cy="166.7" rx="0.7" ry="1.4"/>
<ellipse transform="matrix(0.992 -0.1259 0.1259 0.992 -19.6375 17.7111)" class="st0" cx="130.3" cy="164.2" rx="1" ry="1.9"/>
</svg>
