<?xml version="1.0" encoding="utf-8"?>
<!-- Generator: Adobe Illustrator 27.4.1, SVG Export Plug-In . SVG Version: 6.00 Build 0)  -->
<svg version="1.1" id="Layer_1" xmlns="http://www.w3.org/2000/svg" xmlns:xlink="http://www.w3.org/1999/xlink" x="0px" y="0px"
	 viewBox="0 0 172 231" style="enable-background:new 0 0 172 231;" xml:space="preserve">
<style type="text/css">
	.st0{fill:#D4F0F9;}
	.st1{fill:#8AE9FF;}
	.st2{fill:#EBFBFF;}
	.st3{fill:#DCF8FF;}
	.st4{fill:#6FDAF7;}
	.st5{fill:#7ACCF4;}
	.st6{fill:#CFF8FF;}
	.st7{fill:#FCFCFC;}
</style>
<path class="st0" d="M95.5,58.2c-0.3,0-0.5,0-0.8,0c-1,0-2,0.1-2.9,0.1c-2.7,0.1-5.3,0.1-8.1,0.1s-5.4,0-8.1-0.1
	C38,57.3,7.9,48.4,3.8,37.1l19,169.4c0,0,1.7,1.7,5.3,4.1c8.4,5.6,27,14.9,58.4,14.9c27.9,0,43.6-7.3,51.5-12.9
	c4.8-3.4,6.7-6.1,6.7-6.1l19-169.4C159.8,48,131.5,56.7,95.5,58.2z M142.3,132.1L142.3,132.1l-7.9,69.6c0,0-0.1,0.1-0.1,0.1
	c-4.5,3.9-18.1,12.9-47.7,12.9c-30.8,0-47.4-9.4-53.5-13.8l0-0.2l-7.5-67.9c0,0,0.1-0.3,0.1-0.3c2.5-8.2,8.5-14.1,12.9-14.1
	c3.1,0,6.4,4.7,9.6,9.3c1-0.5,2-1,3.1-1.4c0.2-0.1,0.5-0.2,0.7-0.2c0.2-0.1,0.5-0.1,0.7-0.2c0.3-0.1,0.6-0.1,0.9-0.2
	c0.7-0.1,1.4-0.2,2.2-0.3c0.3,0,0.6,0,0.9,0c1,0,2,0.1,2.9,0.4c0.1,0,0.3,0.1,0.4,0.1c0.1,0,0.2,0.1,0.3,0.1c0,0,0.1,0,0.1,0
	c0.1,0,0.3,0.1,0.4,0.1c0.2,0.1,0.4,0.1,0.5,0.2c0.5,0.2,0.9,0.4,1.3,0.7c0.2,0.1,0.3,0.2,0.5,0.3c0.2,0.1,0.4,0.2,0.6,0.4
	c0.2,0.1,0.4,0.3,0.6,0.5c0.2,0.1,0.3,0.2,0.5,0.4c0.1,0.1,0.2,0.2,0.3,0.2c0.2,0.2,0.4,0.3,0.6,0.5c0.2,0.2,0.5,0.4,0.7,0.7
	c5-7.1,9.3-17.5,23.3-17.5c7.2,0,9,14.1,16,21.5c0.2-0.1,0.3-0.3,0.5-0.4c0.2-0.2,0.5-0.4,0.8-0.6c0.2-0.2,0.5-0.4,0.8-0.5
	c0.2-0.2,0.5-0.3,0.8-0.5c0.3-0.2,0.5-0.3,0.8-0.5c0.7-0.4,1.4-0.7,2.1-1c0.2-0.1,0.4-0.2,0.6-0.2c0.6-0.2,1.2-0.4,1.8-0.5
	c0.3-0.1,0.5-0.1,0.8-0.1c0.3,0,0.7-0.1,1-0.1c0.4,0,0.7,0,1.1,0c0.3,0,0.5,0,0.8,0c0.2,0,0.4,0,0.5,0c0.1,0,0.3,0,0.4,0
	c0.2,0,0.3,0,0.5,0.1c0.1,0,0.3,0,0.4,0.1c0.6,0.1,1.1,0.2,1.6,0.4c0.1,0,0.2,0.1,0.4,0.1c0.6,0.2,1.1,0.5,1.7,0.7
	c0.2,0.1,0.4,0.2,0.7,0.4c0.3,0.2,0.6,0.3,0.8,0.5c5.7-7.4,11-16.5,17.7-0.9C142.5,132.5,142.3,132.1,142.3,132.1z"/>
<path class="st1" d="M87,82c-0.2,0-0.5,0-0.8,0c0.6,0,1.2,0,1.8,0C87.7,82,87.4,82,87,82z"/>
<path class="st1" d="M146.5,97c-4.4-6.1-9.1-7.5-13.5-5.4c-2.1,1-4.1,2.8-6,5.3c-6,8-17,5-20,1c-6.1-8.1-11.7-15.3-18.9-15.9
	c-0.6,0-1.2,0-1.8,0h-0.1c-3.7,0.2-7.1,1.6-10.3,3.7C71.7,88.4,68,92.3,64.8,96c-7.8,9-16.3,2.2-19.6-2.2c-1.5-2-3-3.6-4.5-4.7
	C38.8,87.7,36.9,87,35,87c-2.1,0-4.6,0.7-7,2.1l6.4,51.9c0.1,1.1-0.7,2.1-1.7,2.2c-1.1,0.1-2.1-0.6-2.2-1.7l-6.1-49.3
	c-1.4,1.7-2.6,3.7-3.5,6.3c0,0.1-0.1,0.2-0.1,0.3l0.7,5.8l1.1,9.2c0,0,0,0,0,0L33,200.8l0,0.2c6,4.3,22.7,13.8,53.5,13.8
	c29.7,0,43.3-9,47.7-12.9c0,0,0.1-0.1,0.1-0.1l10.7-87.2l1.3-10.4l0.7-6C146.9,97.8,146.8,97.3,146.5,97z M38.7,188.3
	c-1.1,0.1-2.1-0.6-2.2-1.7l-4.3-35.3c-0.1-1.1,0.7-2.1,1.8-2.2c0.1,0,0.2,0,0.2,0c1,0,1.8,0.8,2,1.8l4.3,35.3
	C40.6,187.1,39.8,188.1,38.7,188.3z"/>
<path class="st2" d="M164.1,34c0,0.3,0,0.5,0,0.8l0,0.2c-0.1-0.9-0.4-1.7-0.9-2.5c-6.4-11.4-39.5-20-79.4-20s-73,8.6-79.4,20
	C4,33.2,3.7,34,3.5,34.7l-0.1-0.8c0-0.3,0-0.6,0-1c0.2-0.8,0.5-1.6,1-2.5c6.4-11.4,39.5-20,79.4-20s73,8.6,79.4,20
	C163.7,31.6,164.1,32.8,164.1,34z"/>
<path class="st3" d="M164,35C164,35,164,35,164,35c-0.2,2.2-1.1,4.3-2.6,5.9c-8.4,9-34.1,16-65.8,17.3c-0.3,0-0.5,0-0.8,0
	c-1,0-2,0.1-2.9,0.1c-2.7,0.1-5.3,0.1-8.1,0.1s-5.4,0-8.1-0.1c-35.6-1.1-64.4-9-71-19.4c-0.6-0.9-1-2-1.1-3.1l-0.1-1.2
	C3.7,34,4,33.2,4.4,32.5c6.4-11.4,39.5-20,79.4-20s73,8.6,79.4,20C163.6,33.3,163.9,34.1,164,35z"/>
<path class="st3" d="M164,35C164,35,164,35,164,35c-0.2,2.2-1.1,4.3-2.6,5.9c-8.4,9-34.1,16-65.8,17.3c-0.3,0-0.5,0-0.8,0
	c-1,0-2,0.1-2.9,0.1c-2.7,0.1-5.3,0.1-8.1,0.1s-5.4,0-8.1-0.1c-35.6-1.1-64.4-9-71-19.4c-0.6-0.9-1-2-1.1-3.1l-0.1-1.2
	C3.7,34,4,33.2,4.4,32.5c6.4-11.4,39.5-20,79.4-20s73,8.6,79.4,20C163.6,33.3,163.9,34.1,164,35z"/>
<path class="st4" d="M134.2,201.8c-4.5,3.9-18.1,12.9-47.7,12.9c-30.8,0-47.4-9.4-53.5-13.8l0-0.2c8.7-8.6,28-12.3,51-12.3
	C107.9,188.5,126.6,192.5,134.2,201.8z"/>
<path class="st5" d="M75.9,85.7C71.7,88.4,68,92.3,64.8,96c-7.8,9-16.3,2.2-19.6-2.2c-1.5-2-3-3.6-4.5-4.7C47,87,50,78,64,85
	C67.6,86.8,72,86.5,75.9,85.7z"/>
<path class="st5" d="M133,91.7c-2.1,1-4.1,2.8-6,5.3c-6,8-16.7,5.8-20,2c-7-8-8-12-15-16c9.1,0.2,13.7,11.7,23,4
	C121,82,126,87,133,91.7z"/>
<path class="st6" d="M32.7,143.3c-1.1,0.1-2.1-0.6-2.2-1.7l-6.1-49.3c1.1-1.3,2.4-2.3,3.6-3.1l6.4,51.9
	C34.6,142.1,33.8,143.1,32.7,143.3z"/>
<path class="st7" d="M28,89.1c-1.3,0.8-2.5,1.8-3.6,3.1l-2.9-23.6c-0.1-1.1,0.6-2.1,1.7-2.2c0.1,0,0.2,0,0.2,0c1,0,1.8,0.8,2,1.8
	L28,89.1z"/>
<path class="st6" d="M38.7,188.3c-1.1,0.1-2.1-0.6-2.2-1.7l-4.3-35.3c-0.1-1.1,0.7-2.1,1.8-2.2c0.1,0,0.2,0,0.2,0c1,0,1.8,0.8,2,1.8
	l4.3,35.3C40.6,187.1,39.8,188.1,38.7,188.3z"/>
</svg>
